<svg xmlns="http://www.w3.org/2000/svg" width="220" height="220" viewBox="0 0 220 220">
    <polygon fill="#f3c565" points="55.4 95.3 90 95.3 90 100.3 55.4 100.3 55.4 106.6 90 106.6 90 111.6 55.4 111.6 55.4 117.9 90 117.9 90 122.9 55.4 122.9 55.4 129.2 90 129.2 90 134.2 55.4 134.2 55.4 140.5 90 140.5 90 145.5 55.4 145.5 55.4 151.8 90 151.8 90 156.8 55.4 156.8 55.4 172.9 100.1 172.9 100.1 86.8 55.4 86.8 55.4 95.3"/>
    <polygon fill="#f3c565" points="128.6 84 154.9 84 154.9 89 128.6 89 128.6 95.3 154.9 95.3 154.9 100.3 128.6 100.3 128.6 106.6 154.9 106.6 154.9 111.6 128.6 111.6 128.6 117.9 154.9 117.9 154.9 122.9 128.6 122.9 128.6 129.2 154.9 129.2 154.9 134.2 128.6 134.2 128.6 140.5 154.9 140.5 154.9 145.5 128.6 145.5 128.6 151.8 154.9 151.8 154.9 156.8 128.6 156.8 128.6 172.9 167.2 172.9 167.2 74.6 128.6 74.6 128.6 84"/>
    <path fill="#f3c565" d="M0,0V220H220V0ZM78.8,49.5h54.7v17h-5v-12H83.8V78h-5Zm34.1,50V93.6h5.9v5.9Zm5.9,6.5v5.9h-5.9V106Zm-5.9-18.9V81.2h5.9v5.9Zm0-11V70.2h5.9v5.9Zm0-10.3V59.9h5.9v5.9Zm-5.8,4.4v5.9h-5.9V70.2Zm-5.9-4.4V59.9h5.9v5.9Zm-11.8,0V59.9h5.9v5.9Zm5.9,4.4v5.9H89.4V70.2Zm97.1,107.5H27.7v-5H50.4V81.6h54.7v91h18.5V69.3h48.6V172.7h20.2Z"/>
</svg>
