<svg xmlns="http://www.w3.org/2000/svg" width="220" height="220" viewBox="0 0 220 220">
    <path fill="#f3c565" d="M142.1,114.2h-3a4.69,4.69,0,0,0-4.68,4.7v35.5h12.4V118.88A4.69,4.69,0,0,0,142.1,114.2Z"/>
    <path fill="#f3c565" d="M136.5,102.3a5,5,0,0,0-5-5h-65a5,5,0,0,0-5,5v8.8a8.26,8.26,0,0,1,5.5,7.8v5.8h63.7v-5.8a8.28,8.28,0,0,1,5.8-7.9Z"/>
    <rect fill="#f3c565" x="67" y="128.4" width="63.7" height="6.5"/>
    <rect fill="#f3c565" x="141.9" y="65.9" width="34.7" height="15.7"/>
    <rect fill="#f3c565" x="67" y="138.5" width="63.7" height="15.9"/>
    <path fill="#f3c565" d="M58.7,114.2h-3A4.69,4.69,0,0,0,51,118.9v35.5H63.4V118.88A4.69,4.69,0,0,0,58.7,114.2Z"/>
    <path fill="#f3c565" d="M0,0V220H220V0ZM150.3,158H47.5V118.86a8.28,8.28,0,0,1,8.3-8.26h2.1v-8.3a8.6,8.6,0,0,1,8.6-8.6h65a8.6,8.6,0,0,1,8.6,8.6v8.3H142a8.28,8.28,0,0,1,8.26,8.3Zm30-72.7H161.6l11.6,59.2h-3.7l-7.3-37.3,1.3,29.6h-3.6L158,93.7l-6.5,21.2a8.28,8.28,0,0,0-2.6-3.8l7.9-25.8H138.4v-23h41.9Z"/>
</svg>
