<svg xmlns="http://www.w3.org/2000/svg" width="220" height="220" viewBox="0 0 220 220">
  <rect class="uk-text-primary" fill="#f3c565" width="220" height="220"/>
  <path fill="#000" d="M146.8,51.9A31.1,31.1,0,1,0,177.9,83,31.13,31.13,0,0,0,146.8,51.9ZM128.3,62.2a27.38,27.38,0,0,1,9.6,19.5H119A27.29,27.29,0,0,1,128.3,62.2Zm0,41.6A27.68,27.68,0,0,1,119,84.3h18.9A27.79,27.79,0,0,1,128.3,103.8Zm17.2,7a27.69,27.69,0,0,1-15.2-5.4,29.78,29.78,0,0,0,10.1-21.2h5.1Zm0-29.1h-5.1a30.36,30.36,0,0,0-10.1-21.2,27.69,27.69,0,0,1,15.2-5.4Zm19.8-19.5a27.68,27.68,0,0,1,9.3,19.5H155.7A27.79,27.79,0,0,1,165.3,62.2Zm-17.2-7.1a27.69,27.69,0,0,1,15.2,5.4,29.78,29.78,0,0,0-10.1,21.2h-5.1Zm0,55.7V84.3h5.1a30.36,30.36,0,0,0,10.1,21.2A27.87,27.87,0,0,1,148.1,110.8Zm17.2-7a27.38,27.38,0,0,1-9.6-19.5h18.9A27.68,27.68,0,0,1,165.3,103.8Z"/>
  <path fill="#000" d="M52,89.4v54.3a2.26,2.26,0,0,0,2.3,2.3H70.9l.5,3.2H54.3a5.48,5.48,0,0,1-5.5-5.5V89.4a5.48,5.48,0,0,1,5.5-5.5h56.6a17.33,17.33,0,0,0,.3,3.2H54.3A2.26,2.26,0,0,0,52,89.4Z"/>
  <path fill="#000" d="M153.3,117.9v25.8a5.48,5.48,0,0,1-5.5,5.5h-16l.6-3.2h15.4a2.26,2.26,0,0,0,2.3-2.3V118.3C151.2,118.2,152.2,118.1,153.3,117.9Z"/>
  <path fill="#000" d="M129.5,128.9H73a1.69,1.69,0,0,0-1.7,1.7v1a1.69,1.69,0,0,0,1.7,1.7h2l6.5,44.3a1,1,0,0,0,1,.8h.1a1,1,0,0,0,.8-1.1l-.9-6.2.9-.9,3.6,3.6-2.4,2.4a1,1,0,0,0,0,1.4.91.91,0,0,0,.7.3,1.08,1.08,0,0,0,.7-.3l2.4-2.4,2.4,2.4a1,1,0,0,0,1.4,0,1,1,0,0,0,0-1.4l-2.4-2.4,3.6-3.6,3.6,3.6-2.4,2.4a1,1,0,0,0,0,1.4,1,1,0,0,0,1.4,0l2.4-2.4,2.4,2.4a1,1,0,0,0,1.4,0,1,1,0,0,0,0-1.4l-2.4-2.4,3.6-3.6,3.6,3.6-2.4,2.4a1,1,0,0,0,0,1.4.91.91,0,0,0,.7.3,1.08,1.08,0,0,0,.7-.3l2.4-2.4,2.4,2.4a.91.91,0,0,0,.7.3,1.08,1.08,0,0,0,.7-.3,1,1,0,0,0,0-1.4l-2.4-2.4,3.6-3.6,3.6,3.6-2.4,2.4a1,1,0,0,0,0,1.4.91.91,0,0,0,.7.3,1.08,1.08,0,0,0,.7-.3l2.4-2.4,1.8,1.8v.3a1,1,0,0,0,.8,1.1h.1a1,1,0,0,0,1-.8l6.5-44.3h1.3a1.69,1.69,0,0,0,1.7-1.7v-1A2.23,2.23,0,0,0,129.5,128.9ZM88.2,145.3l3.6,3.6-3.6,3.6-3.6-3.6Zm-5,2.3L79.6,144l3.6-3.6,3.6,3.6Zm28.7,1.3-3.6,3.6-3.6-3.6,3.6-3.6Zm-2.2-4.9,3.6-3.6,3.6,3.6-3.6,3.6Zm-6.3,3.6-3.8-3.8,3.6-3.6L107,144Zm-1.4,1.3-3.8,3.8-3.8-3.8,3.8-3.8Zm-8.9-1.3L89.5,144l3.8-3.8,3.6,3.6ZM91.9,159l-3.6,3.6-3.8-3.8,3.6-3.6Zm-2.4-5.1,3.6-3.6,3.8,3.8-3.6,3.6Zm8.8,1.5,3.6,3.6-3.6,3.6L94.7,159Zm1.3-1.3,3.8-3.8,3.6,3.6-3.8,3.8Zm8.8,1.2,3.6,3.6-3.8,3.8-3.6-3.6Zm1.3-1.4,3.6-3.6,3.6,3.6-3.6,3.6Zm8.6,1.4,3.6,3.6-3.6,3.6-3.6-3.6Zm-3.6-6.4,3.6-3.6,3.6,3.6-3.6,3.6Zm0-9.9,3.6-3.6,3.6,3.6-3.6,3.6Zm-4.6-5.6h6.2l.7.7-3.6,3.6-3.8-3.8Zm1.8,5.6-3.6,3.6-3.8-3.8,3.6-3.6Zm-11.8-5.6h6.2l.5.5-3.6,3.6-3.6-3.6Zm1.7,5.4-3.6,3.6-3.6-3.6,3.6-3.6Zm-11.6-5.4h6.2l.5.5-3.6,3.6-3.6-3.6Zm1.7,5.4-3.8,3.8L84.5,139l3.8-3.8Zm-11.6-5.4h6.2l.5.5-3.8,3.8-3.6-3.6Zm-2.9,2.9.8-.8,3.6,3.6-3.5,3.5Zm1.4,9.6,3,3-2.2,2.2Zm1.1,7.7,3.3-3.3,3.6,3.6-3.6,3.6-3.1-3.1Zm.6,3.9,1.3,1.3-1,1Zm1.3,8.4-.5-3.7,2-2L87,164l-3.6,3.6Zm6.5,6.6-3.6-3.6,3.6-3.6,3.6,3.6Zm5-4.9L89.7,164l3.6-3.6,3.6,3.6Zm5,4.9-3.6-3.6,3.6-3.6,3.6,3.6Zm4.9-4.9L99.6,164l3.6-3.6,3.6,3.6Zm5,4.9-3.6-3.6,3.6-3.6,3.6,3.6Zm4.9-4.9-3.6-3.6,3.8-3.8,3.6,3.6Zm7.2,7.1-.8-.8,1.1-1.1Zm.7-5.1-2.9,2.9-3.6-3.6,3.8-3.8,3,3Zm.6-3.9-1.9-1.9,2.6-2.6Zm1.2-8.6-3.2-3.2,3.6-3.6.5.5Zm1.6-10.7-1.2,1.2-3.6-3.6,3.6-3.6,1.8,1.8Zm1-6.6-.8-.8,1-1Zm.7-5-2.9,2.9-3.6-3.6.7-.7h5.8l.2.2Z"/>
</svg>
