<svg xmlns="http://www.w3.org/2000/svg" width="540" height="640" viewBox="0 0 540 640">
    <path opacity=".3" fill="#f3c665" d="M522.8 184.6c.4.2.9.4 1.1.5 1.5 1.5 3.6 2.3 6.2 2.3 1.3 0 2.9-.2 4.6-.7 1.1-.3 1.7-1.1 1.6-2.2-.3-2.5-4.7-5.8-8.8-5.8-1.8 0-3.2-.3-4.4-.5-1.9-.4-4-.8-4.7 1.6-.8 2.7 2.5 4 4.4 4.8zm-2.4-4.2c.1-.5.1-.6 2.2-.2 1.2.3 2.8.6 4.8.6a9 9 0 0 1 5.9 2.7c.8.8.8 1.2.8 1.2-2.8.7-6.6 1.1-8.8-1.1-.3-.3-.8-.6-1.7-1-1.1-.4-3.4-1.3-3.2-2.2zm19.6-64.9c-2.7.7-6.1.8-10 1.1-3.4.2-7.2.3-11 .9-9.4 1.3-22.5 10.7-22.9 24.9-.3 13.9 8.5 17.2 18.4 19.6 3.2.8 6.3 1.2 9.3 1.6 5 .6 10.1 1.3 16.2 3.7v2.2c-6.2-2.6-11.4-3.3-16.7-4-3-.4-6.2-.8-9.5-1.6-10.3-2.5-20.4-6.2-20-21.7.4-15.3 14.6-25.4 24.7-26.9 3.9-.6 7.8-.7 11.2-.9 4.2-.2 7.8-.3 10.3-1.2v2.3zm-13.6 25.6v.4c0 4.7 0 8 11.2 8.4.8 0 1.6.1 2.4.1v2.3c-.8-.1-1.6-.1-2.5-.2-12.3-.3-13.3-4.5-13.3-10.5v-.4c0-5.5 6.1-6.8 11.1-7.9l.6-.1c1.3-.3 2.7-.8 4.1-1.4v2.1c-1.3.5-2.5.9-3.6 1.1l-.6.1c-5.5 1.4-9.4 2.5-9.4 6zM478.2 17.4c1.5.5 2.9.3 4.2.1 1.5-.2 2.7-.3 3.8.5.9.7 2.2 2.1 3.5 3.6 2.1 2.3 4.4 5 6.9 6.3 2.4 1.3 4.6 2.2 7.1 2.2 1.4 0 2.9-.3 4.4-1 3.9-1.6 3.5-7 3-12.3-.1-1-.1-2-.2-3-.4-6.9-4.7-9.4-8.5-10.9-3.3-1.3-7.8-1.7-13.7-1.3l-1.3.1c-5.4.4-14.4 1-16.2 6.4-.7 1.6-.6 3.4.2 5 1.4 2.5 4.5 3.7 6.8 4.3zm-5.1-8.5c1.3-4.1 9.8-4.7 14.3-5l1.4-.1c5.5-.4 9.8 0 12.8 1.2 3.5 1.3 6.9 3.4 7.2 9 0 1 .1 2.1.2 3.1.4 4.5.8 9.2-1.7 10.2-3.3 1.3-5.8 1-9.8-1.2-2.1-1.2-4.3-3.7-6.3-5.9-1.3-1.6-2.7-3.1-3.8-3.9-1.1-.8-2.2-1-3.3-1-.7 0-1.4.1-2 .3-1.2.2-2.2.3-3.4 0-3-.8-4.8-1.9-5.5-3.3-.5-1-.5-2.1-.1-3.4zm45.8 627.4c2.2.6 5.2 1.9 8 3.7h-4.6c-1.6-.7-3-1.3-4-1.6-7.1-2-19.4-5.3-24.1-6.3-5.1-1.1-16.7-4.6-24.6-7.7l-2.2-.8c-7-2.8-12.6-5-18.7-4.7-5.1.3-10.5 3.9-14.4 6.5-1.2.8-2.3 1.6-3.3 2.1-2.7 1.6-8 7.4-12 12.5h-2.7c4.2-5.5 10.4-12.5 13.7-14.4.9-.5 2-1.3 3.2-2 4.1-2.8 9.8-6.6 15.5-6.8 6.6-.3 12.6 2.1 19.6 4.8l2.1.8c7.9 3.1 19.3 6.6 24.3 7.6 4.7 1 17.1 4.3 24.2 6.3zM394.3 35.8c-1.2-9.2.3-15.2 1.3-19.2.2-.7.3-1.4.5-2 .7-3.1 5.3-9.2 8.7-13.7.2-.3.5-.6.7-.9h2.6c-.5.7-1 1.4-1.6 2.2-3.1 4.1-7.7 10.3-8.3 12.9-.1.6-.3 1.3-.5 2-1 4-2.4 9.6-1.2 18.4 1.4 11 4.1 20.6 6.4 23.2l.4.5c2.5 2.9 6 6.9 12.3 5.8 7.1-1.2 16.5-8.9 20.7-13.5 4.7-5 12.4-9.7 17.5-10.6 4.5-.8 11.4-2.1 16.2 1.8 2.9 2.3 6.6 6.9 9.8 10.9 1.8 2.2 3.5 4.3 4.8 5.8 3.5 3.8 14.1 15.4 23 15.7 9 .3 18.8-.1 23.8-6.1 5.2-6.3 7.8-11.5 6.9-22.7l-.2-2.9c-.8-10.5-1.5-20.4-1.5-25.3 0-1.7.1-3.8.2-6 .2-4.3.4-9.2-.1-10.8-.1-.2-.2-.6-.5-1.3h2.2c.1.3.2.5.2.6.7 2 .5 6.6.2 11.5-.1 2.2-.2 4.3-.2 6 0 4.6.6 13.9 1.4 23.8v14.2c-1 5.7-3.4 9.8-7.1 14.2-4.6 5.9-13 7.1-21.3 7.1-1.4 0-2.7 0-4.1-.1-9.8-.4-20.9-12.5-24.5-16.4-1.4-1.5-3.1-3.6-4.9-5.9-3.2-4-6.8-8.4-9.5-10.6-4.1-3.3-10.4-2.1-14.5-1.4-4.7.9-12.1 5.4-16.4 10-4.6 5-14.3 12.8-21.9 14.1-7.4 1.3-11.5-3.4-14.2-6.5l-.4-.5c-3.2-3.6-5.7-15.4-6.9-24.3zM412.7 17c0-9.7 5.4-13.3 9-15.6.7-.5 1.3-.9 1.9-1.3l.1-.1h5.7c-2.1.6-3.9 1.2-4.7 1.8-.6.5-1.3.9-2 1.4-3.6 2.3-8.1 5.3-8.1 13.9 0 10.2 1.7 17.5 4.6 19.4l.7.4c2.7 1.9 4.5 3.1 9.6-1.4l.6-.5c6-5.3 10.8-9.5 17.1-9.4h3.7c5.3-.1 11.4-.1 17.2 3.1 7.1 3.9 16.2 11 20 14.7 3.8 3.6 13.5 10.5 17.5 10.5.7 0 1.5 0 2.3.1 3.8.2 7.7.3 9.9-3.1 2.7-4.4 3.9-7.6 3.7-16.2-.1-4.1-.6-7.3-1-10.1-.5-3-.9-5.6-.6-8.2.5-4.7-.2-9.4-1.8-12.1-.6-1-2.3-2.5-4.6-4.3h3.4c1.4 1.2 2.5 2.3 3 3.2 1.9 3.2 2.6 8.2 2.1 13.4-.3 2.4.1 4.7.6 7.7.4 2.9.9 6.1 1 10.4.2 9.1-1.1 12.7-4 17.4-2.3 3.5-5.9 4-9.3 4-.9 0-1.7 0-2.5-.1-.8 0-1.5-.1-2.2-.1-5.1 0-15.6-8-18.9-11.1-3.7-3.6-12.6-10.5-19.5-14.4-5.4-3-11.1-2.9-16.2-2.8h-3.8c-5.5-.2-10 3.8-15.7 8.8l-.5.6c-6.3 5.6-9.3 3.5-12.2 1.6l-.6-.4c-3.6-2.4-5.5-9.9-5.5-21.2zm-94 9.9c-1.4-7.2 1.9-20.3 4-25.7.1-.4.3-.8.5-1.2h2.2c-.3.7-.5 1.4-.8 2-1.9 5.1-5.2 17.9-3.9 24.6.4 2.1 1.4 4.3 2.4 6.6 2.3 5 4.8 10.6 3.3 18.7-2.3 12.6-12.1 29.4-14 32.6-3.2 5.3-4.8 15.5 1.6 21.5 6.9 6.4 17.6 14 23.3 16.6 5.9 2.7 19.8 13.8 21.7 17.5 1.7 3.2 9.1 10.1 15.8 13.2.7.3 1.4.7 2.3 1 7.7 3.5 20.6 9.2 24.7 17.8 4.4 9.1 8.2 17-.9 29.4-4.4 6-10.8 13.2-16.4 19.6-5.5 6.3-10.3 11.7-11.9 14.4-.4.7-1 1.5-1.5 2.4-4.1 6.3-10.3 15.9-2.5 24.9 5.7 6.7 10.9 8.5 15.8 10.2 3 1.1 6.1 2.1 9.2 4.3 8.3 5.8 11.5 9.7 10.1 25.9-1.4 17.1.1 40 5.1 47 3.1 4.4 11.4 14.4 22.6 12.9 10.1-1.4 11.5-13.8 10.9-24.1-.2-3.3-.6-6.9-1.1-10.7-1.4-11.5-3-24.6 1.2-36.2 5.2-14.3 11.8-22.4 23.6-28.9 10.8-5.9 27-23.2 26.7-35.8v-4.5c0-9.5 0-11.8-9.2-15-9.8-3.4-27.9-9.7-36.5-17.2l-.3-.3c-7.9-6.9-14.2-12.4-14.5-34.9v-8.3c.1-15.6.1-19.8-12.1-27.6-6.3-4-11.7-3.3-17.6-2.5-7.3 1-15.6 2.1-26.3-6.2-4.6-3.6-8.3-6.3-11.7-8.7-10.1-7.4-14.8-10.7-17-19.7-1.5-5.9-.2-11.3 1.1-16.4 1.2-4.9 2.5-10 1.2-15.6-.6-2.5-1-4.8-1.5-6.8-1.6-7.5-2.7-12.8-6.4-22.6-1.9-5.1-1.6-13-.3-21.1h2.2c-1.3 7.9-1.7 15.5.1 20.3 3.7 10 4.9 15.4 6.5 23 .4 2.1.9 4.3 1.5 6.8 1.4 6.1 0 11.4-1.3 16.6-1.3 5.1-2.5 10-1.1 15.4 2.1 8.2 6.2 11.2 16.2 18.5 3.3 2.4 7.1 5.2 11.7 8.8 10.1 7.8 17.5 6.8 24.7 5.8 5.9-.8 12.1-1.7 19 2.8 13.2 8.5 13.1 13.7 13.1 29.4v8.2c.3 21.6 5.9 26.5 13.8 33.3l.3.3c8.3 7.2 26.2 13.5 35.8 16.8 10.6 3.7 10.6 7.3 10.6 16.9v4.5c.3 14.5-18 32.2-27.8 37.7-9.4 5.2-16.8 11.9-22.6 27.8-4 11.1-2.5 23.9-1.1 35.2.5 3.8.9 7.4 1.1 10.8.9 15.7-3.6 25-12.7 26.3-.5 0-1.3.1-2.1.1-7.9 0-15.8-5-22.1-14-5.8-8.3-6.7-33.3-5.4-48.4 1.3-15.1-1.5-18.6-9.3-24-2.8-2-5.7-3-8.7-4-5.2-1.8-10.6-3.7-16.7-10.8-8.8-10.3-1.8-21 2.3-27.4.6-.9 1.1-1.7 1.5-2.4 1.7-2.9 6.6-8.4 12.1-14.8 5.6-6.3 11.9-13.5 16.2-19.4 8.4-11.4 5-18.4.7-27.2-3.8-7.9-16.3-13.5-23.7-16.8-.8-.4-1.6-.7-2.3-1-6.7-3.1-14.7-10.3-16.7-14.1-1.6-3-14.9-13.9-20.8-16.6-5.9-2.7-16.8-10.5-23.9-17-7.3-6.8-5.6-18.2-2-24.1 1.9-3.2 11.5-19.7 13.8-31.9 1.3-7.4-1.1-12.7-3.2-17.4-1.1-2.4-2.1-4.7-2.6-7.1zm54.8-3.2c-1.7-7.3-.7-15.3 2.8-23.7h2.3c-3.6 8.3-4.6 16.1-3 23.3 1.4 6.2 3.2 21.1 3.5 29.6.3 6.2 2.6 17.7 15.5 24.7 11.4 6.2 20.1 6.6 44.4-7 15.8-8.9 29.7-7.7 41.1 3.4 4.1 4 5.5 6.7 9 13.5l1.2 2.3c4.1 7.7 14.4 10.8 34.2 10.4 7.1-.2 11.9-2.8 15.5-6.1v2.6c-3.8 3-8.7 5.3-15.5 5.4-1.2.1-2.4.1-3.7.1-13.5 0-27.1-1.8-32.3-11.6l-1.2-2.3c-3.4-6.5-4.8-9.2-8.6-12.9C468 65 455 64 440.1 72.3c-22.7 12.7-33.1 14.2-46.5 7-13.8-7.5-16.3-19.8-16.6-26.4-.4-8.2-2.1-23.2-3.5-29.2zm153.8 224.6c-3.5-8.7-2.7-22.2 1.6-27.3.6-.7 1.3-1.6 2-2.5 2.4-3 5.3-6.7 9.1-9.6v2.8c-3 2.5-5.3 5.6-7.3 8.1-.7.9-1.4 1.8-2.1 2.6-3.5 4.1-4.7 16.5-1.2 25.2 2.1 5.4 5.6 6.8 10.6 7.6v1.9c-5.7-.6-10.1-2.3-12.7-8.8zM401.6 134.6c-7.2-2.2-12.2-5.4-15.2-7.3l-.2-.2c-3.2-2-8.4-3.6-12.4-2.5-2.6.8-5.5 2.6-5.6 4.8 0 .9.4 2.2 2.6 3.2 1.7.8 4 2.2 6.1 3.5 3 1.9 5.9 3.7 8 4.2 3.1.7 5.6 2.7 5.6 2.7l.1.1c3 1.7 5.9 5.5 8 10.3 1.9 4.4 5.4 6.9 9.6 6.9 2.2 0 4.7 0 6.2-2 1.4-1.6 1.7-4.3 1-8.2-1.7-9.9-6.6-13.3-13.8-15.5zM413 157c-.9 1.2-2.9 1.2-4.7 1.2-3.4 0-6.1-2-7.7-5.7-1.4-3.1-4.3-8.6-8.8-11.2-.5-.3-3.1-2.2-6.5-3-1.7-.4-4.6-2.2-7.3-3.9-2.2-1.3-4.5-2.8-6.4-3.6-.4-.2-1.3-.7-1.3-1.2.1-.9 1.8-2.2 4.1-2.9 3.2-1 7.9.4 10.7 2.2l.2.1c2.9 1.9 8.3 5.3 15.8 7.6 6.8 2.2 10.8 5 12.4 13.9.6 3.2.4 5.4-.5 6.5zm-8.4 473.5c-4.9 3.4-9.5 6.4-12.9 8.6-.5.3-.9.6-1.3.9h-3.7c1-.7 2.3-1.5 4-2.6 3.4-2.2 8-5.2 12.8-8.6 7.9-5.5 21.1-17.3 23.9-20.5.7-.7 1.6-2 2.6-3.5 3.5-4.8 8.2-11.5 13.3-12.9 8.1-2.3 17.2-.3 27.7 6.1 12.5 7.5 24.7 11.3 30.5 13.2 3.9 1.2 23.8 7.7 31.1 13.5.9.7 1.9 1.4 3 2.2 1.4.9 2.9 2 4.5 3.2v2.6c-1.9-1.7-3.9-3.1-5.7-4.4-1.1-.8-2.1-1.5-3-2.2-7-5.5-26.6-11.9-30.4-13.1-5.9-1.9-18.3-5.8-31-13.4-10-6-18.6-7.9-26.1-5.8-4.4 1.2-9 7.8-12.1 12.1-1.1 1.5-2 2.8-2.8 3.7-3 3.4-16.4 15.3-24.4 20.9zm131.2-114.4c-1.6 2.5-1.6 6 0 10.3 2.6 7.4 1.6 12.7.8 17.5-.4 2.4-.8 4.7-.7 7 .2 3.9 1.6 7.5 4.1 10.9v3.4c-4-4.4-6.1-9.2-6.4-14.3-.1-2.5.3-4.9.8-7.4.8-4.7 1.7-9.5-.7-16.4-1.8-5-1.7-9.1.2-12.2 1.3-2.1 3.4-3.6 6.1-4.4v2.3c-1.6.6-3.2 1.6-4.2 3.3zm4.2 106.5c-5.9-4-15.8-11.6-20.2-15l-.4-.3c-4.7-3.6-14-18.9-15.4-25.4-.3-1.5-.7-3.8-1.1-6.5-1.4-9-3.6-22.6-7.8-28.8-4.8-7.2-17.2-7.9-22.5-8.2-.6 0-1.1-.1-1.6-.1-4.7-.4-12.5-4.5-17.8-9.4-3-2.8-6.6-8.3-9.7-13.1-2-3-3.8-5.9-5-7.2-2.3-2.6-10.8-.3-14.9.9-.7.2-1.4.4-1.9.5-1.8.4-3 1.3-3.7 2.6-1.1 2.1-.9 5.3.6 9.7 1.2 3.5 4.1 5.2 7.4 7.1 4.7 2.7 10 5.8 11.5 14.7 2 12-.6 18.6-4.1 27.8-.9 2.4-1.9 4.9-2.9 7.7-5 14.3-24 32.5-32.1 40.3-4.1 3.9-9.3 7.7-14.4 11.4-4.3 3.2-8.5 6.2-11.1 8.7h-2.7c2.6-2.9 7.4-6.5 12.5-10.3 5-3.6 10.2-7.4 14.2-11.2 8-7.7 26.7-25.6 31.6-39.5 1-2.9 2-5.4 2.9-7.8 3.6-9.2 5.9-15.3 4-26.7-1.3-8-6-10.7-10.5-13.3-3.4-2-6.9-4-8.4-8.2-1.7-4.9-1.9-8.8-.4-11.4 1-1.8 2.7-3 5-3.6.5-.1 1.2-.3 1.9-.5 5.5-1.5 13.8-3.8 17-.2 1.3 1.5 3.1 4.3 5.2 7.5 3.1 4.7 6.5 10.1 9.4 12.7 4.9 4.5 12.3 8.5 16.5 8.8.4 0 .9.1 1.5.1 6.1.3 18.7 1.1 24.1 9.1 4.4 6.6 6.7 20.5 8.1 29.7.4 2.6.8 4.9 1.1 6.3 1.4 6.1 10.3 20.8 14.7 24.2l.4.3c4.1 3.2 13.1 10.1 19 14.1v2.5zm-74.2-42.9c3.4-1.2 5.7-2.8 8.3-7.9 1.2-2.5 3.4-5.5 5-7.7.8-1.1 1.5-2.1 1.9-2.7.7-1.3 2.6-5.6-3-10.8-3.7-3.4-10.6-9.8-18.7-5-6.8 4.1-13.2 11.7-12.4 17.5.6 4.2 2.9 12 7.6 14.1l.7.3c2.8 1.3 5.6 2.6 8.2 2.6.8 0 1.6-.1 2.4-.4zm-9.7-4l-.7-.3c-3.2-1.5-5.7-7.4-6.4-12.5-.6-4.3 4.6-11.3 11.4-15.4 1.7-1.1 3.3-1.5 4.9-1.5 4.2 0 7.9 3 11.4 6.3 4.3 4 3.3 7 2.6 8.1-.3.6-1 1.5-1.8 2.6-1.6 2.3-3.9 5.3-5.2 8-2.3 4.5-4.1 5.8-7.1 6.8-2.6.9-5.6-.5-9.1-2.1zM486 435c-5.6 0-9.7 3.4-14.4 7.3-.6.6-1.3 1.1-2 1.7-3.2 2.6-3.5 4.9-3.2 6.3.5 2.4 2.9 4 5 4.6 1.8.5 3.5.2 5.3-.2 2.2-.4 4.5-.9 7.2.2 3.2 1.3 6.2 1.9 8.9 1.9 2.2 0 4.2-.4 5.9-1.2 3.6-1.7 2.3-6.4 1-10.9-.4-1.6-.9-3.2-1.1-4.6-.5-3.2-7-5.1-12.6-5.1zm11.9 18.6c-3.5 1.6-8.1 1.3-13.2-.7-1.5-.6-2.9-.8-4.2-.8-1.6 0-3 .3-4.3.6-1.6.3-3 .6-4.2.2-1.4-.4-3.2-1.5-3.5-3-.3-1.6 1.2-3.2 2.5-4.3.7-.6 1.4-1.1 2.1-1.7 4.6-3.8 8.2-6.8 13-6.8 6.1 0 10.3 2.2 10.5 3.3.3 1.5.7 3.2 1.2 4.8 1.2 4.5 1.9 7.6.1 8.4zm42.1-161c-4.9 7.5-13.7 15.1-17.4 17.9-4.9 3.7-10.8 10.5-11.1 17.4-.2 3.3.9 7.4 2.2 12.2 1.4 5.2 2.9 11 3.4 17.7.6 7.3-1.2 9.6-2.9 11.9-1.4 1.8-2.7 3.4-2.7 8.1 0 9.4 7.6 10.8 18 12.6l1.7.3c3.5.6 6.3 1.9 8.8 3.5v2.8c-2.6-2-5.7-3.6-9.6-4.3l-1.7-.3c-10.6-1.9-19.8-3.5-19.8-14.7 0-5.4 1.6-7.5 3.1-9.4 1.6-2 3-3.9 2.5-10.4s-2-12.3-3.4-17.3c-1.3-5-2.4-9.3-2.2-12.9.4-7.7 6.4-14.8 12-19 5.4-4.1 16.1-13.8 19.1-21.3v5.2zm-43.5 131c-13.6-.6-22.3 3-28.7 5.6-1.2.5-2.4 1-3.4 1.4-6.4 2.4-15.2 12-16.8 17.2-.7 2.4-.4 4.8.8 6.7 1.4 2.2 3.9 3.5 7 3.8 7.1.7 9.9 1.1 15.5 2.5 6.9 1.7 17 8.7 21.2 14.7l.4.5c4 5.7 7.8 11.1 19.2 13 7 1.2 14.1.6 19.8.2 2.8-.3 5.2-.5 7.3-.5h1.2v2.1c-2.3-.1-5.1.1-8.2.4-5.8.5-13 1-20.3-.2-12.3-2.1-16.5-8.1-20.6-13.9l-.4-.5c-3.9-5.6-13.7-12.3-20-13.9-5.5-1.4-8.2-1.7-15.2-2.4-3.7-.4-6.8-2.1-8.5-4.8-1.6-2.4-2-5.5-1.1-8.5 1.8-5.7 11.1-15.9 18.1-18.5 1-.4 2.2-.8 3.4-1.3 6.5-2.7 15.5-6.3 29.6-5.7 15.8.7 17.3 9.7 18.2 15.1l.3 1.5c.2.8.3 1.6.4 2.5.8 5.1 1.8 12.1 10.8 21.4 4.8 5 9.2 7.3 13.5 8.5v2.3c-4.8-1.2-9.8-3.6-15.2-9.2-9.5-9.8-10.6-17.2-11.4-22.6-.1-.9-.2-1.7-.4-2.4-.1-.5-.2-1-.3-1.6-.9-5.5-2.1-12.8-16.2-13.4zm42.8-74.3c.2-1.1.5-2 .7-2.9v14.5c-1.4-2.8-1.9-6.2-.7-11.6zm-56.8 290.2c.8.2 1.5.3 2.3.5H475c-1.4-.4-2.8-.7-3.8-1.1-4.5-1.4-8.7-1-12.6 1.1h-3.8a18.2 18.2 0 0 1 17-3.1c2.5.8 6.5 1.7 10.7 2.6zM506.6 407c15.9 2.1 24.4 8.2 26.1 18.7.5 3.1.8 6.6 1.1 10.3.7 8.8 1.6 18.8 5.4 21.1.2.1.5.3.8.4v2.4c-.7-.2-1.4-.5-2-.8-4.8-2.8-5.6-12.9-6.4-22.7-.3-3.7-.6-7.1-1.1-10.2-1.5-9.5-9.4-15-24.3-17-12.7-1.7-26.5-.5-40.1 3.5-12.3 3.6-22.8 17.9-32 30.6l-1.3 1.9c-10.9 15-28.9 17.2-38.6 17.2-9.4 0-16.3-5.1-21.3-8.8-2.1-1.5-3.9-2.9-5.3-3.5-4.8-1.9-17.8-1.7-23-1.3-4.4.3-26.5 8.6-34.2 13.1-8.1 4.8-22.9 6.4-30 5.7-7.4-.7-26.2-10.7-32.3-14l-2.9-1.5c-7.2-3.9-22.2-12-27.9-13.5-3.6-1-8.5.2-11.7 2.8-2 1.6-4.2 4.3-4.1 8.7.3 8.4 7.4 16.1 14.2 23.4.8.8 1.5 1.6 2.3 2.5 2.8 3.1 7.2 6.3 11.7 9.7 7.7 5.7 16.5 12.1 21.6 20.6 7.1 11.7 4.2 17.6 2.3 21.5-.3.6-.6 1.2-.8 1.8l-.3.8c-1.4 3.8-3 8.1 4.5 14.1 8.3 6.7 18.8 7.4 32.6 7.8 5.8.2 10.7-.1 15.3-.3 6-.3 11.7-.6 18.6 0 12.6 1.1 21.8 11.3 25.1 28.1 3 15.5-1.6 28.1-3.6 33.6l-.3.9c-1.6 4.5-8.7 19.4-12.1 25.5h-2.3c3-5.1 10.9-21.6 12.5-26.2l.3-.9c1.9-5.3 6.4-17.6 3.5-32.4-3.1-15.8-11.5-25.4-23.2-26.4-6.8-.6-12.4-.3-18.3 0-4.7.2-9.6.5-15.5.3-13.8-.4-25-1.2-33.8-8.3-8.8-7-6.6-12.7-5.2-16.5l.3-.8c.2-.6.6-1.3.9-2 1.8-3.7 4.3-8.7-2.2-19.5-4.9-8.1-13.5-14.4-21-20-4.7-3.4-9.1-6.7-12-9.9-.8-.8-1.5-1.6-2.3-2.5-7.1-7.7-14.5-15.6-14.8-24.8-.1-4.1 1.6-7.8 4.9-10.4 3.8-3 9.3-4.3 13.6-3.2 5.9 1.6 21.1 9.8 28.4 13.7l2.9 1.5c16.3 8.7 26.9 13.3 31.5 13.7 6.9.7 21-.9 28.7-5.5 8-4.7 30.4-13.1 35.1-13.4 3.6-.3 18.1-.8 23.9 1.5 1.7.7 3.6 2.1 5.8 3.7 4.8 3.6 11.3 8.4 20 8.4 9.3 0 26.5-2.1 36.9-16.4l1.3-1.8c9.4-13 20.1-27.6 33.1-31.4 13.9-4.1 28-5.3 41-3.6zM540 591.8c-.4-.2-.9-.5-1.3-.7-13.3-7-21.2-28.2-21.9-34-.5-4.4.2-10.5 1-16.4.3-2.3.6-4.5.8-6.5.6-6-3.2-9.6-12.5-11.8-5.2-1.2-11.6-.7-17.7-.2-4.1.4-7.9.7-11.5.5-8.1-.3-14.6-8.4-18.5-13.2-.7-.9-1.3-1.6-1.8-2.2-.4-.5-.9-1-1.4-1.6-3.4-4.2-9.2-11.1-20.3-12-8.6-.7-15.9 2.7-23 5.9-3.7 1.7-7.1 3.2-10.6 4.2-10.4 2.9-21.7-1.7-29.4-5.3-11.2-5.3-19.4-8-25.1-8.3-5.5-.2-11.6 3.3-16.5 6.1-1.7 1-3.3 1.9-4.7 2.6-2.4 1.1-3.9 2.9-4 4.8-.1 1.5.8 2.9 2.4 3.9 4.2 2.6 13.9 5.1 24 6.1.9.1 2 .2 3.2.3 11.4 1.1 32.6 3.2 51.7 12.7 22.1 11.1 18.5 29.5 15.9 36.9-3.1 8.8-14.3 18.8-23.2 20.6-2.7.6-4.7.2-5.9-1-2.5-2.4-1.5-7.7-.1-14.9.2-1.1.4-2.3.6-3.5 2.1-11.6-2.1-17.6-9.2-26.1-3.5-4.1-12.6-9.2-36.3-10.1-8.7-.3-23.3-.9-41-8.8-16.5-7.4-15.6-18.1-15.1-23.9 0-.4.1-.9.1-1.3.3-4.6 8.5-10.4 16.9-15.9 1-.6 1.8-1.2 2.5-1.7 1-.7 1.1-1.1 1.1-1.1-.3-.4-2.9-1.2-7.5-1.2-2.5 0-8.8.2-15.4.3-7.3.2-14.8.4-18.2.4-1.7 0-3.3-.1-5-.2-4.3-.3-8.3-.6-9.5 1.5-1.4 2.4-1.8 4-1.4 5.7.8 2.9 4.7 5.9 12.1 9.7 15.5 7.8 15.8 18.7 15.3 23.1-.4 2.8-.6 12.7 13.1 19.9 7.5 4 17.3 4.5 28.6 5.1 7 .4 15 .8 23.2 2.2 23.3 3.9 28.9 22.1 29.6 36.7.6 14.9-6.3 32.2-12.4 42.5-2.1 3.6-5.3 7.5-8.3 11.3-2 2.6-4 5-5.4 7.1h-2.6c1.5-2.4 3.8-5.3 6.4-8.5 3-3.7 6.1-7.6 8.1-11.1 6-10.1 12.7-27 12.1-41.4-.6-13.8-5.9-31-27.8-34.7-8.1-1.3-15.6-1.7-23-2.1-11.6-.6-21.5-1.1-29.5-5.3-14.8-7.8-14.6-18.9-14.2-22 .5-3.9.2-13.8-14.1-21-8.1-4-12.2-7.4-13.2-10.9-.8-2.8.4-5.4 1.6-7.3 1.9-3.2 6.5-2.8 11.5-2.5 1.6.1 3.2.2 4.8.2 3.3 0 10.8-.2 18.1-.4 6.7-.2 13-.3 15.5-.3 4 0 8.8.5 9.5 2.7.3 1.1-.3 2.2-1.9 3.4-.7.5-1.5 1-2.5 1.7-5.1 3.4-15.7 10.3-15.9 14.3 0 .4-.1.8-.1 1.3-.5 5.6-1.3 15 13.8 21.8 17.3 7.8 31.6 8.3 40.2 8.7 19.7.8 32.4 4.4 37.8 10.9 7.3 8.7 11.9 15.3 9.7 27.8-.2 1.2-.4 2.4-.6 3.5-1.1 6.1-2.1 11.4-.4 13 .7.7 2.1.8 4 .4 8.1-1.6 18.8-11.1 21.6-19.2 3-8.6 5-24.4-14.9-34.4-18.8-9.4-39.7-11.4-50.9-12.5-1.2-.1-2.3-.2-3.2-.3-10.5-1.1-20.5-3.7-24.9-6.4-2.3-1.4-3.5-3.5-3.4-5.8.2-2.7 2.1-5.1 5.2-6.6 1.3-.6 2.9-1.5 4.6-2.5 5.2-3 11.7-6.7 17.6-6.4 8 .4 18.6 5 25.9 8.5 7.4 3.5 18.3 7.9 27.9 5.2 3.3-.9 6.7-2.5 10.3-4.1 7-3.2 14.9-6.8 24-6.1 12 .9 18.4 8.6 21.7 12.8l1.3 1.6c.5.6 1.1 1.3 1.9 2.2 3.7 4.5 9.8 12.2 17 12.4 3.4.1 7.2-.2 11.2-.5 6.3-.5 12.8-1.1 18.4.2 7 1.7 15 4.8 14.1 14.1-.2 2.1-.5 4.3-.8 6.6-.7 5.8-1.5 11.8-1 15.9.6 5.3 8.3 25.8 20.8 32.4.1.1.2.1.3.2v2.3zm-377.2 20.8c3.2.8 5.8 1.1 7.9 1.1 5.4 0 7.6-2.1 9.7-4.1.5-.5 1-1 1.5-1.4.8-.7 1.6-1.3 2.4-2 2.6-2.2 5.3-4.4 7.8-5.2.8-.3 2.1-.6 3.7-1.1 4.9-1.4 13.2-3.8 19.4-5.9 2.5-.9 4.1-2.2 4.7-3.9 1-2.9-1-6.1-2.8-8.9-.3-.6-.7-1.2-1-1.7-2.6-4.4-11.2-5.5-21.1-6.9l-2.1-.3c-10.8-1.5-24.9 4.3-31.6 9-.3.3-7.8 6.8-11 11.8-1.8 2.8-2 6.5-.7 9.8 1.9 4.7 6.6 8.1 13.2 9.7zM152 594.3c3.1-4.7 10.6-11.2 10.6-11.2 5.6-3.9 16.9-8.8 26.6-8.8 1.1 0 2.3.1 3.2.2l2.1.3c8.6 1.2 17.5 2.4 19.5 5.9.3.5.7 1.1 1.1 1.7 1.5 2.4 3.3 5.2 2.6 7.1-.3 1.1-1.5 1.9-3.4 2.6-6.1 2.1-14.4 4.5-19.3 5.9-1.6.5-2.9.8-3.7 1.1-2.9.9-5.7 3.3-8.5 5.6-.8.6-1.5 1.3-2.3 1.9-.6.4-1.2 1-1.7 1.5-2.6 2.5-5.1 4.9-15.6 2.4-5.9-1.4-10.1-4.4-11.7-8.4-1.1-2.7-.9-5.7.5-7.8zm35.4-1.1c1.9 0 4.4-.8 7.6-2.4 1.4-.6 2.9-.5 4.4-.4 2 .2 4.3.4 5.8-1.6.7-.9.9-1.9.7-3-.6-2.5-3.7-4.8-6.3-6.2-3.2-1.8-8.9 1.1-13 3.9a7.96 7.96 0 0 0-3.3 5.4c-.1 1.3.2 2.4 1 3.2.7.7 1.8 1.1 3.1 1.1zm-1.9-4.1c.2-1.6 1-3 2.3-3.9 3.9-2.7 7.3-4.1 9.4-4.1.5 0 1 .1 1.4.4 3 1.6 4.9 3.4 5.2 4.8.1.5 0 .9-.3 1.3-.7 1-1.9 1-3.9.8-1.7-.2-3.7-.3-5.5.6-4 2-7.2 2.6-8.2 1.6-.3-.3-.5-.8-.4-1.5zm102.9 43.6c-1.8 1.9-3.9 4.3-5.7 7.3h-2.4c2.1-3.7 4.6-6.5 6.6-8.7.9-1 1.6-1.8 2.2-2.5.8-1 1.8-2 2.8-3.1 4-4.1 9.5-9.6 9.5-21.1 0-14.2-13.9-17.9-19.1-19.2-2.4-.6-9.2-1.7-16.5-2.8-9-1.4-19.1-2.9-24.8-4.2-11.7-2.7-15.3-13-16.2-16.1-1-3.7-6.2-10.9-11.2-15.6-4.9-4.6-17.2-3.5-26.3-1.1-5.8 1.5-16.1 6.5-24.5 10.5-5.3 2.5-9.4 4.5-11.5 5.2-.6.2-1.2.4-1.9.6-5.9 1.8-16.9 5.2-24.5 16.1-5.4 7.7-3.2 19.7-.9 32.3 1.3 7.3 2.7 14.9 2.8 22.3.1 2.8 0 5.2-.2 7.4h-2c.2-2.2.3-4.6.2-7.4-.1-7.3-1.5-14.8-2.8-22-2.4-13.1-4.6-25.4 1.2-33.9 8-11.6 19.4-15.1 25.6-16.9.7-.2 1.3-.4 1.9-.6 1.9-.6 6.2-2.7 11.2-5.1 8.4-4.1 18.9-9.1 24.9-10.6 10-2.6 22.7-3.5 28.3 1.6 5.4 5 10.7 12.5 11.8 16.6.8 2.8 4.1 12.2 14.6 14.6 5.7 1.3 15.8 2.9 24.7 4.2 7.6 1.2 14.2 2.1 16.6 2.8 5.2 1.4 20.7 5.5 20.7 21.3 0 12.4-5.9 18.3-10.1 22.6-1.1 1.1-2 2-2.7 2.9-.6.8-1.4 1.7-2.3 2.6zm-102.8-3c-.8 2.4-1.8 6.2-2.9 10.3h-2c1.1-4.3 2.2-8.4 3-10.9 2.6-7.8 5.1-14.4 9.2-16.7 2.2-1.2 6.3-2 12.4-3.2 5-1 11.3-2.3 18.6-4.2 4-1 6.6-3.1 7.7-6 2.8-7.3-4.2-17.9-4.5-18.3l-.5-.8c-3-4.6-9.2-14.2-29.1-15.8-17.8-1.4-32.2 5.4-41.8 9.9-1.9.9-3.5 1.7-4.9 2.2-8.2 3.4-17.9 17.7-17.9 26.3 0 3.5 1.4 5.8 3.2 8.7 2.7 4.4 6.1 9.9 6.9 22 .2 2.5.2 4.7.2 6.8h-2.1c0-1.9 0-4.1-.2-6.7-.8-11.6-4-16.8-6.6-21-1.9-3.1-3.5-5.7-3.5-9.8 0-9.5 10.2-24.5 19.2-28.2 1.4-.6 3-1.3 4.8-2.2 9.2-4.3 24.5-11.6 42.9-10.1 20.9 1.7 27.5 11.9 30.7 16.8l.5.8c.8 1.2 7.8 12.1 4.7 20.2-1.4 3.6-4.4 6-9.2 7.2-7.4 1.9-13.7 3.2-18.8 4.2-5.7 1.1-9.8 2-11.8 3-3.5 1.9-5.9 8.4-8.2 15.5zm-6.5-117.9c7.3-5.5 20.8-15.8 33.5-14 12.8 1.7 20.5 11.1 20.5 25.2 0 3.3-.3 6.8-.6 10.2-.8 9.6-1.7 19.6 4.3 23.2 7.4 4.4 25.2 12.8 40 12.8 4.9 0 9.7-.7 14.4-1.4 9-1.4 17.6-2.6 26.3 1.1 12.7 5.5 12.8 21.2 8.6 34.2-2 6.3-5.3 12.4-8.5 18.2-2.3 4.3-4.6 8.3-6.2 12.3l-1 2.4c-.6 1.3-1.1 2.7-1.6 4h-2.2c.7-1.7 1.3-3.4 2.1-5.1l1-2.4c1.7-4.1 3.9-8.2 6.3-12.5 3.1-5.8 6.4-11.7 8.4-17.9 3.9-12 4-26.6-7.5-31.6-8.2-3.5-16.4-2.3-25.1-1-4.7.7-9.6 1.4-14.7 1.4-15.2 0-33-8.2-41.1-13.1-7.1-4.2-6.2-14.9-5.3-25.1.3-3.4.6-6.9.6-10 0-12.9-7-21.5-18.7-23.1-11.8-1.6-25 8.3-32 13.6l-1.1.9c-3.2 2.4-6.3 6.7-9.4 10.8-3.5 4.8-7.1 9.7-11 12-4.6 2.8-12.3 5.9-20.5 9.2-4.4 1.8-9 3.7-13.2 5.5-10.1 4.4-15.8 19.1-18.9 27-.4 1.1-.8 2.1-1.2 2.9-1.4 3.4-1.7 12.5-2 22.1-.3 8.5-.6 18.2-1.7 26.3-.5 3.8-1.3 7.1-2.2 10.1h-2.2c.9-3 1.8-6.5 2.3-10.4 1.1-8 1.4-17.6 1.7-26 .3-10.2.6-19.1 2.2-22.8.3-.8.7-1.8 1.1-2.8 3.2-8.2 9.2-23.3 20-28.1 4.2-1.9 8.8-3.7 13.2-5.5 8.1-3.3 15.8-6.4 20.2-9.1 3.5-2.1 7-6.9 10.4-11.4 3.1-4.3 6.4-8.7 9.8-11.2l1-.9zM232.7 640h-3.2c-.9-.7-1.9-1.3-2.8-1.9-.3-.2-.7-.4-1-.7-1.3-.9-2.7-1.1-4-.8-1.6.4-3 1.7-3.6 2.8-.1.1-.1.4-.2.6h-2.2c.2-.7.4-1.2.5-1.5.7-1.5 2.6-3.3 4.9-3.9 1.9-.5 3.9-.1 5.7 1.1l1 .6c1.6.9 3.3 2 4.9 3.7zm23.4-2c.1.7.3 1.3.4 2h-2.2l-.3-1.6c-2.2-11.1-10.1-19-16.5-21.6-5.4-2.2-18.1 1.8-29.4 9.3-5.5 3.6-8.1 8.8-9.5 13.9h-2.2c1.4-5.6 4.3-11.5 10.5-15.6 12.3-8.2 25.2-12.1 31.4-9.5 6.9 2.8 15.4 11.3 17.8 23.1zm75.6-436h.3c4.3-.3 9.1-5.1 10.4-9.1 1-3.2 1.8-9.3-4.9-13.8-6.3-4.2-9.4-2.6-10.9-.5-1.9 2.6-2.5 9.6-2.6 11-.2 3.3 1.8 8.3 4.2 10.7 1.1 1.1 2.3 1.7 3.5 1.7zm-3.4-22.3c1.4-1.9 4.1-1.5 8 1.1 5.3 3.6 5.1 8.2 4 11.4-1.2 3.7-5.4 7.5-8.5 7.7-.9 0-1.7-.6-2.2-1.1-2.2-2.2-3.7-6.7-3.5-9.1.3-3.7 1.1-8.4 2.2-10zm-58.7 211.1c.8 0 1.4-.1 1.9-.4 1-.4 1.6-1.2 1.6-2.1 0-1.5-1.5-2.9-4.5-4.2-4.5-2-7.4-3-10.9-3-2.1 0-2.4 1.3-2.5 1.7-.3 2.1 2.6 5 5.3 5.9 4 1.4 7.1 2.1 9.1 2.1zm-12.4-7.5s.1-.1.5-.1c3.1 0 5.7.9 10.1 2.9 2.7 1.2 3.3 2.1 3.3 2.3 0 0-.1.1-.4.2-.9.3-3.9.1-9.5-1.9-2.3-.8-4-3-4-3.4zM46.9 213c.7 6.7 3.8 19.4 15.6 28.2 11.4 8.5 24.5 14.7 31.9 15.1 7.3.3 22.3 1 25.8-10.3 3.5-10.9 8.5-17.2 15.4-19 1.3-.3 2.5-.7 3.6-1 5.8-1.8 10.1-3 18.5-.9 8.9 2.2 12.6 7.5 15.3 11.3.3.5.6.9.9 1.3 2.7 3.8 7.9 10.9 14 13.8 3.8 1.8 13 6.6 15.6 12.1 1.8 4 7.8 14.9 13.2 18.3l7.3 4.5 2.2 1.3c6.4 3.9 15.1 9.2 22 9.8 1.7.2 3.4.4 5 .7 2.3.3 4.6.7 6.8.7 2.8 0 5.7-.6 8.6-2.2 7.1-4.7 8.9-11.8 5.2-20.2-4-9-15.3-16.4-18.6-18.5-4.4-2.7-19.1-12.4-23.1-22.2-1.7-4.3-2.2-9.2-2.6-14.4-.5-6.8-1.1-13.8-4.9-19.5-5.2-7.9-15-10.5-20.8-12.1-1.5-.4-2.9-.7-3.7-1.1-.9-.4-2.1-.8-3.6-1.2-5.6-1.6-14.9-4.3-18.2-11.6-1.7-3.8-3-8.4-4.2-12.9-1.9-6.9-3.9-14.1-7.5-18.5-7-8.7-18.7-17.7-31-17.2-7.3.3-14.2 2.3-20.4 4-4.8 1.3-9.3 2.6-13.2 2.9-9 .7-28.7 2.8-35.2 3.8-1 .1-2.3.3-4 .5-16 2.1-31.3 4.8-34.2 10.7-3.9 7.8-2.1 15 5.1 21.5 2.1 1.9 4 3.2 5.6 4.3 3.9 2.7 6.2 4.3 6.9 10.5.5 4.8.5 9.9.4 14.9-.1 4.6-.1 8.9.3 12.6zm-6.2-39.8c-1.6-1.1-3.4-2.3-5.4-4.1-6.5-5.9-8-12.1-4.6-19 2.9-5.7 23.7-8.4 32.6-9.6 1.7-.3 3.1-.4 4-.6 6.4-1 26-3.1 35-3.8 4.1-.3 8.7-1.6 13.6-3 6-1.7 12.8-3.6 19.9-3.9 11.4-.5 22.6 8.2 29.2 16.4 3.3 4.1 5.2 11.1 7.1 17.8 1.2 4.6 2.6 9.3 4.3 13.2 3.7 8.2 13.6 11.1 19.5 12.8 1.4.4 2.6.8 3.4 1.1 1 .4 2.3.7 4 1.2 5.9 1.6 14.8 4 19.6 11.2 3.5 5.2 4 12 4.6 18.5.4 5.1.8 10.4 2.7 15 4.2 10.2 18.2 19.6 24 23.2 2.3 1.4 13.9 8.8 17.8 17.5 3.3 7.5 1.7 13.6-4.5 17.6-4.6 2.9-8.9 2.2-13.9 1.4-1.7-.3-3.4-.5-5.2-.7-6.4-.6-14.9-5.8-21.1-9.5l-2.2-1.3s-2.6-1.6-7-4.4c-4.2-2.7-9.8-11.8-12.4-17.4-2.8-5.9-11.6-10.7-16.6-13.1-5.6-2.7-10.6-9.5-13.3-13.2l-.9-1.2c-2.7-3.9-6.8-9.8-16.5-12.2-8.9-2.2-13.6-.9-19.6.9-1.2.3-2.3.7-3.6 1-7.7 2-13.2 8.7-16.8 20.4-3.1 9.8-16.5 9.1-23.7 8.8-6.8-.4-19.7-6.5-30.7-14.7-11.2-8.4-14.1-20.4-14.8-26.8-.4-3.6-.4-7.8-.3-12.3.1-5 .2-10.2-.4-15.2-.8-7.2-3.7-9.2-7.8-12zm8.4 248.7c-1.5-.7-3-.7-4.1-.1-.5.2-1 .6-1.5.9-1.7 1-3.9 2.4-6.3 2.6-.6.1-1.2.1-1.8.1-2.4.1-5.4.2-5.4 3.7 0 3.7 3.6 6.2 7 7 .5.3 1.7.8 3.3.8 1.7 0 3.8-.6 5.9-2.7 4.6-4.1 5.8-7.7 5.5-9.5-.2-1.3-1.5-2.3-2.6-2.8zm-4.2 10.8c-3.7 3.4-6.9 1.6-7 1.5l-.4-.2c-2.7-.5-5.5-2.3-5.5-4.9 0-1.3.4-1.5 3.4-1.6.6 0 1.2 0 1.9-.1 2.9-.3 5.5-1.8 7.3-3 .5-.3 1-.6 1.4-.8.6-.3 1.4-.2 2.2.2 1 .5 1.5 1.1 1.5 1.3.2.8-.4 3.6-4.8 7.6zm32.9-243.6c.4 1.4.7 2.5.9 3.4.3 1.2 1.5 7-.1 12.1s1.3 12.7 4.7 14.4c3.1 1.5 5.9 1.8 10.5 1.8 7.9 0 13.2-8.7 14.3-10.3 1.4-2.5 3.2-6.4 3.6-10.8 0-.8.1-1.6.1-2.3.1-3.4.3-4.8 1.8-5.1 1.3-.3 2.8-.1 4.5.1 1.8.2 3.8.5 6 .2 4.2-.5 13.1-1.6 15.2-8.5 1.6-5.4 3-13.6-4.2-22.4-6.8-8.3-14.4-7-16.8-5.8-2.6 1.2-8.7 4.1-11.6 4.9-2.9.8-10.3 1.2-14.8.5-4.8-.7-11.1 2.7-12.7 6.9-.4 1-1 1.9-1.6 2.8-1.5 2.3-3.2 4.9-2.1 9.4.8 3.6 1.7 6.5 2.3 8.7zm1.5-17c.7-1 1.3-2 1.8-3.2 1-2.7 5.4-5.6 9.3-5.6h.9c4.5.7 12.2.5 15.7-.5 3.3-.9 9.9-4.1 12-5.1 2-.9 8.4-1.9 14.3 5.3 6.6 8 5.3 15.5 3.8 20.5-1.7 5.6-9.4 6.6-13.5 7.1-1.9.3-3.7 0-5.4-.2-1.8-.3-3.5-.5-5.2-.1-3.1.7-3.3 3.8-3.4 7 0 .7 0 1.4-.1 2.2-.3 3.9-2 7.6-3.3 9.9-.9 1.5-5.7 9.3-12.4 9.3-4.9 0-7.1-.3-9.6-1.6-2.3-1.2-5-7.6-3.6-11.9 1.8-5.5.6-11.5.2-13.2-.2-.9-.6-2.1-1-3.5-.6-2.2-1.5-5-2.3-8.6-.9-3.7.4-5.6 1.8-7.8zM3.3 408c-.8.4-1.9.7-3.2.9v-2.1c1.1-.2 1.7-.4 2.1-.6 1.1-.6 4.7-2.8 5.1-5.6.2-1.5-.7-3.1-2.5-4.7-1.6-1.5-2-1.4-3.3-1.2-.4.1-.9.1-1.4.2v-2.1c.4 0 .8-.1 1.1-.1 1.7-.3 2.8-.3 5 1.7 2.4 2.1 3.5 4.3 3.2 6.5-.4 3.6-4.4 6.2-6.1 7.1zm270.6-61c1.3.5 2.3.9 4.2 2 3.8 2.3 7.4 4.5 9.9 6.9.6.5 1.1 1.2 1.7 1.9 1.7 2.1 3.6 4.4 7.1 4.4h.5c4.3-.3 10.1-1.6 10.7-9.9.5-7-2.2-13.4-7.5-17.4-4.2-3.2-9.7-6.4-22.1-3.3-9.9 2.5-14.3 4.7-14.7 7.5-.4 2.3 2.2 3.9 3.1 4.4 3.7 2.2 5.5 2.9 7.1 3.5zm-8.1-7.7c.1-.9 2-2.9 13.1-5.7 3.4-.8 6.2-1.2 8.6-1.2 5.7 0 8.9 2 11.6 4.1 4.7 3.6 7.2 9.3 6.7 15.6-.4 6.5-4.4 7.7-8.7 7.9-2.7.2-4.2-1.6-5.8-3.6-.6-.7-1.2-1.4-1.9-2.1-2.7-2.5-6.4-4.8-10.3-7.2-2-1.2-3.2-1.7-4.5-2.2-1.5-.5-3.2-1.2-6.7-3.3-1.4-.9-2.2-1.7-2.1-2.3zM115.3 185c.2 0 .5 0 .5-.1 2.4-.2 4.6-1.3 6.1-3.1 1.7-2.1 2.4-5 2-8-.7-5.3-5.1-8.4-11.3-7.8-5.8.6-6 5.2-6.1 8.3v.9c-.1 2.7.9 5.4 2.8 7.3a8.4 8.4 0 0 0 6 2.5zm-6.6-10.6c.1-3.6.5-5.8 4.2-6.2.4-.1.9-.1 1.3-.1 4.4 0 7.2 2.2 7.7 6 .4 2.5-.2 4.8-1.5 6.4a6.08 6.08 0 0 1-4.6 2.3c-1.9.2-3.7-.5-5-1.8a7.61 7.61 0 0 1-2.1-5.7v-.9zM.1 363.6v-2.5c6.1 3.4 10.9 5.7 18.6 5.2 8.2-.5 23.1-3 32.9-6.2 11.3-3.7 23.2-1.2 27.8 0 6.6 1.8 18.8 1.3 23.3 0 .1 0 3.4-.8 5.6-1.8.4-.2 1.2-.7 2-1.2 3.5-2.2 10.1-6.4 17.6-6 8.6.5 16.1 6.3 19 8.5.3.2.5.4.7.6 2.4 1.8 10.9 7.2 13.5 7.7 2.8.5 12.1 3.7 14.8 6.9 1.1 1.3 2.1 3.7 3.2 6.5 1.5 3.8 3.2 8.1 5.7 11 4.1 4.9 10.7 10.6 18.6 10.6 5.1 0 8.3-.9 10.8-1.5 1.4-.4 2.6-.7 3.9-.8 1.1-.1 10.4-.7 15.4 4 3.7 3.5 18.1 11.5 22 13.2 3.2 1.4 18.7 6.7 30.3 5.9 10.8-.7 23.3-5.9 28.7-9.3l.9-.6c5.1-3.2 14.6-9 12-24.1-1.7-9.7-3.9-17.2-5.5-22.6-1.2-4-2-6.9-2.1-8.9-.1-1.2.3-3 .7-5.3 1.2-6.8 3.3-18.1-3.3-25.5-9.1-10.2-16.9-11.2-28.5-11.7-5.9-.3-14.1-.1-21.4.1-8.2.2-15.3.3-18.2-.1-6.6-.9-23-4.3-33.6-15.3-4.7-4.8-8.2-9.3-11.4-13.2-3.8-4.8-6.8-8.6-9.9-10.2-5.8-2.9-17-9.5-22.1-16-2.2-2.7-3.1-5.5-4-8.2-1.3-3.7-2.3-7-6.5-9.7-7-4.6-14-8.4-21.2-4.4-3.5 1.9-4.1 6.3-4.6 11-.5 4.4-1.1 8.9-4.4 11.3-6.6 4.7-27.7 9.1-34.5 8.6-7.2-.6-20-7.1-26-11.5-6-4.5-20.8-16.6-26.4-23-1.4-1.6-3.4-3.9-5.6-6.6-6.5-7.7-15.3-18.2-18.3-20.2l-1.4-1c-3.6-2.6-10.4-7.3-19.1-10.7v-2.3c9.4 3.5 16.5 8.6 20.3 11.2l1.3.9c3.2 2.2 11.8 12.4 18.7 20.6 2.2 2.6 4.2 5 5.6 6.6 5.5 6.2 20.1 18.2 26.1 22.7 5.6 4.2 18.1 10.6 24.9 11.1 6.5.5 27-3.8 33.1-8.2 2.6-1.8 3.1-5.7 3.6-9.8.6-5 1.2-10.1 5.7-12.5 8.3-4.6 16.1-.3 23.4 4.5 4.8 3.1 6.1 7 7.4 10.8.8 2.5 1.7 5.1 3.6 7.5 4.9 6.2 15.8 12.6 21.4 15.4 3.5 1.7 6.6 5.7 10.6 10.7 3.1 3.9 6.6 8.3 11.2 13.1 10.2 10.5 26.1 13.7 32.4 14.6 2.8.4 10.1.2 17.9.1 7.3-.2 15.6-.3 21.5-.1 11.8.5 20.3 1.6 30 12.4 7.3 8.2 5.1 20.2 3.8 27.3-.4 2.1-.7 3.8-.7 4.8.1 1.7.9 4.6 2.1 8.4 1.6 5.5 3.8 13.1 5.5 22.9 2.8 16.5-7.4 22.8-13 26.3l-.9.6c-5.2 3.3-17.9 8.8-29.7 9.6-.8.2-1.6.2-2.5.2-11.7 0-25.7-4.9-28.8-6.2-3.5-1.5-18.4-9.7-22.6-13.6-3.5-3.3-10.3-3.7-13.8-3.4-1.1.1-2.2.4-3.5.8-2.6.7-5.9 1.6-11.3 1.6-8.7 0-15.8-6.2-20.2-11.4-2.7-3.2-4.6-7.9-6.1-11.6-1-2.5-2-4.9-2.8-6-2.1-2.5-10.6-5.6-13.5-6.2-3.2-.6-12.4-6.6-14.3-8-.2-.2-.5-.4-.8-.6-2.7-2.1-9.8-7.7-17.8-8.1-6.9-.4-13.1 3.5-16.4 5.6-1 .6-1.7 1.1-2.3 1.3-2.4 1.1-5.8 1.9-6 1.9-4.6 1.3-17.2 1.9-24.4 0-4.4-1.2-15.8-3.5-26.6 0-9.9 3.3-25.1 5.8-33.4 6.3-7.7.5-12.9-1.7-18.7-4.8zM63 194.3c-.1.5-3.3 12-1.7 17.4 2.3 7.7 6.6 13.5 12.7 17.4 1.4.8 2.5 1.6 3.6 2.4 3.6 2.5 6.2 4.4 11.4 4.4 1.9 0 4-.2 6.5-.9 8.6-1.8 14.3-8.1 18.4-12.7 1.7-1.9 3.2-3.5 4.5-4.4.8-.6 1.8-1.4 2.8-2.2 4.9-3.9 11.5-9.3 20.9-8.3 11.5 1.2 29 8.6 29.8 8.9 1.1.6 2.5 1.3 4 2.1 5.6 3 12.7 6.7 16.5 7.4.6.1 1.2.3 1.8.4 4.5 1 10.5 2.3 13.1-5.2 2.6-7.7 2.9-10.8-3.7-15.4-3.3-2.3-9.9-4.3-16.9-6.4-5.8-1.7-11.8-3.5-15.4-5.4-8.3-4.4-14.2-8.2-15.5-17-.3-2.5-.5-5.1-.7-7.5-.6-7.1-1.1-13.8-5.4-19.2-5.6-7.1-10.5-11.4-26.3-8-6.8 1.5-10 2.8-12.6 3.9-3.1 1.3-5.4 2.2-12.3 2.6-7.1.4-14.7.2-20.8.1-4.9-.1-8.5-.1-10.1.1l-.8.1c-3.8.5-10.9 1.5-12.2 8.5-1.2 7.1 2 12.1 6.8 18.3 4.2 5.4 1.6 18.5 1.6 18.6zm-6.3-36.6c1-5.5 6.9-6.3 10.4-6.8l.8-.1c.7-.1 1.9-.1 3.5-.1 1.7 0 3.9.1 6.2.2 6.2.1 13.8.3 21-.1 7.3-.4 9.7-1.4 13-2.8 2.5-1 5.7-2.4 12.3-3.8 14.6-3.2 18.9.6 24.2 7.2 3.9 4.8 4.4 11.2 4.9 18 .2 2.5.4 5 .8 7.6 1.5 10.5 9.5 14.8 16.6 18.6 3.7 2 9.8 3.8 15.7 5.6 6.5 2 13.2 4 16.3 6.1 5.5 3.8 5.4 5.5 2.9 13-2 5.8-6.2 4.9-10.6 3.9-.7-.2-1.3-.3-1.9-.4-3.5-.7-10.7-4.5-15.9-7.2-1.5-.8-2.9-1.5-4-2.1h-.1c-.7-.3-18.4-7.9-30.4-9.1-10.3-1-17.6 4.9-22.4 8.8-1 .8-1.9 1.5-2.7 2.1-1.5 1.1-3 2.8-4.8 4.8-4.2 4.6-9.4 10.4-17.3 12-9.2 1.8-11.8 0-16.5-3.3-1.1-.8-2.3-1.6-3.7-2.5-5.7-3.6-9.7-9-11.8-16.2-1.4-4.9 1.7-16.1 1.8-16.3.1-.6 2.8-14.2-1.9-20.4-4.5-5.9-7.5-10.4-6.4-16.7zM16 626.1c-4.1-6.9-11.8-29.2-15.9-45.3V572c.3 1 .6 2.1.8 3.1 3.4 15.8 12.4 42.4 16.9 50 2 3.3 5.4 8.9 9.2 14.9h-2.4c-3.6-5.6-6.8-10.8-8.6-13.9zM7.4 498.5c2.8 8.3 7 9.7 13.9 12l.8.3c5.3 1.8 7.2 4.8 10.1 9.4.9 1.4 1.9 2.9 3 4.5 5.5 7.7 14.4 10.4 21.3 10.4.3 0 .6 0 .9.1 7.4-.2 13.8-7.2 18-11.8l2.1-2.3c3.4-3.7 5.6-6.2 11.7-7.1s10-3.6 11.6-8c.9-2.6 6-8.5 9.2-10.2 4.2-2.3 9.7-7.3 12.8-14.7.9-2.3 1-4.5.1-6.6-1.4-3.4-5.1-6.3-10.9-8.7-4.1-1.8-6.6-3.4-13.3-9.8-6.8-6.5-15.8-1-21.1 2.2l-.9.6c-4.3 2.7-15.2 8.2-25 10.4-8.8 2-15.8-.1-22-1.9l-.6-.2c-.6-.2-13.2-4-19.2-2.4-7 1.9-8.2 8.4-8.4 15.1-.2 5.1 1.3 8.2 3 11.8.9 1.9 2 4.1 2.9 6.9zm-3.8-18.8c.2-8.2 2.2-11.9 6.8-13.2.9-.2 1.9-.3 3.1-.3 6 0 14.8 2.7 14.7 2.6l.7.2c6.2 1.8 13.8 4 23.1 1.9 10.1-2.2 21.2-7.9 25.7-10.6l.9-.6c5.1-3.2 12.9-7.9 18.5-2.5 6.5 6.3 9.3 8.3 14 10.2 6.6 2.7 9 5.6 9.8 7.5.7 1.6.6 3.2-.1 5-2.9 6.9-8.2 11.6-11.9 13.6-3.8 2-9.1 8.3-10.2 11.3-1.3 3.7-4.6 5.9-9.9 6.7-6.8 1-9.4 3.9-13 7.8l-2.1 2.3c-3.9 4.4-9.9 11-16.5 11.2-6.3.3-15.1-2.1-20.3-9.5-1.1-1.6-2-3-2.9-4.4-3-4.8-5.2-8.3-11.2-10.3l-.8-.3c-6.7-2.2-10.1-3.4-12.6-10.7-1-2.9-2.1-5.1-3-7.1-1.7-3.5-3-6.1-2.8-10.8zm8.5 81.7C9.5 555.9 6 550 .1 544.2v-3c7.1 6.5 11 13.2 13.9 19.3 1.9 3.9 4.2 10 6.9 17 5.1 13.1 11.3 29.5 17.2 37.7 8.7 12.3 15 17.6 20.5 17.4 3.6-.2 21.6-1.9 27-21.5 3.1-11.4 2.5-22.4 1.9-32.2-.4-6.4-.7-11.9.2-16.3 2.1-10.5 6-20.8 20.4-24.4 3.9-1 7.6-1.6 11.3-2.2 9-1.4 16.1-2.6 19.1-8.3 1.5-2.9 2.4-6.1 3.2-9.1 1.7-6.2 3.3-12.1 9.9-14.2l3-.9c8.4-2.5 16.4-4.8 18.6-15.8 2.6-12.7-2.7-20.2-6-23.5-1.6-1.4-3.3-2.7-5.1-3.9-5.1-3.7-12.1-8.7-16.1-15.4-4.9-8.2-11.3-15.6-21.4-24.8-7.9-7.2-17.6-9.9-31.5-8.5-5.2.5-9.3 1.7-12.5 2.7-5.3 1.6-9.1 2.7-12.7-.9-1.7-1.7-2.6-3.7-2.5-5.8 0-3.4 2.3-7.2 7-11.7l.8-.7c4.9-4.6 14-13.3 25.9-16.6 12.1-3.3 14.3-2.4 19.7-.3l.9.3c6.2 2.4 13.2 4.1 17.8 4.4 4.6.2 12.7 2.1 16 6.4.5.7 1.1 1.5 1.8 2.5 3 4.3 8 11.6 16.1 15.2 1.8.8 3.5 1.6 5.1 2.4 7.5 3.6 13.4 6.5 25.8 5.2 15.9-1.6 20.3-.9 31.3 5.1 3.7 2 8.3 4.9 13.2 8 9 5.6 19.2 12 23.1 12.4 1.5.1 3.7.4 6.1.7 7.5.9 18.8 2.4 26.7 1.4 13.1-1.6 31.4-5.1 38.3-16 7.2-11.4 9.6-23.4 7-33.8-2.6-10.1-7-19-10.1-23.5-4.2-6.2-4.3-14.5-.4-26.6 4.2-13 2.7-20.3-5.2-27.2-2.6-2.2-6.5-5.1-10.6-8.2-8.8-6.6-18.7-14.1-23.9-20.5-4.7-5.8-6.7-13.1-8.5-19.5-1.2-4.2-2.3-8.2-4-11-3.9-6.6-14.2-12.4-18.6-14.9l-.9-.5c-1.3-.7-12.4-7.5-15.5-25.4-2.8-16.1-12.9-24.6-20.8-27-10.5-3.2-28.8-9.8-33.4-17.5-3.8-6.5-9.8-19-13.3-26.5l-1.7-3.5c-1.7-3.6-8.4-15.8-22.3-22.3-13.2-6.2-20.5-5.6-26.3-4.1-2.3.6-4.8 1.7-7.7 3-5.7 2.6-12.7 5.7-21.1 5.9-5.6.1-14.4 1.4-23.6 2.7-11.1 1.6-22.5 3.2-31.2 3.3-15.9.3-28.4 8.8-30 12.2-1.7 3.6-4.9 17.3-4.9 23.4 0 3.9-1 16.5-13.9 17.7v-2c10.5-1.2 11.7-11.2 11.7-15.6 0-6.1 3.1-20.1 5.1-24.3 2.1-4.6 15.9-13.2 31.9-13.5 8.5-.1 19.9-1.8 30.9-3.3 9.3-1.3 18.1-2.6 23.9-2.7 8-.2 14.5-3.1 20.3-5.7 2.9-1.3 5.6-2.5 8.1-3.2 8.5-2.2 16.5-1 27.7 4.3 14.5 6.8 21.5 19.6 23.3 23.3l1.7 3.5c3.5 7.4 9.5 19.9 13.2 26.3 4.3 7.4 24 14.1 32.2 16.6 8.4 2.6 19.3 11.6 22.2 28.6 2.9 16.9 13.3 23.2 14.4 23.9l.9.5c4.5 2.6 15.1 8.5 19.3 15.6 1.8 3.1 3 7.2 4.2 11.5 1.8 6.2 3.8 13.3 8.2 18.8 5 6.2 15.3 13.9 23.5 20.1 4.1 3.1 8 6 10.7 8.3 8.6 7.4 10.2 15.7 5.8 29.4-4.7 14.7-2.4 21 .1 24.8 3.3 4.9 7.7 13.8 10.4 24.2 2.8 11 .3 23.6-7.2 35.4-7.4 11.7-26.3 15.3-39.8 17-8.1 1-19.6-.4-27.2-1.4-2.4-.3-4.5-.6-6-.7-4.4-.4-14.4-6.6-24.1-12.7-4.8-3-9.4-5.9-13.1-7.9-10.6-5.8-14.5-6.4-30.1-4.9-13 1.3-19.5-1.8-26.9-5.4-1.6-.8-3.3-1.6-5.1-2.4-8.7-3.8-13.9-11.4-17-15.9-.7-1-1.2-1.8-1.7-2.4-2.5-3.3-9.3-5.3-14.4-5.6-4.9-.3-11.9-2-18.4-4.5l-.9-.3c-5.3-2.1-7-2.8-18.4.4-11.4 3.2-20.3 11.5-25 16.1l-.8.7c-4.2 4-6.3 7.3-6.4 10.2 0 1.6.6 3 1.9 4.3 2.6 2.6 5.2 2 10.6.4 3.3-1 7.5-2.3 12.9-2.8 14.5-1.4 24.8 1.4 33.1 9.1 10.2 9.4 16.8 16.9 21.8 25.3 3.8 6.4 10.6 11.2 15.6 14.8 2.2 1.6 4.2 3 5.4 4.2 3.6 3.6 9.3 11.8 6.6 25.4-2.5 12.2-11.8 14.9-20.1 17.4l-3 .9c-5.5 1.7-6.9 6.8-8.5 12.7-.9 3.2-1.8 6.5-3.4 9.6-3.6 6.7-11.5 7.9-20.6 9.4-3.6.6-7.3 1.2-11.1 2.1-12.6 3.2-16.7 11.4-18.9 22.8-.8 4.1-.5 9.5-.1 15.7.5 9.4 1.2 21.1-2 32.9-5.7 21-25.1 22.9-28.9 23.1-.2-.2-.3-.2-.5-.2-6.1 0-12.9-5.7-21.8-18.3-6-8.4-12.3-24.9-17.4-38.2-2.7-6.9-5-12.9-6.8-16.8zM4.9 640c-1.1-8.1-2.8-15.7-4.8-22.1V611c2.7 7.7 5.5 17.8 6.9 29H4.9zm33.5-131.6c4.7 1.9 10 2.6 15.1 2.6 8.2 0 16.2-1.8 22.1-4.1 11.2-4.4 17.2-18.1 19-25.4.8-3.7.4-6.9-1.3-9.3-1.6-2.3-4.3-3.8-7.5-4.1-5.1-.5-10 3.1-13.2 6.3-1.4 1.5-7.7 3.7-16.5 5.8-5.3 1.3-8.4.3-12-.9-2.1-.7-4.3-1.4-7.1-1.7-8.1-.9-12.3.3-14.5 9.7-2.1 8.9 3.6 16.4 15.9 21.1zm-13.9-20.6c1.6-6.6 4.2-8.3 8.7-8.3 1 0 2.2.1 3.6.1 2.6.3 4.7.9 6.7 1.6 3.7 1.2 7.3 2.4 13.1 1 5.5-1.3 15.1-3.9 17.5-6.3 2.4-2.3 6.9-6.1 11.5-5.7 2.6.3 4.7 1.4 6 3.2 1.3 1.9 1.6 4.5.9 7.6-1.7 6.9-7.3 19.8-17.8 23.9-9 3.6-23.8 6.1-35.6 1.6-6.5-2.5-17.1-8.2-14.6-18.7zM3.8 417.6c-1.2.3-2.4.7-3.7 1v-2.2c1-.3 1.9-.5 2.8-.8l.7-.2c6.6-1.9 15.9-10.7 20.4-14.9l.9-.9c4.3-4.1 8.5-4.8 13.5-5.3 2.4-.2 4.5-1.5 5.5-3.3 1.1-2.1 1-4.7-.5-7.7-2.7-5.4-8.2-4.6-12.2-4-.8.1-1.6.2-2.2.3-1.5.1-4.9.8-8.5 1.6-5.1 1.1-10.8 2.3-14.6 2.6-2.1.2-4-.2-5.8-.8v-2.3c1.8.8 3.7 1.2 5.7 1 3.7-.3 9.4-1.5 14.4-2.6 3.8-.8 7.2-1.5 8.8-1.6.6 0 1.3-.2 2.1-.3 4.1-.6 11-1.7 14.4 5.1 2.3 4.6 1.5 7.8.5 9.7-1.3 2.4-4 4.1-7.1 4.4-5.5.5-8.7 1.4-12.2 4.7l-.9.9c-4.6 4.3-14.2 13.4-21.3 15.4l-.7.2zm-2.9 101c-.3-.2-.5-.4-.8-.6v-2.8c.7.5 1.4 1.1 2.1 1.5 6.7 4.5 16.8 12.3 24.3 19.8 7.4 7.4 13.9 23.4 18.1 34.7 3.4 9.1 13.3 18.9 20.9 17.9 7.1-.9 6.5-11.7 6.2-16.9v-.6c-.1-1.6-.3-3.3-.4-4.9-.4-3.4-.7-7-.4-10.4.5-5.2 6.4-19.3 9.4-23.3 3.1-4.3 14.3-10.6 25.3-13 13-2.8 16.3-10.4 17.1-12.7 1.6-5.1 9.9-15.7 18.1-19.8 7.3-3.6 5.9-17.7 1.6-26.1-3.6-7.2-11.8-8.4-16.6-9.1-.8-.1-1.5-.2-2-.3-3.4-.6-12.5-3.5-13.2-9-.5-3.8-4.6-10.3-8.8-11-4-.7-10.6-.3-21.9 10.2-11.4 10.6-24.3 15.5-41.6 15.8-16.9.2-32.2-7.2-38.2-10.1v-2.3l.6.3.2.1c6.2 3.1 20.8 10.2 37.4 10 16.8-.3 29.2-4.9 40.2-15.2 11.9-11.1 18.9-11.6 23.7-10.8 5.4.9 10 8.3 10.6 12.8.4 3.5 7.1 6.3 11.5 7.2.5.1 1.2.2 1.9.3 4.9.7 14.1 2 18.2 10.2 4.5 9 6.2 24.6-2.6 28.9-7.6 3.8-15.6 13.9-17 18.5-.8 2.5-4.5 11.1-18.6 14.1-11.1 2.4-21.5 8.7-24 12.2-2.7 3.7-8.5 17.5-9 22.3-.3 3.2 0 6.7.4 10 .2 1.7.3 3.4.4 5v.6c.3 5.4 1 18-8 19.1-.8.2-1.3.2-1.7.2-8.5 0-18.3-9.9-21.8-19.4-2.4-6.4-9.7-26.1-17.6-34-7.4-7.3-17.4-15-24-19.4zm49.4-19.5c.2 0 .3 0 .7.1 7.6-.3 11.6-1.7 18.1-6.5 1.3-1 3-2.5 2.4-4.1-.9-2.3-6.3-1.7-7.4-1.5-.7.1-1.5.2-2.4.4-1.6.3-3.6.7-6.2 1-.7.1-1.3.1-2 .1-1.9 0-4.2 0-6.8 1.4-2.2 1.2-3.4 3.5-2.8 5.6.3 1.1 1.5 3.5 6.4 3.5zm-2.6-7.1c2.2-1.2 4-1.2 5.8-1.2.8 0 1.5 0 2.2-.1 2.6-.4 4.7-.8 6.3-1.1.9-.2 1.6-.3 2.3-.4.8-.1 1.6-.2 2.4-.2 1.2 0 2.3.1 2.7.4-.1.2-.5.7-1.7 1.6-6.1 4.5-9.7 5.9-16.9 6.1-2.7.1-4.5-.6-4.9-1.9-.3-1.1.5-2.5 1.8-3.2zM.1 276.9v-3.4c3.8 4.9 8.4 9.8 12.5 11.1 8.6 2.5 15.6 4.1 22.2 4.9 6.4.7 18.2 11.2 19.6 13 1.3 1.7 13.7 13.4 20.1 15 12.6 3.3 14.5 1.3 14.9.6.5-1.2.5-2.8-.1-4.3-.8-2-3-4.8-8.7-6.9-4.9-1.8-7.7-2.6-10-3.2-2.1-.6-3.8-1-6.2-2.1-2.9-1.2-3.9-2.9-5.1-5-1-1.8-2.3-3.9-5.4-6.8-6-5.7-8.8-7-14.3-9.6l-1.5-.7c-7.4-3.5-14.7-11-20.7-21.2-3.3-5.5-8.9-15-17.3-22.9v-2.9c9.5 8.3 15.7 18.9 19.2 24.8C25 266.9 32 274.1 39 277.4l1.5.7c5.6 2.6 8.6 4.1 14.9 9.9 3.2 3.1 4.6 5.4 5.7 7.3 1.1 1.9 1.8 3.1 4.1 4.1s3.9 1.4 5.9 2c2.3.6 5.2 1.4 10.1 3.3 6.4 2.4 8.9 5.7 9.9 8 .9 2 .9 4.2.1 6-.7 1.7-2.6 2.5-5.8 2.5-2.8 0-6.6-.6-11.5-1.9-7.2-1.9-20-14.3-21.2-15.7-1.5-1.8-12.7-11.6-18.2-12.2-6.7-.8-13.9-2.4-22.6-4.9-3.9-1.2-8.2-5.2-11.8-9.6zM139.6 0h2.2c-.2 5.5.6 8.7 2.6 9.4 3.1 1.2 7.1 2.3 14.5-.3 7.1-2.4 13.4-6.6 15.3-9.1h2.6c-.1.2-.3.4-.4.6l-.3.4c-2 2.8-8.7 7.4-16.5 10.1-3.7 1.1-6.6 1.6-9 1.6-2.9 0-5.1-.6-7.1-1.4-3.6-1.4-4-6.8-3.9-11.3zm74.1 353.2c2.1-.1 4.8-.6 5.4-2.6.5-1.8-1-3.8-4.9-6.6-3.2-2.3-6.1-4.6-9-6.8-4.7-3.7-8.8-6.9-12.6-9-6.2-3.5-13.1-9.1-14-10.6l-.3-.5c-1.2-2.2-4.1-7.3-8.4-10.6l-.5-.4c-4.2-3.2-7.3-5.5-12.4-5.8-4.9-.2-12.9-2.1-18.7-5.1-6.6-3.4-17.6-1.3-21.7 2.8-3.2 3.3-4.8 13.8-4.5 18.4.1 2.7.5 5.4 2.4 7 1.3 1.1 3.2 1.5 5.8 1.2 4.2-.5 9.9-3.7 13.6-5.9 1.5-.9 2.8-1.7 3.4-1.9 3.9-1.4 8.1-.7 11.6 1.9 4.1 3 6.7 8.3 7.8 11.8 1.4 4.6 9.8 9 13.1 9.9.6.1 1.1.3 1.6.4 2.7.8 4.9 1.4 8 .9l.5-.1c3.2-.5 6.6-1 9.1.5h.1c0 .1 9.8 4.5 13 6.3 1 .5 1.9 1.1 2.8 1.6 3.1 1.8 5.6 3.3 8.2 3.3.2 0 .4 0 .6-.1zm-7.7-5c-.9-.5-1.9-1-2.9-1.6-3.2-1.7-12.3-5.9-13.1-6.3-3.2-1.8-7-1.2-10.2-.9l-.5.1c-2.6.5-4.5-.1-7.1-.8-.5-.1-1-.2-1.6-.4-2.9-.8-10.5-4.9-11.6-8.5-1.1-3.9-4.1-9.6-8.5-12.9-4.1-3-9-3.8-13.6-2.2-.8.2-2.1 1-3.8 2-3.6 2.1-9 5.3-12.8 5.7-1.9.2-3.3-.1-4.2-.8-1-.9-1.5-2.5-1.7-5.5-.3-4.8 1.4-14.3 3.9-16.8 3.5-3.5 13.5-5.4 19.2-2.4a54.8 54.8 0 0 0 19.6 5.4c4.4.2 7.1 2.3 11.2 5.4l.5.4c3.9 3.1 6.6 7.9 7.8 10l.3.5c1.2 2.2 8.8 8 14.8 11.4 3.6 2.1 7.7 5.2 12.3 8.8 2.9 2.3 5.9 4.6 9.1 6.9 4.4 3.2 4.1 4.4 4.1 4.4s-.3.8-3.6 1.1c-2.2.2-4.6-1.2-7.6-3zm99.7-144.3c-1.4 9.7 4.3 14.8 10.7 18.9 5 3.2 9.7 3.6 14.5 3.6.9 0 1.8 0 2.7-.1h2.8c4.7 0 9.3-3.8 13.6-11.3l.1-.1c.3-.5.7-1.5 1.3-2.7 1.4-3.1 3.8-8.3 6.2-11.1 3.7-4.2 3.1-8.8 2.1-17.8v-.3c-1-8.3-14.1-19.8-21.1-25.9-1-.9-1.9-1.7-2.6-2.3-6-5.5-15.8-7.7-22.3-7.4-6.7.3-7.8 5.6-8.1 10.7-.1 2.8.9 6.5 2.1 10.4 1 3.4 2 6.8 2.4 10 .5 4.3-.8 9.6-2.2 15.2-.8 3.3-1.7 6.8-2.2 10.2zm6.5-25.7c-.3-3.4-1.4-6.9-2.4-10.3-1.1-3.7-2.1-7.2-2-9.7.3-5.2 1.4-8.5 6.1-8.7h1.1c6 0 14.4 2.1 19.5 6.7.6.6 1.5 1.4 2.6 2.3 6.4 5.6 19.5 17.1 20.4 24.6v.3c1 8.7 1.5 12.7-1.6 16.2-2.6 3-4.9 8.2-6.5 11.6-.5 1.1-.9 2-1.2 2.5l-.1.2c-4.8 8.5-9.1 10.3-11.8 10.3h-2.8c-5.7.1-10.6.1-16-3.3-6.9-4.4-11-8.8-9.8-16.8.5-3.2 1.4-6.7 2.2-10 1.4-5.8 2.8-11.3 2.3-15.9zM.1 19.3v-2.5c2.2-1.6 4-3.9 4.8-7.5C5.5 6.6 6 3.5 6.2 0h2.1C8 3.6 7.6 6.9 6.9 9.7c-1.1 4.8-3.8 7.8-6.8 9.6zM38.8 3.7c-1.5-1.2-2.9-2.4-4.3-3.7h3.1c.8.7 1.6 1.3 2.4 1.9 1.7 1.3 3.4 2.7 4.9 4.3 3.1 3.4 14 10.5 18.8 11.2 4.6.7 11.4-.2 14.3-2.9C81.7 11.4 88.3 5 89.7 2.2c.2-.4.4-.9.8-1.5.1-.2.2-.5.4-.7h2.4c-.3.6-.6 1.2-.9 1.7-.3.6-.6 1.1-.8 1.5-1.9 3.7-10.3 11.6-12 13.2-2.8 2.4-7.9 3.6-12.5 3.6-1.3 0-2.5-.1-3.6-.3-5.3-.8-16.5-8.1-20-11.9-1.3-1.5-3-2.7-4.7-4.1zm373.3 209.1c-1.8 1.8-7.5 8.7-7.9 9.2-2.3 2.4-4.7 5.3-7.1 8.1-3.5 4.2-6.8 8.1-9.1 10.2-3.7 3.5-3.2 8.6-2.8 12.3.1.5.2 1.1.2 1.6.3 4.2 5.7 9.5 7.9 10.6.8.3 1.7.6 2.8 1 2.2.8 4.9 1.7 6.7 3.3 1.1 1 2.5 2.9 3.9 4.8 2.2 3 4.6 6.2 6.8 7.4.8.4 1.5 1 2.3 1.6 1.9 1.4 4.1 3.1 7.3 3.1 1 0 2.2-.2 3.4-.7 6.9-2.3 11.4-9.5 12.7-13.5 1.2-3.9 4.4-8.7 6.9-10.5 2.8-1.9 17.3-17 19.4-19.9.3-.4.6-.8 1-1.2 2.4-2.8 6.3-7.5 4.2-18.2-2.1-10.5-7-12.6-11.4-14.4-.7-.3-1.5-.6-2.2-1-5-2.6-14.5-8.4-18.5-13.4-.5-.6-1-1.2-1.5-1.9-3.8-4.9-8.1-10.5-14.9-9.5-8 1.2-8 4.8-8 12.6 0 12.1-1.2 17.5-2.1 18.4zm4.2-18.4c0-7.9 0-9.6 6.2-10.5.5-.1.9-.1 1.3-.1 4.9 0 8.4 4.4 11.7 8.6.5.6 1 1.3 1.5 1.9 4.1 5.2 14 11.3 19.2 13.9.8.4 1.6.8 2.4 1.1 4.1 1.7 8.3 3.5 10.2 12.9 2 9.7-1.4 13.8-3.7 16.5-.4.4-.8.9-1.1 1.3-2 2.7-16.3 17.6-18.9 19.4-2.9 2.1-6.3 7.3-7.7 11.6-1.1 3.6-5.2 10.1-11.4 12.2-4.2 1.4-6.5-.3-8.9-2.1-.8-.6-1.7-1.2-2.6-1.7-1.8-.9-4.1-4.1-6.1-6.8-1.5-2-3-4-4.2-5.1-2.1-1.9-5-2.9-7.4-3.7-1-.3-1.9-.6-2.5-.9-1.9-.9-6.6-5.6-6.8-8.8-.1-.5-.1-1.1-.2-1.7-.3-3.5-.8-7.8 2.2-10.6 2.4-2.2 5.7-6.1 9.3-10.3 2.3-2.8 4.8-5.7 7-8.1.1-.1 6-7.3 7.8-9.1 2.2-2.2 2.7-12 2.7-19.9zm-125.9-85.9c-3.3-17 .3-32.9 9.4-42.6 2-2.1 3.9-3.8 5.5-5.3 6.3-5.7 9.1-8.4 5.8-20.7-1.3-4.8-2.7-9.2-3.9-13-2.9-9.2-5.3-16.5-4.5-23.3.1-1 .3-2.2.5-3.6h2.1c-.2 1.5-.4 2.7-.5 3.8-.7 6.4 1.5 13.5 4.4 22.4 1.2 3.9 2.6 8.2 4 13.1 3.7 13.5.1 16.8-6.4 22.8-1.6 1.5-3.5 3.2-5.4 5.2-8.6 9.1-12 24.7-8.9 40.8 3 15.3 18 24 31.6 25.9 10.2 1.4 13.1 3.8 18.4 8.1 2.7 2.2 6 4.9 11.4 8.4 14.8 9.4 25.5 22.2 26.7 32 1 8.5-8 21.7-18.4 37l-2.2 3.3c-11.5 16.9-13.1 24-12.4 32.6.8 9.1 7.1 27.7 26.3 40.1 17.9 11.6 18.6 24.9 19.5 43.2l.3 6.1c1.2 20.2 7.7 27.6 12.8 30.3 5.2 2.7 22.8 8.8 35.7 1.3 12-6.9 14.2-19 15.2-24.7.1-.6.2-1.1.3-1.6.3-1.6.3-5.2.3-9.7 0-9.2 0-23 2.8-36.3 2.9-13.8 10.4-19.6 18.9-26.4 3.9-3.1 8-6.3 12-10.6 7.3-7.7 8.8-13.1 11-20.5 1.6-5.5 3.4-11.8 8-20.7 8.9-17.3 1.5-23-4.4-27.5-1-.7-1.9-1.5-2.7-2.2-4.4-4-22.1-8.9-31.7-11.5-2-.6-3.7-1-4.9-1.4-9.2-2.7-14.7-16.4-16.2-20.6-3.6-10.2 2-19.2 3.8-21.7 3.3-4.6 9-24 10.3-30.5 1.4-6.8 0-15.6-7.9-19.9-7.2-3.9-15.7-1.7-19.7-.6-.6.2-1.1.3-1.6.4-2.7.6-13.2 4.8-20.9 7.9-1.9.8-3.7 1.5-5.2 2.1-6.9 2.7-12.6 2.1-21.2 1.2l-2.9-.3c-10.9-1.1-17.9-15.1-19.5-19.9-1.2-3.5-.6-10.2 0-16.6.2-2.6.4-5.1.5-7.1.2-4.5-1.3-9.2-2.8-13.8-.8-2.4-1.6-5-2.1-7.5-1.5-6.9-2.9-17.5-2.9-22.3 0-3.2.9-9.4 2.3-14.1h2.3c-1.4 4.3-2.4 10.7-2.4 14.2 0 4.1 1.2 14.6 2.9 21.8.5 2.4 1.3 4.9 2.1 7.3 1.5 4.8 3.1 9.7 2.9 14.5-.1 2.1-.3 4.6-.5 7.2-.5 5.9-1.1 12.6-.1 15.7 1.9 5.6 8.7 17.5 17.7 18.4l2.9.3c8.3.9 13.8 1.5 20.2-1l5.2-2.1c8.2-3.3 18.4-7.3 21.2-8 .4-.1.9-.2 1.5-.4 4.3-1.2 13.3-3.6 21.3.7 8.9 4.8 10.4 14.6 8.9 22.1-1.4 6.8-7.2 26.5-10.7 31.4-1.7 2.3-6.8 10.5-3.5 19.8 2.9 8 8.2 17.3 14.8 19.3 1.2.4 2.9.8 4.9 1.4 10.4 2.9 27.7 7.7 32.5 12 .7.7 1.6 1.3 2.5 2.1 5.9 4.5 14.7 11.3 5 30.1-4.5 8.7-6.3 14.9-7.8 20.3-2.2 7.4-3.9 13.3-11.5 21.4-4.1 4.4-8.3 7.6-12.2 10.8-8.3 6.5-15.4 12.1-18.2 25.2-2.8 13-2.8 26.7-2.8 35.8 0 4.8 0 8.2-.4 10.1l-.3 1.5c-1.1 6.1-3.3 18.7-16.2 26.2-5.1 3.1-10.6 4.1-15.9 4.1-9.4 0-18.2-3.2-21.9-5.2-5.6-3-12.6-10.9-13.9-32.1l-.3-6.1c-.9-17.7-1.6-30.5-18.6-41.6-19.8-12.9-26.4-32.3-27.2-41.7-.9-10.3 2.1-18.3 12.8-34l2.2-3.3c9.8-14.3 19-27.9 18-35.6-.9-7.6-9.2-20-25.7-30.4-5.5-3.5-8.9-6.3-11.6-8.5-5.1-4.2-7.7-6.3-17.3-7.6-14.4-2-30.3-11.3-33.4-27.6zm113.4 285.2c-1.1.4-2.4.9-3.8 1.4-5.9 2.1-8 3.7-10.5 5.6-1.1.9-2.2 1.7-3.8 2.7-3.4 2.1-6.4 6.2-2.1 14 1.9 3.4 4.3 5 7.9 5 1.2 0 2.5-.2 4.1-.5 5.3-1.3 8.1-6 10.1-9.4l.2-.4c.3-.4 6.8-10.2 7.3-15.9.1-1.3.1-3-1.1-3.9-1.6-1.2-4.1-.2-8.3 1.4zm7.2 2.2c-.4 5.2-6.8 14.9-6.9 15l-.3.5c-2 3.3-4.4 7.3-8.8 8.4-4.9 1.1-7.5.2-9.6-3.5-2.9-5.1-2.4-8.8 1.4-11.2 1.6-1.1 2.8-2 3.9-2.8 2.4-1.9 4.3-3.3 9.9-5.3 1.4-.5 2.6-1 3.8-1.4 2.3-.9 4.7-1.8 5.8-1.8.2 0 .4.1.6.1 0 .1.4.4.2 2zM268.5 103.6c-3-8.1-2.4-21.7 1.1-29.1.8-1.7 1.7-3.4 2.8-5.3 3.4-6.3 7.7-14.2 8-22.9.2-7.9-1.5-13.2-3.1-17.8-.7-2-1.3-3.8-1.7-5.8-.8-3.3-.6-12.7.6-22.7h2.1c-1.1 9.8-1.3 19.2-.6 22.3a35 35 0 0 0 1.7 5.5c1.6 4.8 3.5 10.2 3.2 18.5-.3 9.2-4.7 17.4-8.2 23.9-1 1.9-2 3.6-2.7 5.2-3.3 7-3.8 19.8-1 27.5 1 2.8 2.5 6.1 4.4 10.3 3.3 7.3 7.8 17.3 13.1 32 7.9 21.8 6 39.8 4.8 50.5l-.2 2.1c-1.1 10.6 1.6 16.9 3.2 18.8 2.4 2.8 11.7 13.1 18.4 19.1 7.4 6.7 8.7 21.1 8.4 27.8-.4 6.9-.1 12.6 6.3 17.7 7.1 5.7 23.6 16.9 27.9 19.5 5 3.1 14.4 15.6 15.9 24.1 1.1 6.8-.4 21.3-1.4 31-.3 2.5-.5 4.7-.6 6.4-.5 5.6 1.3 9.5 3 13.4.7 1.5 1.3 2.9 1.8 4.4 1.3 3.8-1 8.2-3.4 12.8-1.2 2.4-2.5 4.8-3.2 7.1-.5 1.6-1.3 3.4-2.1 5.4-2.6 6.3-5.8 14.2-3.5 20.5 3.3 9 12.5 14.2 24.1 13.6 10.1-.5 18.3-6 23.2-9.2 1.2-.8 2.2-1.4 3-1.9 1.3-.7 3.6-3 6.4-5.9 4.8-4.9 12-12.2 21.8-19.2 11.8-8.4 19.6-17.3 25.9-24.6 2-2.3 4-4.5 5.8-6.4 4.6-4.9 6-14.6 3.9-28.8-.4-2.5-2.1-15.6-1.8-25 .4-9.3 6.5-22.7 14.6-31.8 9-10.2 22.2-17.9 33.5-19.6 5.3-.8 10.3.7 14 4.2.8.7 1.5 1.5 2.1 2.4v5.1c-.8-2.3-2.1-4.4-3.9-6.1-3.3-3-7.6-4.3-12.3-3.6-10.7 1.6-23.6 9.2-32.2 18.9-8.7 9.8-13.8 23-14.1 30.5-.4 9.2 1.4 22.1 1.7 24.6 2.1 15 .6 25.2-4.5 30.6-1.8 1.9-3.7 4.1-5.7 6.4-6.4 7.3-14.3 16.4-26.3 24.9-9.7 6.9-16.8 14.2-21.6 19-3.1 3.1-5.3 5.4-6.9 6.2-.7.4-1.7 1-2.8 1.8-5 3.3-13.5 9-24.2 9.5-12.6.7-22.6-5.1-26.2-15-2.5-7.1.8-15.4 3.6-22 .8-1.9 1.5-3.7 2-5.2.8-2.4 2.1-5 3.3-7.4 2.2-4.2 4.3-8.2 3.3-11.2-.5-1.4-1.1-2.8-1.7-4.2-1.8-3.9-3.7-8.3-3.2-14.4.1-1.7.4-3.9.6-6.4 1-9.5 2.5-23.9 1.5-30.4-1.4-8.3-10.7-20.1-14.9-22.7-4.3-2.6-20.9-13.9-28.1-19.7-7.7-6.2-7.3-13.5-7-19.4.4-7.4-1.3-20.4-7.7-26.1-6.8-6.1-16.2-16.5-18.6-19.3-2.6-3-4.8-10.5-3.7-20.4l.2-2.1c1.1-10.5 3.1-28.2-4.7-49.6-5.3-14.6-9.8-24.6-13-31.9-1.9-4.2-3.4-7.6-4.4-10.4zM55.1 115.4c-14.4 2.5-41.2 7.9-55 12.2v-2.1c14.1-4.4 39.9-9.5 54.7-12.1 4.1-.7 8.3-1.1 12.8-1.6 11.7-1.2 25-2.5 40.7-9.9 22.7-10.7 44.3-9.8 53.4-7.7 8.9 2.1 26.2 12.8 34.3 39.3 6.1 20 15.6 27.3 22.6 32.6 1.5 1.2 2.9 2.3 4.1 3.3 3.9 3.6 13.3 4.9 20.9 5.9 4 .5 7.5 1 9.7 1.7 1 .3 2.1.8 3.3 1.3 4.3 1.8 10.2 4.3 14.5 2.2 2.3-1.1 4-3.6 5-7.3 3.2-11.4-.6-19.5-3.3-25.3-.8-1.8-1.5-3.3-2-4.8-.7-2.4-3.1-6.1-5.8-10.5-4-6.4-8.9-14.3-11.5-22.3-4-12.1-4.4-26.1-4-35.8.3-6.4 3.2-31.8 4.7-40 1.5-7.8 1.6-25.6 1.6-34.5h2c0 9.5-.1 26.8-1.6 34.9-1.5 8.2-4.4 33.4-4.7 39.7-.3 7.8-.2 22.6 3.9 35 2.6 7.7 7.4 15.6 11.3 21.8 2.9 4.7 5.2 8.3 6 11 .4 1.3 1.1 2.8 1.9 4.5 2.8 6.2 6.7 14.6 3.4 26.8-1.2 4.3-3.2 7.2-6.1 8.6-1.4.9-2.9 1.2-4.5 1.2-4 0-8.2-1.8-11.6-3.2-1.2-.5-2.3-.9-3.2-1.3-2-.7-5.4-1.1-9.3-1.7-7.8-1.1-17.6-2.4-22-6.4-1.1-1-2.4-2-4-3.2-6.8-5.2-17-13-23.3-33.7-7.8-25.6-24.3-35.8-32.8-37.8-8.9-2.1-29.8-2.9-52 7.5-16 7.5-29.5 8.9-41.4 10.1-4.4.4-8.6.9-12.7 1.6zm-7.2 202.9c-5.7-2.6-11.4-5.7-14.9-8.2-.7-.4-1.3-.9-1.9-1.4-2.8-2.3-5.8-4.6-11.4-4.1-6.7.6-10.3 1.6-12.6 2.4-1.3.4-2.3 1.5-2.5 3-.4 2 .5 4.1 2.2 5.3 2.7 1.9 7.2 5.5 7.9 7.1.2.5.4 1.2.7 2 1.9 5.3 3.8 10.2 6.9 10.5l1.8.3c1.5.2 3.3.5 5.5.5 2.7 0 6.1-.5 10.4-1.9 8.6-3 11.5-6 12.4-7.6.3-.5.9-1.8.4-3.4-.6-1.8-2.2-3.3-4.9-4.5zm2.7 6.8c-.5.8-2.8 3.7-11.3 6.7-7.3 2.5-11.6 1.8-14.8 1.3-.7-.1-1.3-.2-1.9-.3-2-.2-4.3-6.4-5.2-9.1-.3-.9-.6-1.6-.8-2.1-1.2-2.7-7.8-7.4-8.6-8-1-.8-1.6-2.1-1.2-3.2 0-.5.3-1.1 1.1-1.4 2.3-.8 5.7-1.7 12.2-2.3 4.7-.5 7.1 1.4 9.9 3.6.6.5 1.2 1 1.9 1.5 3.6 2.6 9.3 5.7 15.2 8.4 2.1 1 3.3 2.1 3.7 3.2.3.8-.1 1.5-.2 1.7zM412 231.9c-2.3 1.6-7.9 7.6-8.8 11.6-.6 3-1.9 13 8.3 16.9 3.4 1.3 5.9 1.8 8.1 1.8 3.5 0 5.9-1.3 8.7-2.7l1.1-.6c3.7-1.9 5.5-5 6.9-7.5.7-1.1 1.2-2 1.8-2.7 4-4.5 8.7-8.4 13.9-11.6 7.5-4.6 5.1-13.4 3.9-17.6l-.2-.9c-1.1-4.2-6.9-6.9-17.7-8.4-9.4-1.3-11.7 2.2-14.1 5.9l-.6.8c-.4.6-.9 1.4-1.4 2.2-2.7 4.2-6.8 10.5-9.9 12.8zm11.6-11.7c.5-.8 1-1.6 1.4-2.2l.6-.9c1.9-2.9 3.4-5.2 8.6-5.2 1 0 2.2.1 3.4.4 12.1 1.6 15.3 4.6 15.9 6.8l.3.9c1.6 5.5 2.8 11.8-2.9 15.2-5.4 3.3-10.2 7.3-14.4 12-.7.8-1.3 1.9-2 3-1.4 2.4-3 5-6.1 6.7l-1.1.6c-4.4 2.3-7.3 3.9-15.1.9-8.7-3.3-7.6-11.9-7-14.5.7-3.3 5.9-8.8 8-10.4 3.4-2.6 7.5-8.8 10.4-13.3zM14.9 38.6c-3.3 1.4-9.5 5-14.8 8.3v-2.5c5.1-3.2 10.9-6.5 14-7.8 5.2-2.3 14.8-6.6 22.2-6.6 7.2 0 17.9.5 26.6 1.3 8.8.8 20.8 1.3 27.6-1 7.1-2.4 17.7-5.9 23.8-16.8 2.1-3.8 4.4-8.5 6.3-13.5h2.2c-2 5.3-4.5 10.4-6.8 14.5-6.5 11.6-17.6 15.3-25 17.8-7.2 2.4-19.5 1.9-28.5 1.1-8.5-.8-19.3-1.3-26.4-1.3-6.9 0-16.6 4.4-21.2 6.5zM.1 338v-3.4c6.4 8.6 14.7 13.4 23.8 13.7 13.9.4 24-2 29.3-7.1 7.3-6.9 14.9-4.3 21.5-.9 7.1 3.7 15.6 7.2 24.4 4.5 3.9-1.2 7.9-3.8 11.8-6.3 5.1-3.3 10-6.5 14.7-6.7l1.1-.1c7.7-.4 14.4-.7 18 7.3 3.6 7.9 7.9 11 16.3 12 10.1 1.1 16.7 2.3 22.4 9.5 6.5 8.2 15.6 17.2 20 17.8 2.1.3 4.6.6 7.2.8 3.8.4 7.7.8 10 1.3 4.3.8 20.2 8 27.1 13.9 6.9 5.9 24.4 13.4 31.1 13.4h1.6c6.7 0 16.8.1 19.5-6.7 3-7.7 2.7-12.6-7.2-18.3-9.5-5.4-24.2-15.6-27.3-21.4-2.7-5-13.7-18.9-22.9-23-4-1.8-10.1-3.9-16.5-6.1-8.7-3-17.6-6.1-23.1-8.9-10.2-5.3-18.3-24.2-19.7-28.6l-.3-.9c-2.2-6.8-8.9-27.4-25.6-27.4-2.3 0-3.3 1.1-5.1 2.9-2 2.1-4.8 4.9-10.9 7.2-7.3 2.7-11.2 2.7-14.6 2.7-1.9 0-3.7 0-5.9.5-2.7.6-6 3.5-9.3 6.3-4.1 3.5-8.3 7.2-12.2 7.4l-1.2.1c-6.4.4-13.7.8-25.5-12.7-9.5-10.8-14.7-12.6-18.9-14.1-1.2-.4-2.3-.8-3.5-1.4-10.6-5-19.6-12.8-26-22.5-7.2-10.9-13-19-24.1-27.4v-2.5c12.1 9 18.3 17.4 25.8 28.9C32 251 40.7 258.5 51 263.4c1.1.5 2.1.9 3.3 1.3 4.4 1.5 10 3.4 19.8 14.7 11.1 12.7 17.6 12.3 23.8 12l1.2-.1c3.2-.2 7.2-3.6 11-6.9 3.6-3.1 7-6 10.2-6.7 2.4-.5 4.3-.5 6.3-.5 3.4 0 6.9 0 13.8-2.6 5.7-2.1 8.2-4.7 10.2-6.7 1.9-1.9 3.5-3.5 6.6-3.5 12.1 0 21.4 9.7 27.6 28.8l.3.9c1.9 5.7 9.9 22.8 18.7 27.4 5.3 2.8 14.2 5.8 22.8 8.8 6.5 2.2 12.6 4.4 16.7 6.2 10.1 4.5 21.4 19.1 23.9 23.9 2.6 4.9 15.8 14.5 26.5 20.6 11.1 6.3 11.4 12.7 8.2 20.9-3.1 7.4-12.6 8-19.8 8h-3.4c-7.3 0-25.2-7.7-32.5-13.9-6.8-5.8-22.4-12.7-26.1-13.4-2.3-.4-6.1-.8-9.8-1.2-2.6-.3-5.1-.6-7.2-.8-7-.9-19.9-16.8-21.3-18.6-5.2-6.5-11.4-7.6-21-8.7-10.5-1.2-14.7-5.9-18-13.2-3-6.7-8.5-6.4-16-6.1l-1.1.1c-4.2.2-8.8 3.2-13.7 6.3-4 2.6-8.1 5.3-12.3 6.5-9.5 2.9-18.5-.7-26-4.6-8.5-4.4-14-4.3-19.1.5-5.8 5.5-16.2 8-30.8 7.6-9-.3-17.2-4.6-23.7-12.4zm18.1-235.2c-4.4 1.9-11.3 4.9-18.1 7.6v-2.3c6.5-2.6 13-5.4 17.3-7.4l1.9-.8c6.3-2.7 17.8-4 29.3-3.2 10.7.7 21.9.4 32.3-1 4.9-.7 10.9-3.7 17.7-7.2 6.1-3.1 13-6.6 20.4-9 15.9-5.1 32.3-3.7 40.6-2.4 7.5 1.2 18.1 8.4 33.1 22.8 6.7 6.4 10.7 13.7 14.6 20.7 3.6 6.5 7.4 13.2 13.2 19.4 12.3 13.1 20 14.7 27.4 15.1 3.9.3 6.4-1.2 7.8-2.5 1.8-1.7 2.7-3.9 2.7-5.3 0-2.3-3.8-7.5-7.8-13.1-1.4-1.9-2.8-3.9-4.3-6-5.7-8.1-9.3-18.1-12.2-33.2-2.6-13.5.2-47.9 1-56.4.8-7.1 1.6-32.7 1-38.7h2.1c.4 6.5-.4 31.5-1 38.9-.9 8.4-3.6 42.6-1.1 55.8 2.8 14.8 6.4 24.5 11.9 32.4 1.4 2.1 2.9 4.1 4.3 6 4.8 6.6 8.2 11.4 8.2 14.3 0 2.3-1.3 5-3.3 6.9-1.5 1.5-4.2 3.1-8.3 3.1h-1c-7.5-.5-15.9-2.1-28.8-15.8-6-6.4-9.8-13.2-13.5-19.9-4-7.2-7.8-14.1-14.3-20.2-14.7-14.1-24.9-21.2-32-22.3-6.6-1-23.6-2.9-39.6 2.3-7.2 2.3-14.1 5.8-20.1 8.9-7 3.6-13.1 6.7-18.4 7.4-10.6 1.4-21.9 1.8-32.7 1.1-11.2-.8-22.3.4-28.4 3.1l-1.9.9zm3.4-40.3c-5.1.9-13.4 5.9-21.5 11.2v-2.5C8 66.1 16 61.3 21.2 60.4c1.5-.3 3.1-.7 4.8-1.2 4.8-1.4 10.9-3.1 18.7-1.1 2.6.7 4.8 1.3 6.9 2 6 1.8 10.8 3.3 19.8 2.7 11.8-.8 23.8-1.8 30.2-5.4 3.4-1.9 7.3-5 11.1-7.9 3.4-2.6 6.6-5.1 9.3-6.7 1.3-.7 2.5-1.6 3.6-2.4 4.1-2.8 8.4-5.7 14.9-4.8 4.1.6 7.7 2.2 11.1 3.9 3.2 1.5 6.2 3 9.3 3.2.7.1 1.4.1 2.1.2 5.9.6 12.7 1.2 17.7-4.1 5.8-6 10.8-11.3 12.3-20.2.9-4.8 1.2-11.9 1.5-18.6h2.1c-.3 6.7-.6 13.9-1.5 18.8-1.6 9.6-6.8 15-12.9 21.3-5.8 6-13.4 5.3-19.5 4.7-.7-.1-1.4-.1-2.1-.2-3.4-.3-6.6-1.8-10-3.4-3.3-1.6-6.7-3.2-10.5-3.7-5.7-.8-9.3 1.7-13.4 4.5-1.2.8-2.4 1.7-3.8 2.4-2.6 1.6-5.8 4-9.1 6.6-3.8 3-7.8 6.1-11.4 8.1-6.5 3.9-18.3 4.9-30.9 5.7-9.4.6-14.3-.9-20.5-2.8-2.1-.6-4.2-1.3-6.8-1.9-7.3-1.9-12.8-.3-17.6 1.1-1.7.5-3.4 1-5 1.3zM8.8 90c-3.1.7-6 1.7-8.7 2.7v-2.3c2.6-1 5.3-1.9 8.3-2.6 9.9-2.3 19.5-4.2 28.2-3.2 1.5.2 3.1.4 4.7.7 7.6 1.2 17.1 2.7 30.1.1 18.2-3.6 29.2-7 36.9-11.4 3-1.7 5.6-3.6 8.1-5.4 4.6-3.3 8.5-6.2 13-6.5.8-.1 1.5-.1 2.3-.2 5.9-.6 12.6-1.3 26.4 3.7 8.9 3.2 18.7 8.2 26.6 12.2 5.7 2.9 10.5 5.4 12.7 5.9 1.1.3 2.4.8 3.7 1.3 6.7 2.5 12 3.9 14.7-2.2 2.8-6.2 3.2-16.6 1.2-30.9-.8-5.6-3.4-40-3.4-45.8V-.1h2.1v6.3c0 5.7 2.6 39.9 3.4 45.5 2 14.7 1.5 25.5-1.4 32-3.8 8.5-12 5.4-17.4 3.4-1.3-.5-2.5-.9-3.5-1.2-2.4-.6-7.1-3-13.1-6.1-7.8-4-17.6-8.9-26.3-12.1-13.4-4.8-19.8-4.1-25.5-3.6-.8.1-1.6.2-2.4.2-3.9.3-7.7 3-12 6.1-2.4 1.8-5.2 3.7-8.3 5.5-7.9 4.5-19.1 8-37.6 11.7-13.4 2.6-23 1.1-30.8-.1-1.6-.3-3.2-.5-4.6-.7-8.3-.9-17.7 1-27.4 3.2z"/>
</svg>
