<svg width="570" height="160" xmlns="http://www.w3.org/2000/svg" viewBox="0 0 570 160">
    <path d="M66.4 55.2C64.5 45 57.3 39.9 44.8 39.9c-6.1 0-10.9 1.2-14.3 3.7-3.4 2.5-5.1 5.4-5.1 8.9s1.1 6.2 3.3 8.2c2.2 2 5.7 3.8 10.3 5.5l25.4 9.9c8.6 3.4 15.3 7.6 20 12.7 4.7 5.1 7 11.5 7 19.2 0 10.6-4 18.9-11.9 25.1-7.9 6.2-19.2 9.3-33.8 9.3-13 0-23.5-3.2-31.5-9.5-9-7-13.7-16.8-14.2-29.5h21.1c0 9.6 5 15.7 14.9 18.2 3 .8 7 1.3 11.9 1.3s9.5-1.2 13.7-3.7c4.2-2.5 6.3-5.8 6.3-9.9 0-4.1-1.1-7.3-3.4-9.5s-6-4.3-11.2-6.2l-23.2-9.2c-9-3.5-15.9-7.6-20.7-12.2C4.6 67.5 2.2 61 2.2 52.8c0-9.7 3.8-17.4 11.3-23 7.7-5.9 18.1-8.8 31.2-8.8 13.1 0 23.3 3 30.4 9.1 7.1 6.1 11.2 14.6 12.3 25.5h-21zM155.7 137.7c-7.9 3.1-14.2 4.7-18.7 4.7-4.6 0-8.5-.5-12-1.6s-6.5-2.7-9.1-4.9c-5.5-4.9-8.3-11.7-8.3-20.3v-49H95.4V52.3h12.2v-23h21.2v23h23.8v14.2h-23.8v48.2c0 7.2 3.4 10.8 10.3 10.8 3.5 0 8-1 13.5-2.9l3.1 15.1zM222.1 124c-5.5 11.6-14.4 17.5-26.6 17.5-15.5 0-25.7-6.1-30.6-18.2-1.8-4.2-2.7-9.3-2.7-15.3V52.2h21.2v53.6c0 5.8 1.4 10.1 4.1 12.9 2.8 2.8 6.1 4.2 10.2 4.2 4 0 7.4-.6 10.2-1.7 2.8-1.1 5.2-2.8 7.2-5.1 4.4-5.2 6.8-12.1 7-20.7V52.2h21.2v87.7h-21.2V124zM320.4 126.3c-5.4 10.7-13.7 16-24.8 16s-20.5-4.3-28.1-12.8c-7.8-8.9-11.7-20.2-11.7-33.8 0-13.7 3.7-24.8 11.2-33.3 7.3-8.3 16.4-12.4 27.4-12.4 10.9 0 19.1 4.4 24.7 13.1V16.3h21.4v123.5H323l-2.6-13.5zm-22.1-57.2c-6 0-11 2.4-15 7.3s-6 11.4-6 19.5c0 8.2 2 14.7 6.1 19.7s9.2 7.5 15.5 7.5c5.2 0 9.8-2 13.9-6.1 4.2-4.2 6.3-9.5 6.3-15.8V89.8c-.2-6.2-2.3-11.3-6.3-15.3-3.7-3.6-8.5-5.4-14.5-5.4zM359.6 24.1c0-3.8 1.1-6.9 3.4-9.1 2.3-2.2 5.5-3.3 9.7-3.3 4.1 0 7.3 1.1 9.6 3.3 2.3 2.2 3.5 5.3 3.5 9.1s-1.2 6.9-3.5 9.1c-2.3 2.2-5.6 3.3-9.6 3.3-4.2 0-7.4-1.1-9.7-3.3-2.2-2.2-3.4-5.3-3.4-9.1zm2.6 28.1h21.2v87.7h-21.2V52.2zM440.3 50c5.9 0 11.4.9 16.6 2.8 5.2 1.9 9.6 4.7 13.3 8.5 8.3 8.4 12.4 20 12.4 34.9 0 14.6-4.1 26.2-12.4 34.6-7.4 7.7-17.4 11.5-29.9 11.5s-22.6-3.8-30.2-11.5c-8.3-8.3-12.4-19.8-12.4-34.6 0-15 4.1-26.6 12.4-34.9 7.5-7.5 17.6-11.3 30.2-11.3zm21 46.1c0-9.2-1.8-16.2-5.4-20.8-3.6-4.6-8.6-6.9-15-6.9s-11.7 2.3-15.8 6.9c-4.1 4.6-6.1 11.6-6.1 20.8 0 9.2 1.8 16.2 5.5 20.8 3.7 4.6 8.7 6.9 15 6.9 6.4 0 11.6-2.3 15.7-6.9 4.1-4.6 6.1-11.6 6.1-20.8zM506.2 113.2c.2 8.3 6.3 12.4 18.2 12.4 4.6 0 8.3-1 11.2-3 2.9-2 4.4-4.3 4.4-6.9 0-2.6-.9-4.7-2.7-6.1-1.8-1.4-4.6-2.8-8.5-4l-19.1-6.8c-14.2-4.9-21.2-13-21.2-24.1 0-7.4 3.3-13.4 10-17.9s15.6-6.8 26.8-6.8c11.2 0 19.9 2.5 25.9 7.4 6.1 4.9 9.2 11.1 9.5 18.5h-20c-.2-2.9-1.6-5.2-4.1-6.8-2.5-1.7-6.1-2.5-10.8-2.5-4.7 0-8.3.9-10.9 2.8-2.6 1.9-3.9 4-3.9 6.4 0 4.2 3.5 7.3 10.6 9.4l20.7 7.7c6.8 2.3 12.1 5.2 15.8 8.7 3.7 3.5 5.5 8.1 5.5 13.8 0 7.2-3.4 13.4-10.3 18.7-7.1 5.5-16.4 8.3-28.1 8.3-11.6 0-21-2.5-28.1-7.6-7.1-5.1-10.7-12.3-10.8-21.5h19.9z" opacity=".05"/>
</svg>
