<svg xmlns="http://www.w3.org/2000/svg" width="820" height="820"  viewBox="0 0 820 820">
    <path opacity=".3" fill="#f3c665" d="M636.9 3.6c-.6-1.1-.8-2.3-.8-3.6h2.7c0 .9.1 1.7.5 2.4 1 1.8 3.3 3.2 7.2 4.3 1.5.4 2.9.2 4.4 0 .9-.1 1.8-.2 2.7-.2 1.4 0 2.9.3 4.3 1.4 1.5 1.1 3.2 3 5 5 2.6 2.9 5.5 6.1 8.3 7.6 5.2 2.8 8.5 3.2 12.7 1.5 3.2-1.3 2.7-7.4 2.2-13.3l-.3-4c-.1-1.8-.5-3.4-1-4.7h2.8c.4 1.3.7 2.8.8 4.5l.3 4c.6 6.9 1.2 14-3.9 16.1-1.9.9-3.8 1.2-5.6 1.2-3.2 0-6.2-1.2-9.3-2.9-3.2-1.7-6.3-5.2-9-8.2-1.7-1.9-3.3-3.7-4.6-4.7-1.5-1.1-3-.9-5-.6-1.6.2-3.5.5-5.5-.1-2.9-.8-7.1-2.3-8.9-5.7zM820 132.8c-6.9-2.2-14.9-5.1-21.9-7.9-7.4-2.9-13.7-5.5-17.4-6.7-9-3.1-20.9-2.1-28-1.6l-1.7.1c-4.4.3-9.8 5.6-15 10.6-2.9 2.8-5.6 5.4-7.5 6.5-3 1.7-8.7 2-15.4 2.3-4.5.2-9.6.5-14.7 1.2-13.2 1.9-31.7 15.1-32.2 35.1-.4 20.2 12.7 25 26.2 28.3 4.4 1.1 8.5 1.6 12.5 2.1 8.5 1 16.5 2.1 27.4 7.8 5.6 3 10.7 6 15.2 8.6 8.8 5.2 15.8 9.3 22.9 11.1 8.1 2.1 20 2.4 30.1 2.4 1.7 0 3.5 0 5.1.2h4c3.4 0 7.1 0 10.4.1v-2.8c-3.3 0-6.9-.1-10.4-.1h-4c-10.7 0-25.4.1-34.5-2.3-6.7-1.8-13.6-5.8-22.3-10.9-4.5-2.7-9.6-5.7-15.3-8.7-11.3-5.9-19.9-7-28.3-8.1-3.9-.5-8-1-12.2-2-13-3.2-24.5-7.5-24.1-25.6.5-18.5 17.7-30.8 29.9-32.5 5-.7 10-.9 14.4-1.1 7-.3 13.1-.6 16.7-2.7 2.2-1.3 5-4 8-6.9 4.4-4.2 9.8-9.6 13.3-9.8l1.7-.1c6.8-.6 18.4-1.4 26.9 1.4 3.6 1.2 10 3.8 17.3 6.7 7.7 3.1 15.9 6.1 22.9 8.3v-3zM605 721.7c-1.1-7.6 7.4-17.5 16.2-22.8 10.5-6.3 19.6 2.1 24.5 6.6 7.4 6.8 4.8 12.5 3.9 14-.5.8-1.4 2-2.5 3.6-2.1 2.8-4.9 6.7-6.6 10-3.4 6.7-6.4 8.8-10.8 10.3-1 .3-2 .4-3.1.4-3.4 0-7-1.6-10.8-3.3l-.9-.4c-6.2-2.8-9.1-12.9-9.9-18.4zm2.8-.4c.9 6.6 4.1 14.4 8.3 16.3l.9.4c4.5 2.1 8.5 3.9 11.8 2.7 3.9-1.3 6.3-3 9.2-8.9 1.8-3.5 4.7-7.5 6.8-10.4 1-1.4 1.9-2.6 2.4-3.4.9-1.4 2.3-5.4-3.4-10.6-4.5-4.2-9.3-8.1-14.7-8.1-2.1 0-4.2.6-6.4 1.9-8.9 5.3-15.7 14.5-14.9 20.1zM820 159.1c-1.7-.3-3.5-.8-5.8-1.4-9.1-2.4-29-4.2-40.3-7.7-12.3-3.8-26.8-1.9-32.5 1-1.4.7-3 1.6-4.8 2.6-4.8 2.6-10.9 5.9-15.4 6.9l-.8.2c-6.4 1.4-14.4 3.1-14.4 10.3v.6c0 7.7 1.2 13.2 17.3 13.6 15 .5 22.4 6.8 28.2 13.7 5.1 6.1 15.5 10.8 23.5 12.8 2.9.7 6.8.6 11.3.4 7-.3 15.1-.6 20.7 2.6 4.4 2.5 9.1 4.9 13 6.7v-3.2c-3.6-1.8-7.8-3.9-11.6-6.1-6.3-3.6-14.8-3.3-22.2-3-4.2.2-8.1.3-10.6-.3-7.4-1.9-17.4-6.4-22.1-11.9-5.9-7-14.1-14.2-30.2-14.6-14.6-.4-14.6-4.8-14.6-10.9v-.4c0-4.6 5.1-6.1 12.3-7.6l.8-.2c4.9-1.1 11.1-4.5 16.1-7.2 1.7-.9 3.3-1.8 4.7-2.5 5.2-2.6 19-4.3 30.5-.8 11.6 3.5 31.7 5.6 41 7.8 2.3.6 4.2 1 5.9 1.3v-2.7zM618 820h7.1c3.1-.8 6.4-.8 9.7 0h10.7c-3.2-.7-6.1-1.5-8.2-2.1-4.8-1.6-11.8-2.3-19.3 2.1zm148.9-654.9c4.2.4 18.7 2.1 28.5 5.4 7.3 2.4 15.4 4 24.6 4.8v-2.7c-8.9-.8-16.7-2.4-23.7-4.7-9.8-3.2-23.5-4.9-29-5.5-5.2-.6-9.6 1.3-11.4 4.7-1.5 2.8-.9 6 1.5 8.9 5.6 6.6 26.4 13.4 35.5 15.1 6 1 18.4 6.4 27.1 10.4v-3c-8.7-4-20.6-9.1-26.7-10.2-10.4-1.9-29.3-8.6-33.9-14.1-1.7-2-2.1-4.1-1.2-5.9 1.3-2.3 4.7-3.6 8.7-3.2zm-41.3 277.2c-2.7 12.2 1.2 16.6 6.1 22.3l1.1 1.2c4.7 5.5 17.4 9.9 30.8 14.6 3 1.1 6 2.1 9 3.2 14.6 5.3 16.6 17.5 17.6 23.4l.2 1.1c.8 4.4 6.2 22.3 18.4 30.6 3.7 2.5 7.6 4.5 11.2 6.2V542a71.8 71.8 0 0 1-9.7-5.4c-11.3-7.7-16.5-24.7-17.2-28.8l-.2-1.1c-1-5.9-3.3-19.7-19.4-25.5-3.1-1.1-6.1-2.2-9.1-3.2-13-4.6-25.4-8.9-29.6-13.8l-1.1-1.2c-4.9-5.6-7.9-9.1-5.5-19.9.9-4.1 1.8-6.8 2.5-9.1 1.5-4.6 2.4-7.7 2.1-16.4-.4-12.1 13.1-30.7 17.8-35 .6-.5 1.3-1.1 2-1.8 4.1-3.9 9.6-9.1 13.9-7.1 5 2.3 11.1 8.9 13.4 20.5l.3 1.6c2.4 12 5.7 28.5 13.8 31.4 1.3.4 2.8 1 4.6 1.7 5.2 2.1 12.4 4.9 21.4 7.2v-2.8c-8.6-2.3-15.4-4.9-20.4-6.9l-4.7-1.8c-6.6-2.4-9.9-18.6-12-29.4l-.3-1.6c-2.1-10.7-7.7-19.1-14.9-22.4-6-2.7-12.3 3.2-16.9 7.6-.7.6-1.3 1.3-1.9 1.8-4.5 4-19.2 23.6-18.7 37.1.3 8.2-.6 10.9-2 15.4-.8 2.2-1.7 5-2.6 9.2zm52.6 352.1c-9-12.3-36-29.4-52-37.8-16.2-8.6-26.3-35.3-27.1-42.3-.6-5.5.4-13.3 1.3-20.8.4-3 .7-5.9 1-8.6 1.1-12.1-9.2-16.2-18.4-18.4-7.2-1.7-15.8-1-24-.3-5.2.4-10.1.9-14.6.7-9.4-.3-17.4-10.3-22.2-16.2-.9-1.1-1.7-2.2-2.4-2.9-.5-.6-1.1-1.3-1.7-2.1-4.4-5.4-12.7-15.5-28.4-16.7-11.8-1-22.2 3.7-31.3 7.9-4.6 2.1-9.1 4.1-13.4 5.3-12.7 3.5-26.9-2.2-36.5-6.8-9.5-4.5-23.3-10.6-33.8-11.1-7.8-.4-16.3 4.4-23 8.3-2.1 1.2-4.2 2.4-5.9 3.2-4.1 1.9-6.6 5.1-6.8 8.6-.2 2.9 1.4 5.7 4.4 7.5 5.8 3.6 18.8 6.9 32.5 8.4 1.2.1 2.6.2 4.2.4 14.7 1.4 42 4.1 66.5 16.3 25.9 13 23.3 33.7 19.4 44.9-3.7 10.5-17.7 23-28.2 25.1-2.6.5-4.4.3-5.3-.6-2.2-2.2-.9-9 .6-17 .2-1.5.5-3 .8-4.6 2.9-16.4-3.1-25-12.6-36.3-7.1-8.4-23.7-13.2-49.4-14.2-11.1-.4-29.8-1.2-52.4-11.3-19.7-8.9-18.7-21.2-18-28.5 0-.6.1-1.2.1-1.7.4-5.2 14.2-14.3 20.8-18.7 1.3-.9 2.4-1.6 3.3-2.2 2.1-1.5 3-3 2.5-4.4-.9-3-7.2-3.6-12.4-3.6-3.3 0-11.5.2-20.2.4-9.5.3-19.3.5-23.6.5-2.1 0-4.2-.2-6.3-.3-6.5-.5-12.5-.9-15 3.2-1.5 2.6-3.1 5.9-2 9.6 1.3 4.6 6.6 9 17.2 14.3 18.7 9.3 19.1 22.2 18.4 27.3-.6 4.2-.9 18.6 18.5 28.8 10.4 5.4 23.4 6.1 38.5 6.9 9.6.5 19.5 1 30 2.8 28.6 4.8 35.5 27.3 36.3 45.3.8 18.8-8 40.8-15.8 54-2.7 4.6-6.7 9.6-10.6 14.5-2.6 3.2-5 6.2-6.8 8.8h3.3c1.6-2.2 3.6-4.6 5.5-7.1 3.9-5 8-10.1 10.8-14.8 8-13.5 17-36.1 16.2-55.5-.8-19-8.2-42.7-38.6-47.8-10.7-1.8-21.1-2.3-30.3-2.8-14.7-.8-27.5-1.4-37.3-6.6-17.8-9.4-17.6-22.3-17.1-26 .8-5.7.4-20.1-19.9-30.2-9.7-4.8-14.7-8.8-15.8-12.6-.6-2.1 0-4.3 1.8-7.4 1.6-2.7 6.8-2.3 12.4-1.9 2.1.1 4.3.3 6.5.3 4.3 0 14.2-.3 23.7-.5 8.7-.2 16.9-.4 20.1-.4 6 0 9.4 1 9.8 1.6 0 0-.2.5-1.5 1.4-.8.6-1.9 1.4-3.2 2.2-10.9 7.2-21.6 14.8-22 20.8 0 .5 0 1-.1 1.6-.6 7.5-1.9 21.5 19.7 31.2 23.1 10.3 42.1 11.1 53.5 11.5 31 1.2 42.9 7.8 47.4 13.2 9.2 11 14.7 18.8 12 34-.2 1.6-.5 3.1-.8 4.6-1.7 9.4-3 16.2.2 19.4 1.6 1.6 4.1 2 7.7 1.3 11.5-2.3 26.2-15.4 30.2-26.9 3.3-9.7 8.1-33.8-20.8-48.2-25-12.5-52.6-15.2-67.5-16.6-1.6-.1-3-.3-4.2-.4-13.3-1.4-25.9-4.6-31.4-8-2.1-1.3-3.2-3-3.1-5 .1-2.5 2.1-4.8 5.2-6.3 1.8-.8 3.9-2 6.1-3.3 6.4-3.7 14.4-8.3 21.5-8 7.5.3 18.2 3.9 32.8 10.8 10 4.7 24.9 10.6 38.4 6.9 4.5-1.3 9-3.3 13.8-5.5 9.3-4.2 18.8-8.6 30-7.7 14.6 1.2 22 10.3 26.5 15.7.7.8 1.3 1.5 1.8 2.1.6.7 1.4 1.7 2.3 2.8 5.1 6.3 13.6 16.9 24.2 17.3 4.7.2 9.7-.2 15-.7 8-.7 16.3-1.4 23.1.2 12.2 2.9 17.1 7.5 16.3 15.4-.3 2.6-.6 5.5-1 8.5-1 7.7-2 15.7-1.3 21.4.9 7.5 11.2 35.2 28.6 44.4 15.1 8 42.4 25.1 51.1 37 1.2 1.6 2.5 3.3 3.9 5 4.4 5.6 9.4 12 12.4 19.6h2.8c-3.2-8.5-8.7-15.2-13.2-20.6-1.2-1.8-2.5-3.4-3.7-5zM761 45.1c8.8 7.4 28.2 14.7 41.9 17.9 5.4 1.2 11.5 2 17.1 2.3v-3c-5.5-.2-11.6-.7-16.8-1.9-13.4-3.1-32.2-10.2-40.7-17.3-8.3-7-11.8-17.3-8.9-26.4 1.4-4.2 3.6-7.1 5.7-9.8 1.7-2.2 3.3-4.3 4.4-6.9h-2.8c-.9 1.8-2.2 3.4-3.6 5.2-2.2 2.8-4.6 5.9-6.1 10.6-3.2 10.1.6 21.6 9.8 29.3zm44.1-7.7c3 0 6.3-.9 8.9-2.8 3.5-2.7 5.2-5.8 6-11.3V0h-1.4c-.4 3.6-.6 7.4-.6 11.5-.2 13.6-1.3 17.5-5.6 20.8-4.2 3.1-10.6 2.8-13.1.5-2.2-2-3.3-12.1-.1-23.5.8-3.1 1.3-6.3 1.5-9.3h-2.8a45 45 0 0 1-1.4 8.7c-3 11-2.6 23 .9 26.2 1.8 1.6 4.6 2.5 7.7 2.5zm-44 398.9c2.9-1.8 8.1-1.6 10.8-.2 2.3 1.2 6.4 4.6 10.3 7.8 3.4 2.8 6.6 5.5 8.8 6.8 4.9 3 13.8 5.6 20.2 6.1 2.8.2 5.9.5 8.8 1V455c-3.7-.6-6.8-.8-8.6-1-5.9-.4-14.4-3-19-5.7-2-1.2-5.2-3.9-8.4-6.5-4-3.3-8.2-6.8-10.8-8.1-3.4-1.7-9.6-2-13.5.4a7.05 7.05 0 0 0-3.5 6.3c0 7.1 7.8 12.7 14.6 17.6.8.6 1.6 1.1 2.4 1.7 3.2 2.4 7.6 4.8 12.6 7.6 5.7 3.1 12.1 6.7 18.4 11.1 7.5 5.1 8.8 10.4 10.2 15.9.7 2.8 1.5 5.8 3.1 8.7.7 1.3 1.6 2.6 2.5 3.8v-5.2c-1.4-2.5-2.1-5.2-2.8-8-1.5-5.8-3-11.7-11.3-17.5-6.5-4.5-13-8.1-18.7-11.3-5-2.7-9.3-5.1-12.4-7.4-.8-.5-1.6-1.1-2.4-1.7-6.4-4.5-13.5-9.6-13.5-15.4-.1-1.6.8-3.2 2.2-4zm-3-364.6c2.5 1.6 4.9 3.4 7.3 5.1 10.2 7.4 20.7 15 38.6 19.3 7.5 1.8 12.2 3 16 3.4v-2.9c-3.6-.5-8.2-1.4-15.4-3.2-17.3-4.1-27.6-11.6-37.6-18.8-2.4-1.8-4.8-3.5-7.3-5.2-13.3-8.9-18.4-20.5-21.4-29.6-3.4-10.3.4-22.9 3.2-32.1l.4-1.4c.6-2.1 1.1-4.2 1.4-6.3h-2.8c-.3 1.8-.7 3.7-1.2 5.5l-.4 1.4c-2.7 9-6.8 22.6-3.2 33.7 3.1 9.6 8.4 21.7 22.4 31.1zm-59.8 149.6c.9-3.2 3.7-2.6 6.1-2.1 1.5.3 3.4.7 5.7.7 5.4 0 11.1 4.3 11.5 7.6.2 1.4-.6 2.5-2.1 2.9-2.1.4-4.1.7-5.9.7-3.4 0-6.1-1-8.1-3-.2-.1-.9-.4-1.4-.6-2.5-1-6.8-2.7-5.8-6.2zm6.8 3.7c1.2.5 1.8.8 2.3 1.2 2.9 2.9 7.8 2.4 11.5 1.5 0 0-.1-.5-1.1-1.6-1.6-1.7-4.7-3.5-7.7-3.5-2.6 0-4.7-.4-6.3-.7-2.7-.6-2.8-.4-2.9.2-.3 1.1 2.7 2.3 4.2 2.9zm111.5 171.5c.4-.1 1.7-.3 3.4-.6v-2.8c-1.8.2-3.2.5-3.9.7-2.3.5-5.1 2.1-5.8 5.2-.5 2.2.1 5.9 5.7 10.4 1.4 1.1 2.8 2 4 2.7v-3c-.8-.5-1.6-1-2.4-1.7-3.5-2.9-5.2-5.6-4.7-7.7.4-1.7 2.1-2.9 3.7-3.2zM732.8 323c1.6.2 3.2.3 4.9.5 10.9 1.1 21.1 6.4 28.5 10.2 1.1.5 2.1 1 3 1.5 4.5 2.2 11.8 7.1 18.3 11.4 4 2.7 7.8 5.2 10.4 6.8 3.9 2.4 13.9 5 22.1 6.8v-2.9c-7.9-1.8-17.2-4.2-20.7-6.3-2.6-1.5-6.3-4.1-10.3-6.7-6.6-4.4-14-9.3-18.6-11.6-.9-.5-1.9-1-2.9-1.5-7.6-3.9-18.1-9.3-29.5-10.5-1.8-.2-3.4-.4-5-.5-10.1-.8-16.8-1.4-20.4-10.5-4.5-11.3-2.9-27.5 1.6-32.8.8-1 1.7-2.2 2.7-3.4 4.6-5.8 10.8-13.8 19.9-16.3 5.1-1.4 9.2-3.5 12.5-5.2 4.2-2.1 7.2-3.7 10.1-3 4.8 1.1 11.5 2.2 16.9 3.1l3.7.6c5.9 1 21 2.3 29.7.9 2.4-.4 6-.8 10.3-1.1v-2.7c-4.4.4-8.2.8-10.7 1.2-8.4 1.3-23.1 0-28.8-.9l-3.8-.6c-5.4-.8-12-1.9-16.7-3-3.9-.9-7.5.9-12 3.2-3.4 1.7-7.2 3.6-12 5-9.9 2.7-16.5 11.1-21.3 17.2-.9 1.2-1.8 2.3-2.6 3.3-5.5 6.6-6.6 24.2-2 35.6 4.3 10.6 12.4 11.3 22.7 12.2zm28.9-47.1c3.7-.2 12.7.4 21.3 1.1 9 .7 18.3 1.4 22.5 1.2 1.6-.1 3.5-.2 5.7-.4 2.6-.2 5.6-.4 8.8-.6v-2.8c-3.3.2-6.3.4-9 .6-2.2.2-4.1.3-5.7.4-4 .2-13.2-.5-22.1-1.2-9.1-.7-17.8-1.3-21.7-1.1-8 .5-17.5 6.6-19.5 17.1-.7 3.6-.2 6.7 1.4 9 2.6 3.7 7.3 4.8 10.7 5.4 5.2.8 17.8 6.2 31 14.4 4.5 2.8 7.4 5.2 9.6 7.1 4.4 3.8 7.1 6.1 16.2 6.4h1.3c2.8 0 5.4-.3 7.8-.8v-3c-2.8.6-5.8.9-9 .8-8.1-.3-10.3-2.1-14.5-5.7-2.3-1.9-5.2-4.4-9.9-7.3-13.7-8.5-26.5-13.9-32-14.8-2.9-.5-7-1.4-8.9-4.2-1.2-1.7-1.6-4-1-6.9 1.7-8.9 10.1-14.3 17-14.7zm-665 409.3c-.6-.2-.9-.2-1.3-.2-9 0-20.7-3.5-27.7-13.6-1.5-2.1-2.7-4.1-3.9-5.9-3.8-6-6.3-9.9-13.2-12.3l-1-.3c-9-3-14.5-4.8-18.2-15.7-1.2-3.7-2.6-6.5-3.8-9-2.2-4.7-4.2-8.7-3.9-15.4.3-8.8 1.8-17.3 10.9-19.8 7.8-2.1 24.3 2.9 25 3.1l.8.2c8.1 2.4 17.3 5 28.7 2.5 12.8-2.9 27-10.1 32.7-13.5l1.2-.7c7-4.2 18.7-11.3 27.5-2.8 8.7 8.4 12 10.5 17.4 12.7 7.6 3.1 12.4 7 14.2 11.3 1.1 2.7 1.1 5.6-.1 8.6-4 9.6-11.2 16.2-16.7 19.2-4.2 2.3-10.8 9.9-12 13.3-2.1 5.8-7.2 9.3-15.1 10.5-7.9 1.2-10.9 4.4-15.3 9.3l-2.7 3c-5.5 6-13.8 15.1-23.5 15.5zm-.3-3c8.6-.3 16.4-8.9 21.6-14.6l2.7-3c4.7-5.1 8.1-8.9 17-10.2 6.9-1 11.2-3.9 12.9-8.7 1.4-4 8.4-12.1 13.3-14.8 4.8-2.6 11.8-8.8 15.5-17.8 1-2.3 1-4.5.1-6.5-1-2.5-4.1-6.3-12.8-9.8-6.2-2.5-9.8-5.1-18.2-13.3-7.3-7-17.5-.9-24.2 3.2l-1.2.7c-5.8 3.5-20.4 10.9-33.5 13.9-12.1 2.7-22.1-.2-30.1-2.5l-.9-.2s-11.5-3.5-19.3-3.5c-1.5 0-2.9.1-4.1.4-6 1.7-8.6 6.5-8.9 17.2-.2 6.1 1.4 9.5 3.7 14.2 1.2 2.6 2.6 5.5 3.9 9.3 3.2 9.6 7.6 11.1 16.4 14l1 .4c7.9 2.6 10.7 7.2 14.7 13.4 1.1 1.8 2.3 3.7 3.8 5.8 6.8 9.6 18.2 12.7 26.6 12.4zM10.5 764c.3.7.6 1.4.9 1.9 1.7 3.4 12.4 25.7 16.4 54.1h2.8c-4-29-15-51.9-16.6-55.4-.3-.5-.6-1.2-.9-1.9-2.3-5.1-6.6-14.3-13.1-19v3.8c4.9 4.7 8.5 12.3 10.5 16.5zm760.1-130.2c-1.8 1.6-4.1 2.1-6.7 2.1-2.4 0-4.8-.4-7-.8-.7-.1-1.3-.2-1.9-.3-2.9-.4-7.1-1.8-11.5-3.2-5.1-1.6-10.3-3.3-14.5-4.1-3.2-.5-7.9-.2-13.2.3-7.6.6-17 1.4-26.5-.3-16-2.8-21.5-10.6-26.9-18.1l-.5-.7c-5.1-7.3-17.8-16.1-26.1-18.2-7.2-1.8-10.8-2.2-19.9-3.2-4.9-.5-8.8-2.7-11.2-6.2-2.1-3.2-2.6-7.2-1.4-11.1 2.3-7.5 14.5-20.8 23.7-24.2 1.4-.5 2.8-1.1 4.4-1.7 8.5-3.5 20.3-8.3 38.6-7.5 20.6.9 22.6 12.6 23.8 19.7.1.7.2 1.4.4 2 .2 1 .4 2.1.5 3.3 1 6.7 2.4 15.8 14.2 28 11.3 11.7 20.8 12.2 30.8 12.8 2.2.1 4.4.3 6.7.5 14.1 1.5 22.2 8.4 25.4 21.6 1 4.3.6 7.3-1.2 9.3zm-1.7-8.9c-2.9-12.1-10-18.1-23-19.5-2.2-.2-4.4-.4-6.6-.5-10.1-.6-20.6-1.2-32.6-13.6-12.4-12.8-13.8-22.4-14.9-29.5-.2-1.1-.3-2.2-.5-3.1-.1-.6-.2-1.3-.4-2.1-1.2-7-2.8-16.6-21.2-17.4-17.8-.8-29.1 3.9-37.5 7.3-1.6.7-3.1 1.3-4.5 1.8-8.4 3.1-19.9 15.6-22 22.4-1 3.1-.6 6.2 1.1 8.7 1.9 2.8 5.1 4.6 9.1 5 9.3.9 12.9 1.4 20.3 3.2 9 2.2 22.2 11.4 27.7 19.3l.5.7c5.2 7.4 10.2 14.4 25.1 17 9.2 1.6 18.4.8 25.8.2 3.8-.1 7-.4 9.7-.4 1.6 0 3.1.1 4.4.3 4.5.7 9.8 2.5 14.9 4.2 4.3 1.4 8.4 2.7 11.1 3.1l2 .3c3.8.7 8.9 1.6 11-.6 1.2-1.2 1.3-3.5.5-6.8zm51.1 39.6c-15.3-7.4-24.9-20.9-28.3-28.6-3.2-7.2-4.3-21-4.8-27.7l-.2-2c-.5-5.8-7.1-14.4-20.5-19.9-6.7-2.7-15.7-2.2-23.6-1.8-7.1.3-13.9.7-17.3-1.3-5.1-2.9-6.1-16-7.1-27.5-.4-4.9-.8-9.4-1.4-13.5-2.1-13.7-13.2-21.7-34-24.4-16.9-2.2-35.4-.6-53.5 4.6-16.9 4.9-30.9 24.1-43.2 41l-1.8 2.4c-13.6 18.5-36 21.3-48.2 21.3-11.3 0-19.9-6.4-26.1-11-2.9-2.2-5.4-4-7.6-4.9-7.5-3-26.5-2.3-31.2-1.9-6.1.4-35.4 11.3-45.8 17.5-10 5.9-28.5 8-37.5 7.1-6.1-.5-20-6.6-41.2-17.9l-3.7-2c-9.5-5.2-29.3-15.9-37-17.9-5.6-1.4-12.7.2-17.7 4.2-4.3 3.4-6.6 8.2-6.4 13.6.4 12.1 10 22.4 19.3 32.4 1 1.1 2 2.1 3 3.2 3.9 4.3 9.6 8.5 15.7 13 9.9 7.3 21.1 15.5 27.5 26.1 8.5 14 5.3 20.6 2.9 25.4-.5.9-.9 1.8-1.2 2.6l-.4 1c-1.9 4.9-4.7 12.4 6.7 21.5 11.6 9.2 26.2 10.3 44.2 10.8 7.6.2 14-.1 20.2-.4 7.8-.4 15.1-.8 24 0 15.2 1.3 26.3 13.9 30.3 34.5 3.8 19.5-2 35.5-4.5 42.4l-.4 1.2c-2 5.6-11 24.3-15.4 32.4h3c4.7-8.9 12.8-25.8 14.7-31.3l.4-1.2c2.5-7.1 8.6-23.6 4.6-43.8-4.3-21.9-16.2-35.3-32.7-36.7-9-.8-16.4-.4-24.3 0-6.1.3-12.4.6-20 .4-18-.5-31.6-1.5-42.5-10.2-9.9-7.9-7.8-13.5-5.9-18.4l.4-1c.3-.8.7-1.6 1.1-2.4 2.5-5 6.3-12.7-3-28-6.7-11-18.1-19.5-28.2-26.9-5.9-4.4-11.6-8.6-15.3-12.6-1-1.1-2-2.1-3-3.2-9-9.6-18.2-19.6-18.6-30.6-.2-5.7 2.8-9.4 5.3-11.4 4.2-3.5 10.5-4.9 15.3-3.7 7.4 2 27 12.6 36.4 17.7l3.7 2c8 4.2 32.5 17.3 42.2 18.2 9.4.9 28.7-1.3 39.2-7.5 9.9-5.9 38.9-16.8 44.6-17.2 6.8-.6 23.7-.8 30 1.7 1.9.7 4.3 2.5 7 4.5 6.6 4.8 15.6 11.5 27.8 11.5 12.7 0 36.1-2.9 50.4-22.5l1.8-2.4c12.1-16.6 25.7-35.3 41.8-40 17.7-5.1 35.9-6.7 52.4-4.5 19.4 2.5 29.8 9.8 31.7 22.1.6 4 1 8.5 1.4 13.3 1.1 12.8 2.2 26 8.4 29.7 4.1 2.5 10.9 2.1 18.8 1.7 7.6-.4 16.3-.9 22.4 1.6 11.7 4.8 18.4 12.6 18.8 17.6l.2 1.9c.5 6.8 1.6 21 5 28.6 3.7 8.3 14.2 22.9 30.9 30.5v-3zm-565.9-8.7c-4.5 3.4-8.7 9.1-12.8 14.7-4.5 6-9 12.2-13.6 14.9-5.8 3.5-15.8 7.6-26.4 11.9-5.8 2.3-11.8 4.8-17.3 7.2-14.1 6.2-21.9 26.1-26.1 36.7-.6 1.4-1.1 2.7-1.5 3.7-2.1 4.9-2.5 16.5-2.9 29.8-.3 11-.7 23.6-2.2 34-.6 4.1-1.4 7.9-2.3 11.3h3c.9-3.3 1.6-6.9 2.2-10.9 1.5-10.6 1.9-23.2 2.3-34.3.4-12.5.8-24.4 2.7-28.8.4-1.1.9-2.4 1.5-3.8 4-10.3 11.6-29.4 24.7-35.2 5.5-2.4 11.4-4.9 17.2-7.2 10.7-4.4 20.8-8.5 26.8-12.1 5.1-3.1 9.8-9.5 14.4-15.7 3.9-5.4 8-11 12.2-14.1l1.5-1.1c9.2-7 26.4-19.9 41.8-17.8 15.3 2 24.4 13.3 24.4 30.1 0 4.1-.4 8.7-.8 13.1-1.2 13.4-2.3 27.3 6.9 32.8 10.6 6.4 33.8 17.1 53.7 17.1 6.6 0 12.9-1 19.1-1.9 11.4-1.7 22.1-3.3 32.8 1.3 14.9 6.4 14.8 25.5 9.7 41.2-2.6 8-6.9 15.8-11 23.3-3.1 5.7-6 11-8.2 16.3l-1.3 3.1c-.6 1.5-1.3 3.1-1.9 4.6h2.8c.4-1.1.9-2.2 1.4-3.3l1.3-3.1c2.1-5.1 5-10.4 8.1-16 4.2-7.6 8.5-15.5 11.2-23.8 5.4-16.9 5.3-37.4-11.3-44.6-11.4-4.9-22.5-3.3-34.3-1.5-6 .9-12.3 1.8-18.7 1.8-19.3 0-42.6-10.9-52.2-16.7-7.8-4.6-6.7-17.6-5.6-30.2.4-4.4.8-9.1.8-13.3 0-18.4-10-30.6-26.7-32.9-16.6-2.3-34.3 11.1-43.8 18.3l-1.6 1.1zm78.7 133.4c-8.1-3.4-25 1.7-41 12.4-7.4 4.9-11.2 11.7-13.2 18.4h2.9c1.9-5.9 5.4-11.9 11.8-16.1 14.8-9.9 31.3-15.1 38.4-12.2 8.3 3.4 18.6 13.7 21.5 28.2v.1h2.9c0-.2-.1-.4-.1-.6-3.1-15.5-14.2-26.5-23.2-30.2zm341.3-222.1c1.7 5.9 3.4 12-1.3 14.2-2.4 1-5 1.5-7.8 1.5-3.5 0-7.4-.8-11.6-2.5-3.5-1.4-6.5-.8-9.4-.2-2.4.5-4.6.9-6.9.3-2.7-.8-5.9-2.8-6.5-6-.4-1.9.1-4.8 4.2-8.2.9-.7 1.8-1.5 2.7-2.2 6.1-5.1 11.5-9.5 18.7-9.5 7.4 0 15.7 2.5 16.4 6.6.3 1.9.9 4 1.5 6zm-2.7.7c-.6-2.1-1.2-4.3-1.5-6.3-.2-1.5-5.8-4.3-13.7-4.3-6.3 0-11 3.9-17 8.9-.9.7-1.8 1.5-2.7 2.2-1.7 1.4-3.7 3.5-3.3 5.6.4 2 2.7 3.4 4.6 3.9 1.6.5 3.4.1 5.5-.3 1.7-.4 3.6-.8 5.6-.8 1.7 0 3.6.3 5.5 1.1 6.7 2.7 12.6 3 17.2.9 2.4-1.1 1.5-5-.2-10.9zm136.5 125.3c1.6 0 3.4-.1 5.4-.2 2-.1 4.2-.1 6.7-.2V690c-2.6 0-4.9.1-6.9.2s-3.7.2-5.3.2c-5.4 0-21.7 0-25.2-10.9-3.7-11.6-12-21.5-21.7-25.9-8.8-4-20.2-2.7-28.5-1.7l-1.9.2c-5.4.6-9.6 2.9-11.8 6.5-2.5 4-2.6 9.4-.3 15.9 3.1 8.9 2 15.3.9 21.4-.6 3.3-1.2 6.4-1 9.7.5 11.5 8.3 21.7 23 30.3 5.6 3.3 11.7 4.6 18.2 6 13 2.8 27.8 6 44.9 26.1 7.5 8.8 12.4 18.8 15.6 28.5v-8c-3.2-7.7-7.6-15.4-13.5-22.4-17.7-20.8-32.9-24.1-46.4-27-6.3-1.4-12.2-2.7-17.4-5.7-13.9-8.1-21.2-17.5-21.7-28.1-.1-3 .4-6 1-9.1 1.1-6.2 2.4-13.2-1-22.8-2-5.7-2-10.3 0-13.5 2.4-3.8 7.2-4.9 9.8-5.2l1.9-.2c8-.9 19-2.2 27.1 1.5 9 4.1 16.8 13.4 20.3 24.3 4.1 12.8 21.9 12.8 27.8 12.8zm-24.8 17c0 5 0 11.1-6.5 12.7-1 .3-2.2.4-3.4.4-5.7 0-13.5-2.6-19.8-8.5-4.8-4.5-6.4-10.3-6.3-14.3.1-2.7.9-4.9 2.2-6 3.4-2.8 13.6-2.1 19 1.3l2 1.3c5.7 3.5 12.8 7.9 12.8 13.1zm-2.8-.1c0-3.7-6.6-7.8-11.5-10.8l-2.1-1.3c-4.7-3-13.6-3.1-15.6-1.4-.5.4-1.2 1.7-1.2 3.9-.1 3.4 1.3 8.4 5.4 12.3 6.7 6.2 15.7 8.7 20.6 7.4 4.2-1.1 4.4-4.5 4.4-10.1zM2.2 820H5c-.6-2.4-1.3-5.1-2.1-7.8-.7-2.4-1.4-4.8-2-7.1-.3-1.4-.6-2.9-.8-4.5v11.7c.1.2.1.5.2.7.6 2.4 1.3 4.8 1.9 7zm260-60.6c-1-1-1.5-2.4-1.3-4.1.3-2.6 2-5.6 4.2-7.1 5.4-3.6 12.7-7.4 16.9-5.1 3.3 1.9 7.5 4.8 8.2 8.1.3 1.4 0 2.7-.9 3.9-2 2.6-4.9 2.4-7.6 2.1-2-.2-4-.3-5.7.5-3.9 2.2-7.2 3.2-9.7 3.2-1.7 0-3.1-.5-4.1-1.5zm2-1.9c1.4 1.4 5.5.6 10.7-2.1 2.4-1.2 4.9-1 7.1-.8 2.6.2 4.2.3 5.1-1.1.4-.6.5-1.1.4-1.7-.4-1.8-2.9-4.2-6.8-6.3-.4-.3-1-.4-1.7-.4-2.7 0-7.1 1.9-12.3 5.4-1.5 1-2.9 3.3-3 5.1-.1.9.1 1.5.5 1.9zM581 742.4c-6.3 18.1-30.8 41.5-41.2 51.5-5.2 4.9-12 9.9-18.5 14.6-5.7 4.1-11.1 8.1-14.6 11.5h3.7c3.3-2.9 7.8-6 12.3-9.4 6.6-4.8 13.5-9.8 18.8-14.9 10.6-10.2 35.4-33.9 41.9-52.6 1.3-3.7 2.6-7 3.8-10.1 4.6-11.9 8-20.6 5.4-36.2-1.9-11.6-8.9-15.6-15-19.2-4.4-2.5-8.1-4.7-9.7-9.3-1.9-5.7-2.2-10-.7-12.7.9-1.7 2.5-2.8 4.8-3.4.7-.2 1.6-.4 2.5-.7 5.3-1.4 16.4-4.5 19.4-1.1 1.6 1.8 4 5.5 6.6 9.5 4.1 6.3 8.7 13.4 12.7 17.1 6.9 6.4 17.1 11.7 23.2 12.2.5 0 1.2.1 2 .1 6.9.4 23.1 1.3 29.3 10.7 5.5 8.2 8.3 26 10.2 37.7.6 3.4 1.1 6.5 1.5 8.4 1.9 8.6 13.9 28.4 20.1 33.2l.6.4c6.5 5 21.7 16.6 28.8 21.1 4.7 3 14.1 10.2 20.9 19.2h3.3c-7.2-10.1-17.6-18.2-22.8-21.4-7-4.3-22.1-15.9-28.5-20.9l-.6-.4c-5.7-4.4-17.3-23.6-19.1-31.6-.4-1.9-.8-4.9-1.4-8.3-1.9-11.9-4.8-30-10.6-38.7-7-10.5-23.6-11.4-31.5-11.9-.8 0-1.4-.1-2-.1-5.5-.4-15.1-5.6-21.5-11.5-3.7-3.5-8.2-10.4-12.2-16.6-2.7-4.2-5.1-7.9-6.8-9.8-4.2-4.6-15-1.7-22.2.3-.9.2-1.7.4-2.4.6-3.1.7-5.3 2.3-6.6 4.7-1.8 3.5-1.6 8.5.6 14.9 1.9 5.6 6.5 8.2 10.9 10.8 5.9 3.4 12 6.9 13.7 17.3 2.4 14.9-.6 22.8-5.3 34.8-1.2 3.2-2.5 6.4-3.8 10.2zm-179.7 66.8c.9-1.2 2.1-2.4 3.5-3.8 5.6-5.7 13.2-13.4 13.2-29.5 0-20.6-20.2-26-27-27.8-3.2-.9-11.8-2.2-21.7-3.7-11.6-1.8-24.8-3.8-32.2-5.5-13.8-3.2-18.1-15.4-19.1-19.1-1.5-5.3-8.4-15-15.5-21.6-7.3-6.8-23.8-5.6-36.9-2.2-7.7 2-21.4 8.6-32.4 13.9-6.6 3.2-12.2 5.9-14.7 6.7-.8.3-1.6.5-2.5.8-8 2.4-22.9 7-33.4 22.1-7.6 11-4.7 27.1-1.6 44.2 1.8 9.4 3.5 19.2 3.7 28.7 0 2.8 0 5.3-.2 7.6h2.8c.2-2.3.2-4.8.2-7.5-.2-9.7-2-19.6-3.7-29.1-3-16.5-5.8-32.1 1.2-42.2 9.9-14.3 24.2-18.7 31.9-21.1.9-.3 1.8-.6 2.5-.8 2.7-.9 8.1-3.5 15-6.8 10.9-5.2 24.5-11.7 32-13.7 11.8-3.1 27.9-4.5 34.3 1.5 6.7 6.2 13.4 15.6 14.7 20.4 1.1 4.1 5.9 17.5 21.1 21.1 7.5 1.7 20.7 3.7 32.4 5.5 9.4 1.4 18.3 2.8 21.5 3.6 6.8 1.8 24.9 6.6 24.9 25.1 0 15-7.2 22.2-12.4 27.5-1.4 1.4-2.7 2.7-3.7 4-.8 1-1.8 2.1-2.9 3.3-2.2 2.5-4.9 5.4-7.3 9.2h3.3c2-2.9 4.2-5.3 6-7.3 1.2-1.3 2.2-2.4 3-3.5zm319.6-4.5c-1.4-1-2.7-2-3.9-2.9-9.5-7.6-35.5-16-40.6-17.6-7.7-2.4-23.6-7.4-39.9-17.2-13.8-8.3-25.6-10.8-36.2-7.9-6.6 1.8-12.8 10.5-17.3 16.8-1.4 2-2.5 3.6-3.4 4.6-3.8 4.2-20.9 19.5-31.3 26.7-6.4 4.4-12.4 8.3-16.8 11.2-.9.6-1.7 1.1-2.4 1.6h4.9c4.3-2.8 10-6.5 15.9-10.6 10.5-7.3 27.9-22.8 31.7-27.1 1-1.1 2.2-2.8 3.6-4.8 4-5.7 10.1-14.2 15.8-15.8 9.9-2.7 21-.3 34.1 7.6 16.6 9.9 32.7 15.1 40.5 17.5 5 1.6 30.5 9.9 39.7 17.1 1.2.9 2.6 1.9 4 2.9 4.6 3.3 10.1 7.3 14.2 13.2h3.3c-4.7-7.3-11.1-11.8-15.9-15.3zm-446.1-16.6c2.6-1.4 7.9-2.5 15.4-4 6.6-1.3 14.8-3 24.5-5.5 6.1-1.6 10.1-4.7 11.9-9.4 4.1-10.6-5-24.8-6.1-26.4l-.7-1c-4.2-6.4-12.8-19.7-40.1-21.9-24-2-44 7.5-56 13.2-2.4 1.2-4.5 2.2-6.3 2.9-11.7 4.9-25 24.5-25 36.9 0 5.3 2.1 8.8 4.6 12.8 3.3 5.5 7.6 12.4 8.6 27.5.2 2.5.3 4.8.2 6.8h2.8c0-2.2-.1-4.6-.3-7.1-1.1-15.8-5.5-23-9-28.7-2.3-3.8-4.2-6.9-4.2-11.4 0-11.2 12.6-29.8 23.3-34.3 1.8-.7 4-1.7 6.4-2.9 12.5-5.9 31.3-14.7 54.6-12.9 26 2.1 34.1 14.7 38 20.7l.7 1.1c.3.6 9.4 14.4 5.8 23.9-1.5 3.8-4.9 6.4-10.1 7.8-9.6 2.5-17.7 4.2-24.3 5.5-7.9 1.6-13.2 2.6-16.1 4.2-5.5 3-8.7 11.6-12.1 21.8-.9 3-2.2 7.4-3.5 12.3h2.7c1.3-4.7 2.4-8.9 3.4-11.7 3.2-9.2 6.4-17.7 10.9-20.2zm-57.9-14.4c-1.7-4.3-1.4-9.2.9-12.7 4.2-6.5 14-15 14.4-15.4 8.7-6.1 27.1-13.7 41.3-11.7l2.7.4c13 1.8 24.2 3.3 27.5 9 .4.7.9 1.4 1.4 2.2 2.3 3.7 5 7.8 3.6 11.6-.8 2.3-2.8 3.9-6.2 5.1-8 2.8-18.9 5.9-25.3 7.7-2.1.6-3.8 1.1-4.8 1.4-3.3 1-6.8 3.9-10.2 6.8-1 .9-2 1.7-3.1 2.5-.7.6-1.4 1.2-2 1.8-2.7 2.5-5.5 5.3-12.6 5.3-2.7 0-6.1-.4-10.4-1.4-8.6-2-14.8-6.5-17.2-12.6zm2.6-1.1c2.1 5.2 7.6 9.1 15.3 11 13.8 3.3 17 .1 20.4-3.2.7-.7 1.4-1.4 2.2-2 1-.8 2-1.7 3-2.5 3.6-3 7.3-6.2 11.1-7.3 1.1-.3 2.8-.8 4.9-1.4 6.4-1.8 17.2-4.9 25.2-7.7 2.5-.9 4-2 4.5-3.4.9-2.5-1.4-6.1-3.4-9.2-.5-.8-1-1.6-1.4-2.3-2.6-4.5-14.3-6.1-25.5-7.6l-2.7-.4c-1.5-.3-3-.4-4.5-.4-12.6 0-27.4 6.3-34.7 11.5 0 0-9.8 8.5-13.8 14.7-1.8 2.8-2 6.7-.6 10.2zM20 737.8c4.5 20.8 16.4 56 22.4 66.1 2.2 3.7 5.8 9.6 9.9 16.1h3.2c-4.5-7.1-8.4-13.6-10.8-17.6-5.9-9.9-17.6-44.7-22.1-65.3C19.3 721.7 10 710 0 702.2v3.7c8.9 7.3 17 18.2 20 31.9zm647.4 71.5c-6.5-1.4-21.4-6-31.7-10l-2.8-1.1c-9.1-3.6-17-6.7-25.6-6.3-7.4.3-14.8 5.3-20.2 8.9-1.5 1.1-2.9 2-4.1 2.7-3.9 2.3-10.7 9.8-16.1 16.5h3.5c4.9-6 10.7-12.3 13.9-14.1 1.3-.8 2.7-1.7 4.3-2.8 5.1-3.5 12.1-8.2 18.8-8.5 8.1-.4 15.3 2.5 24.5 6.1l2.8 1.1c10.4 4.1 25.6 8.7 32.2 10.1 6 1.3 21.7 5.5 31 8.1h7.3c-2.3-1.1-4.5-2-6.3-2.5-9.2-2.6-25.3-6.9-31.5-8.2zM318 816.2c-2.4-1.6-5-2.1-7.5-1.4-3.1.8-5.4 3.1-6.4 5.1v.1h3.2a8 8 0 0 1 4-2.6c1.7-.5 3.5-.1 5.2 1 .4.3.8.6 1.3.9.4.2.7.5 1.1.7h4.6c-1.4-1.2-2.8-2.1-4.1-3l-1.4-.8zM37.4 719.5c2.4 5 5.4 12.8 8.9 21.9 6.6 17.3 14.9 38.8 22.7 49.8 11.6 16.5 20.5 23.9 28.5 23.9.2 0 .4 0 .8.7 5-.2 30.2-2.7 37.7-30.1 4.2-15.3 3.3-30.6 2.6-42.9-.4-8.1-.9-15.1.2-20.5 2.9-14.8 8.2-25.6 24.7-29.7 5-1.3 9.8-2 14.5-2.8 11.9-1.9 22.2-3.6 26.9-12.3 2.1-4 3.3-8.3 4.4-12.5 2.1-7.7 3.9-14.3 11.1-16.6l3.9-1.2c10.8-3.2 23-6.8 26.2-22.7 3.6-17.8-3.8-28.4-8.6-33.2-1.6-1.5-4.1-3.3-7-5.4-6.4-4.6-15.3-11-20.3-19.3-6.5-10.9-15-20.8-28.4-33-11-10-24.3-13.6-43.3-11.8-7.1.7-12.5 2.3-16.9 3.6-7.2 2.1-10.4 3-13.9-.5-1.7-1.7-2.5-3.5-2.5-5.6 0-3.7 2.8-8.1 8.3-13.3l1-1c6.2-5.9 17.7-16.9 32.6-21 14.8-4.1 17.1-3.2 24-.5l1.1.4c8.4 3.3 17.6 5.6 24 5.9 6.6.4 15.5 3 18.8 7.3.7.9 1.4 1.9 2.3 3.2 4.1 5.9 10.9 15.8 22.2 20.8 2.4 1.1 4.5 2.1 6.6 3.1 9.8 4.7 18.2 8.7 35.2 7 20.3-2.1 25.5-1.3 39.3 6.3 4.8 2.6 10.8 6.3 17.1 10.3 12.6 7.9 25.6 16 31.4 16.5 2 .2 4.7.5 7.9.9 9.9 1.2 24.9 3.1 35.5 1.8 17.7-2.2 42.4-6.9 52-22.2 9.7-15.5 13.1-31.9 9.4-46.3-3.4-13.5-9.2-25.2-13.5-31.6-3.3-5-6.4-13.2-.2-32.4 5.7-17.9 3.6-28.7-7.6-38.4-3.4-3-8.5-6.8-13.9-10.9-10.7-8.1-24.2-18.2-30.7-26.3-5.7-7.1-8.3-16.4-10.6-24.5-1.6-5.7-3.1-11.1-5.5-15.1-5.4-9.2-19.3-17.1-25.2-20.4l-1.1-.6c-1.5-.8-15-9.1-18.8-31.2-3.8-22.2-18-34-29-37.4-10.7-3.2-36.3-11.9-42-21.6-4.9-8.3-12.7-24.6-17.3-34.3l-2.2-4.6c-2.3-4.9-11.5-21.5-30.4-30.4-14.6-6.9-25.1-8.5-36.2-5.6-3.2.8-6.7 2.4-10.5 4.1-7.6 3.4-16.1 7.3-26.5 7.5-7.6.1-19 1.8-31.2 3.5-14.4 2-29.3 4.1-40.4 4.3-20.9.4-38.8 11.6-41.6 17.6-2.5 5.5-6.6 23.7-6.6 31.7 0 6-1.7 20.2-17.5 20.5-2.3 0-5.1.1-8.2.3-3.5.2-7.4.4-11.6.5v2.7c4.2-.1 8.2-.3 11.8-.5 3.1-.1 5.9-.3 8.2-.3 18.7-.4 20.2-17.9 20.2-23.3 0-8 4.2-25.9 6.4-30.6 2.1-4.5 18.4-15.7 39.2-16 11.3-.2 26.2-2.3 40.7-4.4 12-1.7 23.4-3.3 30.8-3.5 10.9-.2 20.1-4.4 27.5-7.7 3.8-1.7 7.1-3.2 10.1-4 7.6-2 17-2.7 34.3 5.4 18.1 8.4 26.9 24.4 29.1 29.1l2.2 4.6c4.7 9.8 12.4 26.1 17.4 34.6 6 10.2 29.9 18.7 43.6 22.9 10.2 3.1 23.5 14.2 27.1 35.2 4 23.3 18.6 32.2 20.2 33.1l1.1.6c5.7 3.2 19.1 10.8 24.2 19.4 2.2 3.7 3.6 8.9 5.2 14.4 2.3 8.4 5 17.9 11.1 25.5 6.7 8.3 19.7 18.1 31.2 26.7 5.4 4 10.4 7.8 13.8 10.7 10.4 9 12.2 18.6 6.8 35.5-5.1 15.8-4.9 26.5.5 34.7 4 5.9 9.8 17.5 13.2 30.7 3.5 13.6.2 29.3-9.1 44.1-9 14.3-32.8 18.8-50 20.9-10.2 1.3-25-.6-34.8-1.8-3.2-.4-6-.7-8-.9-5.1-.4-18.5-8.7-30.2-16.1-6.3-4-12.3-7.7-17.2-10.4-14.4-7.9-20.1-8.8-40.9-6.7-16.2 1.6-23.9-2.1-33.7-6.8-2.1-1-4.3-2.1-6.7-3.1-10.7-4.7-17.2-14.2-21.1-19.9a75 75 0 0 0-2.4-3.3c-4.4-5.6-14.9-8.1-20.9-8.4-6-.3-15.1-2.5-23.2-5.7l-1.1-.4c-7.1-2.8-10.1-4-25.8.4-15.6 4.3-27.4 15.6-33.8 21.6l-1 1c-6.1 5.7-9.1 10.7-9.2 15.2-.1 2.8 1.1 5.4 3.3 7.6 4.8 4.8 9.7 3.3 16.6 1.2 4.2-1.3 9.5-2.8 16.3-3.5 18.2-1.8 30.9 1.7 41.2 11.1 13.1 12 21.5 21.7 27.9 32.4 5.3 8.8 14.4 15.3 21.1 20.1 2.8 2.1 5.2 3.8 6.6 5.2 4.3 4.3 11.2 14.1 7.8 30.7-2.9 14.3-13.3 17.4-24.3 20.6l-3.9 1.2c-8.6 2.7-10.7 10.4-12.9 18.5-1.1 4-2.2 8.2-4.2 11.9-4 7.5-13.3 9-25 10.9-4.7.7-9.6 1.5-14.7 2.8-18.9 4.8-24 18.1-26.7 31.9-1.1 5.7-.7 12.9-.2 21.2.7 12.7 1.6 27.1-2.5 42-7 25.6-30.6 27.9-35.2 28.1-7.1.3-15.4-6.7-26.7-22.7-7.6-10.7-15.8-32.1-22.4-49.2-3.5-9.1-6.5-16.9-9-22.1-6.1-12.8-15.6-27.4-39.9-40.1v3.1c22.6 12.2 31.6 26 37.4 38.2zM18.1 459.2c9.1 5.1 16.4 9.1 28.1 8.4 10.9-.7 30.6-4 43.6-8.3 14-4.6 28.9-1.5 34.7 0 9.3 2.5 25.7 1.7 31.8 0 .2-.1 4.6-1.1 7.8-2.5.8-.4 1.7-1 3-1.8 4.3-2.7 12.4-7.8 21.4-7.3 10.4.6 19.7 7.9 23.2 10.6.4.3.7.6 1 .8 2.6 1.9 14.5 9.7 18.7 10.5 3.9.7 15 4.8 17.7 8.1 1.1 1.4 2.4 4.5 3.7 7.8 1.9 4.9 4.4 11 7.9 15.2 5.8 6.8 15 14.9 26.4 14.9 7.1 0 11.4-1.2 14.8-2.1 1.7-.5 3.2-.9 4.6-1 4.5-.4 13.4.1 18 4.4 5.4 5 24.9 15.7 29.5 17.7 4 1.7 22.3 8.1 37.6 8.1 1.1 0 2.2-.1 3.1-.1 15.5-1 32-8.2 38.8-12.5l1.2-.7c7.2-4.5 20.6-12.8 16.9-34.3-2.2-12.8-5.1-22.7-7.2-29.9-1.5-5.1-2.6-8.7-2.7-11 0-1.2.4-3.5.9-6.2 1.7-9.4 4.6-25-5-35.7-12.6-14.1-23.7-15.5-39.1-16.2-7.8-.3-18.6-.1-28.1.1-10.1.2-19.7.4-23.3-.1-8.2-1.2-28.9-5.4-42.3-19.1-6-6.2-10.6-12-14.6-17.1-5.2-6.5-9.3-11.7-13.8-14-7.4-3.7-21.6-12.1-28-20.2-2.5-3.2-3.6-6.5-4.7-9.8-1.6-4.9-3.3-10-9.6-14.1-9.5-6.3-19.7-11.9-30.5-5.9-5.8 3.2-6.6 9.9-7.4 16.4-.7 5.3-1.3 10.4-4.7 12.8-8.1 5.7-34.9 11.3-43.3 10.7-8.8-.7-25.1-9.1-32.5-14.5-7.8-5.8-26.9-21.5-34-29.6-1.8-2.1-4.4-5.1-7.3-8.6-9-10.7-20.2-24-24.4-26.9l-1.7-1.2c-6.2-4.4-19-13.4-35.7-17.5l-4.1-1c-3-.7-5.8-1.4-8.5-2v2.9c2.5.6 5.1 1.2 7.8 1.9l4.2 1c16.1 3.9 28.7 12.8 34.7 17l1.8 1.2c3.9 2.7 15.5 16.4 23.9 26.4 2.9 3.4 5.5 6.5 7.3 8.6 7.3 8.3 26.6 24.2 34.5 30 7.8 5.8 24.5 14.3 33.9 15 9 .7 36.5-5.1 45.1-11.2 4.4-3.1 5.1-9 5.8-14.7.7-6 1.4-11.8 6-14.3 9.5-5.2 18.5-.2 27.7 5.8 5.4 3.6 6.9 7.8 8.5 12.7 1.2 3.5 2.4 7.1 5.2 10.7 6.7 8.4 21.3 17.1 28.9 20.9 4 2 7.9 7 12.9 13.3 4 5.2 8.7 11 14.8 17.3 13.9 14.3 35.3 18.7 43.9 19.9 3.9.5 13.1.3 23.8.1 9.5-.2 20.3-.4 27.9-.1 15.2.7 25.3 2 37.2 15.3 8.7 9.6 5.9 24.4 4.3 33.3-.6 3-1 5.3-.9 6.9.1 2.6 1.3 6.4 2.8 11.6 2.1 7.2 4.9 17 7.1 29.6 3.4 19.7-8.9 27.4-15.6 31.5l-1.2.7c-7 4.4-23.3 11.1-37.5 12.1-15.2 1-35.4-6-39.6-7.8-5-2.2-23.8-12.6-28.7-17.2-6.5-6.1-18.7-5.3-20.1-5.2-1.7.2-3.3.6-5.1 1.1-3.3.9-7.4 2-14.1 2-10.3 0-18.9-7.6-24.3-13.9-3.3-3.8-5.5-9.4-7.5-14.4-1.4-3.6-2.7-6.8-4.1-8.5-3.5-4.2-15.7-8.3-19.3-9-3.3-.6-14.5-7.7-17.6-10-.3-.1-.6-.4-1-.7-3.7-2.9-13.5-10.6-24.8-11.2-9.9-.5-18.4 4.9-23 7.8-1.1.7-2 1.4-2.6 1.6-2.9 1.3-7.2 2.3-7.3 2.3-5.8 1.6-21.8 2.3-30.4 0-6-1.6-21.6-4.8-36.3 0-12.8 4.2-32.2 7.5-42.9 8.1-10.9.7-17.5-3-26.6-8-2.7-1.5-5.9-3.4-9.4-5.4-3.3-1.9-6.7-3.9-10.1-5.9v3.2c3 1.7 5.9 3.4 8.7 5.1 3.5 1.9 6.7 3.8 9.4 5.3zm-1.2 61.4c4.2 0 7.2-.5 9.1-1.5 2.2-1.2 7.5-4.5 8-9.4.3-2.9-1.1-5.8-4.2-8.5-3-2.6-4.3-2.5-6.6-2.2-1.7.2-3.9.6-8.6-.5-7.2-1.6-11.3-3.2-14.6-6.2v3.6c3.4 2.3 7.5 3.8 13.9 5.3 5.3 1.2 7.9.8 9.6.5 1.7-.2 2.2-.3 4.4 1.6 2.4 2.1 3.5 4.2 3.3 6.2-.4 3.7-5.2 6.5-6.6 7.3-1.7.9-6.8 2-22.5-.2-.7-.1-1.4-.2-2.1-.4v2.8l1.8.3c6.1.9 11.1 1.3 15.1 1.3zM41.2 36.7c6.1-2.7 18.8-8.4 27.9-8.4 9.3 0 23.4.7 34.5 1.7 11.8 1.1 27.8 1.7 37.2-1.4 9.6-3.2 24.1-8 32.6-23.2.9-1.7 1.9-3.5 2.8-5.4h-3c-.7 1.4-1.5 2.8-2.2 4.1-8 14.3-21.9 18.9-31.1 22-9 3-24.6 2.3-36.1 1.3-11.3-1-25.2-1.7-34.7-1.7-9.7 0-22.3 5.7-29 8.7-7.1 3.2-24.7 14-30.4 18.3C7.8 54.1 4.2 55.6 0 57v2.7c4.8-1.5 9-3.2 11.3-5 5.6-4.3 22.9-14.9 29.9-18zm-3.9 323.7c11.3 3.3 20.7 5.4 29.4 6.4 7.1.8 21.8 13.5 23.7 15.9 1.5 1.9 18.2 18.1 27.7 20.6 6.4 1.7 11.3 2.5 15 2.5 4.2 0 6.7-1.1 7.5-3.4 1-2.3.9-5.1-.2-7.8-1.3-3.1-4.6-7.4-12.9-10.5-6.5-2.5-10.2-3.5-13.2-4.3-2.6-.8-4.7-1.3-7.7-2.6-3-1.2-3.9-2.8-5.4-5.3s-3.3-5.5-7.5-9.5c-8.1-7.7-12.1-9.6-19.4-13l-1.9-.9c-9.1-4.3-18.3-13.8-25.9-26.6-6.5-11-19.9-33.8-42.6-43.7-1.3-.6-2.6-1-3.9-1.5v2.9c.9.3 1.9.7 2.8 1.1 21.9 9.5 35.1 31.9 41.4 42.6 7.9 13.3 17.5 23.2 27.1 27.7l2 .9c7.2 3.4 10.9 5.1 18.7 12.5 4 3.7 5.6 6.6 7 8.9 1.6 2.7 2.8 4.9 6.6 6.5 3.2 1.4 5.4 1.9 8.1 2.7 2.9.8 6.6 1.8 13 4.2 7.5 2.8 10.3 6.4 11.4 9 .8 2 .9 4 .2 5.6-.4.9-3 3.5-19.4-.8-8.3-2.2-24.5-17.4-26.2-19.6-1.9-2.3-17.3-15.9-25.6-16.9-8.6-1-17.8-3-29-6.3-11.6-3.4-26.5-29.5-26.6-29.8l-.3-.3c-4.2-3.9-7.9-5.5-11.2-6v2.8c2.7.5 5.7 1.9 9.2 5.1 1.5 2.6 15.8 27.3 28.1 30.9zm53.2 47.5c.7 2.1-.1 3.8-.5 4.4-1.2 2-5 6-16.2 9.9-5.6 1.9-10 2.5-13.5 2.5-2.9 0-5.3-.4-7.1-.7-.8-.1-1.6-.3-2.3-.3-4-.4-6.6-6.7-9.1-13.7-.4-1.1-.7-2-1-2.6-.9-2.1-6.8-6.8-10.3-9.2a7.14 7.14 0 0 1-2.9-6.9c.3-1.9 1.5-3.4 3.3-4 3.1-1 7.7-2.3 16.5-3.1 7.3-.7 11.2 2.4 14.9 5.3.8.6 1.6 1.3 2.4 1.9 4.5 3.2 12 7.3 19.4 10.7 3.5 1.6 5.7 3.6 6.4 5.8zm-2.6.7c-.5-1.5-2.2-2.9-4.9-4.2-7.7-3.5-15.1-7.6-19.9-11-.9-.6-1.7-1.3-2.5-1.9-3.6-2.9-6.8-5.3-13-4.7-8.5.8-13 2-15.9 3-1 .3-1.4 1.2-1.5 1.8-.2 1.5.6 3.2 1.9 4.2 1.1.8 9.7 6.9 11.2 10.4.3.6.6 1.6 1 2.8 1.2 3.5 4.1 11.7 6.8 11.9.8.1 1.6.2 2.5.4 4.1.7 9.8 1.6 19.3-1.7 11.2-3.9 14.1-7.7 14.8-8.8.1-.2.6-1.1.2-2.2zm-77.7-296c6.2-2.9 13.9-6.5 22.9-8.6 12.7-2.9 25-5.5 35.8-4.1l6.1.9c10.1 1.6 22.8 3.5 40.2.1 24-4.7 38.7-9.3 49-15.2 4-2.3 7.6-4.9 10.8-7.2 5.6-4.1 10.5-7.6 15.6-8l3.1-.3c7.4-.7 15.8-1.5 33.3 4.7 11.4 4 24.1 10.5 34.3 15.7 7.8 4 14 7.1 17.1 7.9 1.2.4 2.8 1 4.5 1.6 7.1 2.6 17.8 6.7 22.7-4.4 3.8-8.6 4.4-22.6 1.8-41.8-.9-6.2-3.4-39.6-4.2-53.9h-2.7c.8 14.4 3.4 48 4.3 54.3 2.5 18.6 2 32.2-1.6 40.3-3.5 8-10.5 6.2-19.2 2.9-1.7-.6-3.4-1.2-4.8-1.6-2.8-.7-9.2-3.9-16.6-7.7-10.3-5.3-23.1-11.8-34.7-15.9-18.1-6.4-26.8-5.6-34.5-4.8l-3 .3c-5.9.5-11 4.2-17 8.5-3.3 2.4-6.7 4.8-10.6 7.1-10 5.8-24.5 10.2-48.2 14.9-17 3.4-29.4 1.4-39.3-.1-2.1-.3-4.2-.7-6.1-.9-11.3-1.4-23.9 1.1-36.8 4.1-9.3 2.1-17.1 5.8-23.4 8.8-2.8 1.3-5.2 2.5-7.2 3.2L0 114v2.8c1-.3 1.9-.6 2.8-.9 2.1-.8 4.5-1.9 7.4-3.3zm39.5-44c2.2-.4 4.3-1 6.6-1.7 6.3-1.9 13.5-3.9 23-1.5 3.3.8 6.1 1.7 8.8 2.5 8.2 2.5 14.6 4.5 26.9 3.7 16.3-1.1 31.7-2.4 40.6-7.4 4.7-2.6 9.9-6.7 14.9-10.6 4.3-3.4 8.4-6.6 11.8-8.6 1.7-1 3.3-2.1 4.9-3.2 5.4-3.7 10.1-6.9 17.5-5.9 5 .6 9.4 2.8 13.7 4.8 4.4 2.1 8.6 4 13.1 4.4.9 0 1.8.1 2.7.2 8 .8 17.9 1.7 25.4-6.1 7.9-8.2 14.7-15.3 16.8-27.8.5-3.2.9-7.2 1.2-11.4h-2.7c-.3 4.1-.7 7.8-1.2 10.9-2 11.6-8.5 18.4-16.1 26.3-6.6 6.9-15.4 6-23.2 5.3l-2.8-.3c-4-.3-7.9-2.2-12.1-4.2-4.5-2.2-9.1-4.4-14.5-5.1-8.5-1.2-14 2.6-19.4 6.3-1.5 1.1-3.1 2.1-4.7 3.1-3.5 2.1-7.7 5.4-12.1 8.8-4.9 3.9-10 7.9-14.5 10.4-8.4 4.7-24.1 6-39.5 7-11.8.7-18-1.2-25.9-3.6-2.7-.9-5.5-1.7-8.9-2.6-10.2-2.6-18.1-.3-24.4 1.5-2.2.7-4.3 1.3-6.3 1.6-8.2 1.5-21.9 10.3-34.1 18.4A71.9 71.9 0 0 1 0 91.4v3a80.9 80.9 0 0 0 16.7-7.9c11.9-7.9 25.4-16.6 33-17.9zm3.1 375.6c19.1.5 32.6-2.8 40.2-10 6.7-6.3 13.9-6.5 24.9-.7 9.8 5.1 21.5 9.8 33.9 6 5.4-1.6 10.8-5.1 16-8.5 6.4-4.2 12.4-8.1 17.9-8.3l1.5-.1c9.8-.5 16.9-.8 20.9 7.9 4.4 9.5 9.8 15.7 23.5 17.2 12.5 1.4 20.6 2.9 27.4 11.4 1.9 2.3 18.6 23 27.8 24.2 2.8.4 6.2.7 9.5 1.1 4.8.5 9.8 1.1 12.8 1.6 4.8.9 25.1 10 34 17.5 9.5 8.1 32.9 18.1 42.4 18.1h4.4c9.4 0 21.8-.7 25.5-10.6 4.2-10.8 3.9-19.1-10.6-27.3-14-7.9-31.2-20.4-34.6-26.8-3.3-6.3-18-25.3-31.2-31.2-5.4-2.4-13.4-5.2-21.8-8.1-11.2-3.9-22.8-7.9-29.7-11.5-11.5-6-21.9-28.3-24.4-35.7l-.4-1.2c-8.1-24.9-20.3-37.6-36.1-37.6-4.1 0-6.2 2.1-8.6 4.6-2.6 2.7-5.9 6-13.3 8.8-9 3.4-13.6 3.4-18 3.4-2.7 0-5.1 0-8.3.7-4.1.9-8.6 4.7-13.3 8.8-5 4.3-10.1 8.8-14.3 9l-1.6.1c-8.2.5-16.6 1-31.1-15.6-12.8-14.7-20-17.2-25.8-19.2-1.5-.5-2.9-.9-4.3-1.6a80.58 80.58 0 0 1-32.8-28.3c-10.9-16.7-19.6-28.6-39.6-41.9-5-3.3-10.2-5.6-15.6-7.3v2.7c4.9 1.6 9.6 3.7 14.1 6.7 19.6 13 28.1 24.7 38.9 41.1 8.4 12.6 20 22.7 33.7 29.2 1.6.8 3 1.3 4.6 1.8 5.5 1.9 12.3 4.3 24.7 18.4 15.5 17.6 24.9 17 33.3 16.5l1.6-.1c5.2-.2 10.7-5 16-9.6 4.2-3.6 8.6-7.4 12.1-8.2 2.9-.6 5.2-.6 7.7-.6 4.4.1 9.5.1 19-3.5 8-3 11.6-6.7 14.3-9.4 2.3-2.4 3.7-3.8 6.7-3.8 21.8 0 30.5 26.9 33.4 35.7l.4 1.2c1.9 5.7 12.5 30.4 25.8 37.3 7.1 3.7 18.8 7.8 30.1 11.7 8.4 2.9 16.4 5.7 21.6 8 12 5.4 26.4 23.5 29.9 30 4.1 7.6 23.3 20.9 35.7 27.9 13 7.4 13.3 13.8 9.4 23.9-3.4 8.8-16.7 8.7-25.4 8.7h-2.1c-8.8 0-31.6-9.8-40.6-17.5s-29.7-17.1-35.3-18.1c-3-.6-8.1-1.2-13-1.7-3.3-.4-6.7-.7-9.4-1.1-5.7-.7-17.5-12.5-26-23.2-7.5-9.4-16-10.9-29.2-12.4-11-1.2-16.6-5.3-21.3-15.6-4.8-10.4-13.5-10-23.6-9.5l-1.5.1c-6.2.2-12.5 4.4-19.2 8.7-5 3.2-10.2 6.6-15.3 8.2-11.4 3.6-22.5-.9-31.8-5.8-8.6-4.5-18.6-7.9-28.1 1.1-7 6.5-20.2 9.7-38.3 9.2-16.7-.5-31.2-12.7-39.9-33.4-4.2-10-8.5-18.3-13-24.9v5.1c3.6 5.9 7.1 12.8 10.5 21.1 9.1 21.9 24.6 34.7 42.3 35.2zm-7.1-323.4l2.5-1.1c7.9-3.4 22.4-5 37-4 14.1.9 28.9.5 42.7-1.4 6.9-1 14.8-5 24-9.7 7.9-4 16.8-8.6 26.2-11.6 20.9-6.7 43.1-4.3 51.7-3 9.2 1.4 22.5 10.7 41.8 29.2 8.4 8 13.3 17 18.6 26.4 4.8 8.6 9.8 17.6 17.6 25.9 16.7 17.8 27.7 19.9 37.5 20.6h1.3c5.3 0 8.8-2.2 11.1-3.8 2.7-2.5 4.4-6 4.4-9 0-3.9-4.6-10.1-10.8-18.7-1.8-2.5-3.7-5.1-5.6-7.8-7.1-10.3-11.8-22.9-15.5-42.3-3.3-17.3.3-61.9 1.4-72.9.7-6.7 1.4-24.5 1.6-37.6h-2.8c-.2 13.1-.9 31-1.5 37.4-1.2 11.1-4.8 56.1-1.4 73.7 3.8 19.7 8.6 32.7 16 43.3 1.9 2.7 3.8 5.3 5.6 7.8 5.2 7.2 10.2 14.1 10.2 17 0 1.9-1.1 4.7-3.5 7-1.8 1.7-5 3.6-10.1 3.3-9.6-.7-19.6-2.7-35.7-19.8-7.6-8.1-12.5-16.9-17.2-25.4-5.1-9.2-10.4-18.7-19.1-27-19.6-18.8-33.3-28.3-43.2-29.8-10.9-1.7-32.2-3.6-53 3.1-9.6 3.1-18.6 7.7-26.6 11.8-8.9 4.6-16.6 8.5-23.1 9.4-13.7 1.9-28.2 2.4-42.2 1.4-15-1-30.1.6-38.3 4.2l-2.5 1.1c-9 3.9-25.8 11.2-37.8 14.9l-7 2.1v2.7c2.1-.6 4.6-1.3 7.7-2.3 12.1-3.8 29-11.1 38-15.1zm48 16.3c5.2-.9 10.7-1.4 16.5-2 15.5-1.5 33.1-3.3 54-13.1 28.9-13.6 56.3-12.5 67.9-9.8 11.1 2.6 32.6 16 42.8 49.4 8.2 27 21.6 37.2 30.4 44 2 1.5 3.7 2.9 5.2 4.2 5.8 5.3 18.6 7 28.8 8.4 5.1.7 9.5 1.3 12.1 2.2 1.2.4 2.7 1 4.2 1.6 4.4 1.8 9.9 4.1 15.1 4.1 2.1 0 4.1-.4 5.8-1.4 3.8-1.8 6.5-5.6 8-11.2 4.4-15.9-.7-26.9-4.4-35-1-2.3-1.9-4.2-2.4-5.9-1-3.4-4-8.2-7.8-14.3-5.1-8.2-11.4-18.4-14.8-28.5-5.4-16.1-5.5-35.6-5.1-45.7.3-8.2 4.1-41.1 6.1-51.8 1.4-7.4 1.9-20.7 2-32.3h-2.7c-.2 11.4-.6 24.7-1.9 31.8-2 10.8-5.9 43.9-6.2 52.2-.5 12.6-.1 30.9 5.2 46.7 3.5 10.4 9.9 20.8 15.1 29.1 3.5 5.7 6.6 10.6 7.5 13.7.6 1.9 1.5 3.9 2.6 6.2 3.6 7.7 8.4 18.2 4.3 33.1-1.3 4.9-3.5 8-6.5 9.5-5.5 2.7-13.3-.5-18.9-2.9-1.6-.7-3-1.3-4.3-1.7-2.9-1-7.4-1.6-12.6-2.3-9.9-1.3-22.2-3-27.3-7.7-1.6-1.5-3.4-2.9-5.4-4.4-9.1-6.9-21.5-16.4-29.5-42.6-10.5-34.6-33.1-48.5-44.8-51.3-11.9-2.9-40.1-3.9-69.7 10-20.5 9.6-37.8 11.4-53.1 12.9-5.8.6-11.3 1.2-16.7 2.1-20.4 3.6-57 11-74.5 16.8-3.5 1.2-10.4 3.3-18.7 5.2v2.8c8.7-1.9 16-4.2 19.6-5.4 17.2-5.7 54.6-13.3 74.1-16.7zm-75.2 38.8c-.8-5-9.1-5.5-15.1-5.9l-.8-.1c-.8-.1-1.7 0-2.6.1v2.8c.9-.1 1.7-.2 2.5-.1l.9.1c3.9.3 12.1.8 12.6 3.6.7 4.2 1.6 14.7-5.7 21C7.4 200 3.9 201.8 0 203v2.9c4.6-1.3 8.6-3.5 11.9-6.6 8.3-7.1 7.4-18.7 6.6-23.4zm351.4 259c-1.1-.7-4.5-2.7-4.1-5.8.5-3.6 6.3-6.5 19.2-9.7 16.1-4 23.4.1 28.9 4.3 6.9 5.3 10.4 13.6 9.8 22.8-.8 10.9-8.3 12.6-14 12.9h-.6c-4.6 0-7.1-3-9.3-5.7-.8-.9-1.5-1.8-2.2-2.5-3.3-3.1-8-6.1-13-9.1-2.4-1.5-3.8-2-5.5-2.6-2.1-.8-4.4-1.7-9.2-4.6zm1.6-2.4c4.6 2.8 6.8 3.6 8.8 4.4 1.7.6 3.3 1.2 5.9 2.8 5.1 3.1 10 6.1 13.4 9.4.9.9 1.7 1.8 2.5 2.8 2.1 2.6 4 4.9 7.6 4.7 5.6-.3 10.8-1.8 11.4-10.3.6-8.3-2.6-15.7-8.7-20.4-3.8-2.8-8-5.5-15.4-5.5-3.1 0-6.8.5-11.2 1.6-14.5 3.6-16.9 6.2-17.1 7.5-.1.8.9 1.9 2.8 3zM120.1 222c-1.4-5.9.8-9.3 2.7-12.2.8-1.2 1.6-2.4 2.1-3.7 2.1-5.5 10.3-10 16.6-9 5.9.9 15.5.4 19.3-.6 3.7-1 11.8-4.8 15.1-6.5 3.1-1.6 13.1-3.2 22 7.6 9.4 11.4 7.6 22.2 5.5 29.3-2.7 9-14.3 10.4-19.9 11.1-2.9.4-5.5 0-7.8-.3-2.2-.3-4.1-.6-5.8-.2-1.9.5-2.2 2.2-2.4 6.6 0 1-.1 2-.2 3-.5 5.7-2.8 10.8-4.7 14.1-1.3 2.3-8.3 13.6-18.6 13.6-6 0-9.6-.4-13.7-2.4-4.4-2.2-8.3-12.1-6.1-18.8 2.1-6.6.5-14.3.2-15.8l-1.2-4.4c-.8-2.8-2-6.7-3.1-11.4zm2.7-.6c1.1 4.6 2.2 8.3 3 11.2.6 1.9 1 3.4 1.3 4.6.5 2.2 2 10.1-.3 17.2-1.8 5.6 1.7 14 4.7 15.5 3.3 1.6 6.1 2.1 12.5 2.1 8.8 0 15-10.1 16.2-12.2 1.7-3 3.9-7.8 4.3-13 .1-1 .1-2 .2-2.9.2-4.2.4-8.2 4.5-9.2 2.2-.5 4.4-.2 6.8.1 2.3.3 4.6.6 7.1.3 5.4-.7 15.4-1.9 17.6-9.2 2-6.5 3.6-16.3-4.9-26.7-7.7-9.4-16.1-8.2-18.7-6.9-2.7 1.3-11.4 5.5-15.6 6.6-4.5 1.3-14.6 1.6-20.5.7-.4.1-.8.1-1.3.1-5.1 0-10.8 3.8-12.2 7.4-.6 1.6-1.5 2.9-2.3 4.2-1.9 2.9-3.5 5.3-2.4 10.1zm41.5 3.4c-2.5-2.5-3.9-6-3.6-9.6v-1.1c.1-4 .4-10 8-10.8 8.1-.8 13.9 3.2 14.8 10.2.5 3.9-.4 7.7-2.6 10.4-2 2.4-4.7 3.8-7.9 4-.2.1-.5.1-.8.1-3 0-5.7-1.1-7.9-3.2zm-.9-9.3c-.1 2.8.9 5.6 2.8 7.5 1.7 1.7 4.1 2.6 6.6 2.4 2.4-.2 4.5-1.2 6-3 1.7-2.1 2.5-5.1 2-8.3-.7-5.2-4.4-8.1-10-8.1-.6 0-1.2 0-1.8.1-4.9.5-5.3 3.4-5.5 8.2l-.1 1.2zm-61.6.4c-6.2-8.1-10.5-14.6-8.8-23.9 1.6-9.2 10.9-10.4 15.9-11.1l1-.1c2.1-.3 6.7-.2 13.2-.1 8 .2 17.8.4 27.1-.1 9-.5 12-1.7 16-3.4 3.4-1.4 7.6-3.2 16.5-5.1 20.6-4.5 27 1.2 34.3 10.4 5.6 7 6.3 15.7 7 25 .2 3.2.5 6.5 1 9.8 1.6 11.5 9.4 16.5 20.3 22.2 4.6 2.5 12.5 4.8 20 7.1 9.1 2.7 17.7 5.3 22.1 8.3 8.7 6 8.2 10 4.8 20.1-3.4 9.8-11.3 8.1-17 6.8-.8-.2-1.6-.4-2.3-.5-5-.9-14.2-5.7-21.6-9.6-2-1-3.7-2-5.2-2.7-1-.4-23.9-10.1-38.9-11.6-12.2-1.2-20.9 5.8-27.2 10.9-1.4 1.1-2.6 2.1-3.7 2.9-1.7 1.2-3.6 3.3-5.8 5.8-5.4 6-12.8 14.2-24 16.6-3.4.6-6.2.9-8.7.9-6.7 0-10.2-2.5-14.9-5.7-1.4-1-2.9-2-4.7-3.2-8-5-13.6-12.7-16.6-22.7-2.1-7.1 2.1-22 2.2-22.7 0-.1 3.4-17.2-2-24.3zm2.2-1.6c6.2 8.1 2.7 25.9 2.5 26.6-.1.3-4.2 14.9-2.3 21.2 2.8 9.4 8 16.5 15.5 21.1 1.8 1.1 3.4 2.2 4.8 3.2 6.2 4.3 9.6 6.7 21.5 4.3 10.4-2.1 17.1-9.7 22.6-15.7 2.3-2.6 4.4-4.8 6.3-6.2 1.1-.7 2.2-1.7 3.5-2.8 6.3-5.1 15.8-12.8 29.2-11.5 15.6 1.6 38.7 11.4 39.7 11.8h.1c1.5.7 3.3 1.7 5.3 2.7 6.8 3.6 16.2 8.5 20.8 9.3.8.1 1.6.3 2.4.5 5.8 1.3 11.3 2.5 13.9-5 3.3-9.7 3.4-12.1-3.8-17-4-2.8-12.8-5.4-21.3-8-7.7-2.3-15.7-4.7-20.5-7.3-9.3-4.9-19.8-10.5-21.7-24.3-.5-3.4-.7-6.7-1-9.9-.7-8.8-1.3-17.2-6.4-23.5-6.9-8.7-12.5-13.6-31.6-9.5-8.6 1.9-12.7 3.6-16 5-4.3 1.8-7.4 3.1-16.9 3.6-9.4.5-19.4.3-27.4.1-3.3.4-6.1.3-8.3.3-2.1 0-3.6 0-4.5.2l-1.1.2c-4.6.6-12.3 1.7-13.6 8.9-1.5 8.2 2.5 14.2 8.3 21.7zm257.7 279.6c-3.5-1.2-7.3-5-6.9-7.7.1-.5.6-2.2 3.2-2.2 4.5 0 8.4 1.3 14.2 3.9 3.9 1.7 5.9 3.6 5.9 5.5 0 1.2-.8 2.2-2.1 2.8-.6.3-1.4.4-2.4.4-2.6 0-6.6-.9-11.9-2.7zm.9-2.6c7.4 2.5 11.3 2.9 12.4 2.4.4-.2.5-.3.5-.3 0-.2-.7-1.4-4.3-3-5.7-2.5-9.1-3.6-13.2-3.6-.5 0-.6.1-.6.1.1.6 2.3 3.4 5.2 4.4zM82.5 248c.1-6.5.2-13.2-.5-19.5-.9-8-3.9-10.2-9-13.7-2.1-1.5-4.6-3.2-7.3-5.6-9.5-8.5-11.7-17.9-6.6-28.1 3.8-7.7 23.7-11.3 44.6-14 2.2-.3 4-.5 5.2-.7 8.4-1.4 34.2-4.1 46-5 5.1-.4 11-2 17.2-3.8 8-2.3 17.1-4.8 26.7-5.2 16.1-.6 31.4 11.2 40.4 22.4 4.7 5.8 7.3 15.1 9.8 24.2 1.6 5.8 3.3 11.9 5.5 16.8 4.3 9.5 16.4 13.1 23.7 15.2 1.9.6 3.6 1 4.7 1.5s2.9.9 4.9 1.5c7.6 2 20.3 5.4 27.1 15.8 4.9 7.4 5.7 16.6 6.4 25.5.6 6.8 1.1 13.2 3.4 18.8 5.2 12.8 24.4 25.4 30.2 28.9 4.4 2.7 19 12.4 24.2 24.1 4.9 10.9 2.5 20.3-6.8 26.3-3.3 2.2-7.2 3.3-11.2 3.3-2.9 0-5.9-.5-8.9-1-2.1-.3-4.3-.7-6.6-.9-9-.8-20.4-7.7-28.7-12.7l-2.8-1.7s-3.4-2-9.5-5.9c-7.1-4.5-14.8-18.7-17.2-23.8-3.4-7.2-15.4-13.5-20.3-15.8-8-3.7-14.7-13-18.3-18-.4-.6-.8-1.1-1.2-1.7-3.5-5-8.3-11.9-20-14.8-11-2.7-16.5-1.1-24.2 1.1-1.5.4-3 .9-4.7 1.3-9 2.4-15.6 10.5-20.1 24.8-4.6 14.8-24.2 13.8-33.6 13.4-9.6-.5-26.7-8.6-41.7-19.7-15.4-11.5-19.4-28-20.4-36.9-.5-4.8-.5-10.5-.4-16.4zm2.2-19.8c.7 6.5.6 13.3.5 19.8-.1 5.9-.2 11.4.4 16.1 1 8.4 4.7 24.1 19.3 35 14.3 10.7 31.2 18.7 40.1 19.2 9.4.5 27 1.3 30.9-11.5 4.8-15.3 11.9-24 22-26.7 1.6-.4 3.2-.9 4.6-1.3 7.8-2.3 13.9-4.1 25.6-1.2 12.7 3.2 18 10.8 21.6 15.9.4.6.8 1.1 1.1 1.6 3.5 4.8 10 13.7 17.3 17.2 6.5 3.1 18 9.4 21.7 17.1 3.4 7.3 10.7 19.2 16.2 22.7 6.1 3.9 9.5 5.9 9.5 5.9l2.8 1.7c8.1 4.9 19.2 11.6 27.5 12.3 2.4.2 4.6.6 6.8.9 6.5 1.1 12.2 2 18.1-1.8 8.1-5.3 10.2-13.2 5.8-22.9-5.1-11.3-20.2-21-23.2-22.9-7.6-4.7-25.9-17-31.3-30.2-2.4-6-3-12.9-3.6-19.6-.7-8.5-1.5-17.3-6-24.2-6.2-9.5-17.9-12.6-25.5-14.6-2.2-.6-4-1.1-5.2-1.6-1-.4-2.6-.9-4.4-1.4-7.7-2.2-20.7-6-25.4-16.7-2.3-5.1-4-11.2-5.7-17.2-2.4-8.8-5-17.8-9.3-23.2-8.6-10.7-23.2-22-38.2-21.4-9.2.4-18.2 2.9-26 5.1-6.3 1.8-12.3 3.5-17.7 3.9-11.7.9-37.4 3.6-45.7 5-1.2.2-3 .4-5.3.7-11.6 1.5-38.8 5.1-42.5 12.5-4.5 9-2.5 17.1 6 24.8 2.6 2.3 4.9 3.9 7 5.4 5.3 3.7 9.1 6.3 10.2 15.6zm86.5 180.3c-2.4-2.1-3-5.6-3.2-9.1-.3-6 1.6-19.7 5.9-24 5.3-5.3 19.7-8.1 28.3-3.7 7.6 3.9 18 6.4 24.4 6.7 6.7.4 10.6 3.4 16.2 7.6l.7.5c5.6 4.3 9.4 11 11 13.8l.4.6c1.1 2 10.1 9.2 18.3 13.9 5 2.8 10.3 6.9 16.4 11.7 3.7 2.9 7.6 5.9 11.8 8.9 5.1 3.6 7 6.3 6.4 8.6-.7 2.6-4.4 3.2-7.1 3.4-.3.3-.6.4-.8.4-3.4 0-6.7-1.9-10.7-4.3-1.2-.7-2.4-1.4-3.7-2.1-4.2-2.3-16.9-8.1-17-8.2l-.1-.1c-3.3-1.9-7.6-1.3-11.9-.6l-.6.1c-4 .6-6.9-.2-10.4-1.2l-2.1-.6c-4.3-1.1-15.3-6.9-17.1-12.9-1.4-4.6-4.9-11.4-10.1-15.4-4.3-3.4-10-4.3-15.2-2.5-.8.3-2.5 1.3-4.5 2.4-4.9 2.8-12.2 7.1-17.7 7.7-3.4.4-5.9-.1-7.6-1.6zm-.6-9.1c.2 4 .9 6 2.2 7.1 1.1 1 2.9 1.3 5.5 1 4.9-.6 12-4.7 16.7-7.4 2.3-1.3 3.9-2.3 5-2.6 6-2.1 12.4-1 17.7 2.9 5.8 4.3 9.6 11.8 11.1 16.8 1.4 4.7 11.3 10 15.1 11 .7.2 1.5.4 2.1.6 3.4.9 5.9 1.6 9.3 1.1l.6-.1c4.6-.6 9.6-1.4 13.7 1 1.1.5 12.9 6 17.1 8.2 1.3.7 2.6 1.4 3.7 2.1 4 2.3 7.1 4.1 9.9 3.9 4.3-.4 4.6-1.4 4.6-1.4 0-.1.4-1.6-5.3-5.7-4.2-3-8.1-6.1-11.9-9-6.1-4.7-11.3-8.8-16.1-11.5-7.8-4.4-17.7-12.1-19.3-14.9l-.4-.6c-1.5-2.7-5.1-9.1-10.2-13l-.7-.5c-5.3-4.1-8.8-6.8-14.6-7.1-6.5-.3-17.3-2.7-25.6-7-7.4-3.9-20.4-1.5-25.1 3.2-3.3 3.3-5.4 15.6-5.1 21.9zm397-363.1l.8.6c3.8 2.6 7.7 5.3 15.9-2l.8-.7c7.4-6.5 13.2-11.7 20.4-11.5h5c6.6-.1 14.1-.2 21.1 3.7 9 4.9 20.6 14 25.5 18.7 4.4 4.1 18.1 14.5 24.7 14.5.9 0 1.9.1 2.9.1 1.1.1 2.2.1 3.3.1 4.4 0 9.1-.7 12.1-5.5 3.8-6.1 5.4-10.8 5.2-22.7-.1-5.5-.7-9.8-1.3-13.5-.6-3.8-1-6.9-.7-10 .3-2.8.3-5.5 0-8.1h-2.7c.3 2.5.3 5.2 0 7.9-.4 3.4.1 6.8.7 10.7.6 3.7 1.2 7.9 1.3 13.2.2 11.3-1.2 15.5-4.8 21.2-2.8 4.4-7.9 4.2-12.9 4-1-.1-2-.1-3-.1-5.1 0-17.8-9.1-22.8-13.8-5-4.8-16.9-14.1-26.1-19.2-7.6-4.2-15.5-4.1-22.4-4h-4.9c-8.2-.2-14.4 5.2-22.3 12.2l-.8.7c-6.6 5.8-8.9 4.2-12.5 1.8l-.9-.6c-3.8-2.5-6-11.9-6-25.3 0-3.6.6-6.4 1.6-8.7h-3c-.9 2.4-1.4 5.2-1.4 8.7 0 14.7 2.5 24.5 7.2 27.6zM89.1 540.8c.4 2.4-1.2 7.1-7.2 12.5-2.7 2.8-5.5 3.5-7.7 3.5-2.1 0-3.7-.7-4.3-1-4.4-1-9.1-4.3-9.1-9.1 0-4.6 3.9-4.7 7.1-4.8.8 0 1.6 0 2.4-.1 3.1-.2 6-2 8.2-3.5.7-.4 1.4-.9 1.9-1.2 1.5-.8 3.4-.8 5.3.1 1.4.7 3.1 2 3.4 3.6zm-2.5.8c-.1-.3-.7-1.1-1.9-1.7-1.1-.5-2.1-.6-2.8-.2-.5.3-1.1.7-1.8 1.1-2.4 1.5-5.7 3.6-9.5 3.9-.9.1-1.7.1-2.5.1-3.9.1-4.4.3-4.4 2 0 3.4 3.7 5.7 7.1 6.5l.4.1c.2.1 4.3 2.4 9.1-1.9 5.7-5.2 6.5-8.9 6.3-9.9zm28.3 82.7c.8 2-1.4 4-3.2 5.3-8.4 6.2-13.7 8.1-23.7 8.5h-.7c-6.5 0-8-3.1-8.4-4.5-.7-2.7.8-5.8 3.6-7.3 3.4-1.9 6.4-1.9 8.8-1.9.9 0 1.7 0 2.6-.1 3.4-.4 6-.9 8.1-1.3 1.2-.2 2.3-.4 3.2-.6 1.4-.2 8.4-1 9.7 1.9zm-2.6 1.1c-.6-.4-2-.6-3.6-.6-1 0-2.1.1-3.1.2-.9.1-1.9.3-3 .6-2.1.4-4.8.9-8.3 1.4-.9.1-1.9.1-2.9.1-2.3 0-4.7 0-7.5 1.6-1.7.9-2.7 2.8-2.3 4.2.5 1.7 2.9 2.6 6.4 2.5 9.4-.3 14.1-2 22.1-7.9 1.5-1.1 2-1.8 2.2-2.1zm460.2-352.8c.7-1.1 1.3-2 1.9-2.9l.7-1.1c3.1-4.8 6.1-9.4 18.4-7.7 14.1 2 21.6 5.5 23 10.9l.3 1.2c1.5 5.5 4.7 17-5 22.9a80 80 0 0 0-18.2 15.1c-.8.9-1.5 2.1-2.3 3.5-1.9 3.2-4.2 7.3-9 9.8l-1.4.8c-3.8 2-7 3.7-11.5 3.7-2.8 0-6.2-.7-10.5-2.3-13.3-5.1-11.6-18.2-10.8-22.1 1.1-5.2 8.5-13 11.5-15.2 4-3 9.4-11.2 12.9-16.6zm-11.3 18.6c-2.7 2.1-9.5 9.3-10.4 13.6-.7 3.4-2.2 14.7 9.1 19 10.2 3.9 14 1.9 19.7-1.2l1.4-.8c4.1-2.2 6.2-5.7 7.9-8.8.9-1.5 1.7-2.9 2.6-3.9 5.5-6.1 11.8-11.4 18.8-15.7 7.4-4.5 5.9-12.6 3.8-19.9l-.3-1.2c-.8-2.9-5-6.7-20.8-8.9-1.7-.1-3.2-.2-4.5-.2-6.8 0-8.7 3-11.2 6.8l-.7 1.1c-.5.8-1.2 1.8-1.9 2.8-3.8 5.9-9.1 14-13.5 17.3zM9.6 15c6.5-.3 17.8-2.7 20.9-15h-2.9C24.8 9.4 16.3 11.9 9.4 12.3c-2.7.1-6.3-.6-9.4-2.3v3c2.9 1.3 6.1 2 8.8 2h.8zm554.5 167.6c.9 5.1.5 8.6-1.3 10.8-2.1 2.4-5.4 2.4-8.3 2.4-5.5 0-10-3.2-12.6-9-2.8-6.3-6.5-11.2-10.4-13.4l-.2-.1s-3.3-2.6-7.3-3.5c-2.7-.6-6.5-3-10.4-5.4-2.8-1.8-5.7-3.6-8-4.6-2.9-1.3-3.4-3-3.3-4.2.2-2.9 3.9-5.2 7.3-6.2 5.3-1.5 12.1.6 16.2 3.2l.3.2c3.9 2.5 10.4 6.6 19.9 9.6 9.5 2.9 15.8 7.3 18.1 20.2zm-2.8.4c-2.1-11.6-7.3-15.3-16.2-18.1-9.8-3.1-16.8-7.5-20.6-9.9l-.3-.2c-3.6-2.3-9.8-4.1-14-2.9-3 .9-5.2 2.7-5.3 3.8 0 .7 1.2 1.3 1.7 1.5 2.5 1.1 5.5 2.9 8.3 4.8 3.6 2.2 7.3 4.6 9.6 5.1 4.6 1 7.9 3.5 8.5 3.9 5.9 3.4 9.7 10.6 11.4 14.6 2.1 4.8 5.7 7.4 10 7.4 2.4 0 4.9 0 6.2-1.5 1.2-1.4 1.4-4.3.7-8.5zM441.2 30.4c2.8 6.2 6 13.1 4.2 22.8-2.9 15.9-15.5 37.4-18 41.6-4.7 7.8-6.9 22.7 2.6 31.5 9.2 8.5 23.5 18.7 31.2 22.2 7.6 3.5 25 17.8 27.1 21.7 2.7 5 13.1 14.3 21.9 18.4.9.4 1.9.8 3 1.3 9.6 4.4 25.9 11.7 30.9 22 5.6 11.6 10 20.7-.9 35.6-5.7 7.8-13.9 17.1-21.2 25.4-7.3 8.3-13.6 15.5-15.9 19.3-.5.9-1.2 2-1.9 3.1-5.5 8.4-14.6 22.4-3.1 35.8 7.9 9.3 15 11.8 21.8 14.2 3.9 1.4 7.6 2.7 11.3 5.3 10.1 7.1 13.7 11.6 12.1 31.3-1.6 19.7-.5 52.3 7.1 63.2 8.3 11.7 18.6 18.2 28.9 18.2 1 0 2.1 0 3.5-.4 11.9-1.6 17.8-13.8 16.6-34.3-.3-4.4-.9-9.1-1.5-14.1-1.8-14.8-3.9-31.4 1.4-46 7.5-20.7 17.2-29.4 29.5-36.2 12.9-7.1 36.7-30.2 36.3-49.2-.1-2.1-.1-4-.1-5.8-.1-12.6-.1-17.3-13.9-22.1-12.6-4.4-35.9-12.5-46.8-22l-.4-.3c-10.3-8.9-17.7-15.4-18-43.5v-10.7c.1-20.4.2-27.3-17-38.3-9.1-5.8-17.1-4.7-24.8-3.6-9.4 1.3-19.2 2.6-32.3-7.6-6-4.6-10.9-8.2-15.3-11.4-13.1-9.5-18.5-13.4-21.2-24.1-1.9-7.1-.3-13.4 1.4-20.1 1.6-6.8 3.4-13.7 1.6-21.7-.7-3.3-1.3-6.2-1.9-8.9-2-9.9-3.5-17-8.4-30-1.3-3.4-1.7-7.9-1.6-13h-2.8c-.1 5.4.3 10.3 1.7 14 4.8 12.8 6.3 19.9 8.3 29.6.6 2.7 1.2 5.6 1.9 8.9 1.7 7.3 0 14-1.6 20.4-1.6 6.7-3.4 13.7-1.4 21.4 2.9 11.7 9 16.1 22.2 25.7 4.3 3.2 9.2 6.8 15.2 11.4 14.1 10.9 24.9 9.4 34.4 8.1 7.6-1.1 14.7-2.1 22.9 3.2 15.9 10.2 15.9 15.7 15.8 36v10.8c.3 29.3 8.5 36.5 18.9 45.5l.4.3c11.3 9.8 35 18.1 47.7 22.5 12 4.1 12 7.1 12 19.5.1 1.8.1 3.7.1 5.9.3 16.4-20.8 38.9-34.9 46.7-15.4 8.4-24 19-30.8 37.7-5.5 15.1-3.4 32.2-1.5 47.2.6 5 1.1 9.6 1.4 13.9.8 13.3-1 29.6-14.2 31.4-14.6 1.9-25.5-11.2-29.5-16.9-6.5-9.2-8.5-39.1-6.6-61.4 1.8-21.1-2.4-26.3-13.2-33.8-4-2.8-8.1-4.2-12-5.6-6.5-2.2-13.2-4.6-20.7-13.3-10.1-11.9-2-24.3 3.3-32.6.8-1.2 1.4-2.3 2-3.2 2.1-3.6 8.3-10.6 15.5-18.8 7.3-8.3 15.6-17.7 21.3-25.5 12-16.3 7-26.5 1.2-38.4-5.5-11.3-22.3-18.8-32.3-23.3-1-.4-2-.9-2.9-1.3-8.8-4-18.4-13.1-20.6-17.2-2.6-4.8-20.6-19.3-28.4-22.8-7.5-3.4-21.4-13.4-30.4-21.7-8.5-7.8-6.4-21.1-2.2-28.1C432.2 91.9 445 70 448 53.6c1.9-10.5-1.5-17.9-4.4-24.4-1.4-3-2.7-5.8-3.2-8.6-1-5.3.2-13.5 1.8-20.6h-2.8c-1.6 7.3-2.7 15.6-1.6 21.2.6 3.1 2 6 3.4 9.2zM120.1 648.1c-7.5 3.1-17.9 5.5-28.7 5.5-6.7 0-13.5-1-19.8-3.3-16.1-6.1-23.4-15.9-20.7-27.6 2.9-12.2 8.4-13.8 18.9-12.7 3.6.4 6.5 1.3 9.3 2.2 4.7 1.5 8.7 2.9 15.6 1.2 11.4-2.7 19.7-5.6 21.6-7.5 4.1-4.1 10.5-8.9 17.2-8.3 4.2.4 7.7 2.3 9.8 5.3 2.2 3.2 2.8 7.3 1.7 12.1-2.3 9.6-10.2 27.4-24.9 33.1zm-1-2.5c13.7-5.4 21-22.1 23.2-31.2 1-4 .5-7.4-1.2-9.9-1.7-2.3-4.4-3.8-7.9-4.2-6-.6-11.9 4.4-15 7.5s-15.7 6.5-22.9 8.2c-7.6 1.8-12.2.3-17.1-1.3-2.6-.9-5.3-1.8-8.7-2.1-1.6-.1-3.1-.2-4.6-.2-5.9 0-9.2 2.2-11.3 10.9-3.2 13.7 10.5 21.2 19 24.4 15.5 5.9 34.7 2.6 46.5-2.1zM513.7 55.4c.4 8.7 3.7 24.7 21.7 34.5 17.5 9.5 31.1 7.5 60.7-9.1 19.5-10.9 36.5-9.5 50.4 4.1 5 4.9 6.8 8.4 11.2 16.9l1.6 3c6.8 12.8 24.6 15.1 42.2 15.1h4.9c17.4-.3 25.2-11.4 31-19.5 1.8-2.4 3.4-4.7 5.1-6.4l1-1c6.2-6.2 6.7-6.8 18-1.5 5.9 2.7 11.6 6.1 17.7 9.6 7 4 14.2 8.2 21.6 11.4 6.2 2.7 13.3 4.5 19.2 5.6v-2.7c-5.7-1.1-12.4-2.8-18.2-5.4-7.3-3.2-14.4-7.3-21.3-11.3-6.1-3.6-11.9-6.9-17.9-9.7-12.6-5.9-14.3-4.8-21.1 2l-1 1c-1.9 1.8-3.6 4.2-5.4 6.8-5.7 8.1-12.8 18.1-28.8 18.4-26 .5-39.4-3.5-44.7-13.6l-1.5-3c-4.5-8.8-6.4-12.4-11.7-17.6-14.9-14.5-32.9-16.1-53.6-4.5-31.7 17.7-43.1 17.2-58 9.1-16.8-9.2-19.9-24.1-20.3-32.2-.5-11.1-2.8-30.5-4.6-38.6-1.2-5.3-1.2-11-.2-16.8h-2.8c-1 6-.9 11.8.4 17.3 1.6 7.8 3.9 27.4 4.4 38.1zm31.7 9.6l.5.6c3.5 4 8.9 10.1 18.5 8.5 10-1.7 22.6-11.9 28.6-18.4 5.7-6.1 15.2-12 21.4-13.1 5.4-1 13.6-2.5 19 1.8 3.6 2.9 8.3 8.7 12.4 13.9 2.4 3 4.6 5.7 6.4 7.7 4.8 5.2 19.2 21 32 21.5 1.7.1 3.5.1 5.3.1 10.8 0 21.8-1.6 27.9-9 7.2-8.6 10.8-16.2 9.7-31.6l-.3-3.8c-1-13.7-2-26.6-2-32.8 0-2.2.1-5 .2-7.8 0-.9.1-1.7.1-2.6h-2.7c0 .8-.1 1.6-.1 2.4-.1 2.9-.2 5.7-.2 7.9 0 6.3 1 19.3 2 33l.3 3.8c1.1 14.5-2.2 21.4-9 29.6-6.5 7.8-19.4 8.4-31.1 8-11.7-.5-25.5-15.6-30.1-20.6-1.8-1.9-4-4.6-6.3-7.5-4.2-5.3-9-11.3-12.8-14.3-6.4-5-15.3-3.4-21.2-2.3-6.8 1.3-16.8 7.4-22.9 13.9-5.6 6-17.9 16-27.1 17.6-8.1 1.4-12.7-3.8-16-7.6l-.5-.6c-3-3.4-6.4-15.9-8.3-30.3-1.5-11.5.3-18.7 1.6-24 .3-1 .5-1.9.7-2.9.3-1.4 1.5-3.6 3.1-6.1h-3.2c-1.3 2.2-2.3 4.2-2.6 5.6-.2.8-.4 1.7-.6 2.6-1.3 5.1-3.3 13-1.7 25 1.5 11.7 4.8 27 9 31.8zm-101.3 99.3c12.6 1.7 15.9 4.5 22.6 9.9 3.6 2.9 8 6.5 15.2 11.1 21.5 13.6 32.4 29.7 33.6 39.7 1.3 10-10.8 27.7-23.5 46.4l-2.9 4.3c-13.9 20.6-17.8 30.9-16.7 44.4 1 12.3 9.6 37.6 35.5 54.4 22.3 14.5 23.1 31.2 24.3 54.3.1 2.6.2 5.2.4 8 1.7 27.6 10.8 38 18.2 41.9 4.9 2.6 16.3 6.8 28.6 6.8 6.9 0 14.1-1.3 20.3-5.1 16.8-9.7 19.8-26.3 21.2-34.2.2-.7.3-1.4.4-2 .5-2.4.5-6.9.5-13.1 0-11.9 0-29.8 3.6-46.8 3.6-17.1 12.9-24.4 23.7-32.9 5.2-4.1 10.6-8.4 16-14.1 10-10.6 12.2-18.2 15-27.9 2-7.1 4.4-15.1 10.2-26.5 12.6-24.7 1-33.5-6.6-39.4-1.2-.9-2.3-1.8-3.3-2.7-6.2-5.6-28.9-11.9-42.4-15.6-2.7-.7-4.8-1.3-6.4-1.8-8.5-2.6-15.6-14.7-19.3-25.2-4.3-12.1 2.4-22.8 4.6-25.8 4.6-6.3 12.1-32 13.9-40.9 2-9.9 0-22.6-11.6-28.9-10.4-5.7-22.2-2.5-27.8-1-.7.2-1.4.4-1.9.5-3.7.9-17 6.2-27.7 10.4-2.6 1-4.9 2-6.8 2.7-8.3 3.2-15.5 2.5-26.3 1.3l-3.8-.4c-11.8-1.3-20.7-16.8-23.1-24.1-1.3-4-.6-12.8.1-20.5.3-3.4.6-6.6.7-9.4.2-6.3-1.8-12.7-3.8-18.9-1-3.1-2-6.4-2.7-9.5-2.1-9.5-3.7-23.1-3.7-28.5 0-1.4.1-3.2.4-5.2h-2.7c-.2 2-.4 3.8-.4 5.2 0 6.3 1.8 20.2 3.8 29.1.7 3.2 1.8 6.5 2.8 9.7 1.9 6 3.9 12.2 3.7 18-.1 2.7-.4 5.9-.7 9.3-.7 8.4-1.4 17.1.1 21.7 2.1 6.2 11.3 24.4 25.5 25.9l3.8.4c11.2 1.2 18.7 2 27.6-1.5 1.9-.8 4.3-1.7 6.8-2.7 10.1-4 23.8-9.5 27.3-10.3.5-.1 1.2-.3 2-.5 5.3-1.5 16.4-4.5 25.8.7 10.3 5.6 12.1 17 10.3 25.9-1.7 8.5-9.2 33.9-13.5 39.9-2.4 3.3-9.7 15-5 28.3 1.9 5.4 9.1 23.3 21.1 26.9 1.6.5 3.8 1.1 6.4 1.8 12.4 3.4 35.6 9.8 41.3 15 1 .9 2.2 1.8 3.5 2.8 7.7 5.9 17.4 13.3 5.8 35.9-5.9 11.6-8.3 19.8-10.4 27-2.9 9.7-4.9 16.7-14.4 26.8-5.3 5.6-10.6 9.8-15.7 13.8-11.2 8.9-20.9 16.5-24.7 34.5-3.7 17.2-3.7 35.3-3.7 47.3 0 5.8 0 10.4-.4 12.6-.1.6-.3 1.3-.4 2.1-1.3 7.6-4.1 23.2-19.8 32.3-16.9 9.8-39.9 1.8-46.6-1.7s-15.1-13.3-16.7-39.6c-.1-2.8-.3-5.4-.4-8-1.2-23.9-2.1-41.2-25.5-56.4-25-16.2-33.3-40.6-34.3-52.4-.9-11.3 1.2-20.5 16.2-42.6l2.9-4.3c13.6-20 25.3-37.3 24-48.3-1.6-12.7-15.6-29.5-34.9-41.7-7-4.5-11.4-8-14.9-10.9-6.9-5.6-10.6-8.7-24-10.5-17.8-2.4-37.4-13.8-41.3-33.8-4.1-21 .4-41.4 11.6-53.2 2.6-2.7 5-4.9 7.1-6.8 8.5-7.7 13.1-12 8.3-29.7-1.8-6.4-3.6-12.1-5.2-17.1-2.5-7.9-4.7-14.7-5.5-20.9h-2.7c.9 6.5 3.1 13.5 5.7 21.7 1.6 5 3.4 10.7 5.1 17 4.4 16.1.7 19.5-7.5 27-2.1 2-4.6 4.2-7.2 7-12 12.6-16.6 33.4-12.3 55.6 4.1 21.3 24.9 33.4 43.6 36zm118.3 75.9c0-10.2 0-14.9 10.4-16.4 8.9-1.3 14.6 6 19.5 12.4.7.8 1.3 1.7 2 2.5 5.2 6.5 17.6 14.1 24.2 17.4.9.5 1.9.9 2.9 1.3 5.7 2.4 12.2 5.1 14.9 18.8 2.8 13.9-2.4 20.1-5.5 23.8l-1.3 1.6c-2.8 3.8-21.7 23.4-25.3 26-3.3 2.3-7.5 8.7-9.1 13.7-1.6 5.2-7.6 14.7-16.6 17.7-1.7.6-3.2.8-4.6.8-4.2 0-7.1-2.2-9.5-4-1-.8-2-1.5-3-2-2.9-1.6-6-5.7-8.9-9.7-1.9-2.5-3.6-4.9-5.1-6.2-2.4-2.1-5.9-3.3-8.7-4.3-1.4-.5-2.7-.9-3.6-1.4-2.9-1.4-9.9-8.3-10.3-13.8 0-.7-.1-1.4-.2-2.1-.5-4.8-1.2-11.5 3.7-16.1 3-2.8 7.3-7.9 11.9-13.3 3.1-3.6 6.3-7.4 9.2-10.6.6-.7 8-9.7 10.3-12.1 1.2-1.2 2.7-8.3 2.7-24zm-.8 26c-2.3 2.3-10.1 11.8-10.2 11.9v.1c-2.9 3.2-6.1 6.9-9.2 10.5-4.6 5.4-9 10.6-12.1 13.5-3.9 3.6-3.3 9.3-2.9 13.8.1.8.2 1.5.2 2.2.3 4.2 6.4 10.3 8.8 11.5.8.4 1.9.8 3.3 1.2 3.1 1 6.9 2.3 9.7 4.8 1.6 1.5 3.5 4 5.4 6.6 2.6 3.6 5.6 7.6 8 8.9 1.2.6 2.3 1.5 3.4 2.3 3.2 2.4 6.1 4.6 11.7 2.8 8.1-2.7 13.4-11.2 14.9-15.9 1.8-5.7 6.3-12.4 10.1-15.1 3.4-2.4 22.1-21.8 24.7-25.4l1.4-1.7c2.9-3.5 7.4-8.9 4.9-21.5-2.5-12.3-8-14.6-13.3-16.8-1.1-.4-2.1-.9-3.1-1.4-6.8-3.4-19.6-11.3-25.1-18.2-.7-.8-1.3-1.7-2-2.5-4.4-5.5-8.9-11.4-15.4-11.4-.5 0-1.1 0-1.6.1-8.1 1.2-8.1 3.4-8.1 13.7 0 10.3-.6 23.1-3.5 26zm-2.2 232.5c1.5 1.2 1.5 3.4 1.4 5-.7 7.5-9.1 20.2-9.5 20.7l-.3.5c-2.7 4.5-6.3 10.6-13.1 12.2-2 .5-3.7.8-5.2.8-4.7 0-7.9-2.1-10.4-6.5-5.7-10.1-1.6-15.5 2.7-18.3 2-1.3 3.5-2.4 4.9-3.5 3.2-2.4 6-4.5 13.7-7.3 1.8-.6 3.5-1.3 5-1.8 5.5-2.1 8.8-3.3 10.8-1.8zm-1.5 2.2c-.3-.2-.5-.2-.8-.2-1.4 0-4.5 1.2-7.5 2.3-1.5.6-3.2 1.2-5 1.9-7.3 2.6-9.8 4.5-12.9 6.9-1.4 1.1-3 2.3-5.1 3.6-5 3.1-5.6 7.9-1.8 14.7 2.7 4.8 6.2 6.1 12.5 4.5 5.7-1.4 8.9-6.7 11.4-11l.4-.6c.1-.2 8.4-12.7 9.1-19.5.2-2.1-.2-2.5-.3-2.6zM218.3 3.1c3.1 0 6.9-.6 11.3-2.5.6-.2 1.1-.4 1.7-.6h-10.1c-2.2.3-4.1.2-5.8 0h-8.3c.5.5 1.2.9 1.9 1.2 2.6 1.1 5.6 1.9 9.3 1.9zm205.2 236.3c1.8-7.3 3.6-14.3 2.9-19.8-.5-4.2-1.8-8.7-3.1-13-1.5-5.1-2.9-9.9-2.7-13.6.4-6.7 1.9-13.6 10.5-14 8.5-.4 21.2 2.5 29.1 9.6.9.8 2 1.8 3.4 3 9.2 8 26.3 22.9 27.5 33.8v.4c1.3 11.8 2 17.7-2.8 23.2-3.1 3.6-6.2 10.4-8.1 14.4-.7 1.6-1.3 2.8-1.7 3.5l-.1.3C473 277.1 467 282 460.7 282h-3.6c-1.2.1-2.3.1-3.5.1-6.3 0-12.4-.6-19-4.7-8.3-5.3-15.8-12-14-24.6.6-4.4 1.8-9 2.9-13.4zm2.7.7c-1.1 4.3-2.2 8.8-2.8 13.1-1.5 10.5 3.7 16.2 12.7 21.9 7 4.5 13.5 4.4 20.9 4.3h3.7c3.6 0 9.1-2.3 15.4-13.4l.1-.3c.4-.6.9-1.8 1.6-3.3 2-4.4 5.1-11.2 8.5-15.1 4-4.6 3.4-9.8 2.1-21.1v-.4c-1.1-9.8-18.3-24.8-26.6-32.1-1.4-1.2-2.6-2.2-3.4-3-6.8-6.3-17.7-9-25.6-9h-1.5c-6.1.3-7.6 4.6-7.9 11.4-.2 3.2 1.2 7.8 2.6 12.7 1.3 4.5 2.7 9.1 3.2 13.5.7 6-1.1 13.2-3 20.8zm-317-227.5c6 0 12.7-1.5 16.1-4.8 1.1-1 4.6-4.2 8.1-7.8h-3.7c-2.2 2.2-4.4 4.3-6.1 5.8-3.8 3.6-12.7 4.7-18.7 3.8C100.6 9 92.4 4.3 86.4 0h-4.5c6.2 5 16.9 11.4 22.6 12.3 1.5.2 3 .3 4.7.3zm268.6 122.8c4.2 9.5 10.1 22.6 17 41.6 10.1 27.9 7.6 50.9 6.1 64.7l-.3 2.7c-1.3 12.9 1.5 22.6 4.9 26.6 3.2 3.7 15.4 17.2 24.3 25.2 8.2 7.5 10.5 24.5 10 34.1-.4 7.7-.9 17.2 9.2 25.3 9.4 7.5 31.1 22.3 36.7 25.7 5.4 3.3 17.6 18.8 19.4 29.6 1.4 8.5-.6 27.3-1.9 39.7-.3 3.3-.6 6.2-.8 8.4-.7 8 1.9 13.7 4.2 18.8.9 1.9 1.7 3.7 2.3 5.5 1.3 3.9-1.4 9.1-4.3 14.6-1.7 3.1-3.4 6.4-4.4 9.6-.6 1.9-1.6 4.3-2.6 6.8-3.6 8.7-8 19.5-4.7 28.7 4.6 13 17.7 20.5 34.2 19.6 14-.7 25-8 31.6-12.4 1.5-1 2.8-1.8 3.7-2.3 2.1-1.1 5-4 9-8.1 6.1-6.3 15.5-15.8 28.1-24.8 15.6-11.1 26-23 34.3-32.5 2.6-3 5.1-5.9 7.4-8.3 6.6-6.9 8.6-20.4 5.8-39.9-.5-3.3-2.8-20.2-2.3-32.2.4-9.7 7-27 18.4-39.8 11.2-12.7 28.2-22.6 42.1-24.7 6.1-.9 11.8.7 16 4.7 4.2 4 6.6 9.9 6.1 15.3-.8 10-17.8 25.8-25.9 31.9-7.2 5.5-15.1 14.8-15.6 24.8-.3 4.7 1.2 10.3 2.9 16.8 1.7 6.6 3.7 14.1 4.4 22.6s-1.3 11-3.3 13.6c-1.9 2.5-4 5.2-4 12.3 0 14.6 12 16.7 25.8 19.2l2.3.4c15.2 2.7 21.8 16 24.6 21.6 3.7 7.4 8.3 16.2 17 27.6 9.3 12.3 24.3 28.8 46.6 31.1 6.8.7 12.8 1.7 17.9 2.7v-2.8c-5-1-10.9-1.9-17.5-2.6-21-2.2-34.9-17.2-44.7-30.1-8.6-11.3-13.2-20-16.8-27.2-3-6-10-20.1-26.5-23.1l-2.3-.4c-13.6-2.4-23.5-4.2-23.5-16.5 0-6.1 1.7-8.3 3.5-10.6 2.2-2.9 4.6-5.9 3.8-15.5-.7-8.7-2.7-16.3-4.5-23.1-1.6-6.3-3-11.7-2.8-16 .4-9.1 8.1-17.9 14.5-22.7 6.7-5 26-22 27-33.8.5-6.3-2.2-13-7-17.5-4.9-4.5-11.4-6.5-18.3-5.4-14.7 2.2-31.9 12.2-43.7 25.5-10.6 11.9-18.6 29.3-19.1 41.5-.5 12.3 1.8 29.4 2.3 32.7 2.7 18.7 1 31.4-5.1 37.7-2.3 2.5-4.8 5.4-7.5 8.4-8.2 9.5-18.4 21.2-33.8 32.1-12.8 9.1-22.3 18.7-28.5 25.1-3.7 3.8-6.6 6.8-8.3 7.7-1.1.5-2.3 1.3-3.9 2.4-6.3 4.2-17 11.3-30.2 12-15.2.8-27.2-6-31.5-17.8-3-8.3 1.2-18.5 4.6-26.8 1.1-2.5 2-4.9 2.7-7 1-3 2.6-6.1 4.2-9.2 3.2-6 6.2-11.7 4.5-16.7-.7-2-1.5-3.8-2.4-5.8-2.3-5-4.6-10.1-4-17.4.1-2.2.4-5 .8-8.3 1.4-12.5 3.4-31.5 1.9-40.4-1.8-11.1-14.2-27.5-20.7-31.5-5.6-3.5-27.1-18.1-36.4-25.5-8.4-6.7-8.7-14.1-8.2-23.1.5-8.7-1.2-27.5-10.9-36.2-8.8-7.9-20.9-21.3-24.1-25-2-2.4-5.6-10.7-4.2-24.5l.3-2.7c1.5-14 4.1-37.4-6.3-65.9-7-19.2-12.8-32.2-17.1-41.8-2.4-5.5-4.4-9.9-5.7-13.5-3.7-10-3-26.8 1.3-35.9 1-2.1 2.2-4.4 3.5-6.8C384 69.6 389.7 59 390.1 47c.4-10.9-2.1-18-4.2-24.2-.9-2.5-1.7-4.8-2.2-7.2-.6-2.6-.7-8.4-.3-15.6h-2.8c-.4 7.4-.3 13.5.4 16.2.6 2.5 1.4 4.9 2.3 7.5 2.1 6 4.4 12.8 4.1 23.2-.3 11.4-5.9 21.7-10.4 30-1.3 2.4-2.6 4.7-3.6 6.9-4.6 9.6-5.3 27.4-1.4 38 1.4 3.7 3.3 8.1 5.8 13.6zM7.5 635.7c.6 12.3 5.6 21.4 15.3 27.8 8.6 5.8 21.7 15.9 31.3 25.5 10.4 10.4 19.9 36 23 44.4 4.6 12.4 17.4 25.3 28.5 25.3.5 0 1.1-.1 1.7.3 11.8-1.5 10.9-17.9 10.5-24.9v-.8c-.1-2.2-.4-4.4-.6-6.6-.5-4.4-.9-8.9-.5-13.1.6-6.3 8.1-24.2 11.7-29.1 3.4-4.5 16.9-12.8 31.4-15.9 18.4-4 23.3-15.1 24.3-18.4 1.9-6.1 12.3-19.3 22.2-24.2 11.5-5.7 9.3-26 3.4-37.8-5.4-10.8-17.4-12.5-23.8-13.4-.9-.1-1.8-.3-2.5-.4-5.7-1-14.5-4.7-15-9.3-.7-5.9-6.8-15.5-13.8-16.7-6.2-1.1-15.4-.4-30.9 14-14.4 13.3-30.6 19.5-52.5 19.8-21.7.3-40.7-9.1-48.8-13.1l-.3-.2c-2.1-1.1-5.1-2.8-8.5-4.8-4-2.4-8.7-5.1-13.6-7.7v3c4.4 2.4 8.6 4.8 12.2 6.9 3.5 2 6.5 3.7 8.7 4.8l.3.2c7.6 3.7 27.8 13.6 50.1 13.3 22.6-.4 39.4-6.7 54.3-20.6 14.8-13.7 23.4-14.2 28.6-13.3 5.5.9 10.9 9.3 11.5 14.3.9 7.1 12.7 10.9 17.2 11.7.7.1 1.6.3 2.6.4 6.3.9 17 2.4 21.7 11.9 5.5 11 7.4 29.3-2.1 34.1-10.6 5.3-21.5 19.1-23.6 25.8-1 2.9-5.3 12.9-22.3 16.5-14.4 3.1-28.9 11.5-33 17-3.8 5.2-11.5 23.6-12.2 30.4-.4 4.5 0 9.1.5 13.6.3 2.1.5 4.3.6 6.4v.8c.4 6.7 1.2 20.8-8.1 22-10 1.2-22.9-11.5-27.3-23.4-5.5-14.8-14-35.7-23.6-45.3-9.8-9.7-23-20-31.7-25.8-8.9-5.9-13.5-14.3-14.1-25.6-.1-1.3-.1-2.7-.2-4.2-.4-11.1-1-25.6-10.1-35.3v4.4c6.5 8.9 6.9 21.4 7.3 31 .1 1.5.1 2.9.2 4.3zm0-100.5c6.8 0 13.1-1.8 18.8-3.4l.9-.3c9.3-2.7 21.8-14.4 27.8-20.1l1.2-1.1c4.7-4.3 8.9-5.4 16-6.1 4.1-.4 7.6-2.5 9.3-5.7 1.3-2.4 2.3-6.6-.7-12.6-4.5-8.8-13.5-7.4-18.9-6.6-1 .2-1.9.3-2.7.4-2.2.1-6.5 1-11.5 2.1-6.6 1.3-13.9 2.9-18.8 3.3-7.3.6-13.4-4.4-19.3-9.2-.7-.6-1.5-1.2-2.2-1.8-2-1.6-4.5-3.3-7.4-4.9v3c2.2 1.3 4.1 2.6 5.7 3.9.7.6 1.5 1.2 2.2 1.8 6.3 5.1 12.8 10.5 21.2 9.8 5-.4 12.5-2 19.1-3.4 4.7-1 9.1-2 11.1-2.1.8-.1 1.8-.2 2.9-.4 5.3-.8 12.4-1.9 16 5.2 1.9 3.9 2.2 7.4.7 10.1-1.4 2.4-4 4-7.2 4.3-6.5.7-11.9 1.6-17.6 6.9l-1.2 1.1c-5.8 5.5-18 16.9-26.6 19.4l-.9.3c-7.3 2.1-16.1 4.6-25.4 2.3v3c2.6.6 5.1.8 7.5.8zM450.1 248c-3.2-3.2-5.7-9.7-5.4-14 .1-1.8.9-11 3.3-14.4 1.9-2.7 6-4.8 14.2.7 8.8 5.9 7.8 13.8 6.4 18-1.8 5.3-7.9 11.5-13.5 11.9h-.4c-1.6 0-3.1-.8-4.6-2.2zm1.9-2c.7.7 1.7 1.5 2.8 1.4 4-.3 9.5-5.3 11.1-10 1.4-4.2 1.6-10.2-5.3-14.9-5.1-3.4-8.7-3.9-10.4-1.4-1.5 2.2-2.5 8.3-2.8 13.1-.2 3.1 1.7 9 4.6 11.8z"/>
</svg>
