<svg width="790" height="150" xmlns="http://www.w3.org/2000/svg" viewBox="0 0 790 150">
    <g opacity=".05">
        <path d="M35.4 4.1H59L93.1 108h-20l-7.2-22.4H27.4L20 108H0L35.4 4.1zm-3.2 67.2h29.1L46.9 26.7 32.2 71.3zM116.8 40.8c4.9-8.4 12.4-12.6 22.4-12.6 9.6 0 17.8 3.6 24.6 10.9 7.3 7.7 10.9 17.7 10.9 30.1 0 12.5-3.7 22.6-11 30.2-6.8 7.3-15 10.9-24.5 10.9s-16.4-2.8-20.8-8.5V146H99.5V30.2H115l1.8 10.6zm19 52.3c2.2 0 4.6-.5 7-1.4 2.4-1 4.6-2.5 6.5-4.5 4.3-4.5 6.4-10.5 6.4-18s-1.8-13.4-5.5-17.7c-3.7-4.3-8.2-6.4-13.4-6.4-5.3 0-9.6 1.5-13 4.6-3.4 3-5.1 7.4-5.4 13v13.9c0 5 1.8 9.1 5.3 12.2 3.3 2.8 7.3 4.3 12.1 4.3zM210.7 62.5c6.2 0 13.3 1 21.4 3v-7.7c0-5.4-1.1-9.5-3.3-12.1-2.2-2.6-5.8-3.9-10.7-3.9-5 0-8.8 1-11.4 3-2.7 2-4 4.8-4 8.4h-20.6c0-8.9 3.1-15.3 9.4-19.2 6.2-3.9 15-5.9 26.2-5.9 16 0 26.3 5.6 31 16.8 1.6 3.8 2.4 8.4 2.4 13.6V108h-16.5l-1.4-10.4c-5 8.4-12.7 12.6-23 12.6-10 0-17.8-2.5-23.4-7.4-5.1-4.7-7.7-10.6-7.7-17.8s2.8-12.7 8.5-16.6c5.6-3.9 13.3-5.9 23.1-5.9zm21.5 15.1c-6.3-1.7-12.2-2.6-17.6-2.6-10.2 0-15.4 3.4-15.4 10.2 0 2.9 1.2 5.4 3.5 7.4 2.3 2.1 6.1 3.1 11.3 3.1s9.4-1.7 12.8-5.2c3.4-3.4 5.1-7.7 5.4-12.9zM285.4 45.6c4.7-11.2 11.7-16.8 21.1-16.8 1.8 0 4.1.4 6.9 1.1l-.3 18.9c-3-.6-5.9-1-8.8-1-12.6 0-18.9 8.7-18.9 26.1V108h-18.9V30h18.9v15.6z"/>
        <path d="M365 106c-7 2.8-12.6 4.2-16.6 4.2-4.1 0-7.6-.5-10.6-1.4-3-1-5.7-2.4-8.1-4.3-4.9-4.4-7.4-10.4-7.4-18.1V42.8h-10.9V30.2h10.9V9.7h18.9v20.5h21.1v12.6h-21.1v42.9c0 6.4 3 9.6 9.1 9.6 3.1 0 7.1-.9 12-2.6L365 106zM441.4 44.9c5-11.2 13.8-16.8 26.4-16.8 9.3 0 16.5 3.1 21.6 9.4 4.9 6 7.4 14.3 7.4 25V108h-19V62.5c0-5.8-1.4-10.1-4.2-13-2.8-2.9-6.7-4.4-11.7-4.4-5 0-9.1 2.2-12.3 6.6-3.2 4.4-4.9 11-5.1 19.8V108h-18.9V62.5c0-5.8-1.4-10.1-4.2-13-2.8-2.9-6.7-4.4-11.7-4.4-5 0-9.3 2.2-12.9 6.7-3.6 4.5-5.5 11.2-5.7 20.2v36h-18.9V30.2h16.5l2.1 13.4c5.1-10.3 13.3-15.5 24.6-15.5 6.5 0 11.9 1.5 16.2 4.5 4.5 3 7.7 7.1 9.8 12.3zM572.4 51.3c1.3 4.5 2 8.6 2 12.3 0 3.7-.2 7.1-.6 10.1h-50.2c.2 6.3 1.8 11.4 4.6 15.4 2.9 3.9 7.3 5.9 13.1 5.9 7.8 0 12.4-3.4 13.9-10.2h19c-1.3 7.8-4.9 13.9-10.7 18.4-6.1 4.7-13.5 7-22.2 7-10.2 0-18.8-3.7-25.8-11.2-7.1-7.8-10.7-17.8-10.7-29.9 0-12.5 3.6-22.5 10.7-30.1 6.8-7.3 15.4-10.9 25.8-10.9 10.8 0 19.1 3.8 25.1 11.4 2.7 3.4 4.7 7.3 6 11.8zm-31-8.1c-5.3 0-9.5 1.7-12.5 5.2s-4.7 7.9-5.3 13.4h33.1c0-8.4-2.7-14.1-8-17-1.9-1.1-4.4-1.6-7.3-1.6zM603.5 43.6c5.1-10.3 13.3-15.5 24.6-15.5 9.6 0 16.8 3.1 21.7 9.4 4.9 6.3 7.3 14.6 7.3 25V108h-18.9V62.5c0-5.8-1.4-10.1-4.2-13-2.8-2.9-6.7-4.4-11.7-4.4-5 0-9.3 2.2-12.9 6.7-3.6 4.5-5.5 11.2-5.7 20.2v36H585V30.2h16.5l2 13.4zM716.5 106c-7 2.8-12.6 4.2-16.6 4.2-4.1 0-7.6-.5-10.6-1.4-3-1-5.7-2.4-8.1-4.3-4.9-4.4-7.4-10.4-7.4-18.1V42.8h-10.9V30.2h10.9V9.7h18.9v20.5h21.1v12.6h-21.1v42.9c0 6.4 3 9.6 9.1 9.6 3.1 0 7.1-.9 12-2.6l2.7 13.3zM734.4 84.3c.2 7.4 5.6 11 16.2 11 4.1 0 7.4-.9 10-2.6 2.6-1.8 3.9-3.8 3.9-6.2 0-2.3-.8-4.2-2.4-5.4s-4.1-2.5-7.5-3.5l-17-6.1C725 67.1 718.7 60 718.7 50c0-6.6 3-11.9 8.9-15.9s13.9-6 23.8-6c10 0 17.7 2.2 23 6.6 5.4 4.4 8.2 9.9 8.4 16.5H765c-.2-2.6-1.4-4.6-3.7-6.1-2.2-1.5-5.4-2.2-9.6-2.2s-7.4.8-9.7 2.5c-2.3 1.7-3.4 3.5-3.4 5.7 0 3.7 3.1 6.5 9.4 8.3l18.4 6.9c6.1 2 10.7 4.6 14 7.8 3.3 3.1 4.9 7.2 4.9 12.2 0 6.4-3 11.9-9.1 16.6-6.3 4.9-14.6 7.4-25 7.4-10.3 0-18.7-2.3-25-6.8-6.3-4.5-9.5-10.9-9.6-19.1h17.8z"/>
    </g>
</svg>
