<svg xmlns="http://www.w3.org/2000/svg" width="220" height="220" viewBox="0 0 220 220">
  <rect class="uk-text-primary" fill="#f3c565" width="220" height="220"/>
  <path fill="#000" d="M169.5,135.8h-3.1V125.2a4.44,4.44,0,0,0-4.4-4.4h-4.9a4.65,4.65,0,0,0-2.1.5v-3.7a6,6,0,0,0-6-6h-5.6a6,6,0,0,0-6,6v15H90.2V117.9a6,6,0,0,0-6-6H78.6a6,6,0,0,0-6,6v3.7a4.65,4.65,0,0,0-2.1-.5H65.6a4.44,4.44,0,0,0-4.4,4.4v10.1H58.1a5.1,5.1,0,1,0,0,10.2h3.1v10.6a4.44,4.44,0,0,0,4.4,4.4h4.9a4.65,4.65,0,0,0,2.1-.5V164a6,6,0,0,0,6,6h5.6a6,6,0,0,0,6-6V148.8h47.2v15a6,6,0,0,0,6,6H149a6,6,0,0,0,6-6V160a4.65,4.65,0,0,0,2.1.5H162a4.44,4.44,0,0,0,4.4-4.4V146h3.1a5.1,5.1,0,1,0,0-10.2ZM58.1,143.6a2.9,2.9,0,1,1,0-5.8h3.1v5.7H58.1Zm14.5,12.8a2.11,2.11,0,0,1-2.1,2.1H65.6a2.11,2.11,0,0,1-2.1-2.1v-31a2.11,2.11,0,0,1,2.1-2.1h4.9a2.11,2.11,0,0,1,2.1,2.1ZM88,132.6V164a3.76,3.76,0,0,1-3.7,3.7H78.7A3.76,3.76,0,0,1,75,164V118a3.76,3.76,0,0,1,3.7-3.7h5.6A3.76,3.76,0,0,1,88,118Zm49.4,13.9H90.2V134.9h47.2Zm15.3-21.3v38.5a3.76,3.76,0,0,1-3.7,3.7h-5.6a3.76,3.76,0,0,1-3.7-3.7V117.5a3.76,3.76,0,0,1,3.7-3.7H149a3.76,3.76,0,0,1,3.7,3.7Zm11.4,31a2.11,2.11,0,0,1-2.1,2.1h-4.9a2.11,2.11,0,0,1-2.1-2.1v-31a2.11,2.11,0,0,1,2.1-2.1H162a2.11,2.11,0,0,1,2.1,2.1Zm5.4-12.4h-3.1v-5.7h3.1a2.85,2.85,0,1,1,0,5.7ZM154.2,79l-5.7-8.4,2.6-1.8a5.15,5.15,0,0,0,1.4-7.1,5.44,5.44,0,0,0-3.3-2.2,4.71,4.71,0,0,0-3.8.8l-2.6,1.8-5.9-8.8a4.37,4.37,0,0,0-3.6-1.9,4.2,4.2,0,0,0-2.4.7l-4.1,2.8a4.28,4.28,0,0,0-1.4,1.6l-2.1-3.1a6,6,0,0,0-5-2.6,5.58,5.58,0,0,0-3.3,1L110.4,55a6,6,0,0,0-1.6,8.3l8.4,12.4-39,26.5L69.9,90a6,6,0,0,0-5-2.6,5.58,5.58,0,0,0-3.3,1L57,91.6a6,6,0,0,0-1.6,8.3l2.1,3.1a4.79,4.79,0,0,0-2,.7l-4.1,2.8a4.45,4.45,0,0,0-1.2,6.1l5.7,8.4-2.6,1.8a5.15,5.15,0,0,0-1.4,7.1,5.44,5.44,0,0,0,3.3,2.2,3.4,3.4,0,0,0,1,.1,4.51,4.51,0,0,0,2.5-.7v-2.7l-.9.6a2.88,2.88,0,1,1-3.2-4.8l2.6-1.8,1.5,2.2a7.4,7.4,0,0,1,.8-2.9l-7.4-10.9a2.22,2.22,0,0,1-.3-1.6,2,2,0,0,1,.9-1.3l4.1-2.8a2.14,2.14,0,0,1,1.2-.4,2,2,0,0,1,1.7.9l8.2,12.1h2.2v-.7l-8.5-12.6L57,98.7a3.82,3.82,0,0,1,1-5.2l4.6-3.2a3.83,3.83,0,0,1,5.2,1l8.3,12.2,1.3,1.9,2.5,3.6h2.8l-3.3-4.9,39-26.5,6.5,9.6-35,23.7a8.69,8.69,0,0,1,1.6,1.7l34.7-23.5,8.4,12.4a6,6,0,0,0,5,2.6,5.58,5.58,0,0,0,3.3-1l4.6-3.2a6.05,6.05,0,0,0,1.6-8.3L147,88.5a4.79,4.79,0,0,0,2-.7l4.1-2.8a4.29,4.29,0,0,0,1.1-6Zm-7.5-16.7a2.62,2.62,0,0,1,2.1-.4,2.56,2.56,0,0,1,1.8,1.2,2.9,2.9,0,0,1-.8,4l-2.6,1.8L144,64.2Zm.4,30.6a3.47,3.47,0,0,1,.6,2.8,3.6,3.6,0,0,1-1.6,2.4l-4.6,3.2a3.83,3.83,0,0,1-5.2-1L128,87.9,126.7,86,124,82.1,110.5,62.2a3.82,3.82,0,0,1,1-5.2l4.6-3.2a3.83,3.83,0,0,1,5.2,1l4.2,6.2,17.4,25.6Zm5.5-11a2,2,0,0,1-.9,1.3L147.6,86a2.14,2.14,0,0,1-1.2.4,2,2,0,0,1-1.7-.9L127.3,59.9a2.12,2.12,0,0,1,.6-2.9l4.1-2.8a2.14,2.14,0,0,1,1.2-.4,2,2,0,0,1,1.7.9l17.4,25.6A2.22,2.22,0,0,1,152.6,81.9Z"/>
</svg>
