<svg xmlns="http://www.w3.org/2000/svg" width="220" height="220" viewBox="0 0 220 220">
  <rect class="uk-text-primary" fill="#f3c565" width="220" height="220"/>
  <path fill="#000" d="M166.3,152.4l-5.5-6.7a3,3,0,0,0-.7-.5l-3.4-.8-17.6-21.6L135,93.1a44.06,44.06,0,0,0-34.7-41.5c-9.5-1.8-18.5.3-25.4,5.9s-10.7,14-10.8,23.7a42.45,42.45,0,0,0,10,27.3,44.85,44.85,0,0,0,15.5,12.2.37.37,0,0,0,.3.1H90a38.67,38.67,0,0,0,7,2.4l29.3,10.1L144,154.9v3.2a1.61,1.61,0,0,0,.3.9l5.6,6.8a1.19,1.19,0,0,0,.9.5h.1a1.61,1.61,0,0,0,.9-.3L166,154.4a1.19,1.19,0,0,0,.5-.9,1.39,1.39,0,0,0-.2-1.1Zm-39.4-21.9L108.1,124a28.63,28.63,0,0,0,25.5-20.7l2.7,19.5ZM81.3,111.8l6.7-5.4,9.1,11.2-2.3,1.9L91,118.2A39.74,39.74,0,0,1,81.3,111.8ZM67.2,77.7l10.5-8.6,10,12.3L76.9,90.2,67.1,78.1A.76.76,0,0,1,67.2,77.7Zm.4-2.5a27.73,27.73,0,0,1,5.5-11.9l3.6,4.5ZM132.2,94a29.42,29.42,0,0,1-3.1,13.1l-6.7-8.2,9.5-7.7.3,2.1C132.2,93.5,132.3,93.8,132.2,94Zm-12.7,23.6-8-9.7,9.6-7.9,7.1,8.7a23.94,23.94,0,0,1-5.9,6.8A14.63,14.63,0,0,1,119.5,117.6Zm-1.5.8a27.63,27.63,0,0,1-15.8,2.8l-2.8-3.4,10.9-8.9Zm-7.5-11.8-9.1-11.2,9.6-7.9,9.1,11.2Zm20.8-20.3v.3l-7.7-9.4,3.4-2.8a44.2,44.2,0,0,1,4.4,11.2A2,2,0,0,0,131.3,86.3Zm.2,3.1-10,8.2-9.1-11.2,10-8.2Zm-20.3-4.2L101,72.7l10-8.2L121.3,77Zm-1.3,1-9.6,7.9L90.1,81.6l9.6-7.9ZM89,80.3,79,68l9.6-7.9,10,12.3Zm-.2,2.4L99,95.2,88.2,104,78,91.5Zm11.3,13.7,9.1,11.2-10.9,8.9-9.1-11.2Zm-3.5,23.7,1.5-1.2,1.7,2a12.86,12.86,0,0,1-1.9-.4Zm26.3-51.6a28.27,28.27,0,0,1,3.2,4.5l-3.6,2.9L112.3,63.4l2.8-2.3A42,42,0,0,1,122.9,68.5Zm-11.6-6.4-4.8-5.9a36.74,36.74,0,0,1,7.3,3.9Zm-7.8-6.9,6.5,8-10,8.2L90,59.1l6.5-5.3a19.93,19.93,0,0,1,3.4.5A27,27,0,0,1,103.5,55.2Zm-9.7-1.5h.1l-5,4.1-2.6-3.1A26.63,26.63,0,0,1,93.8,53.7ZM76.7,59.6a26.67,26.67,0,0,1,7.9-4.4l3,3.7L78,66.8l-3.8-4.7A19.68,19.68,0,0,1,76.7,59.6ZM67,80.6l8.7,10.7L69.9,96A36.65,36.65,0,0,1,67,81.1.45.45,0,0,1,67,80.6Zm9.3,26a45.38,45.38,0,0,1-5.7-9l6.1-5,10.2,12.5L80,110.7A36,36,0,0,1,76.3,106.6ZM151.2,163l-4.4-5.4v-3.2a1.61,1.61,0,0,0-.3-.9l-17.4-21.3,8.4-6.9,17.3,21.2a3,3,0,0,0,.7.5l3.4.8,4.3,5.2-12,10ZM96.5,143.1a13.45,13.45,0,1,0,13.4,13.5,13.4,13.4,0,0,0-13.4-13.5Zm4.5,3.2v10a4.5,4.5,0,0,1-9,0V146.2a10.49,10.49,0,0,1,4.4-.9A11.48,11.48,0,0,1,101,146.3Zm-4.5,21.4a11.18,11.18,0,0,1-11.2-11.2,11.36,11.36,0,0,1,4.6-9.1v8.8a6.7,6.7,0,0,0,13.4,0v-8.6a11.08,11.08,0,0,1,4.4,8.9,11.25,11.25,0,0,1-11.2,11.2Z"/>
</svg>
