<svg xmlns="http://www.w3.org/2000/svg" width="220" height="220" viewBox="0 0 220 220">
  <rect class="uk-text-primary" fill="#f3c565" width="220" height="220"/>
  <path fill="#000" d="M100.2,108.4,58.4,116a6,6,0,1,1-2.2-11.8L102,95.9a13.5,13.5,0,0,1,1.5-2.6L81,97.5,79.8,91a10.49,10.49,0,0,0-4.5-6.9A10.71,10.71,0,0,0,58.6,94.8l1.2,6.4-3.9.7a8,8,0,0,0-5.3,3.4,8.48,8.48,0,0,0-1.4,6.2,8.29,8.29,0,0,0,8.1,6.8,7.57,7.57,0,0,0,1.5-.1l41.4-7.5ZM67.7,84.6A8.28,8.28,0,0,1,74,86a8.61,8.61,0,0,1,3.5,5.4l1.2,6.4-16.6,3-1.2-6.4A8.35,8.35,0,0,1,67.7,84.6Zm118.5,2.3a8,8,0,0,0-3.4-5.3,8.48,8.48,0,0,0-6.2-1.4l-5.7,1-1.2-6.4a10.9,10.9,0,0,0-12.5-8.7,10.49,10.49,0,0,0-6.9,4.5,10.89,10.89,0,0,0-1.8,8l1.2,6.4-18.4,3.3a21.1,21.1,0,0,1,2.3,1.9L177,82.4a4.1,4.1,0,0,1,1.1-.1,6,6,0,0,1,1.1,11.9l-39.9,7.2a17.85,17.85,0,0,1,.2,2.3l40.1-7.2a8,8,0,0,0,5.3-3.4,8.62,8.62,0,0,0,1.3-6.2ZM152,84.6l-1.2-6.4a8.28,8.28,0,0,1,1.4-6.3,8.42,8.42,0,0,1,15.2,3.3l1.2,6.4-16.6,3Zm32.8,53.8H143.6V124.5a11,11,0,0,0-9-10.8V103.6a15,15,0,0,0-30,0v10.1a11,11,0,0,0-9,10.8v13.9H54.5a4.44,4.44,0,0,0-4.4,4.4v7.7a4.44,4.44,0,0,0,4.4,4.4H184.8a4.44,4.44,0,0,0,4.4-4.4v-7.7A4.44,4.44,0,0,0,184.8,138.4ZM107,103.6a12.7,12.7,0,0,1,25.4,0v9.9H107Zm-9,20.9a8.71,8.71,0,0,1,8.7-8.7h26a8.71,8.71,0,0,1,8.7,8.7v13.9H98Zm88.9,26a2.05,2.05,0,0,1-2.1,2.1H54.5a2.05,2.05,0,0,1-2.1-2.1v-7.7a2.05,2.05,0,0,1,2.1-2.1H184.8a2.05,2.05,0,0,1,2.1,2.1v7.7Zm-64.8-48.1a2.3,2.3,0,1,1-2.3-2.3A2.26,2.26,0,0,1,122.1,102.4Z"/>
</svg>
