<svg width="440" height="150" xmlns="http://www.w3.org/2000/svg" viewBox="0 0 440 150">
    <path d="M23.2 21.3c10-1.5 18.8-5 26.4-10.6h17.8v130.6H43.8V38.9c-6.8 3.3-13.7 5-20.6 5V21.3zM167.2 11.5v22.6l-55.4 107.2H80l59.4-107H76V11.5h91.2zM170.6 75.9c-3.1-2.9-4.6-6.7-4.6-11.2 0-4.5 1.5-8.3 4.6-11.4 3.1-3.1 7-4.6 11.8-4.6 4.8 0 8.8 1.5 12 4.6 3.2 3.1 4.8 6.9 4.8 11.4s-1.6 8.3-4.8 11.2c-3.2 2.9-7.2 4.4-12 4.4s-8.7-1.4-11.8-4.4zm0 59.4c-3.1-2.9-4.6-6.7-4.6-11.2 0-4.5 1.5-8.3 4.6-11.4 3.1-3.1 7-4.6 11.8-4.6 4.8 0 8.8 1.5 12 4.6 3.2 3.1 4.8 6.9 4.8 11.4s-1.6 8.3-4.8 11.2c-3.2 2.9-7.2 4.4-12 4.4s-8.7-1.4-11.8-4.4zM258 8.9c8 0 15.3 1.4 21.9 4.1 6.6 2.7 12.2 6.9 16.9 12.5 10.1 11.9 15.2 28.9 15.2 51s-5.1 39.1-15.2 51c-9.3 11.1-22.2 16.6-38.6 16.6-16.5 0-29.5-5.5-39-16.6-10-11.6-15-28.6-15-51s5-39.4 15-51c9.5-11 22.4-16.6 38.8-16.6zm21.9 33.3c-5.1-7.9-12.4-11.9-21.8-11.9s-16.7 4-21.8 11.9c-5.1 7.9-7.7 19.4-7.7 34.3 0 14.9 2.6 26.3 7.7 34.1 5.1 7.8 12.4 11.7 21.8 11.7s16.7-3.9 21.8-11.7c5.1-7.8 7.7-19.2 7.7-34.1 0-14.9-2.6-26.3-7.7-34.3zM365 122.3c20.3 0 30.4-16.7 30.4-50 0-3.6-.3-7.5-.8-11.8-1.7 10.4-6.1 18.3-13 23.6-6.1 4.7-13.9 7-23.4 7-12.1 0-22-3.8-29.7-11.5C320.8 72 317 62.1 317 50.1c0-12.3 4.3-22.2 13-29.8 8.7-7.6 19.9-11.4 33.8-11.4 15.7 0 28.9 6 39.4 18 10.7 12.3 16 28.1 16 47.4 0 33.5-10 55.1-30 65-6.7 3.2-13.9 4.8-21.7 4.8s-14.6-1-20.4-3c-5.8-2-10.8-4.8-15.1-8.4-9.1-7.6-13.6-17.5-13.6-29.8H343c.3 6 2.4 10.7 6.5 14.2s9.2 5.2 15.5 5.2zm-1-91.8c-6.4 0-11.8 1.8-16.1 5.5-4.3 3.7-6.5 8.7-6.5 15.2s2.2 11.5 6.5 15.1c4.3 3.6 9.7 5.4 16.1 5.4 6.3 0 11.6-1.9 16-5.6 4.4-4 6.6-9 6.6-15 0-6.1-2.2-11.1-6.6-15-4.3-3.7-9.6-5.6-16-5.6z" opacity=".05"/>
</svg>
