<svg width="440" height="150" xmlns="http://www.w3.org/2000/svg" viewBox="0 0 440 150">
    <path d="M12.5 21.3c10-1.5 18.8-5 26.4-10.6h17.8v130.6H33.1V38.9c-6.8 3.3-13.7 5-20.6 5V21.3zM96.1 119.7h74.2v21.6H72.5v-22.2c0-15.6 5.5-26.9 16.6-34 3.7-2.4 8.1-4.5 13-6.4l26.6-10.2c5.9-2.3 10.2-5.1 12.9-8.5 2.7-3.4 4.1-7.6 4.1-12.7s-1.8-9.3-5.4-12.7-8.7-5.1-15.4-5.1c-6.7 0-12.2 1.6-16.5 4.8-4.3 3.2-6.8 7.9-7.5 14.2H74.7c.3-12.7 5.1-22.6 14.6-29.8 8.7-6.5 20.3-9.8 35-9.8 13.5 0 24.6 3.6 33.4 10.8 8.9 7.5 13.4 16.6 13.4 27.4S168.4 66.6 163 73c-5.4 6.5-13.8 11.9-25.1 16.3l-27 10.4c-5.2 2-9 4.2-11.3 6.7-2.3 2.5-3.5 5.6-3.5 9.5v3.8zM181.3 75.9c-3.1-2.9-4.6-6.7-4.6-11.2 0-4.5 1.5-8.3 4.6-11.4 3.1-3.1 7-4.6 11.8-4.6s8.8 1.5 12 4.6c3.2 3.1 4.8 6.9 4.8 11.4s-1.6 8.3-4.8 11.2c-3.2 2.9-7.2 4.4-12 4.4s-8.7-1.4-11.8-4.4zm0 59.4c-3.1-2.9-4.6-6.7-4.6-11.2 0-4.5 1.5-8.3 4.6-11.4 3.1-3.1 7-4.6 11.8-4.6s8.8 1.5 12 4.6c3.2 3.1 4.8 6.9 4.8 11.4s-1.6 8.3-4.8 11.2c-3.2 2.9-7.2 4.4-12 4.4s-8.7-1.4-11.8-4.4zM268.7 8.9c8 0 15.3 1.4 21.9 4.1 6.6 2.7 12.2 6.9 16.9 12.5 10.1 11.9 15.2 28.9 15.2 51s-5.1 39.1-15.2 51c-9.3 11.1-22.2 16.6-38.6 16.6-16.5 0-29.5-5.5-39-16.6-10-11.6-15-28.6-15-51s5-39.4 15-51c9.5-11 22.4-16.6 38.8-16.6zm21.9 33.3c-5.1-7.9-12.4-11.9-21.8-11.9s-16.7 4-21.8 11.9c-5.1 7.9-7.7 19.4-7.7 34.3 0 14.9 2.6 26.3 7.7 34.1 5.1 7.8 12.4 11.7 21.8 11.7s16.7-3.9 21.8-11.7c5.1-7.8 7.7-19.2 7.7-34.1 0-14.9-2.6-26.3-7.7-34.3zM375.7 122.3c20.3 0 30.4-16.7 30.4-50 0-3.6-.3-7.5-.8-11.8-1.7 10.4-6.1 18.3-13 23.6-6.1 4.7-13.9 7-23.4 7-12.1 0-22-3.8-29.7-11.5-7.7-7.7-11.5-17.5-11.5-29.5 0-12.3 4.3-22.2 13-29.8 8.7-7.6 19.9-11.4 33.8-11.4 15.7 0 28.9 6 39.4 18 10.7 12.3 16 28.1 16 47.4 0 33.5-10 55.1-30 65-6.7 3.2-13.9 4.8-21.7 4.8-7.8 0-14.6-1-20.4-3s-10.8-4.8-15.1-8.4c-9.1-7.6-13.6-17.5-13.6-29.8h24.6c.3 6 2.4 10.7 6.5 14.2s9.2 5.2 15.5 5.2zm-1-91.8c-6.4 0-11.8 1.8-16.1 5.5-4.3 3.7-6.5 8.7-6.5 15.2s2.2 11.5 6.5 15.1c4.3 3.6 9.7 5.4 16.1 5.4 6.3 0 11.6-1.9 16-5.6 4.4-4 6.6-9 6.6-15 0-6.1-2.2-11.1-6.6-15-4.3-3.7-9.6-5.6-16-5.6z" opacity=".05"/>
</svg>
