<svg width="600" height="200" xmlns="http://www.w3.org/2000/svg" viewBox="0 0 600 200">
    <path d="M421.1 46.4c8.8 0 16.8 1.5 24.1 4.5 7.3 3 13.5 7.6 18.6 13.8 11.1 13.1 16.7 31.8 16.7 56.1s-5.6 43-16.7 56.1c-10.3 12.2-24.4 18.3-42.5 18.3-18.2 0-32.5-6.1-42.9-18.3-11-12.8-16.5-31.5-16.5-56.1s5.5-43.3 16.5-56.1c10.5-12.2 24.7-18.3 42.7-18.3zm24.1 36.7c-5.6-8.7-13.6-13.1-24-13.1-10.3 0-18.3 4.4-24 13.1-5.6 8.7-8.5 21.3-8.5 37.7s2.8 28.9 8.5 37.5c5.6 8.6 13.6 12.9 24 12.9 10.3 0 18.3-4.3 24-12.9 5.6-8.6 8.5-21.1 8.5-37.5s-2.8-29-8.5-37.7zM542.4 70c-16 0-25.3 6.1-27.9 18.3h-27.3c1.5-14.1 7.2-24.7 17.2-31.9 9.4-6.6 21.7-9.9 37-9.9 15.7 0 28.5 3.7 38.3 11 10.3 7.5 15.4 17.1 15.4 28.8 0 7.3-2 13.7-5.9 19-4 5.4-9.8 9.4-17.6 12 8.7 2.9 15.6 7.3 20.8 13.1s7.8 12.4 7.8 19.9-1.4 13.9-4.1 19.1c-2.7 5.3-6.6 9.8-11.5 13.6-10.6 8.1-24.3 12.1-41.1 12.1-16.1 0-29.7-4.1-40.7-12.3-12.3-8.9-18.5-20.8-18.5-35.6H512c.4 7.5 3.5 13.3 9.1 17.6s13 6.4 22.1 6.4 16.2-2 21.2-6c5.1-4 7.6-9.2 7.6-15.4s-2.3-11.1-6.9-14.6c-4.6-3.5-11.9-5.3-21.9-5.3h-18.9v-20.5h16.3c8.4 0 14.9-1.8 19.6-5.4 4.7-3.6 7-8.3 7-14.2 0-5.9-2-10.6-6-14.3-4.3-3.7-10.5-5.5-18.8-5.5z" opacity=".06"/>
</svg>
