<svg width="600" height="260" xmlns="http://www.w3.org/2000/svg" viewBox="0 0 600 260">
    <path d="M421.5 106.4c8.8 0 16.8 1.5 24.1 4.5 7.3 3 13.5 7.6 18.6 13.8 11.1 13.1 16.7 31.8 16.7 56.1s-5.6 43-16.7 56.1c-10.3 12.2-24.4 18.3-42.5 18.3-18.2 0-32.5-6.1-42.9-18.3-11-12.8-16.5-31.5-16.5-56.1s5.5-43.3 16.5-56.1c10.4-12.2 24.7-18.3 42.7-18.3zm24.1 36.7c-5.6-8.7-13.6-13.1-24-13.1-10.3 0-18.3 4.4-24 13.1-5.6 8.7-8.5 21.3-8.5 37.7s2.8 28.9 8.5 37.5c5.6 8.6 13.6 12.9 24 12.9 10.3 0 18.3-4.3 24-12.9 5.6-8.6 8.5-21.1 8.5-37.5s-2.9-29-8.5-37.7zM484 120.1c11-1.6 20.7-5.5 29-11.7h19.6v143.7h-26V139.4c-7.5 3.7-15 5.5-22.7 5.5v-24.8h.1z" opacity=".06"/>
</svg>
