<svg width="600" height="200" xmlns="http://www.w3.org/2000/svg" viewBox="0 0 600 200">
    <path d="M421.1 46.3c8.8 0 16.8 1.5 24.1 4.5 7.3 3 13.5 7.6 18.6 13.8 11.1 13.1 16.7 31.8 16.7 56.1s-5.6 43-16.7 56.1c-10.3 12.2-24.4 18.3-42.5 18.3-18.2 0-32.5-6.1-42.9-18.3-11-12.8-16.5-31.5-16.5-56.1s5.5-43.3 16.5-56.1c10.4-12.3 24.7-18.3 42.7-18.3zm24.1 36.6c-5.6-8.7-13.6-13.1-24-13.1-10.3 0-18.3 4.4-24 13.1-5.6 8.7-8.5 21.3-8.5 37.7s2.8 28.9 8.5 37.5c5.6 8.6 13.6 12.9 24 12.9 10.3 0 18.3-4.3 24-12.9 5.6-8.6 8.5-21.1 8.5-37.5s-2.9-29-8.5-37.7zM513.5 168.1h81.6v23.8H487.5v-24.4c0-17.2 6.1-29.6 18.3-37.4 4.1-2.6 8.9-5 14.3-7l29.3-11.2c6.5-2.5 11.2-5.6 14.2-9.4 3-3.7 4.5-8.4 4.5-14s-2-10.2-5.9-14c-4-3.7-9.6-5.6-16.9-5.6-7.3 0-13.4 1.8-18.2 5.3s-7.5 8.7-8.2 15.6H490c.3-13.9 5.6-24.8 16-32.8 9.5-7.2 22.4-10.8 38.5-10.8 14.8 0 27.1 4 36.7 11.9 9.8 8.2 14.7 18.3 14.7 30.1s-3 21.4-8.9 28.5-15.1 13.1-27.6 17.9L529.7 146c-5.7 2.2-9.9 4.7-12.4 7.4-2.6 2.7-3.8 6.2-3.8 10.5v4.2z" opacity=".06"/>
</svg>
