<svg width="1900" height="680" xmlns="http://www.w3.org/2000/svg" viewBox="0 0 1900 680">
    <path fill="#1f1f1f" d="M0 0h1040v640H0V0z"/>
    <g opacity="0.4">
        <path fill="none" stroke="#4d432e" d="M-13.3 131.7c9-.4 18.4-3.9 27.4 0s14.5 12.5 18 18.5 7.6 9.9 11.4 11.7 5.3 2.4 9 5.9 2.9 5.3 5.7 6.5 3.7 1 9 2.9 6.1 5.3 5.3 7.1-5.3 1-9 0-10.8-7.6-11.6-8.6-7.3-6.7-10.6-7.1c-4.2-.6-8.4-1.5-12.5-2.7-5.3-1.6-11.8-13.1-11.8-13.1-3.9-3.6-6.6-2.4-9.2-1.8l-11.2 2.9"/>
        <path fill="none" stroke="#4d432e" d="M-2.5 166c2.9.6 5.6 1.7 8 3.3 4.1 2.7 8 7.8 12.2 17.6s10.8 14.5 17.6 14.7 13.3-.8 16.9-4.1 7.3-2.5 11.4-.4 9 4.1 14.1 2.5 10.2-7.1 14.7-7.3 8.2-.6 10.2 3.7 4.3 6.5 9.6 7.1 9 1.2 12.2 5.1 8.6 9.8 11.6 10.2 7.4.8 9.6 1.2 11 4.3 14.9 7.6 13.9 7.6 17.8 7.6 10.6.4 12.3-4.1 1.6-7.6-4.3-11-13.5-8.8-15.1-11.8-7.8-10.8-13.1-13.1-16.9-5.7-22.1-8.4-9.8-12.7-10.8-15.7-4.7-16.3-15.1-16.3c-3.2 0-2.9 3.3-9.2 5.7s-7.8 1-11.4 1.8-8.2 7.4-12 7.6-7.6 1-14.5-6.9-9.8-7.4-12.7-8.8c-5.8-2.8-10.8-7-14.3-12.4-4.9-7.4-8.6-12.3-16.9-17.8s-18.2-4.7-26.5-4.3m1.1 69c2 .3 7.2 1.2 8.4.6s2.6-1.4 1.9-4.4-5-3.6-5.4-3.9"/>
        <path fill="none" stroke="#4d432e" d="M26.1 182.1s4 2.8 4.6 4.2 2 6.5 3.8 6.7 4.5 1.2 9.6-.6 6.4-3.5 6.7-4 .9-2.2-2.3-3.6c-2.9-1.3-5.8-2.9-8.4-4.7-2-1.5-3.5-3.3-7.1-3-2.4.1-4.7.6-7 1.3-1.3.5-1.2 2.7.1 3.7zm102.1 15l7.4 3.5c2.6 1.4 4.4 2.8 6.2 2.6s4.7-.7 0-4.1-8.7-6.9-12.1-8.8-7.5-5.1-8.1-6.2c-1.1-2.3-2.7-4.3-4.7-6-2.5-1.9-4.1-3.2-6.9-3.4-3.7-.3-7.4-1.3-10.7-2.9-3.4-1.8-9.3-.7-11.5 1.5-1.6 1.6-2.5 7.2-2.4 9.8s.7 4.4 4 4 8.2-3.9 9.4-4.3c2.4-.8 5.1-.4 7.1 1.2 2.2 1.8 3.8 4.2 4.6 6.9.7 2.3 5.2 4.7 6.9 5.1 2 .5 3.2 1 5.1.7s4-.6 5.7.4zm40 26c1.8.6 4.7 1.5 5.7 1s.7-1.5-1.6-2.5c-1.8-.9-3.8-1.5-5.9-1.6-1.9 0-.1 2.5 1.8 3.1zm10-22.2c2 1.1 4 2.5 5.7 4 1.4 1.3 2.3 3.5 4.8 3.4s5.1-.9 5.4-5c.3-3.6-1.2-7.1-4-9.3-2.5-1.9-5.4-3.4-11.9-1.8s-10 3.4-6.3 5.6 3.9 1.7 6.3 3.1z"/>
        <path fill="none" stroke="#4d432e" d="M-1.8 198.9s2.9-.7 7.2 1.1 11.3 6.2 15.3 8.4 6.9 3.8 11.8 3.5c6.3-.5 12.5-1.7 18.6-3.5 5.4-1.8 11.4-1 15.2 0 4.4.8 9 .8 13.4 0 1.1-.2 2.2-.6 3.2-1 1.3-.6 5.6-4.2 10.7-4s9.6 4.1 10.7 5 6.2 4.1 7.8 4.4 6.6 2.1 7.9 3.7 2.5 6.9 5 9.8 6.3 6.2 10.9 6.2 6.4-1.2 8.3-1.3 6 0 8.2 2.1 10.4 6.6 12.5 7.5 10.7 3.8 17.3 3.4c5.8-.5 11.4-2.4 16.4-5.3 2.8-1.8 9.1-5 7.5-14.4s-4.1-15.1-4.3-17.6 3.5-11.9-1.6-17.6-9.5-6.5-16.4-6.8-19 .4-22.1 0-12.5-2.2-18.5-8.4-8.8-11.6-12.1-13.2-9.4-5.3-12.2-8.8-1.8-7.4-6-10.1-8.2-4.9-12.5-2.5-1.6 10-5.1 12.5-15.1 5-19 4.7-10.9-3.8-14.3-6.3-11.6-9.3-14.7-12.8-11.2-13.5-13.5-15.1-8.1-6-15.9-7.9-12.2-3.2-24.3-3.5m2.6 116.3c5 4.9 7.8 9.1 13.2 11.9s10.6 1.2 14.7 0 10-6.9 12.2-9 4.3-2.5 7.2-2.8 5.3-2.9 3.2-7-6.6-2.5-8.7-2.4-9.2 2.1-13 2.4-6.7-2.5-9.6-4.9-9-5.1-12.2-6.6c-2.2-.9-4.7-1.2-7.1-.9"/>
        <path fill="none" stroke="#4d432e" d="M7.5 229.8c1.3 1.8 3.3 3.9 6.1 4.2 4.1.6 8.4.9 10 0s5.3-3.5 1.5-6.8c-2.1-1.9-1.7 0-6.2-1s-6.3-2.1-8.4-4.9-5.3-1.8-5.4 2.1c-.3 2.5 1.1 4.6 2.4 6.4zm35.4 19.9s2.1 1.3 4.6-.9 3-4 2.9-4.8c-.5-1.1-1.8-1.6-2.9-1.2-1.1.6-2.7 1.9-4.6 2.1s-3.5-.2-3.5 1.5 1.8 3 3.5 3.3z"/>
        <path fill="none" stroke="#4d432e" d="M-7.4 258.9c1.7.9 10.5 3.1 17.2 7.2s6.3 12.9 6.6 18.5c.1 4.6 2.4 8.9 6.3 11.5 4.8 3.3 9.3 7 13.5 11 4.3 4.3 8.1 14.1 10 19.3s7.6 11 12.3 10.4 4.1-7.6 4-10.4-.7-5.7-.4-8.5 3.5-10.6 5.1-12.8 7.6-5.7 13.8-7.1 9.1-4.7 10-7.5 5.4-8.5 9.8-10.7 3.7-10.4 1.2-15.4-8.5-5.1-10.9-5.6-6.6-2.1-6.9-4.5-2.8-6.2-5.4-6.7-6.5 0-12.8 5.9c-6.3 5.9-13.4 8.5-22.9 8.7s-18.1-4.1-21.4-5.7-10.8-6.8-17.7-8.8-5.5-.9-6.3-1.1"/>
        <path fill="none" stroke="#4d432e" d="M27.6 266.8c-3.2.9-4.1 3.7-4.3 7.9s1.8 5.7 3.3 10.3 3.8 5.1 7.9 6.5 4.9 4.1 7.6 8c2.8 3.7 7.2 5.8 11.9 5.6 4.3-.1 7.9-4.6 10.2-7.1s3.6-4.3 7.5-4.9 5.4-2.5 6-4.1c1.3-2.4 3.1-4.5 5.4-6 3.1-1.8 5.5-4.6 6.9-7.9 1.8-4.3-3.2-6.8-5.7-7.8s-4-2.1-7.6-5.6-8.7-.1-11.6 1.6c-4.4 2.6-9.2 4.6-14.2 5.9-5.2 1.2-9.5-.1-13-1.2.2.1-7-2.1-10.3-1.2z"/>
        <path fill="none" stroke="#4d432e" d="M42.6 274.2c-4.1-.4-6.3 0-7.5 5s2.4 8.8 8.5 11.2 14.4 1.5 20.4-.9 9.3-9.6 10.3-13.8-1.5-6.5-4.4-6.8-5.7 2.2-6.9 3.4-6.2 2.6-9.6 3.4c-4.8 1.1-6.6-1.1-10.8-1.5z"/>
        <path fill="none" stroke="#4d432e" d="M48.4 281.1c-1.9 1-2.2 4.1 2.1 4s6.4-1 9.8-3.5-1.3-2.2-2.4-2.1l-4.9.8c-1.2.1-2.7-.3-4.6.8z"/>
        <path fill="none" stroke="#4d432e" d="M-5.3 298s3.1-1.5 14.8 4 16.6 11.9 19.7 18.4S37.8 344 42.8 351s8.7 10.1 12 10c7.4-.2 13.8-5.3 15.7-12.5 2.9-10.7 0-21.2 1.2-27.2s3.4-11.3 11-13.2 14.8-1.3 17.4-6.2 1.9-11.2 7-12.8 11-2.5 12.5-9.8-1.5-11.7-3.5-13.7-8.6-5.4-11.8-10.7c-3.3-5.2-7.4-9.9-12.1-14-4.7-4.3-10.5-5.7-18.1-4.9s-10.7 4.1-13.7 1.2-.1-6.5 2.5-9 7.8-7.6 14.7-9.6 7.8-1.3 11.2 0c3.2 1.3 6.6 2.2 10.1 2.5 2.7.1 6.9 1.3 8.5 3.4s4.6 7.6 10.3 10.1 9 5.2 17.6 4.3 11-.6 17.2 2.8 17.1 11.2 20.6 11.5 12.6 1.9 18.5 1.2 17.6-2.5 21.9-9.3 5.4-13.7 4-19.4c-1.3-4.7-3.2-9.2-5.7-13.4-1.8-2.6-2.6-6.6-.1-14.4s1.3-12.1-3.1-15.9-15-10.7-19.3-16-4.5-12.9-7-17.1-9-7.6-11.1-8.8-6.9-5.3-8.4-13.8-6.8-14-12.1-15.6-15.9-5.3-18.4-9.6-6.6-13.1-8.4-16.8c-2.7-5.6-7.2-10.1-12.8-12.8-6.9-3.2-11.2-3.4-15.1-2.4s-9.1 4.9-16 5-21.8 3.2-30.7 3.4-16.3 5-17.3 7.2c-1.5 4.3-2.5 8.8-2.8 13.4 0 3.4-1.2 9.3-8.1 9.4s-24 2.2-29.7-4.7"/>
        <path fill="none" stroke="#4d432e" d="M44 376.3c-3.7-5.5-10-15.5-12.5-19.8s-7.6-19.4-9.6-28.2c-1.9-7.9-7.4-14.4-14.7-17.8-3.9-1.6-8.2-2-12.3-1.2m1.8 67.6l4.5-8.2s2.2-13.3-4.7-24.3"/>
        <path fill="none" stroke="#4d432e" d="M25.1 381.4c3.3-19.8-6.1-39.2-7.1-41.2s-3.7-8.8-8-9.8-2.5 2-1 4.9c1.7 3.4 2.6 7 2.7 10.8 0 3.1-.2 8.2.6 11.4s2.2 6.9 2.2 9c-.3 2.5-.7 4.9-1.4 7.3m179.4 4.9c-1-8 1.4-12.7 3.5-18s6.3-11 8.2-17.1 2.7-15.3-4.5-18.4-14.5.2-22.5.2-17.8-4.3-22.7-7.3-2.4-12.2-2.4-19.2-3.7-12.5-11-13.5-15.1 5.3-19 8.2-7.4 10.4-11.4 12.7-12.2 5.3-18.8 8.2-10 13.3-11.6 17.1-.8 17.4-2.2 27.2-5.7 14.7-5.7 14.7"/>
        <path fill="none" stroke="#4d432e" d="M177.2 374.4c0-9.2 5.3-13.1 7.3-15.7s7.1-5.5 7.1-13.9-8.2-10.6-11.2-11.4-17.2-2.5-23.1-3.9-8-6.5-8.6-8.6-3.5-6.3-6.5-9-10-2.2-15.3-.8-17.2 7.8-20.2 8.8-10.2 2.5-15.1 9.6.8 19.4 1 31-4.1 13.5-4.1 13.5"/>
        <path fill="none" stroke="#4d432e" d="M121.2 374.7c1.1-5.4 2.5-10.8 4.2-16 1.4-4.1 2.7-7.8 4.9-9s8.2-1.8 17.2-4.1 3.7-12.2 2.2-14.5-4.9-8.6-17.1-9.6-21.8 4.9-26.5 6.9-10.4 10.2-10.4 15.3 4.9 5.9 5.7 17.2c0 3.3-.4 6.5-1.1 9.7"/>
        <path fill="none" stroke="#4d432e" d="M106.7 338.7c-1.8 2.7-.8 8.2 6.7 10s8.2-.8 10.2-2.4 3.9-3.5 5.9-4.1c2-.6 8.4-2.4 12.9-3.9s1.6-4.9.2-7.3-6.9-2.9-12.5-3.7-13.3 2.2-17.2 4.9c-2.4 1.9-4.4 4.1-6.2 6.5z"/>
        <path fill="none" stroke="#4d432e" d="M125.7 337.3c1 1 3.3.2 5.3-.8s4.3.6 5.5-1-1.2-3.3-2.9-4.3-5.4 1.3-6.7 2.2-2.2 2.9-1.2 3.9zm41 44.7c.1-6.2-.5-12.4-1.8-18.4-1.4-6.9-6.3-11.2-9.6-12.5s-10.6 1-17.1 5.3-6.3 12.3-6.5 15.7"/>
        <path fill="none" stroke="#4d432e" d="M154.5 374c.2-8.2-3.3-9.8-5.7-11.4-1.6-1.1-3.8-.6-4.8 1-.1.1-.2.3-.2.4-.6 1.2-2 8-2 8m229.7-72.3c-11.6-1.6-17.8-11.2-19.4-14.7s-2-10.6-2.2-12.9-3.1-5.9-8.4-8-14.3.6-17.6-1.4-2.9-11.8-3.9-18-6.7-9-14.1-10c-7.6-.9-15.4-.2-22.7 2-7.4 2.2-13.7 11.2-19 18.4-5.3 7.2-13.9 9.4-21.2 9.4s-11.8-5.7-14.7-6.9-10.6-1-13.1-.8-15.1 4.9-19.4 7.4-12.3 3.5-16.5 3.1-15.1-6.3-18-7.8-13.5-7.4-17.2-8.4-9.8 1.6-9.6 7.1 5.1 10.2 9.4 14.9 14.1 9.4 18.6 16.9 1.6 10.4.8 12.5-2.4 5.1 2.5 9 11.2 4.3 18.6 4.5 12.2-.8 19-.2 11.8 6.3 13.5 15.3-1.2 16.3-2.2 19c-2.2 5.2-4.6 10.2-7.3 15.1-1.5 2.6-2.8 5.3-4.1 8"/>
        <path fill="none" stroke="#4d432e" d="M367.4 373.3c-.6 3.6-4.8 9.4-4.9 15.4s-.6 7.8-2.6 9.4-5.1 1.4-6.4.2-1.5-6.1-.2-10.7.7-12.5.7-12.5-1.6-16.2-7.6-22.3c-3.7-5.1-15.1-12.3-22.1-16.1s-11.6-15.3-12-18.6.6-8.6 1-12.7-2.5-6.1-7.4-7.3-11.4.4-16.5.2-9.2-6.5-11-8.4-5.1-7.3-12.5-7.8-13.3 4.1-19 5.7-12-1-16.1-2.9-10-4.5-14.3-4.7-9.2 3.5-12.2 4.9-3.5 4.3-1 5.9 8.2 2.9 13.7 3.5 18.8 1.4 30.6 7.3 10.2 15.5 8.6 20-7.6 10.2-12.5 11.2-3.5-3.5-2.4-10.2-1.2-10.2-5.3-15.1-15.7-5.7-20.8-5.9c-7.8-.1-15.5-1.7-22.7-4.9-9.6-4.3-8.2-10.6-8-13.5s8-7.6 10.6-9.4-1-2.4-3.9-2.4l-18.8.4c-3.5 0-7.4-1-8.6 1-1.9 3.1-1.6 5.5 6.3 9.4s8.6 9.4 8.2 12.3.6 8 7.6 11.8 17.4 2.2 29.2 4.1 15.7 10.8 16.1 20-4.3 19.2-6.9 23.5-7.8 9.6-8.8 12.3c-.6 2.1-.7 4.3-.4 6.5"/>
        <path fill="none" stroke="#4d432e" d="M226 372.4c.8-2.6 2.1-5.1 3.7-7.3 2.5-3.2 10.4-7.6 15.1-12.2s15.1-14.5 17.8-22.3 5.3-11.4 3.9-19.6-8.8-7.1-10.6-12.2-.2-7.1 2.2-7.6c2.4-.5 8.2-2.5 10-.6s5.5 8.8 8.2 11.4 7.1 4.9 9.6 5.1 10.8.2 13.9 4.9 4.3 16.5 5.1 20 5.9 12 8.4 13.9 9.4 7.3 12.5 9.2 12.3 9.2 12.7 16.9v9.1c-.2 4.3-3.5 5.4-4.9 9.7s.4 8.9 4 12 11.8 6.2 17.7 7.5 14.4.7 14.4.7"/>
        <path fill="none" stroke="#4d432e" d="M330.9 373.4c.2-10.6-7.1-14.1-10.8-17.1s-13.5-6.3-17.2-7.4c-6-1.7-11.8-4.2-17.2-7.4-6.9-4.1-11.6-4.3-15.1-3.3s-7.1 7.3-8.6 9c-4.2 4.2-8.7 8.1-13.5 11.6l-10 6.7c-1.4 1-4.7 6.5-4.7 6.5"/>
        <path fill="none" stroke="#4d432e" d="M252.6 369.8s-2.7 5.3-3.7 6.9c-1.5 2.9-2.8 5.9-3.7 9.1-.5 2.3-1.8 5.7-1 11.7s-.4 12.2 1.1 13.9 3.6 4.4 7.6 3.7 9.3-4.9 12-7.7 6.9-5.3 9.5-5.8 6.2-1.1 8.6.9 6 7 8.1 9.3 8.1 8.8 13.3 9 10.9-.1 13.8-3.6 4.5-6.6 4-13.1-1-12.8-1-15.8c0-2.6.4-6.9.1-8.9v-.8c1.2-14.3-5.3-14.3-8.8-15.3l-13.5-3.5c-4.7-1.1-9.2-2.6-13.7-4.3-4.5-1.8-8-3.3-12-3.1s-7.8 3.5-10.2 4.9-7.6 7.8-9.4 10.6c-1.3 2-2.4 4.1-3.4 6.3"/>
        <path fill="none" stroke="#4d432e" d="M305.6 369.8c-2.4-1.2-4.9-2.2-7.4-2.9-4.6-1.7-8.6-2.5-12-3.6-3.3-1.1-6.9-.3-9.4 2-1.2 1-5.7 6.1-5.7 6.1m16.1-45.3c1.2-2 2.5-4 3.9-5.9.6-1 1-2.9-1.6-5.3s-5.9-5.1-9.8-2.7-7.1 6.5-6.7 9.2 1.8 6.5 3.9 7.4 4.1 2 5.9 1.4 3-1.3 4.4-4.1zm87.8-17c-5.1-.6-10.3-.7-15.5-.4-2.9 0-9.8-.2-11.4-5.1s-5.1-9-9-10.8-9.2-1-12.7-.6-6.9 2.7-4.7 8.8-.2 9.6 0 13.5 2.5 8.4 9.6 12.5 16.1.8 27.2 13.9 9.2 31.8 8.8 32.5"/>
        <path fill="none" stroke="#4d432e" d="M334.8 310.3c-1.2 1-1.2 5.1 1.8 7.8s7.1 3.9 9.4 3.3 2.4-2.7 2.4-4.9-3.7-4.2-6.1-5.7c-2.2-1.3-6.3-1.5-7.5-.5zm-49-45.7c3.6.9 9.2 4.7 11.6 8s4.5 6.7 11.4 7.8 13.5-.6 17.1 0 8.6 2.7 11.2 3.1 7.8 2 6.5-3.7-4.9-8.2-10.4-8.8-10.4.4-16.5-5.9-5.9-10.8-6.5-13.7-.6-8.4-9.8-8.8-14.5 2.5-18.2 3.9-8.8 6.9-9.8 10 1 6.3 4.9 6.7c2.9.2 5.7.7 8.5 1.4z"/>
        <path fill="none" stroke="#4d432e" d="M294.4 250.3c-3.3 0-5.7 2.4-8.8 4.9-3.1 2.5-1.2 4.5.8 5.1s4.1-1.2 7.1 0 5.7 1.4 7.8.4.1-5-.4-8c-.2-1.2-3.1-2.4-6.5-2.4z"/>
        <path fill="none" stroke="#4d432e" d="M180.6-8.4c-3.3 6.3-4.5 23.3-3.7 26.9s2.9 6.9 2.7 13.3-4.1 12-6.1 16.1-2.2 11.6-.6 15.9 5.1 10.8 9.8 23.7 3.1 23.5 2.5 29.2.8 9.6 2 11c3.3 3.8 6.8 7.4 10.4 10.8 3.9 3.5 4.7 11.4 4.5 15.1s-.2 7.3 3.7 10.4 13.1 9.4 15.7 11 7.8 8.4 8.6 13.1-.8 16.3-1.2 20.8 1.8 7.3 2.7 10.2-2.5 7.1-3.7 10.8-4.9 10-3.1 14.9 6.9 8.4 14.1 8 12.7-5.1 14.9-6.3 7.1-7.8 15.9-14.1 13.7-13.1 17.8-17.4 2.7-13.9 2.4-16.7-1.2-9.2-1-13.9 3.3-12.2 8-17.4 12-9.8 18.4-10.8c4.7-.8 9.2 2.3 10.1 7 .1.7.2 1.5.1 2.2-.4 4.7-8.2 11.8-11.4 14.1s-6.3 6.3-6.5 10.2 2.5 9.6 3.1 16.9-3.1 5.1-3.1 11.2 5.1 6.7 11.6 7.8 9.4 6.5 11 9.6c2 4.2 4.5 8.1 7.3 11.8 3.7 4.9 10 12.2 19.6 13.1 5.4.4 10.6 1.5 15.7 3.3"/>
        <path fill="none" stroke="#4d432e" d="M375 199.9c-10.6-.8-17.8-4.3-21.2-5.5s-4.7-8.8-5.7-13.7-3.5-8-6.1-9.2-5.5 2.2-7.4 3.9-8 10-7.8 15.5-.8 5.5-2 10.8.6 6.9 2.9 9.6 9.8 4.9 16.9 7.4 7.6 8.8 8 11 2.7 9.4 7.6 12.7c3.4 2.2 7.1 3.8 11 4.9"/>
        <path fill="none" stroke="#4d432e" d="M372.7 210.5c-2.2-2.4-8.8-3.1-11.6-3.3-2.9-.3-5.8-1.1-8.4-2.5-2-1.2-6.3-5.3-8.2-6.3s-6.5-.8-6.5 2.4 4.1 5.7 7.1 7.8 8.2 4.5 13.3 8 3.9 7.3 5.9 10.8 6.9 7.4 6.9 7.4m-.2-53.1c-2.5-.8-5.2-.9-7.8-.4-1.8.4-3.3 2.1.2 5.7 1.1 1.1 2.4 1.8 3.9 2.2m12.2-70c-3.9-.6-15.5.2-19.2.8s-10.2 0-12.5-.4-6.3-1-8.8-1.6-5.1 2.2-10 3.5-7.8 6.1-10 8.6-2.7 9.8-.8 14.7 5.9 4.5 11.4 5.1 10.6 3.5 13.7 5.1 9.4 6.1 12.3 7.8 14.5 3.9 14.5 3.9"/>
        <path fill="none" stroke="#4d432e" d="M375.4 130.1c-5.5-.6-13.3.2-16.9.4s-15.5-1.2-18.8-1c-3.9.3-7.1 3.1-7.8 6.9-.8 4.1 2.4 5.1 4.7 5.5s7.8 2.7 13.5 6.3 6.3 7.6 12 7.8c2.8.1 5.5-.5 8-1.6M316 109.2c1.5 1.5 3.9 1.2 5.5.8s-1.2-3.3-3.9-3.3-4.1-1.2-4.5.2 2.5 1.9 2.9 2.3z"/>
        <path fill="none" stroke="#4d432e" d="M374.8 199.9c1.1 0 2.2.3 3.2.7 4.3 1.7 10.8 6.5 14.8 8.7s6.9 3.8 11.8 3.5c6.3-.5 12.5-1.7 18.6-3.5 5.4-1.8 11.4-1 15.2 0 4.4.8 9 .8 13.4 0 1.1-.2 2.2-.6 3.2-1 1.3-.6 5.6-4.2 10.7-4s9.6 4.1 10.7 5 6.2 4.1 7.8 4.4 6.6 2.1 7.9 3.7 2.5 6.9 5 9.8 6.3 6.2 10.9 6.2c4.6 0 6.4-1.2 8.3-1.3s6 0 8.2 2.1 10.4 6.6 12.5 7.5 10.7 3.8 17.3 3.4c5.8-.5 11.4-2.4 16.4-5.3 2.8-1.8 9.1-5 7.5-14.4s-4.1-15.1-4.3-17.6 3.5-11.9-1.6-17.6-9.5-6.5-16.4-6.8-19 .4-22.1 0-12.5-2.2-18.5-8.4-8.8-11.6-12.1-13.2-9.4-5.3-12.2-8.8-1.8-7.4-6-10.1-8.2-4.9-12.5-2.5-1.6 10-5.1 12.5-15.1 5-19 4.7-10.9-3.8-14.3-6.3-11.6-9.3-14.7-12.8l-13.5-15.1c-8.2-6.3-18-10.1-28.3-11-6.3-.3-12.7-1.2-17.2-1.2s-12.2.2-16.7-1-9.2-4.7-16.3-8.4-11.6-2.9-17.2-4.3-11-3.3-10.8-11.6 7.8-13.7 13.3-14.5 10.8-.2 13.1-1.6 6.7-7.1 9.4-7.3 8.4-.8 12.5.6 16.7 6.9 22 8.2"/>
        <path fill="none" stroke="#4d432e" d="M373.6 81.7c-3.7-.9-7.6-1.5-11.4-1.8-5.9-.6-11.7-1.7-17.4-3.3-5.1-1.6-11.2-.8-13.5.4s-6.1 3.5-8.8 4.1-6.1 1.2-6.1 3.9-.2 5.3 6.9 5.5 10.4 3.5 12.5 6.1 6.7 4.5 9.8 5.3 9.8-1 13.9 1.4c2.9 1.6 6 2.8 9.2 3.5M239.4-3.9c-9 11.8-8.2 19.4-7.4 22.9 1 5.5 1.7 11 2 16.5.2 6 3.6 11.5 9 14.3 6.9 3.7 12.2 3.5 25.5-3.9 9.3-5.2 16.7-3.7 22.3 1.8 2.5 2.4 3.2 4 5.6 8.7 2.8 5.3 10.3 6.3 19.7 6.1s12-7.8 15.1-11 3.3-3.7 8.8-1.2 11 6.5 16.9 9 14.3 3.1 14.3 3.1"/>
        <path fill="none" stroke="#4d432e" d="M255.5-1.6s-3.6 4.5-4.6 6.1-5.9 7.4-6.4 9.7-1.8 5.7-1 11.7 2.3 11.7 3.7 13.3 3.6 4.4 7.6 3.7c4-.7 9.3-4.9 12-7.7s6.9-5.3 9.5-5.8 6.2-1.1 8.6.9 6 7 8.1 9.3 8.1 8.8 13.3 9 10.9-.1 13.8-3.6 4.5-6.6 4-13.1-1-12.8-1-15.8.5-8.1 0-9.6c-1.3-3.7-3.3-7-5.9-9.9"/>
        <path fill="none" stroke="#4d432e" d="M274.6-.4c-.7 1.3-1.6 2.5-2.6 3.5-1.1.8-10.3 1.8-12.2 3.2s-5.9 2.8-5.9 9 1.1 10.2 2.8 11.4 3 2.5 6.5-.6 6.1-5.5 9.5-5.4 7.5-.5 11.5 1.7c4 2.3 7.7 5 11.1 8.1 2.2 2 7.7 6.1 10.2 6.1s5.7.7 7.4-2 2.3-4.6 2.2-9.4-1.2-7.4-.9-10.2c.3-2.4-.1-4.9-1.2-7.1-1-1.7-6.1-4.8-10.7-8.8"/>
        <path fill="none" stroke="#4d432e" d="M286.6 10.6c-1 2.9 1.8 4 3.5 4.5s3.2-.7 4.7.4 3.6 4.3 5.8 5.5 3.8 1.6 6 .7 1.4-4.7 1.2-8-2.2-4.7-4.4-5.6c-2.4-.8-4.9-1-7.4-.7-2.6.1-8.4.2-9.4 3.2zm41.6-12.9s2.5 3.2 2.9 5.6c.6 3.6.5 7.3-.4 10.9-1.2 3.9-3.1 9.9-1.6 14.7 1.5 5.3 4.8 9.9 9.4 13 5.4 3.6 10.1 8.1 19.5 10.4s8.6.8 16.9.8"/>
        <path fill="none" stroke="#4d432e" d="M335.8-3.8c.7 1.7 5.1 8.4 4.9 12.7s-3.5 5.4-4.9 9.7.4 8.9 4 12 11.8 6.2 17.7 7.5 14.4.7 14.4.7"/>
        <path fill="none" stroke="#4d432e" d="M353.2-1.6c1.1 1.5 1.9 3.2 2.2 5 .4 2.8 1.3 7.4 0 12.1s-1.1 9.5.2 10.7 4.3 1.4 6.4-.2 2.5-3.4 2.6-9.4.9-10.4 5-13.1m-173.3-16s-3.5 15.1-4.1 20.4 2.2 11 4.7 20.1-1 9.4-6.5 15.1-6.8 15-5.1 23.4 9.7 13.8 18.2 15 7.6 3.5 16.5 9.1 14.1 12.6 14.7 17.5-5.3 13.1-11.5 22.2-7.5 13.4-7.1 18.7 4.1 15.9 15 22.9 10.1 15.3 10.9 27.2 4.7 16 7.5 17.5 12.9 5.1 20.6.7 8.4-12.2 9-15.1-.6-14.7 1.8-25.7 10-12.8 17.2-20.4 4.7-11.5 10.7-23.2-1-14.6-4.1-17.3-16.8-6.2-20.7-7.4-7.1-6.6-8.7-11.2c-1.3-4-.5-8.3 2.1-11.6 1.9-2.6 5.1-13.7 5.9-17.3s.1-9.1-4.7-11.8-10.4-.6-12.3-.1-10.6 4-14.7 5.6-7.5 1-13.2.4-9.6-8.1-10.4-10.7.1-9.1.3-13.1-1.9-8.1-2.8-12.1c-.9-4-1.4-8.2-1.6-12.3 0-2.5 1-8.1 2.2-10.1 1-1.6 2.1-3.2 3.4-4.6"/>
        <path fill="none" stroke="#4d432e" d="M206.8-1.9l-3.4 8.5c-1.2 3.1-2.9 10.3-2.2 14.1s4.4 7.5 3.2 14-6 15.1-7.8 18.1-2.9 9.1 1 12.8c4 3.7 8.4 6.8 13.2 9.4 3.2 1.5 10.9 7.6 11.9 9.6s5.3 5.9 9.1 7.6 12.3 5.1 14.8 10.3 4.4 9.3-.4 15.9-14 15.9-15.9 19.1-7.5 9.8-2.2 16 9.7 5.1 14.1 8.2 6.2 5.1 5.4 14-.1 22.3 2.9 26.8 7.8 8.2 13.2 7.5 7.1-6.8 6.6-14.1-3.1-17.5 0-26 7.1-12.6 12.9-15.9 15.4-13.1 15.3-20.6.7-9.3-5.6-11.5-15.7-5.6-20.3-9.6-7.9-6.8-8.1-19.3 1.2-15.3-7.1-20.6-14 3.4-24.5-4.9S219 58.4 217.4 52s2.8-11.3 1.3-17.9-1.8-9.6-4.4-16.6 2.8-24.4 4-27.5"/>
        <path fill="none" stroke="#4d432e" d="M197.9 89.1c-3.2.1-3.8 2.6-4 5.4s2.1 7.4 2.5 11.3-1.8 9.4-2.5 14.4 2.1 7.6 5.7 10 7.1 1.9 10.9 1.9 6.6-5.1 7.2-6.2 2.4-5.6 4.3-7.8 1.6-4.6 1-9.7-10.3-12.9-13.1-15.4c-3.4-3-8.8-4.1-12-3.9z"/>
        <path fill="none" stroke="#4d432e" d="M204.2 112.2c-.2 2.2 1.8 6.5 3.8 6.3s4.6-2.5 5.3-4.7c1-2.7 0-5.7-2.5-7.1-3.1-2.1-4.6-1.5-5.3-.4s-1.2 3.8-1.3 5.9zm37-26.7c2.1 1.2 3.7 3.7 4.7 6 .8 2.1 2.7 3.5 4.9 3.5 2.1 0 4.4 0 3.5-5s-3.1-6.9-7.4-8.2c-3.1-1-6.1-2.4-8.8-4.3-1.9-1.3-4.2-1.7-6.5-1.3-2.1.6-4 2.4-1.6 3.4s5.9 3.8 7.8 4.3c1.2.3 2.4.9 3.4 1.6zm7.8 45.2c-3.1 3.4-6.9 8.2-9.1 10.3s-1.5 5.3-1.3 7.4 2.9 4.9 4.1 5.4 3.8 1 5.4 2.5 4 5.7 5.9 6.8 3.4 3.4 6.9 2.2 6-4.9 6.8-7.2c.8-2.4 2.2-4.6 4.1-6.2 1.5-1 9.6-9.4 10.7-11s4.1-3.8 2.8-10.4-4.7-6.9-7.4-8.2-8.2-4.7-10.6-7.6-4.7-6.8-8.7-6.2-4 2.1-4 6.5-.3 9.7-1.3 10.7-4.3 5-4.3 5z"/>
        <path fill="none" stroke="#4d432e" d="M248.6 142.4c-.4 2.1-.7 6.9 4.3 8.8 5 1.9 6.8.6 9.6-.9s3.5-4.3 4.7-5.6c2.3-2.6 5-4.8 7.9-6.6 4.1-2.5 2.4-7.5 1.8-9.7s-4.1-3.5-9.4-4.3-6.2 1.3-7.6 3.5-4.3 6.9-6.5 8.5c-1.3 1-4.4 4.3-4.8 6.3zm-253.3-62c7.4 1.6 18.1-.7 25.6-3.2s23.5-5.7 31.9-7.2 17.9-.7 30.1-6.5 24-5.6 29.5-4.3 14.6 7.6 18.8 21.6 11.6 17.2 15.1 20.4 13.8 3.2 17.3 4.4 11.2 6 13.5-2.5-1.9-13.8-2.9-17.2-7.2-10.9-9.7-18.4-2.4-16.3-2.2-19.8 1.8-17.6 2.6-22.3S166 10 166 5.1c.1-2.7-.5-5.4-1.6-7.8M-9.1 95c4.6 2.6 12.2 5 15.6 5.1s7.6-.3 11-3.2 2.9-7.8 2.6-9.6-4.1-1.9-6.3-2.1-5.6 1.5-8.4 1.6c-2.6 0-5.1-.3-7.6-.8m.6-78.2c.6-.5 3.7-4.4 4.7-12.1m10.6 2.1s1.6 4.6-.3 7.5-4.9 4.1-4.1 7.4 4.7 5 7.5 4.9 7.4-1.2 8.5-6.3 1.3-13.1-.7-19.1m13.3 5.4c.4 2.2 1.2 4.3 2.4 6.2 1.8 2.5 4.6 4 6.5 6s8.1 6 10.9 6.5 6.8-.1 8.5-1.8 5.7-5.4 6.6-7.2 5.4-10 5.6-14.4"/>
        <path fill="none" stroke="#4d432e" d="M-7.5 40l11.2-1.2c1.9-.2 11-2.2 13.5-4.1 4.1-2.9 8.4-5.5 12.9-7.8 2.9-1.3 8.2-3.7 12.2-3.7s10 .3 14.8.7 11.8.7 15.7-.6 10.1-3.4 13.7-9.7S93.2-1 93.1-6.9"/>
        <path fill="none" stroke="#4d432e" d="M-5.4 53.9s5.7 0 9.7-.4c5.4-.6 10.7-2.4 15.3-5.4 5.3-3.5 11-7.2 14.4-7.8s7.2-2.8 12.9-1.3 8.2 3 15.1 2.6 13.5-1 17.2-3.1 8.2-6.3 11.5-8.2 5.6-4.6 10-4 7.8 3.7 11.5 4 8.2 1.2 11.6-2.4 6.2-6.5 7.1-11.6.9-14.7 1.2-18.8"/>
        <path fill="none" stroke="#4d432e" d="M-2.9 62l6.3.3c3.5.2 7-.3 10.3-1.5 2.8-1 7.4-3.8 13.1-5.1s10.9-2.4 15.6-1.8 10.7 2.2 19.7.4 16-3.7 20.9-6.5 7.9-6.3 11.6-6.6 7.2-1.2 15.9 1.9 19.1 9.4 22.1 10.1 8.7 4.4 11-.9 1.2-14.4.7-17.6-1.9-22.5-1.9-25.6l.1-21.2"/>
        <path fill="none" stroke="#4d432e" d="M-4.5 68.6c3.7.4 7.8 2.9 10.6 2.8s4-.3 9.7-2.1 14-5.4 17.3-6.9 9.7-2.2 16.2-1.8c6.1.4 12.2.2 18.2-.6 5.4-.7 12.8-6.3 21.5-9.1s17.8-2.1 22.5-1.3 11.2 5.9 18.2 12.6 8.7 15.1 15.6 22.5 11.3 8.4 15.7 8.7 6.5-3.1 6.5-5-3.5-6.2-6.9-11-5.3-10.7-6.8-18.4.1-27.2.6-31.5c.6-7.4.8-14.7.6-22.1-.6-3.4-1.5-6.8-2.5-10.1m-49.9-.6S101 2.6 100.8 5s-.1 5.9 1.8 6.6 4.3 1.3 8.5-.1 7.9-4 9-5.4c1.8-2.1 3-4.7 3.4-7.5m129.4 229.3c.3-3.1-1.9-1.6-6.6 0s-4.9 2.7-7.9 4.6-2.3 4.7-1 7.1 3.2 2.9 6 2.2 4.3-3.3 5.4-5.2c1.9-2.6 3.3-5.6 4.1-8.7z"/>
        <path fill="none" stroke="#4d432e" d="M147.8 165.9c3.6 2.1 9.1 5.7 13.3 6.1s7.5 1.8 11.1-.5 4.8-6 2.7-10.6-7.7-8.5-10.2-10.1-10.9-7-13.2-12.7-.6-13.5-4.2-18.9-11.2-6.2-13.5-7.2-10.1-2-12.5-7.5S118 91 114.8 87s-9.7-9.7-16.9-9.4-13.7 3.5-18.8 3.9-16.1 1.6-19.7 2.1-18.9 1.9-20.9 6-1.2 7.9 2.7 11.3 6.6 3.4 7.2 8.6-.1 11.2.4 15.4 2.4 10.9 8.5 15.4 13.5 8.1 17.6 8.3 12 .6 13.9-5.3 4.7-9.9 9-11.1 6.9-2.5 12.7-1.1 7.9 5.1 9.4 7.3 4.4 6 7.7 7.6 7.7 4.2 9 7.1 4.6 8.3 7.2 10l4 2.8z"/>
        <path fill="none" stroke="#4d432e" d="M118.7 126.6c2.9 1.5 8.7 4.8 11.3 5.2s6.2 1.9 7.7-2.3 1.6-5.6-1.8-8-13.7-4.3-18-6.6-8.2-4.6-9-10-.2-10.8-3.3-14.6-5.7-6.1-14.2-4.3-6.9 3.3-14.1 3.7-15.3-.2-17.3.1-6.1.6-6.8 4.4 1.2 6.5 3.7 9.8 1 11 1 11-1.8 6.5-1 9.4c1.1 3.9 3.5 7.2 6.9 9.4 4.2 2.6 5.1 4.7 11.7 3.3s10-7.7 12.6-9.5 7-6.7 13.7-6 16.9 5 16.9 5z"/>
        <path fill="none" stroke="#4d432e" d="M74.5 129c3.9 0 6.7-4.2 7.5-5.5 1-1.8 1.7-3.8 1.9-5.8.2-2.3-.1-4.3 1.6-4.7s3.6.5 5.9.2 7-.9 8-4.4 1.4-7.7-2.2-12-7.6-3.7-8.7-3.1c-2.1 1.1-4.3 2-6.6 2.8-2.8.6-5.7.7-8.5.3-2.5-.4-5.7 1.5-6.5 3.5s-2.8 3.2-2 6.5 1.6 5.5 1.8 6.8.8 4.4-.1 7.1.8 6.6 2.3 7.4c1.8.7 3.7 1 5.6.9z"/>
        <path fill="none" stroke="#4d432e" d="M82.3 104.1c-.2 2.4 1.6 4.6 4 4.8h.7c2.8-.2 4.4-2.7 4-5.5s-2.7-4.2-5.7-3.9-2.9 2.8-3 4.6zm283.3 26.1c9-.4 12.2-.3 20.6 2.5 9.3 3.2 14.5 12.5 18 18.5s7.6 9.9 11.4 11.7 5.3 2.4 9 5.9 2.9 5.3 5.7 6.5 3.7 1 9 2.9 6.1 5.3 5.3 7.1-5.3 1-9 0-10.8-7.6-11.6-8.6-7.3-6.7-10.6-7.1c-4.2-.6-8.4-1.5-12.5-2.7-5.3-1.6-11.8-13.1-11.8-13.1-3.9-3.6-6.6-2.4-9.2-1.8l-11.2 2.9"/>
        <path fill="none" stroke="#4d432e" d="M369.7 166.7c2.8.8 5.4 2.1 7.8 3.7 4.1 2.7 8 7.8 12.2 17.6s10.8 14.5 17.6 14.7 13.3-.8 16.9-4.1 7.3-2.5 11.4-.4 9 4.1 14.1 2.5 10.2-7.1 14.7-7.3 8.2-.6 10.2 3.7 4.3 6.5 9.6 7.1 9 1.2 12.2 5.1 8.6 9.8 11.6 10.2 7.4.8 9.6 1.2 11 4.3 14.9 7.6 13.9 7.6 17.8 7.6 10.6.4 12.3-4.1 1.6-7.6-4.3-11-13.5-8.8-15.1-11.8-7.8-10.8-13.1-13.1-16.9-5.7-22.1-8.4-9.8-12.7-10.8-15.7-4.7-16.3-15.1-16.3c-3.2 0-2.9 3.3-9.2 5.7s-7.8 1-11.4 1.8-8.2 7.4-12 7.6-7.6 1-14.5-6.9-9.8-7.4-12.7-8.8c-5.8-2.8-10.8-7-14.3-12.4-6.6-11.1-16.9-19.5-29.1-23.6M366.8 189c2 .3 6.1 1.4 7.3.8s2.6-1.4 1.9-4.4-5-3.6-5.4-3.9"/>
        <path fill="none" stroke="#4d432e" d="M398.1 183.1s4 2.8 4.6 4.2 2 6.5 3.8 6.7 4.5 1.2 9.6-.6 6.4-3.5 6.7-4 .9-2.2-2.3-3.6c-2.9-1.3-5.8-2.9-8.4-4.7-2.1-1.5-3.5-3.3-7.1-3-2.4.1-4.7.6-7 1.3-1.3.5-1.2 2.7.1 3.7zm102.1 15l7.4 3.5c2.6 1.4 4.4 2.8 6.2 2.6s4.7-.7 0-4.1-8.7-6.9-12.1-8.8-7.5-5.1-8.1-6.2c-1.1-2.3-2.7-4.3-4.7-6-2.5-1.9-4.1-3.2-6.9-3.4-3.7-.3-7.3-1.3-10.7-2.9-3.4-1.8-9.3-.7-11.5 1.5-1.6 1.6-2.5 7.2-2.4 9.8s.7 4.4 4 4 8.2-3.9 9.4-4.3c2.4-.8 5.1-.4 7.1 1.2 2.2 1.8 3.8 4.2 4.6 6.9.7 2.3 5.2 4.7 6.9 5.1 2 .5 3.2 1 5.1.7s4-.6 5.7.4zm40 26c1.8.6 4.7 1.5 5.7 1s.7-1.5-1.6-2.5c-1.8-.9-3.8-1.5-5.9-1.6-1.9 0-.1 2.5 1.8 3.1zm10-22.2c2 1.1 4 2.5 5.7 4 1.4 1.3 2.3 3.5 4.8 3.4s5.1-.9 5.4-5c.3-3.6-1.2-7.1-4-9.3-2.5-1.9-5.4-3.4-11.9-1.8s-10 3.4-6.3 5.6 3.9 1.7 6.3 3.1zm-179.6 32.4c3.5 2.7 6.6 3.8 10.8 6 5.4 2.8 10.6 1.2 14.7 0s10-6.9 12.2-9 4.3-2.5 7.2-2.8 5.3-2.9 3.2-7-6.6-2.5-8.7-2.4-9.2 2.1-13 2.4-6.7-2.5-9.6-4.9-10-3.3-13.3-4.8c-1-.5-1.3-1.3-2.2-2"/>
        <path fill="none" stroke="#4d432e" d="M379.5 230.8c1.3 1.8 3.3 3.9 6.1 4.2 4.1.6 8.4.9 10 0s5.3-3.5 1.5-6.8c-2.1-1.9-1.7 0-6.2-1s-6.3-2.1-8.4-4.9-5.3-1.8-5.4 2.1c-.3 2.5 1.1 4.6 2.4 6.4zm35.4 19.9s2.1 1.3 4.6-.9 3-4 2.9-4.8c-.5-1.1-1.8-1.6-2.9-1.2-1.1.6-2.7 1.9-4.6 2.1s-3.5-.2-3.5 1.5 1.8 3 3.5 3.3z"/>
        <path fill="none" stroke="#4d432e" d="M371.5 262.8c3.2 1.2 7.1 2.4 10.3 4.3 6.8 4.1 6.3 12.9 6.6 18.5.1 4.6 2.4 8.9 6.3 11.5 4.8 3.3 9.3 7 13.5 11 4.3 4.3 8.1 14.1 10 19.3s7.6 11 12.3 10.4 4.1-7.6 4-10.4-.7-5.7-.4-8.5 3.5-10.6 5.1-12.8 7.6-5.7 13.8-7.1 9.1-4.7 10-7.5 5.4-8.5 9.8-10.7 3.7-10.4 1.2-15.4-8.5-5.1-10.9-5.6-6.6-2.1-6.9-4.5-2.8-6.2-5.4-6.7-6.5 0-12.8 5.9c-6.3 5.9-13.4 8.5-22.9 8.7s-18.1-4.1-21.4-5.7-10.8-6.8-17.7-8.8c-1.7-.6-3.4-1-5.2-1.2"/>
        <path fill="none" stroke="#4d432e" d="M399.6 267.8c-3.2.9-4.1 3.7-4.3 7.9s1.8 5.7 3.3 10.3 3.8 5.1 7.9 6.5 4.9 4.1 7.6 8c2.8 3.7 7.2 5.8 11.9 5.6 4.3-.1 7.9-4.6 10.2-7.1s3.6-4.3 7.5-4.9 5.4-2.5 6-4.1c1.3-2.4 3.1-4.5 5.4-6 3.1-1.8 5.5-4.6 6.9-7.9 1.8-4.3-3.2-6.8-5.7-7.8s-4-2.1-7.6-5.6-8.7-.1-11.6 1.6c-4.5 2.6-9.2 4.6-14.2 5.9-5.2 1.2-9.5-.1-13-1.2.2.1-7-2.1-10.3-1.2z"/>
        <path fill="none" stroke="#4d432e" d="M414.6 275.2c-4.1-.4-6.3 0-7.5 5s2.4 8.8 8.5 11.2 14.4 1.5 20.4-.9 9.3-9.6 10.3-13.8-1.5-6.5-4.4-6.8-5.7 2.2-6.9 3.4-6.2 2.6-9.6 3.4c-4.8 1.1-6.6-1.1-10.8-1.5z"/>
        <path fill="none" stroke="#4d432e" d="M420.4 282.1c-1.9 1-2.2 4.1 2.1 4s6.4-1 9.8-3.5-1.3-2.2-2.4-2.1l-4.9.8c-1.2.1-2.7-.3-4.6.8z"/>
        <path fill="none" stroke="#4d432e" d="M370.5 299.5c3.8.6 7.6 1.8 11.1 3.4 11.8 5.4 16.6 11.9 19.7 18.4s8.5 23.7 13.5 30.7 8.7 10.1 12 10c7.4-.2 13.8-5.3 15.7-12.5 2.9-10.7 0-21.2 1.2-27.2s3.4-11.3 11-13.2 14.8-1.3 17.4-6.2 1.9-11.2 7-12.8 11-2.5 12.5-9.8-1.5-11.7-3.5-13.7-8.6-5.4-11.8-10.7c-3.3-5.2-7.4-9.9-12.1-14-4.7-4.3-10.5-5.7-18.1-4.9s-10.7 4.1-13.7 1.2-.1-6.5 2.5-9 7.8-7.6 14.7-9.6 7.8-1.3 11.2 0c3.2 1.3 6.6 2.2 10.1 2.5 2.7.1 6.9 1.3 8.5 3.4s4.6 7.6 10.3 10.1 9 5.2 17.6 4.3c8.6-.9 11-.6 17.2 2.8s17.1 11.2 20.6 11.5 12.6 1.9 18.5 1.2 17.6-2.5 21.9-9.3 5.4-13.7 4-19.4c-1.3-4.7-3.2-9.2-5.7-13.4-1.8-2.6-2.6-6.6-.1-14.4s1.3-12.1-3.1-15.9-15-10.7-19.3-16-4.5-12.9-7-17.1-9-7.6-11.1-8.8-6.9-5.3-8.4-13.8-6.8-14-12.1-15.6-15.9-5.3-18.4-9.6-6.6-13.1-8.4-16.8c-2.7-5.6-7.2-10.1-12.8-12.8-6.9-3.2-11.1-3.3-15.1-2.3s-9.1 4.9-16 5-21.8 3.2-30.7 3.4-16.3 5-17.3 7.2c-1.5 4.3-2.5 8.8-2.8 13.4 0 3.4-1.2 9.3-8.1 9.4-5.3.1-24.3-.7-25.6-2.3m111.2 233.4c-1.8 2.7-.8 8.2 6.7 10s8.2-.8 10.2-2.4 3.9-3.5 5.9-4.1 8.4-2.4 12.9-3.9 1.6-4.9.2-7.3-6.9-2.9-12.5-3.7-13.3 2.2-17.2 4.9c-2.4 1.9-4.4 4.1-6.2 6.5z"/>
        <path fill="none" stroke="#4d432e" d="M497.7 338.3c1 1 3.3.2 5.3-.8s4.3.6 5.5-1-1.2-3.3-2.9-4.3-5.4 1.3-6.7 2.2-2.2 2.9-1.2 3.9zm247.2 88c-8.2 0-7.4 1.5-16.9-.8s-14.1-6.8-19.5-10.4-7.8-8.2-9.4-13 .4-10.8 1.6-14.7 2.7-8.6 2.3-10.9l-.1-2.1c.2-10.6-7.1-14.1-10.8-17.1s-13.5-6.3-17.2-7.4c-6-1.7-11.8-4.2-17.2-7.4-6.9-4.1-11.6-4.3-15.1-3.3s-7.1 7.3-8.6 9c-4.2 4.2-8.7 8.1-13.5 11.6l-10 6.7c-1.4 1-4.7 6.5-4.7 6.5l-.7 3.1c-4.3 8-3.7 13.4-3.1 16.3 1 5.5 1.7 11 2 16.5.2 6 3.6 11.5 9 14.3 6.9 3.7 12.2 3.5 25.5-3.9 9.3-5.2 16.7-3.7 22.3 1.8 2.5 2.4 3.2 4 5.6 8.7 2.8 5.3 10.3 6.3 19.7 6.1s12-7.8 15.1-11 3.3-3.7 8.8-1.2 11 6.5 16.9 9 14.3 3.1 14.3 3.1m-82-108.7c1.2-2 2.5-4 3.9-5.9.6-1 1-2.9-1.6-5.3s-5.9-5.1-9.8-2.7-7.1 6.5-6.7 9.2 1.8 6.5 3.9 7.4 4.1 2 5.9 1.4 3-1.3 4.4-4.1zm47.6-15.8c-1.2 1-1.2 5.1 1.8 7.8s7.1 3.9 9.4 3.3 2.4-2.7 2.4-4.9-3.7-4.2-6.1-5.7c-2.2-1.3-6.3-1.5-7.5-.5zm-49-45.7c3.6.9 9.2 4.7 11.6 8s4.5 6.7 11.4 7.8 13.5-.6 17.1 0 8.6 2.7 11.2 3.1 7.8 2 6.5-3.7-4.9-8.2-10.4-8.8-10.4.4-16.5-5.9-5.9-10.8-6.5-13.7-.6-8.4-9.8-8.8-14.5 2.5-18.2 3.9-8.8 6.9-9.8 10 1 6.3 4.9 6.7c2.9.2 5.7.7 8.5 1.4z"/>
        <path fill="none" stroke="#4d432e" d="M666.4 251.3c-3.3 0-5.7 2.4-8.8 4.9-3.1 2.5-1.2 4.5.8 5.1s4.1-1.2 7.1 0 5.7 1.4 7.8.4.1-5-.4-8c-.2-1.2-3.1-2.4-6.5-2.4z"/>
        <path fill="none" stroke="#4d432e" d="M552.6-7.4c-3.3 6.3-4.5 23.3-3.7 26.9s2.9 6.9 2.7 13.3-4.1 12-6.1 16.1-2.2 11.6-.6 15.9 5.1 10.8 9.8 23.7 3.1 23.5 2.5 29.2.8 9.6 2 11c3.3 3.8 6.8 7.4 10.4 10.8 3.9 3.5 4.7 11.4 4.5 15.1s-.2 7.3 3.7 10.4 13.1 9.4 15.7 11 7.8 8.4 8.6 13.1-.8 16.3-1.2 20.8 1.8 7.3 2.7 10.2-2.5 7.1-3.7 10.8-4.9 10-3.1 14.9 6.9 8.4 14.1 8 12.7-5.1 14.9-6.3 7.1-7.8 15.9-14.1 13.7-13.1 17.8-17.4 2.7-13.9 2.4-16.7c-.7-4.6-1-9.2-1-13.9.2-4.7 3.3-12.2 8-17.4s12-9.8 18.4-10.8c4.7-.8 9.2 2.3 10.1 7 .1.7.2 1.5.1 2.2-.4 4.7-8.2 11.8-11.4 14.1s-6.3 6.3-6.5 10.2 2.5 9.6 3.1 16.9-3.1 5.1-3.1 11.2 5.1 6.7 11.6 7.8 9.4 6.5 11 9.6c2 4.2 4.5 8.1 7.3 11.8 3.8 4.9 10 12.2 19.6 13.1 5.3.5 10.6 1.6 15.7 3.3"/>
        <path fill="none" stroke="#4d432e" d="M747 200.9c-10.6-.8-17.8-4.3-21.2-5.5s-4.7-8.8-5.7-13.7-3.5-8-6.1-9.2-5.5 2.2-7.4 3.9-8 10-7.8 15.5-.8 5.5-2 10.8.6 6.9 2.9 9.6 9.8 4.9 16.9 7.4 7.6 8.8 8 11 2.7 9.4 7.6 12.7c3.4 2.2 7.1 3.8 11 4.9"/>
        <path fill="none" stroke="#4d432e" d="M744.7 211.5c-2.2-2.4-8.8-3.1-11.6-3.3-2.9-.3-5.8-1.1-8.4-2.5-2-1.2-6.3-5.3-8.2-6.3s-6.5-.8-6.5 2.4 4.1 5.7 7.1 7.8 8.2 4.5 13.3 8 3.9 7.3 5.9 10.8 6.9 7.4 6.9 7.4m2.1-53c-3.7-1.9-8.3-.9-10.1-.5s-3.5 2.3.2 5.7c1.7 1.4 3.8 2.3 6 2.6m10.1-70.4c-3.9-.6-15.5.2-19.2.8s-10.2 0-12.5-.4-6.3-1-8.8-1.6-5.1 2.2-10 3.5-7.8 6.1-10 8.6-2.7 9.8-.8 14.7 5.9 4.5 11.4 5.1 10.6 3.5 13.7 5.1 9.4 6.1 12.3 7.8 14.5 3.9 14.5 3.9"/>
        <path fill="none" stroke="#4d432e" d="M747.4 131.1c-5.5-.6-13.3.2-16.9.4s-15.5-1.2-18.8-1c-3.9.3-7.1 3.1-7.8 6.9-.7 4.2 2.4 5.1 4.7 5.5s7.8 2.7 13.5 6.3 5.1 5.5 10.8 5.7c3.6.1 7.1-.9 10.2-2.7m-55.1-42c1.5 1.5 3.9 1.2 5.5.8s-1.2-3.3-3.9-3.3-4.1-1.2-4.5.2 2.5 1.9 2.9 2.3zm53.7-38.1c-5.3-1.4-17.8-6.9-22-8.2s-9.8-.8-12.5-.6-7.1 5.9-9.4 7.3-7.6.8-13.1 1.6-13.1 6.3-13.3 14.5 5.1 10.2 10.8 11.6 10.2.6 17.2 4.3 11.8 7.3 16.3 8.4c5 1.1 10.2 1.7 15.3 1.6l10.8.2"/>
        <path fill="none" stroke="#4d432e" d="M745.6 82.7c-3.7-.9-7.6-1.5-11.4-1.8-5.9-.6-11.7-1.7-17.4-3.3-5.1-1.5-11.2-.8-13.5.4s-6.1 3.5-8.8 4.1-6.1 1.2-6.1 3.9-.2 5.3 6.9 5.5 10.4 3.5 12.5 6.1 6.7 4.5 9.8 5.3 9.8-1 13.9 1.4c2.9 1.6 6 2.8 9.2 3.5"/>
        <path fill="none" stroke="#4d432e" d="M743.7 87.6c-5.8.2-11.6-.6-17.2-2.4-4-1.2-8.1-2-12.3-2.4-3.7-.4-5.9 2.4-3.7 4.9s10.6 5.5 14.9 6.3 15.9 6.5 15.9 6.5M611.4-2.9c-9 11.8-8.2 19.4-7.4 22.9 1 5.5 1.7 11 2 16.5.2 6 3.6 11.5 9 14.3 6.9 3.7 12.2 3.5 25.5-3.9 9.3-5.2 16.7-3.7 22.3 1.8 2.5 2.4 3.2 4 5.6 8.7 2.8 5.3 10.3 6.3 19.7 6.1s12-7.8 15.1-11 3.3-3.7 8.8-1.2 11 6.5 16.9 9 14.3 3.1 14.3 3.1"/>
        <path fill="none" stroke="#4d432e" d="M627.5-.6s-3.6 4.5-4.6 6.1-5.9 7.4-6.4 9.7-1.8 5.7-1 11.7 2.3 11.7 3.7 13.3 3.6 4.4 7.6 3.7 9.3-4.9 12-7.7 6.9-5.3 9.5-5.8 6.2-1.1 8.6.9 6 7 8.1 9.3 8.1 8.8 13.3 9 10.9-.1 13.8-3.6 4.5-6.6 4-13.1-1-12.8-1-15.8.5-8.1 0-9.6c-1.3-3.7-3.3-7-5.9-9.9"/>
        <path fill="none" stroke="#4d432e" d="M646.6.6c-.7 1.3-1.6 2.5-2.6 3.5-1.1.8-10.3 1.8-12.2 3.2s-5.9 2.8-5.9 9 1.1 10.2 2.8 11.4 3 2.5 6.5-.6 6.1-5.5 9.5-5.4 7.5-.5 11.5 1.7c3.9 2.3 7.7 5.1 11.1 8.1 2.2 2 7.7 6.1 10.2 6.1s5.7.7 7.3-2 2.3-4.6 2.2-9.4-1.2-7.4-.9-10.2c.4-2.5 0-5-1.1-7.2-1-1.7-6.1-4.8-10.7-8.8"/>
        <path fill="none" stroke="#4d432e" d="M658.6 11.6c-1 2.9 1.8 4 3.5 4.5s3.2-.7 4.7.4 3.6 4.3 5.8 5.5 3.8 1.6 6 .7 1.4-4.7 1.2-8-2.2-4.7-4.4-5.6c-2.4-.8-4.9-1-7.4-.7-2.6.1-8.4.2-9.4 3.2zm41.6-12.9s2.5 3.2 2.9 5.6c.6 3.6.5 7.3-.4 10.9-1.2 3.9-3.1 9.9-1.6 14.7 1.5 5.3 4.8 9.9 9.4 13 5.4 3.6 10.1 8.1 19.5 10.4s8.6.8 16.9.8"/>
        <path fill="none" stroke="#4d432e" d="M707.8-2.8c.7 1.7 5.1 8.4 4.9 12.7s-3.5 5.4-4.9 9.7.4 8.9 4 12 11.8 6.2 17.7 7.5 14.4.7 14.4.7"/>
        <path fill="none" stroke="#4d432e" d="M725.2-.6c1.1 1.5 1.9 3.2 2.2 5 .4 2.8 1.3 7.4 0 12.1s-1.1 9.5.2 10.7 4.3 1.4 6.4-.2 2.5-3.4 2.6-9.4.9-10.4 5-13.1m-173.3-16s-3.5 15.1-4.1 20.4 2.2 11 4.7 20.1-1 9.4-6.5 15.1-6.8 15-5.1 23.4 9.7 13.8 18.2 15 7.6 3.5 16.5 9.1 14.1 12.6 14.7 17.5-5.3 13.1-11.5 22.2-7.5 13.4-7.1 18.7 4.1 15.9 15 22.9 10.1 15.3 10.9 27.2 4.7 16 7.5 17.5 12.9 5.1 20.6.7 8.4-12.2 9-15.1-.6-14.7 1.8-25.7 10-12.8 17.2-20.4 4.7-11.5 10.7-23.2-1-14.6-4.1-17.3-16.8-6.2-20.7-7.4-7.1-6.6-8.7-11.2c-1.3-4-.5-8.3 2.1-11.6 1.9-2.6 5.1-13.7 5.9-17.3s.1-9.1-4.7-11.8-10.4-.6-12.3-.1-10.6 4-14.7 5.6c-4.1 1.6-7.5 1-13.2.4s-9.6-8.1-10.4-10.7.1-9.1.3-13.1-1.9-8.1-2.8-12.1c-.9-4-1.4-8.2-1.6-12.3 0-2.5 1-8.1 2.2-10.1 1-1.6 2.1-3.2 3.4-4.6"/>
        <path fill="none" stroke="#4d432e" d="M578.8-.9l-3.4 8.5c-1.2 3.1-2.9 10.3-2.2 14.1s4.4 7.5 3.2 14-6 15.1-7.8 18.1-2.9 9.1 1 12.8c4 3.7 8.4 6.8 13.2 9.4 3.2 1.5 10.9 7.6 11.9 9.6s5.3 5.9 9.1 7.6 12.3 5.1 14.8 10.3 4.4 9.3-.4 15.9-14 15.9-15.9 19.1-7.5 9.8-2.2 16 9.7 5.1 14.1 8.2 6.2 5.1 5.4 14-.1 22.3 2.9 26.8 7.8 8.2 13.2 7.5 7.1-6.8 6.6-14.1-3.1-17.5 0-26 7.1-12.6 12.9-15.9 15.4-13.1 15.3-20.6.7-9.3-5.6-11.5-15.7-5.6-20.3-9.6-7.9-6.8-8.1-19.3 1.2-15.3-7.1-20.6-14 3.4-24.5-4.9-14.3-9.3-15.9-15.6 2.8-11.3 1.3-17.9-1.8-9.6-4.4-16.6 2.8-24.4 4-27.5"/>
        <path fill="none" stroke="#4d432e" d="M569.9 90.1c-3.2.1-3.8 2.6-4 5.4s2.1 7.4 2.5 11.3-1.8 9.4-2.5 14.4 2.1 7.6 5.7 10 7.1 1.9 10.9 1.9 6.6-5.1 7.2-6.2 2.4-5.6 4.3-7.8 1.6-4.6 1-9.7-10.3-12.9-13.1-15.4c-3.4-3-8.8-4.1-12-3.9z"/>
        <path fill="none" stroke="#4d432e" d="M576.2 113.2c-.2 2.2 1.8 6.5 3.8 6.3s4.6-2.5 5.3-4.7c1-2.7 0-5.7-2.5-7.1-3.1-2.1-4.6-1.5-5.3-.4s-1.2 3.8-1.3 5.9zm37-26.7c2.1 1.2 3.7 3.7 4.7 6 .7 2.1 2.7 3.5 4.9 3.5 2.1 0 4.4 0 3.5-5s-3.1-6.9-7.3-8.2c-3.1-1-6.1-2.4-8.8-4.3-1.9-1.3-4.2-1.7-6.5-1.3-2.1.6-4 2.4-1.6 3.4s5.9 3.8 7.8 4.3c1.2.3 2.3.9 3.3 1.6zm7.8 45.2c-3.1 3.4-6.9 8.2-9.1 10.3s-1.5 5.3-1.3 7.4 2.9 4.9 4.1 5.4 3.8 1 5.4 2.5 4 5.7 5.9 6.8 3.4 3.4 6.9 2.2 6-4.9 6.8-7.2c.8-2.4 2.2-4.6 4.1-6.2 1.5-1 9.6-9.4 10.7-11s4.1-3.8 2.8-10.4-4.7-6.9-7.4-8.2-8.2-4.7-10.6-7.6-4.7-6.8-8.7-6.2-4 2.1-4 6.5-.3 9.7-1.3 10.7-4.3 5-4.3 5z"/>
        <path fill="none" stroke="#4d432e" d="M620.6 143.4c-.4 2.1-.7 6.9 4.3 8.8s6.8.6 9.6-.9 3.5-4.3 4.7-5.6c2.3-2.6 5-4.8 7.9-6.6 4.1-2.5 2.4-7.5 1.8-9.7s-4.1-3.5-9.4-4.3-6.2 1.3-7.6 3.5-4.3 6.9-6.5 8.5c-1.3 1-4.4 4.3-4.8 6.3zM370.3 81c1.7.4 3.5.7 5.3.8 6.4-.1 11.7-1.8 17.3-3.7 7.5-2.5 23.5-5.7 31.9-7.2s17.9-.7 30.1-6.5 24-5.6 29.5-4.3 14.6 7.6 18.8 21.6 11.6 17.2 15.1 20.4 13.8 3.2 17.3 4.4 11.2 6 13.5-2.5-1.9-13.8-2.9-17.2-7.2-10.9-9.7-18.4-2.4-16.3-2.2-19.8 1.8-17.6 2.6-22.3C538 21.7 538 11 538 6.1c.1-2.7-.5-5.4-1.6-7.8M392 88c-.3-1.8-4.1-1.9-6.3-2.1s-5.6 1.5-8.4 1.6c-1.8.1-5-1.2-6.8-1s-12.7-1.2-16.1-2.3c-4-1.2-8.1-2-12.3-2.4-3.7-.4-5.9 2.4-3.7 4.9s10.6 5.5 14.9 6.3c3.7.7 12.5 4.8 15.1 6.1 4.6 2.6 6.6 1.5 10 1.6s7.6-.3 11-3.2 2.9-7.7 2.6-9.5zM370.4 8.8c.6-.4 3.7-4.4 4.7-12.1m10.6 2.1s1.6 4.6-.3 7.5-4.9 4.1-4.1 7.4 4.7 5 7.5 4.9 7.4-1.2 8.5-6.3c1.4-6.3 1.1-12.9-.7-19.1m13.3 5.4c.4 2.2 1.2 4.3 2.4 6.2 1.8 2.5 4.6 4 6.5 6s8.1 6 10.9 6.5 6.8-.1 8.5-1.8 5.7-5.4 6.6-7.2 5.4-10 5.6-14.4"/>
        <path fill="none" stroke="#4d432e" d="M369.1 38.9l6.4-.4c1.9-.2 11.2-1 13.7-2.9 4.1-2.9 8.4-5.5 12.9-7.8 2.9-1.3 8.2-3.7 12.2-3.7s10 .3 14.8.7 11.8.7 15.7-.6 10.1-3.4 13.7-9.7S465.1-.2 465-6.1"/>
        <path fill="none" stroke="#4d432e" d="M374.4 53.1c4.2-.2 11.9-.5 17.2-4.1s11-7.2 14.4-7.8 7.2-2.8 12.9-1.3 8.2 3.1 15.1 2.6 13.5-1 17.2-3.1 8.2-6.3 11.5-8.2 5.6-4.6 10-4 7.8 3.7 11.5 4 8.2 1.2 11.6-2.4 6.2-6.5 7.1-11.6.9-14.7 1.2-18.8"/>
        <path fill="none" stroke="#4d432e" d="M369.4 62.4s3 .3 6.5.4 6.9.1 9.7-.9 7.4-3.8 13.1-5.1 10.9-2.4 15.6-1.8 10.7 2.2 19.7.4 16-3.7 20.9-6.5 7.9-6.3 11.6-6.6 7.2-1.2 15.9 1.9 19.1 9.4 22.1 10.1 8.7 4.4 11-.9 1.2-14.4.7-17.6-1.9-22.5-1.9-25.6l.1-21.2"/>
        <path fill="none" stroke="#4d432e" d="M368.7 70.9c3.7.4 7.3 3.6 10.1 3.4s4-.3 9.7-2.1 14-5.4 17.3-6.9 9.7-2.2 16.2-1.8c6.1.4 12.2.2 18.2-.6 5.4-.7 12.8-6.3 21.5-9.1s17.8-2.1 22.5-1.3 11.2 5.9 18.2 12.6 8.7 15.1 15.6 22.5 11.3 8.4 15.7 8.7 6.5-3.1 6.5-5-3.5-6.2-6.9-11-5.3-10.7-6.8-18.4.1-27.2.6-31.5c.6-7.4.8-14.7.6-22.1-.3-3-2.5-10.1-2.5-10.1m-50.6-2.5S473 3.6 472.8 6s-.1 5.9 1.8 6.6 4.3 1.3 8.5-.1 7.9-4 9-5.4c1.8-2.1 3-4.7 3.4-7.5m129.4 229.3c.3-3.1-1.9-1.6-6.6 0s-4.9 2.7-7.9 4.6-2.3 4.7-1 7.1 3.2 2.9 6 2.2 4.3-3.3 5.4-5.2c1.9-2.6 3.3-5.6 4.1-8.7z"/>
        <path fill="none" stroke="#4d432e" d="M519.8 166.9c3.6 2.1 9.1 5.7 13.3 6.1s7.5 1.8 11.1-.5 4.8-6 2.7-10.6-7.7-8.5-10.2-10.1-10.9-7-13.2-12.7-.6-13.5-4.2-18.9-11.2-6.2-13.5-7.2-10.1-2-12.5-7.5S490 92 486.8 88s-9.7-9.7-16.9-9.4-13.7 3.5-18.8 3.9-16.1 1.6-19.7 2.1-18.9 1.9-20.9 6-1.2 7.9 2.7 11.3 6.6 3.4 7.2 8.6-.1 11.2.4 15.4 2.4 10.9 8.5 15.4 13.5 8.1 17.6 8.3 12 .6 13.9-5.3 4.7-9.9 9-11.1 6.9-2.5 12.7-1.1 7.9 5.1 9.4 7.3 4.4 6 7.7 7.6 7.7 4.2 9 7.1 4.6 8.3 7.2 10l4 2.8z"/>
        <path fill="none" stroke="#4d432e" d="M490.7 127.6c2.9 1.5 8.7 4.8 11.3 5.2s6.2 1.9 7.7-2.3 1.6-5.6-1.8-8-13.7-4.3-18-6.6-8.2-4.6-9-10-.2-10.8-3.3-14.6-5.7-6.1-14.2-4.3-6.9 3.3-14.1 3.7-15.3-.2-17.3.1-6.1.6-6.8 4.4 1.2 6.5 3.7 9.8 1 11 1 11-1.8 6.5-1 9.4c1.1 3.9 3.5 7.2 6.9 9.4 4.2 2.6 5.1 4.7 11.7 3.3s10-7.7 12.6-9.5 7-6.7 13.7-6 16.9 5 16.9 5z"/>
        <path fill="none" stroke="#4d432e" d="M446.5 130c3.9 0 6.7-4.2 7.5-5.5 1-1.8 1.7-3.8 1.9-5.8.2-2.3-.1-4.3 1.6-4.7s3.6.5 5.9.2 7-.9 8-4.4 1.4-7.7-2.2-12-7.6-3.7-8.7-3.1c-2.1 1.1-4.3 2-6.6 2.8-2.8.6-5.7.7-8.5.3-2.5-.4-5.7 1.5-6.5 3.5s-2.8 3.2-2 6.5 1.6 5.5 1.8 6.8.8 4.4-.1 7.1.8 6.6 2.3 7.4 2.9.9 5.6.9z"/>
        <path fill="none" stroke="#4d432e" d="M454.3 105.1c-.2 2.4 1.6 4.6 4 4.8h.7c2.8-.2 4.4-2.7 4-5.5s-2.7-4.2-5.7-3.9-2.9 2.8-3 4.6zm292.2 26c4.7-.1 9.3.8 13.6 2.6 9 3.9 14.5 12.5 18 18.5s7.6 9.9 11.4 11.7 5.3 2.4 9 5.9 2.9 5.3 5.7 6.5 3.7 1 9 2.9 6.1 5.3 5.3 7.1-5.3 1-9 0-10.8-7.6-11.6-8.6-7.3-6.7-10.6-7.1c-4.2-.6-8.4-1.5-12.5-2.7-5.3-1.6-11.8-13.1-11.8-13.1-3.9-3.6-9.2-6.6-11.7-6-2.9 1-5.7 2.1-8.4 3.5"/>
        <path fill="none" stroke="#4d432e" d="M741.7 167.7c3.5.6 6.8 1.8 9.9 3.6 4.1 2.7 8 7.8 12.2 17.6s10.8 14.5 17.6 14.7 13.3-.8 16.9-4.1 7.3-2.5 11.4-.4 9 4.1 14.1 2.5 10.2-7.1 14.7-7.3 8.2-.6 10.2 3.7 4.3 6.5 9.6 7.1 9 1.2 12.2 5.1 8.6 9.8 11.6 10.2 7.4.8 9.6 1.2 11 4.3 14.9 7.6 13.9 7.6 17.8 7.6 10.6.4 12.3-4.1 1.6-7.6-4.3-11-13.5-8.8-15.1-11.8-7.8-10.8-13.1-13.1-16.9-5.7-22.1-8.4-9.8-12.7-10.8-15.7-4.7-16.3-15.1-16.3c-3.2 0-2.9 3.3-9.2 5.7s-7.8 1-11.4 1.8-8.2 7.4-12 7.6-7.6 1-14.5-6.9-9.8-7.4-12.7-8.8c-5.8-2.8-10.8-7-14.3-12.4-4.9-7.4-8.6-12.3-16.9-17.8s-12.9-6.5-25.3-5.6m-.2 70.3c2 .3 7.2 1.2 8.4.6s2.6-1.4 1.9-4.4-4.8-3.8-5.4-3.9"/>
        <path fill="none" stroke="#4d432e" d="M772.1 184.1s4 2.8 4.6 4.2 2 6.5 3.8 6.7 4.5 1.2 9.6-.6 6.4-3.5 6.7-4 .9-2.2-2.3-3.6c-2.9-1.3-5.8-2.9-8.4-4.7-2.1-1.5-3.5-3.3-7.1-3-2.4.1-4.7.6-7 1.3-1.3.5-1.2 2.7.1 3.7zm102.1 15s5.5 2.5 7.3 3.5c2.6 1.4 4.4 2.8 6.2 2.6s4.7-.7 0-4.1-8.7-6.9-12.1-8.8-7.5-5.1-8.1-6.2c-1.1-2.3-2.7-4.3-4.7-6-2.5-1.9-4.1-3.2-6.9-3.4-3.7-.3-7.3-1.3-10.7-2.9-3.4-1.8-9.3-.7-11.5 1.5-1.6 1.6-2.5 7.2-2.4 9.8s.7 4.4 4 4 8.2-3.9 9.4-4.3c2.4-.8 5.1-.4 7.1 1.2 2.2 1.8 3.8 4.2 4.6 6.9.7 2.3 5.2 4.7 6.9 5.1 2 .5 3.2 1 5.1.7s4.1-.6 5.8.4zm40 26c1.8.6 4.7 1.5 5.7 1s.7-1.5-1.6-2.5c-1.8-.9-3.8-1.5-5.9-1.6-1.9 0-.1 2.5 1.8 3.1zm10-22.2c2 1.1 4 2.5 5.7 4 1.4 1.3 2.3 3.5 4.8 3.4s5.1-.9 5.4-5c.3-3.6-1.2-7.1-4-9.3-2.5-1.9-5.4-3.4-11.9-1.8s-10 3.4-6.3 5.6 3.9 1.7 6.3 3.1z"/>
        <path fill="none" stroke="#4d432e" d="M744.2 200.9s2.9-.7 7.2 1.1 11.3 6.2 15.3 8.4 6.9 3.8 11.8 3.5c6.3-.5 12.5-1.7 18.6-3.5 5.4-1.8 11.4-1 15.2 0 4.4.8 9 .8 13.4 0 1.1-.2 2.2-.6 3.2-1 1.3-.6 5.6-4.2 10.7-4s9.6 4.1 10.7 5 6.2 4.1 7.8 4.4 6.6 2.1 7.9 3.7 2.5 6.9 5 9.8 6.3 6.2 10.9 6.2 6.4-1.2 8.3-1.3 6 0 8.2 2.1 10.4 6.6 12.5 7.5 10.7 3.8 17.3 3.4c5.8-.5 11.4-2.4 16.4-5.3 2.8-1.8 9.1-5 7.5-14.4s-4.1-15.1-4.3-17.6 3.5-11.9-1.6-17.6-9.5-6.5-16.4-6.8-19 .4-22.1 0-12.5-2.2-18.5-8.4-8.8-11.6-12.1-13.2-9.4-5.3-12.2-8.8-1.8-7.4-6-10.1-8.2-4.9-12.5-2.5-1.6 10-5.1 12.5-15.1 5-19 4.7-10.9-3.8-14.3-6.3-11.6-9.3-14.7-12.8-11.2-13.5-13.5-15.1-8.1-6-15.9-7.9-12.2-3.2-24.3-3.5m2.3 121.7c5.2 4.8 8.1 3.7 13.6 6.5s10.6 1.2 14.7 0 10-6.9 12.2-9 4.3-2.5 7.2-2.8 5.3-2.9 3.2-7-6.6-2.5-8.7-2.4-9.2 2.1-13 2.4-6.7-2.5-9.6-4.9c-2.7-2.1-11.7-4-15.7-5.5l-2-1.4"/>
        <path fill="none" stroke="#4d432e" d="M753.5 231.8c1.3 1.8 3.3 3.9 6.1 4.2 4.1.6 8.4.9 10 0s5.3-3.5 1.5-6.8c-2.1-1.9-1.7 0-6.2-1s-6.3-2.1-8.4-4.9-5.3-1.8-5.4 2.1c-.3 2.5 1.1 4.6 2.4 6.4zm35.4 19.9s2.1 1.3 4.6-.9 3-4 2.9-4.8c-.5-1.1-1.8-1.6-2.9-1.2-1.1.6-2.7 1.9-4.6 2.1s-3.5-.2-3.5 1.5 1.8 3 3.5 3.3z"/>
        <path fill="none" stroke="#4d432e" d="M743.6 263.8c3.5 1.2 8.3 1.8 12.2 4.2 6.8 4.1 6.3 12.9 6.6 18.5.1 4.6 2.4 8.9 6.3 11.5 4.8 3.3 9.3 7 13.5 11 4.3 4.3 8.1 14.1 10 19.3s7.6 11 12.3 10.4 4.1-7.6 4-10.4-.7-5.7-.4-8.5 3.5-10.6 5.1-12.8 7.6-5.7 13.8-7.1 9.1-4.7 10-7.5 5.4-8.5 9.8-10.7 3.7-10.4 1.2-15.4-8.5-5.1-10.9-5.6-6.6-2.1-6.9-4.5-2.8-6.2-5.4-6.7-6.5 0-12.8 5.9c-6.3 5.9-13.4 8.5-22.9 8.7s-18.1-4.1-21.4-5.7-10.8-6.8-17.7-8.8c-2.3-.7-6-.8-7.2-1.3"/>
        <path fill="none" stroke="#4d432e" d="M773.6 268.8c-3.2.9-4.1 3.7-4.3 7.9s1.8 5.7 3.3 10.3 3.8 5.1 7.9 6.5 4.9 4.1 7.6 8c2.8 3.7 7.2 5.8 11.9 5.6 4.3-.1 7.9-4.6 10.2-7.1s3.6-4.3 7.5-4.9 5.4-2.5 6-4.1c1.3-2.4 3.1-4.5 5.4-6 3.1-1.8 5.5-4.6 6.9-7.9 1.8-4.3-3.2-6.8-5.7-7.8s-4-2.1-7.6-5.6-8.7-.1-11.6 1.6c-4.5 2.6-9.2 4.6-14.2 5.9-5.2 1.2-9.5-.1-13-1.2.2.1-7-2.1-10.3-1.2z"/>
        <path fill="none" stroke="#4d432e" d="M788.6 276.2c-4.1-.4-6.3 0-7.5 5s2.4 8.8 8.5 11.2 14.4 1.5 20.4-.9 9.3-9.6 10.3-13.8-1.5-6.5-4.4-6.8-5.7 2.2-6.9 3.4-6.2 2.6-9.6 3.4c-4.8 1.1-6.6-1.1-10.8-1.5z"/>
        <path fill="none" stroke="#4d432e" d="M794.4 283.1c-1.9 1-2.2 4.1 2.1 4s6.4-1 9.8-3.5-1.3-2.2-2.4-2.1l-4.9.8c-1.2.1-2.7-.3-4.6.8z"/>
        <path fill="none" stroke="#4d432e" d="M743.2 300.7c4.3.5 8.5 1.6 12.4 3.3 11.8 5.4 16.6 11.9 19.7 18.4s8.5 23.7 13.5 30.7 8.7 10.1 12 10c7.4-.2 13.8-5.3 15.7-12.5 2.9-10.7 0-21.2 1.2-27.2s3.4-11.3 11-13.2 14.8-1.3 17.4-6.2 1.9-11.2 7-12.8 11-2.5 12.5-9.8-1.5-11.7-3.5-13.7-8.6-5.4-11.8-10.7c-3.3-5.2-7.4-9.9-12.1-14-4.7-4.3-10.5-5.7-18.1-4.9s-10.7 4.1-13.7 1.2-.1-6.5 2.5-9 7.8-7.6 14.7-9.6 7.8-1.3 11.2 0c3.2 1.3 6.6 2.2 10.1 2.5 2.8.1 6.9 1.3 8.5 3.4s4.6 7.6 10.3 10.1 9 5.2 17.6 4.3 11-.6 17.2 2.8 17.1 11.2 20.6 11.5 12.6 1.9 18.5 1.2 17.6-2.5 21.9-9.3 5.4-13.7 4-19.4c-1.2-4.7-3.2-9.2-5.7-13.4-1.8-2.6-2.6-6.6-.1-14.4s1.3-12.1-3.1-15.9-15-10.7-19.3-16-4.5-12.9-7-17.1-9-7.6-11.1-8.8-6.9-5.3-8.4-13.8-6.8-14-12.1-15.6-15.9-5.3-18.4-9.6-6.6-13.1-8.4-16.8c-2.7-5.6-7.2-10.1-12.8-12.8-6.9-3.2-11.1-3.4-15.1-2.4s-9.1 4.9-16 5-21.8 3.2-30.7 3.4-16.3 5-17.3 7.2c-1.5 4.3-2.5 8.8-2.8 13.4 0 3.4-1.2 9.3-8.1 9.4s-21.2-.1-27.9-2.2m31.9 276c3.3-19.8-6.1-39.2-7.1-41.2s-3.7-8.8-8-9.8-2.5 2-1 4.9c1.7 3.4 2.6 7 2.7 10.8 0 3.1-.2 8.2.6 11.4s2.2 6.9 2.2 9c-.3 2.5-.7 4.9-1.4 7.3 0 0-.3 3.9-1.2 5.3-1.9 2.9-4.2 4.3-3.5 7.6s4.7 5 7.5 4.9 7.3-1.2 8.5-6.3l.7-3.9zm100.4-22.7c1.4-4.1 2.7-7.8 4.9-9s8.2-1.8 17.2-4.1 3.7-12.2 2.2-14.5-4.9-8.6-17.1-9.6-21.8 4.9-26.5 6.9-10.4 10.2-10.4 15.3 4.9 5.9 5.7 17.2l-1 6s-1.6 7.9-1.8 10.3-.1 5.9 1.8 6.6 7 1 11.2-.4 12.4-20.6 13.8-24.7z"/>
        <path fill="none" stroke="#4d432e" d="M852.7 340.7c-1.8 2.7-.8 8.2 6.7 10s8.2-.8 10.2-2.4 3.9-3.5 5.9-4.1 8.4-2.4 12.9-3.9 1.6-4.9.2-7.3-6.9-2.9-12.5-3.7-13.3 2.2-17.2 4.9c-2.4 1.9-4.4 4.1-6.2 6.5z"/>
        <path fill="none" stroke="#4d432e" d="M871.7 339.3c1 1 3.3.2 5.3-.8s4.3.6 5.5-1-1.2-3.3-2.9-4.3-5.4 1.3-6.7 2.2-2.2 2.9-1.2 3.9zM1040 497.4c-.8-.4-1.7-.8-2.6-1.1-6.3-2.2-15.7-5.6-20.3-9.6s-8-6.8-8.1-19.3 1.1-15.3-7.1-20.6-13.9 3.3-24.5-4.9-14.3-9.3-15.9-15.6 2.8-11.3 1.3-17.9-1.8-9.5-4.4-16.6c0 0-5.8-16 2-22.8 2.2-1.9 7.4-8.6 9.9-12.9s7.3-14.3 6.9-23.5-4.3-18-16.1-20-22.1-.4-29.2-4.1-8-8.9-7.6-11.8-.4-8.4-8.2-12.3-8.2-6.3-6.3-9.4c1.2-2 5.1-1 8.6-1l18.8-.4c2.9 0 6.4.6 3.9 2.4s-10.4 6.5-10.6 9.4-1.6 9.2 8 13.5c7.2 3.2 14.9 4.8 22.7 4.9 5.1.2 16.7 1 20.8 5.9s6.5 8.4 5.3 15.1-2.5 11.2 2.4 10.2 10.9-6.7 12.5-11.2 3.2-14.1-8.6-20-25.1-6.7-30.6-7.3-11.2-1.9-13.7-3.5-1.9-4.5 1-5.9 7.9-5.1 12.2-4.9 10.2 2.8 14.3 4.7 10.4 4.5 16.1 2.9 11.6-6.3 19-5.7 10.7 5.8 12.5 7.8c1.8 2 5.9 8.2 11 8.4 1.5 0 3.1 0 4.6-.2"/>
        <path fill="none" stroke="#4d432e" d="M1040 236.8c-3.5.4-6.9 1.1-10.3 2.1-7.4 2.1-13.7 11.1-19 18.4-5.3 7.3-13.9 9.4-21.2 9.4s-11.8-5.7-14.7-6.9-10.6-1-13.1-.8-15.1 4.9-19.4 7.4-12.4 3.5-16.5 3.1-15.1-6.2-18-7.8-13.5-7.4-17.2-8.4-9.8 1.6-9.6 7.1 5.1 10.2 9.4 14.9 14.1 9.5 18.6 16.9 1.6 10.4.8 12.5-2.4 5.1 2.5 9 11.2 4.3 18.6 4.5 12.1-.8 19-.2 11.7 6.3 13.5 15.3-1.2 16.3-2.2 19-2.9 9.6-7.3 15.1c-8.1 10-9.6 13.9-8.2 27.7.4 3.9 4.4 7.5 3.2 14s-6 15.2-7.8 18.1-3 9.1 1 12.8c4 3.7 8.4 6.8 13.2 9.4 3.2 1.5 10.9 7.7 11.9 9.6s5.3 5.8 9.1 7.6 12.3 5.1 14.8 10.3 4.5 9.3-.4 15.9-14 15.9-15.9 19.1-7.5 9.8-2.2 16 9.7 5.1 14.1 8.2 6.1 5.2 5.4 14-.2 22.4 2.9 26.8 7.8 8.2 13.2 7.5 7-6.7 6.6-14.1-3.1-17.5 0-26 7-12.6 12.9-15.9c4.9-3 9.1-7.1 12.3-12"/>
        <path fill="none" stroke="#4d432e" d="M1040 360.3c-2.8-.8-6-1.9-8.5-2.9-4.5-1.8-8-3.3-12-3.1s-7.8 3.5-10.2 4.9-7.6 7.8-9.4 10.6-4.9 9-4.9 9c-1 1.6-5.9 7.4-6.4 9.7s-1.8 5.7-1 11.7 2.3 11.7 3.7 13.3 3.6 4.4 7.6 3.7 9.3-4.9 12-7.7 6.9-5.3 9.5-5.8 6.2-1.1 8.6.9 8.9 11.1 11 13.4m-6.8-89.9c1.2-2 2.5-4 3.9-5.9.6-1 1-2.9-1.6-5.3s-5.9-5.1-9.8-2.7-7.1 6.5-6.7 9.2 1.8 6.5 3.9 7.4 4.1 2 5.9 1.4 3-1.3 4.4-4.1zm6.8-56.9c-2.4-2.1-5.2-3.6-8.2-4.6-2.8-.7-5.6-1.2-8.5-1.4-3.9-.4-5.9-3.6-4.9-6.7s6.1-8.6 9.8-10c2.7-1 6.4-2.9 11.8-3.6"/>
        <path fill="none" stroke="#4d432e" d="M1040.4 252.3c-3.3 0-5.7 2.4-8.8 4.9-3.1 2.5-1.2 4.5.8 5.1s4.1-1.2 7.1 0M926.6-6.4c-3.3 6.3-4.5 23.3-3.7 26.9s2.9 6.9 2.7 13.3-4.1 12-6.1 16.1-2.2 11.6-.6 15.9 5.1 10.8 9.8 23.7 3.1 23.5 2.5 29.2.8 9.6 2 11c3.3 3.8 6.8 7.4 10.4 10.8 3.9 3.5 4.7 11.4 4.5 15.1s-.2 7.3 3.7 10.4 13.1 9.4 15.7 11 7.8 8.4 8.6 13.1-.8 16.3-1.2 20.8 1.8 7.3 2.7 10.2-2.5 7.1-3.7 10.8-4.9 10-3.1 14.9 6.9 8.4 14.1 8 12.7-5.1 14.9-6.3 7.1-7.8 15.9-14.1 13.7-13.1 17.8-17.4 2.7-13.9 2.4-16.7-1.2-9.2-1-13.9c.2-3.6 2-9 5.1-13.6m0-119c-.8-1.5-1.9-2.9-3.2-4.1-5.6-5.5-13-7-22.3-1.8-13.3 7.4-18.6 7.6-25.5 3.9-5.4-2.8-8.8-8.3-9-14.3-.3-5.5-1-11-2-16.5-.8-3.3-1.5-10.3 6-21l1.4-1.9"/>
        <path fill="none" stroke="#4d432e" d="M1001.5.4s-3.6 4.5-4.6 6.1-5.9 7.4-6.4 9.7-1.8 5.7-1 11.7 2.3 11.7 3.7 13.3 3.6 4.4 7.6 3.7 9.3-4.9 12-7.7 6.9-5.3 9.5-5.8c2.6-.5 6.2-1.1 8.6.9s6 7 8.1 9.3"/>
        <path fill="none" stroke="#4d432e" d="M1020.6 1.6c-.7 1.3-1.6 2.5-2.6 3.5-1.1.8-10.3 1.8-12.2 3.2s-5.9 2.8-5.9 9 1.1 10.2 2.8 11.4 3 2.5 6.5-.6 6.1-5.5 9.5-5.4 7.5-.5 11.5 1.7c3.5 2.1 6.7 4.4 9.8 7m0-21.9c-2.8.2-6.6.7-7.4 3.1-1 2.9 1.8 4 3.5 4.5 1.5.4 2.7-.3 3.9 0m-10 93.1c-4-1.2-7.1-6.6-8.7-11.2-1.3-4-.5-8.3 2.1-11.6 1.9-2.6 5.1-13.7 5.9-17.3s.1-9.1-4.7-11.8-10.4-.6-12.3-.1-10.6 4-14.7 5.6c-4.1 1.6-7.5 1-13.2.4s-9.6-8.1-10.4-10.7.1-9.1.3-13.1-1.9-8.1-2.8-12.1c-.9-4-1.4-8.2-1.6-12.3 0-2.5 1-8.1 2.2-10.1 1-1.6 2.1-3.2 3.4-4.6"/>
        <path fill="none" stroke="#4d432e" d="M942.3-10.5s-3.5 15.1-4.1 20.4 2.2 11 4.7 20.1-1 9.4-6.5 15.1-6.8 15-5.1 23.4 9.7 13.8 18.2 15 7.6 3.5 16.5 9.1 14.1 12.6 14.7 17.5-5.3 13.1-11.5 22.2-7.5 13.4-7.1 18.7 4.1 15.9 15 22.9 10.1 15.3 10.9 27.2 4.7 16 7.5 17.5 12.9 5.1 20.6.7 8.4-12.2 9-15.1-.6-14.7 1.8-25.7c2-9 7.3-11.8 13.1-16.6"/>
        <path fill="none" stroke="#4d432e" d="M1040 124.3l-1.1-.4c-6.3-2.2-15.7-5.6-20.3-9.6s-7.9-6.8-8.1-19.3 1.2-15.3-7.1-20.6-14 3.4-24.5-4.9-14.3-9.3-15.9-15.6 2.8-11.3 1.3-17.9-1.8-9.6-4.4-16.6 2.8-24.4 4-27.5"/>
        <path fill="none" stroke="#4d432e" d="M952.8.1l-3.4 8.5c-1.2 3.1-2.9 10.3-2.2 14.1s4.4 7.5 3.2 14-6 15.1-7.8 18.1-2.9 9.1 1 12.8c4 3.7 8.4 6.8 13.2 9.4 3.2 1.5 10.9 7.6 11.9 9.6s5.3 5.9 9.1 7.6 12.3 5.1 14.8 10.3 4.4 9.3-.4 15.9-14 15.9-15.9 19.1-7.5 9.8-2.2 16 9.7 5.1 14.1 8.2 6.2 5.1 5.4 14-.1 22.3 2.9 26.8 7.8 8.2 13.2 7.5 7.1-6.8 6.6-14.1-3.1-17.5 0-26 7.1-12.6 12.9-15.9c4.2-2.6 7.9-6 10.8-10"/>
        <path fill="none" stroke="#4d432e" d="M943.9 91.1c-3.2.1-3.8 2.6-4 5.4s2.1 7.4 2.5 11.3-1.8 9.4-2.5 14.4 2.1 7.6 5.7 10 7.1 1.9 10.9 1.9 6.6-5.1 7.2-6.2 2.4-5.6 4.3-7.8 1.6-4.6 1-9.7-10.3-12.9-13.1-15.4c-3.4-3-8.8-4.1-12-3.9z"/>
        <path fill="none" stroke="#4d432e" d="M950.2 114.2c-.2 2.2 1.8 6.5 3.8 6.3s4.6-2.5 5.3-4.7c1-2.7 0-5.7-2.5-7.1-3.1-2.1-4.6-1.5-5.3-.4s-1.2 3.8-1.3 5.9zm37-26.7c2.1 1.2 3.7 3.7 4.7 6 .7 2.1 2.7 3.5 4.9 3.5 2.1 0 4.4 0 3.5-5s-3.1-6.9-7.3-8.2c-3.1-1-6.1-2.4-8.8-4.3-1.9-1.3-4.2-1.7-6.5-1.3-2.1.6-4 2.4-1.6 3.4s5.9 3.8 7.8 4.3c1.2.3 2.3.9 3.3 1.6zm7.8 45.2c-3.1 3.4-6.9 8.2-9.1 10.3s-1.5 5.3-1.3 7.4 2.9 4.9 4.1 5.4 3.8 1 5.4 2.5 4 5.7 5.9 6.8 3.4 3.4 6.9 2.2 6-4.9 6.8-7.2c.8-2.4 2.2-4.6 4.1-6.2 1.5-1 9.6-9.4 10.7-11s4.1-3.8 2.8-10.4-4.7-6.9-7.4-8.2-8.2-4.7-10.6-7.6-4.7-6.8-8.7-6.2-4 2.1-4 6.5-.3 9.7-1.3 10.7-4.3 5-4.3 5z"/>
        <path fill="none" stroke="#4d432e" d="M994.6 144.4c-.4 2.1-.7 6.9 4.3 8.8s6.8.6 9.6-.9 3.5-4.3 4.7-5.6c2.3-2.6 5-4.8 7.9-6.6 4.1-2.5 2.4-7.5 1.8-9.7s-4.1-3.5-9.4-4.3-6.2 1.3-7.6 3.5-4.3 6.9-6.5 8.5c-1.3 1-4.4 4.3-4.8 6.3zM741.7 81.8c14.2 3.3 17.7-.2 25.2-2.7s23.5-5.7 31.9-7.2 17.9-.7 30.1-6.5 24-5.6 29.5-4.3 14.6 7.6 18.8 21.6 11.6 17.2 15.1 20.4 13.8 3.2 17.3 4.4 11.2 6 13.5-2.5-1.9-13.8-2.9-17.2-7.2-10.9-9.7-18.4-2.4-16.3-2.2-19.8 1.8-17.6 2.6-22.3C912 22.7 912 12 912 7.1c.1-2.7-.5-5.4-1.6-7.8M738.7 99.4c4.6 2.6 10.4 2.6 13.8 2.7s7.6-.3 11-3.2 2.9-7.8 2.6-9.6-4.1-1.9-6.3-2.1-5.9.4-8.7.6-8.7-.2-8.7-.2m2-77.8c.6-.4 3.7-4.4 4.7-12.1m10.6 2.1s1.6 4.6-.3 7.5-4.9 4.1-4.1 7.4 4.7 5 7.5 4.9 7.3-1.2 8.5-6.3c1.4-6.3 1.1-12.9-.7-19.1m13.3 5.4c.4 2.2 1.2 4.3 2.4 6.2 1.8 2.5 4.6 4 6.5 6s8.1 6 10.9 6.5 6.8-.1 8.5-1.8 5.7-5.4 6.6-7.2 5.4-10 5.6-14.4"/>
        <path fill="none" stroke="#4d432e" d="M738.5 40l10.9-.5c1.9-.1 11.3-.9 13.8-2.8 4.1-2.9 8.4-5.5 12.9-7.8 2.9-1.3 8.2-3.7 12.2-3.7s10 .3 14.8.7 11.8.7 15.7-.6 10.1-3.4 13.7-9.7S839.1.9 839-5"/>
        <path fill="none" stroke="#4d432e" d="M742.9 54.2s3.6 0 7.6-.4 9.8-.2 15.1-3.7 11-7.2 14.4-7.8 7.2-2.8 12.9-1.3 8.2 3.1 15.1 2.6 13.5-1 17.2-3.1 8.2-6.3 11.5-8.2 5.6-4.6 10-4 7.8 3.7 11.5 4 8.2 1.2 11.6-2.4 6.2-6.5 7.1-11.6.9-14.7 1.2-18.8"/>
        <path fill="none" stroke="#4d432e" d="M743 63.5c2.1.4 4.3.7 6.4.8 3.5.2 7-.3 10.3-1.5 2.8-1 7.4-3.8 13.1-5.1s10.9-2.4 15.6-1.8 10.7 2.2 19.7.4 16-3.7 20.9-6.5 7.9-6.3 11.6-6.6 7.2-1.2 15.9 1.9 19.1 9.4 22.1 10.1 8.7 4.4 11-.9 1.2-14.4.7-17.6-1.9-22.5-1.9-25.6l.1-21.2"/>
        <path fill="none" stroke="#4d432e" d="M741.3 72.1c3.7.4 7.9 1.5 10.7 1.3s4-.3 9.7-2.1 14-5.4 17.3-6.9 9.7-2.2 16.2-1.8c6.1.4 12.2.2 18.2-.6 5.4-.7 12.8-6.3 21.5-9.1s17.8-2.1 22.5-1.3 11.2 5.9 18.2 12.6 8.7 15.1 15.6 22.5 11.3 8.4 15.7 8.7 6.5-3.1 6.5-5-3.5-6.2-6.9-11-5.3-10.7-6.8-18.4.1-27.2.6-31.5c.6-7.4.8-14.7.6-22.1-.3-3-2.5-10.1-2.5-10.1m-49.8-.6S847 4.6 846.8 7s-.1 5.9 1.8 6.6 4.3 1.3 8.5-.1 7.9-4 9-5.4c1.8-2.1 3-4.7 3.4-7.5m129.4 229.3c.3-3.1-1.9-1.6-6.6 0s-4.9 2.7-7.9 4.6-2.3 4.7-1 7.1 3.2 2.9 6 2.2 4.3-3.3 5.4-5.2c1.9-2.6 3.3-5.6 4.1-8.7z"/>
        <path fill="none" stroke="#4d432e" d="M893.8 167.9c3.6 2.1 9.1 5.7 13.3 6.1s7.5 1.8 11.1-.5 4.8-6 2.7-10.6-7.7-8.5-10.2-10.1-10.9-7-13.2-12.7-.6-13.5-4.2-18.9-11.2-6.2-13.5-7.2-10.1-2-12.5-7.5S864 93 860.8 89s-9.7-9.7-16.9-9.4-13.7 3.5-18.8 3.9-16.1 1.6-19.7 2.1-18.9 1.9-20.9 6-1.2 7.9 2.7 11.3 6.6 3.4 7.2 8.6-.1 11.2.4 15.4 2.4 10.9 8.5 15.4 13.5 8.1 17.6 8.3 12 .6 13.9-5.3 4.7-9.9 9-11.1 6.9-2.5 12.7-1.1 7.9 5.1 9.4 7.3 4.4 6 7.7 7.6 7.7 4.2 9 7.1 4.6 8.3 7.2 10l4 2.8z"/>
        <path fill="none" stroke="#4d432e" d="M864.7 128.6c2.9 1.5 8.7 4.8 11.3 5.2s6.2 1.9 7.7-2.3 1.6-5.6-1.8-8-13.7-4.3-18-6.6-8.2-4.6-9-10-.2-10.8-3.3-14.6-5.7-6.1-14.2-4.3-6.9 3.3-14.1 3.7-15.3-.2-17.3.1-6.1.6-6.8 4.4 1.2 6.5 3.7 9.8 1 11 1 11-1.8 6.5-1 9.4c1.1 3.9 3.5 7.2 6.9 9.4 4.2 2.6 5.1 4.7 11.7 3.3s10-7.7 12.6-9.5 7-6.7 13.7-6 16.9 5 16.9 5z"/>
        <path fill="none" stroke="#4d432e" d="M820.5 131c3.9 0 6.7-4.2 7.5-5.5 1-1.8 1.7-3.8 1.9-5.8.2-2.3-.1-4.3 1.6-4.7s3.6.5 5.9.2 7-.9 8-4.4 1.4-7.7-2.2-12-7.6-3.7-8.7-3.1c-2.1 1.1-4.3 2-6.6 2.8-2.8.6-5.7.7-8.5.3-2.5-.4-5.7 1.5-6.5 3.5s-2.8 3.2-2 6.5 1.6 5.5 1.8 6.8.8 4.4-.1 7.1.8 6.6 2.3 7.4c1.8.7 3.7 1 5.6.9z"/>
        <path fill="none" stroke="#4d432e" d="M828.3 106.1c-.2 2.4 1.6 4.6 4 4.8h.7c2.8-.2 4.4-2.7 4-5.5s-2.7-4.2-5.7-3.9-2.9 2.8-3 4.6zM-15.3 503.9c9-.4 18.4-3.9 27.4 0s14.5 12.5 18 18.5 7.6 9.9 11.4 11.7 5.3 2.4 9 5.9 2.9 5.3 5.7 6.5 3.7 1 9 2.9 6.1 5.3 5.3 7.1-5.3 1-9 0-10.8-7.6-11.6-8.6-7.3-6.7-10.6-7.1c-4.2-.6-8.4-1.5-12.5-2.7C21.5 536.5 15 525 15 525c-3.9-3.6-6.6-2.4-9.2-1.8L-5.3 526"/>
        <path fill="none" stroke="#4d432e" d="M-4.5 538.2c2.9.6 5.6 1.7 8 3.3 4.1 2.7 8 7.8 12.2 17.6s10.8 14.5 17.6 14.7 13.3-.8 16.9-4.1 7.3-2.5 11.4-.4 9 4.1 14.1 2.5 10.2-7.1 14.7-7.3 8.2-.6 10.2 3.7 4.3 6.5 9.6 7.1 9 1.2 12.2 5.1 8.6 9.8 11.6 10.2 7.4.8 9.6 1.2 11 4.3 14.9 7.6 13.9 7.6 17.8 7.6 10.6.4 12.3-4.1 1.6-7.6-4.3-11-13.5-8.8-15.1-11.8-7.8-10.8-13.1-13.1-16.9-5.7-22.1-8.4-9.8-12.7-10.8-15.7-4.7-16.3-15.1-16.3c-3.2 0-2.9 3.3-9.2 5.7s-7.8 1-11.4 1.8-8.2 7.4-12 7.6-7.6 1-14.5-6.9-9.8-7.4-12.7-8.8c-5.8-2.8-10.8-7-14.3-12.4-4.9-7.5-8.6-12.3-16.9-17.8s-18.2-4.7-26.5-4.3m1.1 68.9c2 .3 7.2 1.2 8.4.6s2.6-1.4 1.9-4.4-5-3.6-5.4-3.9"/>
        <path fill="none" stroke="#4d432e" d="M24.1 554.2s4 2.8 4.6 4.2 2 6.5 3.8 6.7 4.5 1.2 9.6-.6 6.4-3.5 6.7-4 .9-2.2-2.3-3.6c-2.9-1.3-5.8-2.9-8.4-4.7-2.1-1.5-3.5-3.3-7.1-3-2.4.1-4.7.6-7 1.3-1.3.6-1.2 2.7.1 3.7zm102.1 15.1l7.4 3.5c2.6 1.4 4.4 2.8 6.2 2.6s4.7-.7 0-4.1-8.7-6.9-12.1-8.8-7.5-5.1-8.1-6.2c-1.1-2.3-2.7-4.3-4.7-6-2.5-1.9-4.1-3.2-6.9-3.4-3.7-.3-7.4-1.3-10.7-2.9-3.4-1.8-9.3-.7-11.5 1.5-1.6 1.6-2.5 7.2-2.4 9.8s.7 4.4 4 4 8.2-3.9 9.4-4.3c2.4-.8 5.1-.4 7.1 1.2 2.2 1.8 3.8 4.2 4.6 6.9.7 2.3 5.2 4.7 6.9 5.1 2 .5 3.2 1 5.1.7s4-.6 5.7.4zm40 26c1.8.6 4.7 1.5 5.7 1s.7-1.5-1.6-2.5c-1.8-.9-3.8-1.5-5.9-1.6-1.9 0-.1 2.5 1.8 3.1zm10-22.2c2 1.1 4 2.5 5.7 4 1.4 1.3 2.3 3.5 4.8 3.4s5.1-.9 5.4-5c.3-3.6-1.2-7.1-4-9.3-2.5-1.9-5.4-3.4-11.9-1.8s-10 3.4-6.3 5.6 3.9 1.7 6.3 3.1z"/>
        <path fill="none" stroke="#4d432e" d="M-3.8 571.1s2.9-.7 7.2 1.1 11.3 6.2 15.3 8.4 6.9 3.8 11.8 3.5c6.3-.5 12.5-1.7 18.6-3.5 5.4-1.7 11.4-1 15.2 0 4.4.8 9 .8 13.4 0 1.1-.2 2.2-.6 3.2-1 1.3-.6 5.6-4.2 10.7-4s9.6 4.1 10.7 5 6.2 4.1 7.8 4.4 6.6 2.1 7.9 3.7 2.5 6.9 5 9.8 6.3 6.2 10.9 6.2 6.4-1.2 8.3-1.3 6 0 8.2 2.1 10.4 6.6 12.5 7.5 10.7 3.8 17.3 3.4c5.8-.5 11.4-2.4 16.4-5.3 2.8-1.8 9.1-5 7.5-14.4s-4.1-15.1-4.3-17.6 3.5-11.9-1.6-17.6-9.5-6.5-16.4-6.8-19 .4-22.1 0-12.5-2.2-18.5-8.4-8.8-11.6-12.1-13.2-9.4-5.3-12.2-8.8-1.8-7.3-6-10.1-8.2-4.9-12.5-2.5c-4.3 2.4-1.6 10-5.1 12.5s-15.1 5-19 4.7-10.9-3.8-14.3-6.3-11.6-9.3-14.7-12.8-11.2-13.5-13.5-15.1-8.1-6-15.9-7.9-12.2-3.2-24.3-3.5m2.6 116.3c5 4.9 7.8 9.1 13.2 11.9s10.6 1.2 14.7 0 10-6.9 12.2-9 4.3-2.5 7.2-2.8 5.3-2.9 3.2-7-6.6-2.5-8.7-2.4-9.2 2.1-13 2.4-6.7-2.5-9.6-4.9-9-5.1-12.2-6.6c-2.2-.9-4.7-1.2-7.1-.9"/>
        <path fill="none" stroke="#4d432e" d="M5.5 602c1.3 1.8 3.3 3.9 6.1 4.2 4.1.6 8.4.9 10 0s5.3-3.5 1.5-6.8c-2.1-1.9-1.7 0-6.2-1s-6.3-2.1-8.4-4.9-5.3-1.8-5.4 2.1c-.3 2.4 1.1 4.5 2.4 6.4zm35.4 19.9s2.1 1.3 4.6-.9 3-4 2.9-4.8c-.5-1.1-1.8-1.6-2.9-1.2-1.1.6-2.7 1.9-4.6 2.1s-3.5-.2-3.5 1.5 1.8 2.9 3.5 3.3z"/>
        <path fill="none" stroke="#4d432e" d="M100 636.5c-2.5-5-8.5-5.1-10.9-5.6s-6.6-2.1-6.9-4.5-2.8-6.2-5.4-6.7-6.5 0-12.8 5.9-13.4 8.5-22.9 8.7-18.1-4.1-21.4-5.7-10.7-6.8-17.5-8.9-5.5-.9-6.3-1.1M-9.4 631c1.7.9 10.5 3.1 17.2 7.2m28.1 2c.2.1-7-2.1-10.3-1.2"/>
        <path fill="none" stroke="#4d432e" d="M82.3 639.5c-2.5-1-4-2.1-7.6-5.6s-8.7-.1-11.6 1.6c-3 1.8-6.3 3.3-9.6 4.5m60.5-2.2c-2.1-2.1-8.6-5.4-11.8-10.7-3.3-5.2-7.4-9.9-12.1-14-4.7-4.3-10.5-5.7-18.1-4.9s-10.7 4.1-13.7 1.2-.1-6.5 2.5-9 7.8-7.6 14.7-9.6 7.8-1.3 11.2 0c3.2 1.3 6.6 2.2 10.1 2.5 2.8.1 6.9 1.3 8.5 3.4s4.6 7.6 10.3 10.1 9 5.2 17.6 4.3 11-.6 17.2 2.8 17.1 11.2 20.6 11.5 12.6 1.9 18.5 1.2 17.6-2.5 21.9-9.3 5.4-13.7 4-19.4c-1.2-4.7-3.2-9.2-5.7-13.4-1.7-2.7-2.6-6.6-.1-14.4s1.3-12.1-3.1-15.9-15-10.7-19.3-16-4.5-12.9-7-17.1-9-7.6-11.1-8.8-6.9-5.3-8.4-13.8-6.8-14-12.1-15.6-15.9-5.3-18.4-9.6-6.6-13.1-8.4-16.8c-2.7-5.6-7.2-10.1-12.8-12.8-6.9-3.2-11.2-3.4-15.1-2.4s-9.1 4.9-16 5-21.8 3.2-30.7 3.4-16.3 5-17.3 7.2c-1.5 4.3-2.5 8.8-2.8 13.4 0 3.4-1.2 9.3-8.1 9.4s-24 2.2-29.7-4.7"/>
        <path fill="none" stroke="#4d432e" d="M345.6 640c-1.8-1.7-3.8-3-6.1-3.8-5.3-2.2-14.3.6-17.6-1.4s-2.9-11.8-3.9-18-6.7-9-14.1-10c-7.6-.9-15.4-.2-22.7 2-7.4 2.2-13.7 11.2-19 18.4s-13.9 9.4-21.2 9.4-11.8-5.7-14.7-6.9-10.6-1-13.1-.8-15.1 4.9-19.4 7.4-12.3 3.5-16.5 3.1-15.1-6.3-18-7.8-13.5-7.4-17.2-8.4-9.8 1.6-9.6 7.1"/>
        <path fill="none" stroke="#4d432e" d="M314.7 637.3c-6.1-6.3-5.9-10.8-6.5-13.7s-.6-8.4-9.8-8.8-14.5 2.5-18.2 3.9-8.8 6.9-9.8 10 1 6.3 4.9 6.7c2.9.2 5.7.7 8.5 1.4 2.2.7 4.3 1.7 6.2 3.1"/>
        <path fill="none" stroke="#4d432e" d="M292.4 622.5c-3.3 0-5.7 2.4-8.8 4.9s-1.2 4.5.8 5.1 4.1-1.2 7.1 0 5.7 1.4 7.8.4.1-5-.4-8c-.2-1.3-3.1-2.4-6.5-2.4z"/>
        <path fill="none" stroke="#4d432e" d="M177.5 372.6c-1.3 7.2-1.8 17.8-1.3 20.2.8 3.5 2.9 6.9 2.7 13.3s-5.5 9.7-7.4 13.9-2.2 11.6-.6 15.9 5.1 10.8 9.8 23.7 3.1 23.5 2.5 29.2.8 9.6 2 11c3.3 3.8 6.8 7.4 10.4 10.8 3.9 3.5 4.7 11.4 4.5 15.1s-.2 7.3 3.7 10.4 13.1 9.4 15.7 11 7.8 8.4 8.6 13.1-.8 16.3-1.2 20.8 1.8 7.3 2.7 10.2-2.5 7.1-3.7 10.8-4.9 10-3.1 14.9 6.9 8.4 14.1 8 12.7-5.1 14.9-6.3 7.1-7.8 15.9-14.1 13.7-13.1 17.8-17.4 2.7-13.9 2.4-16.7c-.7-4.6-1-9.2-1-13.9.2-4.7 3.3-12.2 8-17.4s12-9.8 18.4-10.8c4.8-.8 9.3 2.5 10.1 7.3.1.6.1 1.3.1 1.9-.4 4.7-8.2 11.8-11.4 14.1s-6.3 6.3-6.5 10.2 2.5 9.6 3.1 16.9-3.1 5.1-3.1 11.2 5.1 6.7 11.6 7.8 9.4 6.5 11 9.6c2 4.2 4.5 8.1 7.3 11.8 3.7 4.9 10 12.2 19.6 13.1 5.3.5 10.6 1.6 15.7 3.3"/>
        <path fill="none" stroke="#4d432e" d="M373 572.1c-10.6-.8-17.8-4.3-21.2-5.5s-4.7-8.8-5.7-13.7-3.5-8-6.1-9.2-5.5 2.2-7.4 3.9-8 10-7.8 15.5-.8 5.5-2 10.8.6 6.9 2.9 9.6 9.8 4.9 16.9 7.4 7.6 8.8 8 11 2.7 9.4 7.6 12.7c3.4 2.2 7.1 3.8 11 4.9"/>
        <path fill="none" stroke="#4d432e" d="M370.7 582.7c-2.2-2.4-8.8-3.1-11.6-3.3-2.9-.3-5.8-1.1-8.4-2.5-2-1.2-6.3-5.3-8.2-6.3s-6.5-.8-6.5 2.4 4.1 5.7 7.1 7.8 8.2 4.5 13.3 8 3.9 7.3 5.9 10.8 6.9 7.4 6.9 7.4m-.2-53.2c-2.5-.8-5.2-.9-7.8-.4-1.8.4-3.3 2.1.2 5.7 1.1 1.1 2.4 1.8 3.9 2.2m12.2-70c-3.9-.6-15.5.2-19.2.8s-10.2 0-12.5-.4-6.3-1-8.8-1.6-5.1 2.2-10 3.5-7.8 6.1-10 8.6-2.7 9.8-.8 14.7 5.9 4.5 11.4 5.1 10.6 3.5 13.7 5.1 9.4 6.1 12.3 7.8 14.5 3.9 14.5 3.9"/>
        <path fill="none" stroke="#4d432e" d="M373.4 502.3c-5.5-.6-13.3.2-16.9.4s-15.5-1.2-18.8-1c-3.9.3-7.1 3.1-7.8 6.9-.8 4.1 2.4 5.1 4.7 5.5s7.8 2.7 13.5 6.3 6.3 7.6 12 7.8c2.8.1 5.5-.5 8-1.6M314 481.3c1.5 1.5 3.9 1.2 5.5.8s-1.2-3.3-3.9-3.3-4.1-1.2-4.5.2 2.5 1.9 2.9 2.3z"/>
        <path fill="none" stroke="#4d432e" d="M372.8 572.1c1.1 0 2.2.3 3.2.7 4.3 1.7 10.8 6.5 14.8 8.7s6.9 3.8 11.8 3.5c6.3-.5 12.5-1.7 18.6-3.5 5.4-1.7 11.4-1 15.2 0 4.4.8 9 .8 13.4 0 1.1-.2 2.2-.6 3.2-1 1.3-.6 5.6-4.2 10.7-4s9.6 4.1 10.7 5 6.2 4.1 7.8 4.4 6.6 2.1 7.9 3.7 2.5 6.9 5 9.8 6.3 6.2 10.9 6.2 6.4-1.2 8.3-1.3 6 0 8.2 2.1 10.4 6.6 12.5 7.5 10.7 3.8 17.3 3.4c5.8-.5 11.4-2.4 16.4-5.3 2.8-1.8 9.1-5 7.5-14.4s-4.1-15.1-4.3-17.6 3.5-11.9-1.6-17.6-9.5-6.5-16.4-6.8-19 .4-22.1 0-12.5-2.2-18.5-8.4-8.8-11.6-12.1-13.2-9.4-5.3-12.2-8.8-1.8-7.3-6-10.1-8.2-4.9-12.5-2.5c-4.3 2.4-1.6 10-5.1 12.5s-15.1 5-19 4.7-10.9-3.8-14.3-6.3-11.6-9.3-14.7-12.8l-13.5-15.1c-8.2-6.3-18-10.1-28.3-11-6.3-.3-12.7-1.2-17.2-1.2s-12.2.2-16.7-1-9.2-4.7-16.3-8.4-11.6-2.9-17.2-4.3-11-3.3-10.8-11.6 7.8-13.7 13.3-14.5 10.8-.2 13.1-1.6 6.7-7.1 9.4-7.3 8.4-.8 12.5.6 16.7 6.9 22 8.2"/>
        <path fill="none" stroke="#4d432e" d="M371.6 453.9c-3.7-.9-7.6-1.5-11.4-1.8-5.9-.6-11.7-1.7-17.4-3.3-5.1-1.6-11.2-.8-13.5.4s-6.1 3.5-8.8 4.1-6.1 1.2-6.1 3.9-.2 5.3 6.9 5.5 10.4 3.5 12.5 6.1 6.7 4.5 9.8 5.3 9.8-1 13.9 1.4c2.9 1.6 6 2.8 9.2 3.5M236.3 367.9c-9 11.8-7.2 19.7-6.4 23.3 1 5.5 1.7 11 2 16.5.2 6 3.6 11.5 9 14.3 6.8 3.7 12.2 3.5 25.5-3.9 9.3-5.2 16.7-3.7 22.3 1.8 2.5 2.4 3.2 4 5.6 8.7 2.8 5.3 10.3 6.3 19.7 6.1s12-7.8 15.1-11 3.3-3.7 8.8-1.2 11 6.5 16.9 9 14.3 3.1 14.3 3.1"/>
        <path fill="none" stroke="#4d432e" d="M271.2 371.3c-.7 1.3-1.6 2.5-2.6 3.5-1.2.8-8.9 2.2-10.8 3.7s-5.9 2.8-5.9 9 1.1 10.2 2.8 11.4 3 2.5 6.5-.6 6.1-5.5 9.5-5.4 7.5-.5 11.5 1.7c4 2.3 7.7 5 11.1 8.1 2.2 2.1 7.7 6.1 10.2 6.1s5.7.7 7.4-2 2.3-4.6 2.2-9.4-1.2-7.4-.9-10.2c.4-2.5 0-5-1.1-7.2-1-1.7-1-6.5-5.6-10.5"/>
        <path fill="none" stroke="#4d432e" d="M284.6 382.7c-1 2.9 1.8 4 3.5 4.5s3.2-.7 4.7.4 3.6 4.3 5.8 5.5 3.8 1.6 6 .7 1.4-4.7 1.2-8-2.2-4.7-4.4-5.6c-2.4-.8-4.9-1-7.4-.7-2.6.2-8.4.3-9.4 3.2zm46.3-9.5c.4 2.4-1.1 9.2-2.2 13.1s-3.1 9.9-1.6 14.7c1.5 5.3 4.8 9.9 9.4 13 5.4 3.6 10.1 8.1 19.5 10.4s8.6.8 16.9.8m-180.5-47.4c.6 5.3 2.4 10 4.9 19.1s-3.5 12.8-8.9 18.5-6.8 15-5.1 23.4 9.7 13.8 18.2 15 7.6 3.5 16.5 9.1 14.1 12.6 14.7 17.5-5.3 13.1-11.5 22.2-7.5 13.4-7.1 18.7 4.1 15.9 15 22.9 10.1 15.3 10.9 27.2 4.7 16 7.5 17.5 12.9 5.1 20.6.7 8.4-12.2 9-15.1-.6-14.7 1.8-25.7 10-12.8 17.2-20.4 4.7-11.5 10.7-23.2-1-14.6-4.1-17.3-16.8-6.2-20.7-7.4-7.1-6.6-8.7-11.2c-1.3-4-.5-8.3 2.1-11.6 1.9-2.6 5.1-13.7 5.9-17.3s.1-9.1-4.7-11.8-10.4-.6-12.3-.1-10.6 4-14.7 5.6-7.5 1-13.2.4-9.6-8.1-10.4-10.7.1-9.1.3-13.1-1.9-8.1-2.8-12.1c-.9-4-1.4-8.2-1.6-12.3 0-2.5 1.8-8 3-10.1.8-1.5 1.4-3.2 1.8-4.9"/>
        <path fill="none" stroke="#4d432e" d="M204.8 370.2s-2.8 5.3-4 8.4-2.4 10.4-1.6 14.3 4.4 7.5 3.2 14-6 15.1-7.8 18.1-2.9 9.1 1 12.8c4 3.7 8.4 6.8 13.2 9.4 3.2 1.5 10.9 7.6 11.9 9.6s5.3 5.9 9.1 7.6 12.3 5.1 14.8 10.3 4.4 9.3-.4 15.9-14 15.9-15.9 19.1c-1.9 3.2-7.5 9.8-2.2 16s9.7 5.1 14.1 8.2 6.2 5.1 5.4 14-.1 22.3 2.9 26.8 7.8 8.2 13.2 7.5 7.1-6.8 6.6-14.1-3.1-17.5 0-26 7.1-12.6 12.9-15.9 15.4-13.1 15.3-20.6.7-9.3-5.6-11.5-15.7-5.6-20.3-9.6-7.9-6.8-8.1-19.3 1.2-15.3-7.1-20.6-14 3.4-24.5-4.9-14.3-9.3-15.9-15.6 2.8-11.3 1.3-17.9 4.2-10.9 1.6-18-4.1-18-2.9-21.1"/>
        <path fill="none" stroke="#4d432e" d="M195.9 461.2c-3.2.1-3.8 2.6-4 5.4s2.1 7.4 2.5 11.3-1.8 9.4-2.5 14.4 2.1 7.6 5.7 10 7.1 1.9 10.9 1.9 6.6-5.1 7.2-6.2 2.4-5.6 4.3-7.8 1.6-4.6 1-9.7-10.3-12.9-13.1-15.4c-3.4-3-8.8-4-12-3.9z"/>
        <path fill="none" stroke="#4d432e" d="M202.2 484.3c-.2 2.2 1.8 6.5 3.8 6.3s4.6-2.5 5.3-4.7c1-2.7 0-5.7-2.5-7.1-3.1-2.1-4.6-1.5-5.3-.4s-1.2 3.9-1.3 5.9zm37-26.6c2.1 1.2 3.7 3.7 4.7 6 .7 2.1 2.7 3.5 4.9 3.5 2.1 0 4.4 0 3.5-5s-3.1-6.9-7.4-8.2c-3.1-1-6.1-2.4-8.8-4.3-1.6-1-4.4-1.9-6.5-1.3s-4 2.4-1.6 3.4 5.9 3.8 7.8 4.3c1.2.3 2.4.8 3.4 1.6zm7.8 45.1c-3.1 3.4-6.9 8.2-9.1 10.3s-1.5 5.3-1.3 7.4 2.9 4.9 4.1 5.4 3.8 1 5.4 2.5 4 5.7 5.9 6.8 3.4 3.4 6.9 2.2c3.5-1.2 6-4.9 6.8-7.2.8-2.4 2.2-4.6 4.1-6.2 1.5-1 9.6-9.4 10.7-11s4.1-3.8 2.8-10.4-4.7-6.9-7.4-8.2-8.2-4.7-10.6-7.6-4.7-6.8-8.7-6.2-4 2.1-4 6.5-.3 9.7-1.3 10.7-4.3 5-4.3 5z"/>
        <path fill="none" stroke="#4d432e" d="M246.6 514.6c-.4 2.1-.7 6.9 4.3 8.8s6.8.6 9.6-.9 3.5-4.3 4.7-5.6c2.3-2.6 5-4.8 7.9-6.6 4.1-2.5 2.4-7.5 1.8-9.7s-4.1-3.5-9.4-4.3-6.2 1.3-7.6 3.5-4.3 6.9-6.5 8.5c-1.3 1-4.4 4.2-4.8 6.3zm-253.3-62c7.4 1.6 18.1-.7 25.6-3.2s23.5-5.7 31.9-7.2 17.9-.7 30.1-6.5 24-5.6 29.5-4.3S125 439 129.3 453s11.6 17.2 15.1 20.4 13.8 3.2 17.3 4.4 11.2 6 13.5-2.5-1.9-13.8-2.9-17.2-7.2-10.9-9.7-18.4-2.4-16.3-2.2-19.8 1.8-17.6 2.6-22.3c.7-3.5 2.2-6.1 3.1-11.5.3-1.6.4-3.1.5-4.7m-177.7 85.7c4.6 2.6 12.2 5 15.6 5.1s7.6-.3 11-3.2 2.9-7.8 2.6-9.6-4.1-1.9-6.3-2.1-5.6 1.5-8.4 1.6c-2.6-.1-5.1-.4-7.6-.9m17.3-85.2s1.6 4.6-.3 7.5-4.9 4.1-4.1 7.4 4.7 5 7.5 4.9 6.9-1 8.1-6.1c.4-2 .7-4 .8-6m17.7-5.6c1.8 2.5 4.6 4 6.5 6s4.5 5.2 7.3 5.7c7.9 1.5 12.6-5.9 13.4-7.6 1.1-1.9 2.1-3.9 2.9-5.9"/>
        <path fill="none" stroke="#4d432e" d="M-10.4 410.5l11.2-1.2c1.9-.2 11-2.2 13.5-4.1 4.1-2.9 8.4-5.5 12.9-7.8 2.9-1.3 8.2-3.7 12.2-3.7s10 .3 14.8.7 9.8.7 13.7-.6 7.1-.3 10.6-6.6c1.7-3.1 10.1-13.3 10.1-13.3m-96 52.2s5.7 0 9.7-.4c5.4-.6 10.7-2.4 15.3-5.4 5.3-3.5 11-7.2 14.4-7.8s7.2-2.8 12.9-1.3 8.2 3.1 15.1 2.6 13.5-1 17.2-3.1 8.2-6.3 11.5-8.2 5.6-4.6 10-4 7.8 3.7 11.5 4 8.2 1.2 11.6-2.4 8-5.6 8.9-10.7.9-14.7 1.2-18.8"/>
        <path fill="none" stroke="#4d432e" d="M-4.9 434.2l6.3.3c3.5.2 7-.3 10.3-1.5 2.8-1 7.4-3.8 13.1-5.1s10.9-2.4 15.6-1.8 10.7 2.2 19.7.4 16-3.7 20.9-6.5 7.9-6.3 11.6-6.6 7.2-1.2 15.9 1.9 19.1 9.4 22.1 10.1c3 .7 8.7 4.4 11-.9s1.2-14.4.7-17.6-1.9-22.5-1.9-25.6.8-5.3 1.4-9.6"/>
        <path fill="none" stroke="#4d432e" d="M-6.5 440.8c3.7.4 7.8 2.9 10.6 2.8s4-.3 9.7-2.1 14-5.4 17.3-6.9 9.7-2.2 16.2-1.8c6.1.4 12.2.2 18.2-.6 5.4-.7 12.8-6.3 21.5-9.1s17.8-2.1 22.5-1.3 11.2 5.9 18.2 12.6 8.7 15.1 15.6 22.5 11.3 8.4 15.7 8.7 6.5-3.1 6.5-5-3.5-6.2-6.9-11-5.3-10.7-6.8-18.4.1-27.2.6-31.5 2.9-17.8 2.6-20.7l-.6-6.1m-53.8-3s-1.6 7.9-1.8 10.3-.1 5.9 1.8 6.6 4.3 1.3 8.5-.1 7.9-4 9-5.4c1.8-2.1 3-4.7 3.4-7.5M250.9 600c.3-3.1-1.9-1.6-6.6 0s-4.9 2.7-7.9 4.6-2.3 4.7-1 7.1 3.2 2.9 6 2.2 4.3-3.3 5.4-5.2c1.9-2.6 3.3-5.6 4.1-8.7z"/>
        <path fill="none" stroke="#4d432e" d="M145.8 538c3.6 2.1 9.1 5.7 13.3 6.1s7.5 1.8 11.1-.5 4.8-6 2.7-10.6-7.7-8.5-10.2-10.1-10.9-7-13.2-12.7-.6-13.5-4.2-18.9-11.2-6.2-13.5-7.2-10.1-2-12.5-7.5-3.3-13.5-6.5-17.5-9.7-9.7-16.9-9.4-13.7 3.5-18.8 3.9-16.1 1.6-19.7 2.1-18.9 1.9-20.9 6-1.2 7.9 2.7 11.3 6.6 3.4 7.2 8.6-.1 11.2.4 15.4 2.4 10.9 8.5 15.4 13.5 8.1 17.6 8.3 12 .6 13.9-5.3 4.7-9.9 9-11.1 6.9-2.5 12.7-1.1 7.9 5.1 9.4 7.3 4.4 6 7.7 7.6c3.3 1.6 7.7 4.2 9 7.1s4.6 8.3 7.2 10c1.3 1 2.6 1.9 4 2.8z"/>
        <path fill="none" stroke="#4d432e" d="M116.7 498.8c2.9 1.5 8.7 4.8 11.3 5.2s6.2 1.9 7.7-2.3 1.6-5.6-1.8-8-13.7-4.3-18-6.6-8.2-4.6-9-10-.2-10.8-3.3-14.6-5.7-6.1-14.2-4.3-6.9 3.3-14.1 3.7-15.3-.2-17.3.1-6.1.6-6.8 4.4 1.2 6.5 3.7 9.8 1 11 1 11-1.8 6.5-1 9.4c1 3.9 3.5 7.3 6.9 9.4 4.2 2.6 5.1 4.7 11.7 3.3s10-7.7 12.6-9.5 7-6.7 13.7-6 16.9 5 16.9 5z"/>
        <path fill="none" stroke="#4d432e" d="M72.5 501.2c3.9 0 6.7-4.2 7.5-5.5 1-1.8 1.7-3.8 1.9-5.8.2-2.3-.1-4.3 1.6-4.7s3.6.5 5.9.2 7-.9 8-4.4 1.4-7.7-2.2-12-7.6-3.7-8.7-3.1c-2.1 1.1-4.3 2-6.6 2.8-2.8.6-5.7.7-8.5.3-2.5-.4-5.7 1.5-6.5 3.5s-2.8 3.2-2 6.5 1.6 5.5 1.8 6.8c.6 2.3.5 4.8-.1 7.1-.9 2.7.8 6.6 2.3 7.4 1.8.7 3.7 1 5.6.9z"/>
        <path fill="none" stroke="#4d432e" d="M80.3 476.3c-.2 2.4 1.6 4.6 4 4.8h.7c2.8-.2 4.4-2.7 4-5.5s-2.7-4.2-5.7-3.9-2.9 2.7-3 4.6zm283.3 26c9-.4 12.2-.3 20.6 2.5 9.3 3.2 14.5 12.5 18 18.5s7.6 9.9 11.4 11.7 5.3 2.4 9 5.9 2.9 5.3 5.7 6.5 3.7 1 9 2.9 6.1 5.3 5.3 7.1-5.3 1-9 0-10.8-7.6-11.6-8.6-7.3-6.7-10.6-7.1c-4.2-.6-8.4-1.5-12.5-2.7-5.3-1.6-11.8-13.1-11.8-13.1-3.9-3.6-6.6-2.4-9.2-1.8l-11.2 2.9"/>
        <path fill="none" stroke="#4d432e" d="M367.7 538.9c2.8.8 5.4 2.1 7.8 3.7 4.1 2.7 8 7.8 12.2 17.6s10.8 14.5 17.6 14.7 13.3-.8 16.9-4.1 7.3-2.5 11.4-.4 9 4.1 14.1 2.5 10.2-7.1 14.7-7.3 8.2-.6 10.2 3.7 4.3 6.5 9.6 7.1 9 1.2 12.2 5.1 8.6 9.8 11.6 10.2 7.4.8 9.6 1.2 11 4.3 14.9 7.6 13.9 7.6 17.8 7.6 10.6.4 12.3-4.1 1.6-7.6-4.3-11-13.5-8.8-15.1-11.8-7.8-10.8-13.1-13.1-16.9-5.7-22.1-8.4-9.8-12.7-10.8-15.7-4.7-16.3-15.1-16.3c-3.2 0-2.9 3.3-9.2 5.7s-7.8 1-11.4 1.8-8.2 7.4-12 7.6-7.6 1-14.5-6.9-9.8-7.4-12.7-8.8c-5.8-2.8-10.8-7-14.3-12.4-6.6-11.1-16.9-19.5-29.1-23.6m-12.1 70.1c2 .3 6.1 1.4 7.3.8s2.6-1.4 1.9-4.4-5-3.6-5.4-3.9M826.3 478.3c-.2 2.4 1.6 4.6 4 4.8h.7c2.8-.2 4.4-2.7 4-5.5s-2.7-4.2-5.7-3.9-2.9 2.7-3 4.6z"/>
        <path fill="none" stroke="#4d432e" d="M818.5 503.2c3.9 0 6.7-4.2 7.5-5.5 1-1.8 1.7-3.8 1.9-5.8.2-2.3-.1-4.3 1.6-4.7s3.6.5 5.9.2 7-.9 8-4.4 1.4-7.7-2.2-12-7.6-3.7-8.7-3.1c-2.1 1.1-4.3 2-6.6 2.8-2.8.6-5.7.7-8.5.3-2.5-.4-5.7 1.5-6.5 3.5s-2.8 3.2-2 6.5 1.6 5.5 1.8 6.8c.6 2.3.5 4.8-.1 7.1-.9 2.7.8 6.6 2.3 7.4 1.8.7 3.7 1 5.6.9zM396.1 555.2s4 2.8 4.6 4.2 2 6.5 3.8 6.7 4.5 1.2 9.6-.6 6.4-3.5 6.7-4 .9-2.2-2.3-3.6c-2.9-1.3-5.8-2.9-8.4-4.7-2.1-1.5-3.5-3.3-7.1-3-2.4.1-4.7.6-7 1.3-1.3.6-1.2 2.7.1 3.7zm102.1 15.1l7.4 3.5c2.6 1.4 4.4 2.8 6.2 2.6s4.7-.7 0-4.1-8.7-6.9-12.1-8.8-7.5-5.1-8.1-6.2c-1.1-2.3-2.7-4.3-4.7-6-2.5-1.9-4.1-3.2-6.9-3.4-3.7-.3-7.4-1.3-10.7-2.9-3.4-1.8-9.3-.7-11.5 1.5-1.6 1.6-2.5 7.2-2.4 9.8s.7 4.4 4 4 8.2-3.9 9.4-4.3c2.4-.8 5.1-.4 7.1 1.2 2.2 1.8 3.8 4.2 4.6 6.9.7 2.3 5.2 4.7 6.9 5.1 2 .5 3.2 1 5.1.7s4-.6 5.7.4zm40 26c1.8.6 4.7 1.5 5.7 1s.7-1.5-1.6-2.5c-1.8-.9-3.8-1.5-5.9-1.6-1.9 0-.1 2.5 1.8 3.1zm10-22.2c2 1.1 4 2.5 5.7 4 1.4 1.4 2.3 3.5 4.8 3.4s5.1-.9 5.4-5c.3-3.6-1.2-7.1-4-9.3-2.5-1.9-5.4-3.4-11.9-1.8s-10 3.4-6.3 5.6 3.9 1.7 6.3 3.1zm-179.6 32.4c3.5 2.7 6.6 3.8 10.8 6 5.4 2.8 10.6 1.2 14.7 0s10-6.9 12.2-9 4.3-2.5 7.2-2.8 5.3-2.9 3.2-7-6.6-2.5-8.7-2.4-9.2 2.1-13 2.4-6.7-2.5-9.6-4.9-10-3.3-13.3-4.8c-1-.5-1.3-1.3-2.2-2"/>
        <path fill="none" stroke="#4d432e" d="M377.5 603c1.3 1.8 3.3 3.9 6.1 4.2 4.1.6 8.4.9 10 0s5.3-3.5 1.5-6.8c-2.1-1.9-1.7 0-6.2-1s-6.3-2.1-8.4-4.9-5.3-1.8-5.4 2.1c-.3 2.4 1.1 4.5 2.4 6.4zm35.4 19.9s2.1 1.3 4.6-.9 3-4 2.9-4.8c-.5-1.1-1.8-1.6-2.9-1.2-1.1.6-2.7 1.9-4.6 2.1s-3.5-.2-3.5 1.5 1.8 2.9 3.5 3.3z"/>
        <path fill="none" stroke="#4d432e" d="M472 637.5c-2.5-5-8.5-5.1-10.9-5.6s-6.6-2.1-6.9-4.5-2.8-6.2-5.4-6.7-6.5 0-12.8 5.9-13.4 8.5-22.9 8.7-18.1-4.1-21.4-5.7-10.8-6.8-17.7-8.8c-1.7-.6-3.4-1-5.2-1.2m.7 15.3c3.2 1.2 7.1 2.4 10.3 4.3"/>
        <path fill="none" stroke="#4d432e" d="M452.5 639.7c-1.6-.9-3.1-2.2-5.8-4.8-3.6-3.5-8.7-.1-11.6 1.6-1.9 1.1-3.8 2.1-5.8 3m56.8-.7c-2-2-8.6-5.4-11.8-10.7-3.3-5.2-7.4-9.9-12.1-14-4.7-4.3-10.5-5.7-18.1-4.9s-10.7 4.1-13.7 1.2-.1-6.5 2.5-9 7.8-7.6 14.7-9.6 7.8-1.3 11.2 0c3.2 1.3 6.6 2.2 10.1 2.5 2.8.1 6.9 1.3 8.5 3.4s4.6 7.6 10.3 10.1 9 5.2 17.6 4.3c8.6-.9 11-.6 17.2 2.8s17.1 11.2 20.6 11.5 12.6 1.9 18.5 1.2 17.6-2.5 21.9-9.3 5.4-13.7 4-19.4c-1.2-4.7-3.2-9.2-5.7-13.4-1.8-2.6-2.6-6.6-.1-14.4s1.3-12.1-3.1-15.9-15-10.7-19.3-16-4.5-12.9-7-17.1-9-7.6-11.1-8.8-6.9-5.3-8.4-13.8-6.8-14-12.1-15.6-15.9-5.3-18.4-9.6-6.6-13.1-8.4-16.8c-2.7-5.6-7.2-10.1-12.8-12.8-6.9-3.2-11.2-3.4-15.1-2.4s-9.1 4.9-16 5-21.8 3.2-30.7 3.4-16.3 5-17.3 7.2c-1.5 4.3-2.5 8.8-2.8 13.4 0 3.4-1.2 9.3-8.1 9.4-5.3.1-24.3-.7-25.6-2.3"/>
        <path fill="none" stroke="#4d432e" d="M545.8 639.5l-1.5-.6c-4.9-2-10.9-5.2-13-6.3-2.9-1.5-13.5-7.4-17.2-8.4s-9.8 1.6-9.6 7.1c.1 3 1.7 5.8 3.8 8.5M716.1 639.7c-1.2-.9-2.8-1.8-4.6-2.5-5.3-2.1-14.3.6-17.6-1.4s-2.9-11.8-3.9-18-6.7-9-14.1-10c-7.6-.9-15.4-.2-22.7 2-7.4 2.2-13.7 11.2-19 18.4s-13.9 9.4-21.2 9.4-11.8-5.7-14.7-6.9-10.6-1-13.1-.8-15.1 4.9-19.4 7.4c-2 1.2-4.9 1.7-7.8 2.3"/>
        <path fill="none" stroke="#4d432e" d="M688.2 639.7c-.5-.4-1-.9-1.5-1.4-6.1-6.3-5.9-10.8-6.5-13.7s-.6-8.4-9.8-8.8-14.5 2.5-18.2 3.9-8.8 6.9-9.8 10 1 6.3 4.9 6.7c2.9.2 5.7.7 8.5 1.4 1.3.3 3 1.1 4.6 2"/>
        <path fill="none" stroke="#4d432e" d="M664.4 623.5c-3.3 0-5.7 2.4-8.8 4.9s-1.2 4.5.8 5.1 4.1-1.2 7.1 0 5.7 1.4 7.8.4.1-5-.4-8c-.2-1.3-3.1-2.4-6.5-2.4z"/>
        <path fill="none" stroke="#4d432e" d="M367.1 411.1l6.4-.4c1.9-.2 11.2-1 13.7-2.9 4.1-2.9 8.4-5.5 12.9-7.8 2.9-1.3 8.2-3.7 12.2-3.7s10 .3 14.8.7 11.8.7 15.7-.6 10.1-3.4 13.7-9.7 7.9-14.5 7.7-20.4l.2-2.6v-2.4c-.2-11.6-5.9-23.9-1-31s12.2-8.6 15.1-9.6 14.9-7.4 20.2-8.8 12.3-2 15.3.8 5.9 6.9 6.5 9 2.7 7.3 8.6 8.6 20.2 3.1 23.1 3.9 11.2 2.9 11.2 11.4-5.1 11.4-7.1 13.9-7.3 6.5-7.3 15.7l-.4 3.8c-.5 3.7-.5 7.4-.2 11.1.8 3.5 1.1 8.2.9 14.7s-4.1 12-6.1 16.1-2.2 11.6-.6 15.9 5.1 10.8 9.8 23.7 3.1 23.5 2.5 29.2.8 9.6 2 11c3.3 3.8 6.8 7.4 10.4 10.8 3.9 3.5 4.7 11.4 4.5 15.1s-.2 7.3 3.7 10.4 13.1 9.4 15.7 11 7.8 8.4 8.6 13.1-.8 16.3-1.2 20.8 1.8 7.3 2.7 10.2-2.5 7.1-3.7 10.8-4.9 10-3.1 14.9 6.9 8.4 14.1 8 12.7-5.1 14.9-6.3 7.1-7.8 15.9-14.1 13.7-13.1 17.8-17.4 2.7-13.9 2.4-16.7c-.7-4.6-1-9.2-1-13.9.2-4.7 3.3-12.2 8-17.4s12-9.8 18.4-10.8c4.8-.8 9.3 2.5 10.1 7.3.1.6.1 1.3.1 1.9-.4 4.7-8.2 11.8-11.4 14.1s-6.3 6.3-6.5 10.2 2.5 9.6 3.1 16.9-3.1 5.1-3.1 11.2 5.1 6.7 11.6 7.8 9.4 6.5 11 9.6c2 4.2 4.5 8.1 7.3 11.8 3.8 4.9 10 12.2 19.6 13.1"/>
        <path fill="none" stroke="#4d432e" d="M745 573.1c-10.6-.8-17.8-4.3-21.2-5.5s-4.7-8.8-5.7-13.7-3.5-8-6.1-9.2-5.5 2.2-7.4 3.9-8 10-7.8 15.5-.8 5.5-2 10.8.6 6.9 2.9 9.6 9.8 4.9 16.9 7.4 7.6 8.8 8 11 2.7 9.4 7.6 12.7c3.4 2.2 7.1 3.8 11 4.9"/>
        <path fill="none" stroke="#4d432e" d="M742.7 583.7c-2.2-2.4-8.8-3.1-11.6-3.3-2.9-.3-5.8-1.1-8.4-2.5-2-1.2-6.3-5.3-8.2-6.3s-6.5-.8-6.5 2.4 4.1 5.7 7.1 7.8 8.2 4.5 13.3 8 3.9 7.3 5.9 10.8 6.9 7.4 6.9 7.4m2.1-53.1c-3.7-1.9-8.3-.9-10.1-.5s-3.5 2.3.2 5.7c1.7 1.4 3.8 2.3 6 2.6m10.1-70.4c-3.9-.6-15.5.2-19.2.8s-10.2 0-12.5-.4-6.3-1-8.8-1.6-5.1 2.2-10 3.5-7.8 6.1-10 8.6-2.7 9.8-.8 14.7 5.9 4.5 11.4 5.1 10.6 3.5 13.7 5.1 9.4 6.1 12.3 7.8 14.5 3.9 14.5 3.9"/>
        <path fill="none" stroke="#4d432e" d="M745.4 503.3c-5.5-.6-13.3.2-16.9.4s-15.5-1.2-18.8-1c-3.9.3-7.1 3.1-7.8 6.9-.7 4.2 2.4 5.1 4.7 5.5s7.8 2.7 13.5 6.3 5.1 5.5 10.8 5.7c3.6.1 7.1-.9 10.2-2.7M686 482.3c1.5 1.5 3.9 1.2 5.5.8s-1.2-3.3-3.9-3.3-4.1-1.2-4.5.2 2.5 1.9 2.9 2.3zm53.7-38c-5.3-1.4-17.8-6.9-22-8.2s-9.8-.8-12.5-.6-7.1 5.9-9.4 7.3-7.6.8-13.1 1.6-13.1 6.3-13.3 14.5 5.1 10.2 10.8 11.6 10.2.6 17.2 4.3 11.8 7.3 16.3 8.4c5 1.1 10.2 1.7 15.3 1.6l10.8.2"/>
        <path fill="none" stroke="#4d432e" d="M743.6 454.9c-3.7-.9-7.6-1.5-11.4-1.8-5.9-.6-11.7-1.7-17.4-3.3-5.1-1.6-11.2-.8-13.5.4s-6.1 3.5-8.8 4.1-6.1 1.2-6.1 3.9-.2 5.3 6.9 5.5 10.4 3.5 12.5 6.1 6.7 4.5 9.8 5.3 9.8-1 13.9 1.4c2.9 1.6 6 2.8 9.2 3.5"/>
        <path fill="none" stroke="#4d432e" d="M741.7 459.8c-5.8.2-11.6-.6-17.2-2.4-4-1.2-8.1-2-12.3-2.4-3.7-.4-5.9 2.4-3.7 4.9s10.6 5.5 14.9 6.3 15.9 6.5 15.9 6.5m-118.4-95c-1 1.6-5.9 7.4-6.4 9.7s-1.8 5.7-1 11.7 2.3 11.7 3.7 13.3 3.6 4.4 7.6 3.7 9.3-4.9 12-7.7 6.9-5.3 9.5-5.8 6.2-1.1 8.6.9 6 7 8.1 9.3 8.1 8.8 13.3 9 10.9-.1 13.8-3.6 4.5-6.6 4-13.1-1-12.8-1-15.8.5-8.1 0-9.6v-8.4c-.9-3.6-6-6.3-8.7-7-4.5-1.3-9-2.4-13.5-3.5-4.7-1.1-9.2-2.6-13.7-4.3-4.5-1.8-8-3.3-12-3.1s-7.8 3.5-10.2 4.9-7.6 7.8-9.4 10.6c-1.5 2.5-2.9 5-4.1 7.6l-.6 1.2z"/>
        <path fill="none" stroke="#4d432e" d="M674.6 368.6c-4.9-1.7-12.9-3.1-16.4-4.2-3.3-1.1-6.9-.3-9.4 2-1.2 1-5.7 6.1-5.7 6.1l-.4.3c-.7 1.3-1.6 2.5-2.6 3.5-1.2.8-8.5 1.8-10.3 3.3s-5.9 2.8-5.9 9 1.1 10.2 2.8 11.4 3 2.5 6.5-.6 6.1-5.5 9.5-5.4 7.5-.5 11.5 1.7c3.9 2.3 7.7 5.1 11.1 8.1 2.2 2.1 7.7 6.1 10.2 6.1s5.7.7 7.3-2 2.3-4.6 2.2-9.4-1.2-7.4-.9-10.2c.4-2.5 0-5-1.1-7.2-1-1.7-3.5-10.7-8.4-12.5z"/>
        <path fill="none" stroke="#4d432e" d="M656.6 383.7c-1 2.9 1.8 4 3.5 4.5s3.2-.7 4.7.4 3.6 4.3 5.8 5.5 3.8 1.6 6 .7 1.4-4.7 1.2-8-2.2-4.7-4.4-5.6c-2.4-.8-4.9-1-7.4-.7-2.6.2-8.4.3-9.4 3.2z"/>
        <path fill="none" stroke="#4d432e" d="M374.8 309.1c1.5.2 2.9.7 4.3 1.3 7.4 3.3 12.8 9.9 14.7 17.8 1.9 8.8 7 23.9 9.6 28.2s9 14.7 9.5 15.8 5.2 5.6 5.2 5.6l2.4 2.1c1.9 2.1 8.1 6 10.9 6.5 2.3.5 4.7-.2 6.4-1.9 1.8-1.7 1.9-2.5 2.8-4.2l2.6-3.9 1.3-2s4.3-4.9 5.7-14.7.6-23.5 2.2-27.2 4.9-14.1 11.6-17.1 14.9-5.9 18.8-8.2 7.4-9.8 11.4-12.7 11.8-9.2 19-8.2c7.2 1 11 6.5 11 13.5s-2.5 16.3 2.4 19.2 14.7 7.3 22.7 7.3 15.3-3.3 22.5-.2 6.5 12.3 4.5 18.4-6.1 11.8-8.2 17.1-6.6 13.6-5.9 19.5c.6 5.3 2.2 11 4.7 20.1s-1 9.4-6.5 15.1-6.8 15-5.1 23.4 9.7 13.8 18.2 15 7.6 3.5 16.5 9.1 14.1 12.6 14.7 17.5-5.3 13.1-11.5 22.2-7.5 13.4-7.1 18.7 4.1 15.9 15 22.9 10.1 15.3 10.9 27.2 4.7 16 7.5 17.5 12.9 5.1 20.6.7 8.4-12.2 9-15.1-.6-14.7 1.8-25.7 10-12.8 17.2-20.4 4.7-11.5 10.7-23.2-1-14.6-4.1-17.3-16.8-6.2-20.7-7.4-7.1-6.6-8.7-11.2c-1.3-4-.5-8.3 2.1-11.6 1.9-2.6 5.1-13.7 5.9-17.3s.1-9.1-4.7-11.8-10.4-.6-12.3-.1-10.6 4-14.7 5.6-7.5 1-13.2.4-9.6-8.1-10.4-10.7.1-9.1.3-13.1-1.9-8.1-2.8-12.1c-.9-4-1.4-8.2-1.6-12.3 0-2.5 1-8.1 2.2-10.1l2.2-3.6c.8-2.6 2.1-5.1 3.7-7.3 2.5-3.1 10.4-7.6 15.1-12.2s15.1-14.5 17.8-22.3 5.3-11.4 3.9-19.6-8.8-7.1-10.6-12.2-.2-7.1 2.2-7.6 8.2-2.5 10-.6 5.5 8.8 8.2 11.4 7.1 4.9 9.6 5.1 10.8.2 13.9 4.9 4.3 16.5 5.1 20 5.9 12 8.4 13.9 9.4 7.3 12.5 9.2 12.3 9.2 12.7 16.9v9.1c-.2 4.3-3.5 5.4-4.9 9.7s.4 8.9 4 12 11.8 6.2 17.7 7.5 14.4.7 14.4.7"/>
        <path fill="none" stroke="#4d432e" d="M366.7 443.1c3.7.4 7.3 3.6 10.1 3.4s4-.3 9.7-2.1 14-5.4 17.3-6.9 9.7-2.2 16.2-1.8c6.1.4 12.2.2 18.2-.6 5.4-.7 12.8-6.3 21.5-9.1s17.8-2.1 22.5-1.3 11.2 5.9 18.2 12.6 8.7 15.1 15.6 22.5 11.3 8.4 15.7 8.7 6.5-3.1 6.5-5-3.5-6.2-6.9-11-5.3-10.7-6.8-18.4.1-27.2.6-31.5 2-17.3 1.7-20.2-.3-6.2-.3-6.2v-1.4c.2-8.2-3.3-9.8-5.7-11.4-1.6-1.1-3.8-.6-4.8 1-.1.1-.2.3-.2.4-.8 2.3-1.4 4.7-1.9 7.1l-.1 1c0 4.3-1.5 6.3-1.5 9.3s1.5 22.3 1.9 25.6 1.6 12.3-.7 17.6-8.1 1.6-11 .9-13.4-7.1-22.1-10.1-12.2-2.2-15.9-1.9-6.8 3.8-11.6 6.6-11.9 4.7-20.9 6.5-15 .1-19.7-.4-9.8.4-15.6 1.8-10.3 4.1-13.1 5.1c-3.1.9-6.4 1.2-9.7.9-3.5-.1-6.5-.4-6.5-.4"/>
        <path fill="none" stroke="#4d432e" d="M497.5 359.7c1.4-4.1 2.7-7.8 4.9-9s8.2-1.8 17.2-4.1 3.7-12.2 2.2-14.5-4.9-8.6-17.1-9.6-21.8 4.9-26.5 6.9-10.4 10.2-10.4 15.3 4.9 5.9 5.7 17.2l-1 6s-1.6 7.9-1.8 10.3-.1 5.9 1.8 6.6 4.1.8 8.5-.1c8.1-1.8 15.1-20.9 16.5-25zM622.9 601c.3-3.1-1.9-1.6-6.6 0s-4.9 2.7-7.9 4.6-2.3 4.7-1 7.1 3.2 2.9 6 2.2 4.3-3.3 5.4-5.2c1.9-2.6 3.3-5.6 4.1-8.7zm-105.1-62c3.6 2.1 9.1 5.7 13.3 6.1s7.5 1.8 11.1-.5 4.8-6 2.7-10.6-7.7-8.5-10.2-10.1-10.9-7-13.2-12.7-.6-13.5-4.2-18.9-11.2-6.2-13.5-7.2-10.1-2-12.5-7.5-3.3-13.5-6.5-17.5-9.7-9.7-16.9-9.4-13.7 3.5-18.8 3.9-16.1 1.6-19.7 2.1-18.9 1.9-20.9 6-1.2 7.9 2.7 11.3 6.6 3.4 7.2 8.6-.1 11.2.4 15.4 2.4 10.9 8.5 15.4 13.5 8.1 17.6 8.3 12 .6 13.9-5.3 4.7-9.9 9-11.1 6.9-2.5 12.7-1.1 7.9 5.1 9.4 7.3 4.4 6 7.7 7.6 7.7 4.2 9 7.1 4.6 8.3 7.2 10c1.3 1 2.6 1.9 4 2.8z"/>
        <path fill="none" stroke="#4d432e" d="M444.5 502.2c3.9 0 6.7-4.2 7.5-5.5 1-1.8 1.7-3.8 1.9-5.8.2-2.3-.1-4.3 1.6-4.7s3.6.5 5.9.2 7-.9 8-4.4 1.4-7.7-2.2-12-7.6-3.7-8.7-3.1c-2.1 1.1-4.3 2-6.6 2.8-2.8.6-5.7.7-8.5.3-2.5-.4-5.7 1.5-6.5 3.5s-2.8 3.2-2 6.5 1.6 5.5 1.8 6.8c.6 2.3.5 4.8-.1 7.1-.9 2.7.8 6.6 2.3 7.4 1.8.7 3.7 1 5.6.9zM751.5 604c1.3 1.8 3.3 3.9 6.1 4.2 4.1.6 8.4.9 10 0s5.3-3.5 1.5-6.8c-2.1-1.9-1.7 0-6.2-1s-6.3-2.1-8.4-4.9-5.3-1.8-5.4 2.1c-.3 2.4 1.1 4.5 2.4 6.4zm35.4 19.9s2.1 1.3 4.6-.9 3-4 2.9-4.8c-.5-1.1-1.8-1.6-2.9-1.2-1.1.6-2.7 1.9-4.6 2.1s-3.5-.2-3.5 1.5 1.8 2.9 3.5 3.3z"/>
        <path fill="none" stroke="#4d432e" d="M846 638.5c-2.5-5-8.5-5.1-10.9-5.6s-6.6-2.1-6.9-4.5-2.8-6.2-5.4-6.7-6.5 0-12.8 5.9-13.4 8.5-22.9 8.7-18.1-4.1-21.4-5.7-10.8-6.8-17.7-8.8c-2.3-.7-6-.8-7.2-1.3m.8 15.5c3.5 1.2 8.3 1.8 12.2 4.2M1040 624.6c-.5-.1-1.1-.1-1.6-.1-3.3 0-5.7 2.4-8.8 4.9s-1.2 4.5.8 5.1 4-1.2 7 0c.8.4 1.7.6 2.6.8m.4-204.5l-.4-.8c-2-4-2.9-5.6-5.2-7.9-5.6-5.5-13-7-22.3-1.8-13.3 7.4-18.6 7.6-25.5 3.9-5.4-2.8-8.8-8.3-9-14.3-.3-5.5-1-11-2-16.5-.6-2.9 3.8-19.4 3.8-19.4s3.3-5.5 4.7-6.5l10-6.7c4.8-3.5 9.3-7.4 13.5-11.6 1.5-1.7 5.1-8 8.6-9s8.2-.8 15.1 3.3c2.7 1.6 5.4 3 8.3 4.2"/>
        <path fill="none" stroke="#4d432e" d="M746.5 310c2.3.3 4.6 1.1 6.6 2.4 5.6 3.6 12.8 9 14.7 17.8s7 23.9 9.6 28.2 8.8 14.3 12.5 19.8l.2.2c1.8 2.5 3 2 4.9 4.1s3.7 7.4 6.5 7.8 6.8-.1 8.5-1.8c2-2.4 3.8-4.9 5.2-7.7l1.7-3.4 1.5-2s4.3-4.9 5.7-14.7.6-23.5 2.2-27.2 4.9-14.1 11.6-17.1 14.9-5.9 18.8-8.2 7.4-9.8 11.4-12.7 11.8-9.2 19-8.2 11 6.5 11 13.5-2.5 16.3 2.4 19.2 14.7 7.3 22.7 7.3 15.3-3.3 22.5-.2 6.5 12.3 4.5 18.4-6.1 11.8-8.2 17.1-6.5 14.6-5.9 19.5 2.2 11 4.7 20.1-1 9.4-6.5 15.1-6.8 15-5.1 23.4 9.7 13.8 18.2 15 7.6 3.5 16.5 9.1 14.1 12.6 14.7 17.5-5.3 13.1-11.5 22.2-7.5 13.4-7.1 18.7 4.1 15.9 15 22.9 10.1 15.3 10.9 27.2 4.7 16 7.5 17.5 12.9 5.1 20.6.7 8.4-12.2 9-15.1-.6-14.7 1.8-25.7c2.2-10 8.6-12.4 15.2-18.4"/>
        <path fill="none" stroke="#4d432e" d="M941.9 463.2c-3.2.1-3.8 2.6-4 5.4s2.1 7.4 2.5 11.3-1.8 9.4-2.5 14.4 2.1 7.6 5.7 10 7.1 1.9 10.9 1.9 6.6-5.1 7.2-6.2 2.4-5.6 4.3-7.8 1.6-4.6 1-9.7-10.3-12.9-13.1-15.4c-3.4-3-8.8-4-12-3.9z"/>
        <path fill="none" stroke="#4d432e" d="M948.2 486.3c-.2 2.2 1.8 6.5 3.8 6.3s4.6-2.5 5.3-4.7c1-2.7 0-5.7-2.5-7.1-3.1-2.1-4.6-1.5-5.3-.4s-1.2 3.9-1.3 5.9zm37-26.6c2.1 1.2 3.7 3.7 4.7 6 .7 2.1 2.7 3.5 4.9 3.5 2.1 0 4.4 0 3.5-5s-3.1-6.9-7.3-8.2c-3.1-1-6.1-2.4-8.8-4.3-1.6-1-4.4-1.9-6.5-1.3s-4 2.4-1.6 3.4 5.9 3.8 7.8 4.3c1.2.3 2.3.8 3.3 1.6zm7.8 45.1c-3.1 3.4-6.9 8.2-9.1 10.3s-1.5 5.3-1.3 7.4 2.9 4.9 4.1 5.4 3.8 1 5.4 2.5 4 5.7 5.9 6.8 3.4 3.4 6.9 2.2 6-4.9 6.8-7.2c.8-2.4 2.2-4.6 4.1-6.2 1.5-1 9.6-9.4 10.7-11s4.1-3.8 2.8-10.4-4.7-6.9-7.4-8.2-8.2-4.7-10.6-7.6-4.7-6.8-8.7-6.2-4 2.1-4 6.5-.3 9.7-1.3 10.7-4.3 5-4.3 5z"/>
        <path fill="none" stroke="#4d432e" d="M992.6 516.6c-.4 2.1-.7 6.9 4.3 8.8s6.8.6 9.6-.9 3.5-4.3 4.7-5.6c2.3-2.6 5-4.8 7.9-6.6 4.1-2.5 2.4-7.5 1.8-9.7s-4.1-3.5-9.4-4.3-6.2 1.3-7.6 3.5-4.3 6.9-6.5 8.5c-1.3 1-4.4 4.2-4.8 6.3zm-255.9-45.1c4.6 2.6 10.4 2.6 13.8 2.7s7.6-.3 11-3.2 2.9-7.8 2.6-9.6-4.1-1.9-6.3-2.1-5.9.4-8.7.6-8.7-.2-8.7-.2"/>
        <path fill="none" stroke="#4d432e" d="M736.6 412.1l10.9-.5c1.9-.1 11.3-.9 13.8-2.8 4.1-2.9 8.4-5.5 12.9-7.8 2.9-1.3 8.2-3.7 12.2-3.7s10 .3 14.8.7 11.7.7 15.7-.6 10.2-3.4 13.7-9.7 8-14.7 7.9-20.6l.1-4.8c-.2-11.6-5.9-23.9-1-31s12.2-8.6 15.1-9.6 14.9-7.4 20.2-8.8 12.4-1.9 15.3.8 5.9 6.9 6.5 9 2.7 7.2 8.6 8.6 20.1 3.1 23.1 3.9 11.2 3 11.2 11.4-5.1 11.4-7.1 13.9-7.3 6.5-7.3 15.7l-.1 2.2c.8 3.6.7 20.9.5 27.4s-4.1 12-6.1 16.1-2.2 11.6-.6 15.9 5.1 10.8 9.8 23.7 3.1 23.5 2.5 29.2.8 9.6 2 11c3.3 3.8 6.8 7.4 10.4 10.8 3.9 3.5 4.7 11.4 4.5 15.1s-.2 7.3 3.7 10.4 13.2 9.4 15.7 11 7.8 8.4 8.6 13.1-.8 16.3-1.2 20.8 1.7 7.3 2.7 10.2-2.6 7.1-3.7 10.8-4.9 10-3.1 14.9 6.8 8.4 14.1 8 12.7-5.1 14.9-6.3 7.1-7.9 15.9-14.1 13.7-13.1 17.8-17.4 2.8-14 2.4-16.7c-.7-4.6-1-9.2-1-13.9.2-4.4 3-11.1 7.1-16.3M567.9 462.2c-3.2.1-3.8 2.6-4 5.4s2.1 7.4 2.5 11.3-1.8 9.4-2.5 14.4 2.1 7.6 5.7 10 7.1 1.9 10.9 1.9 6.6-5.1 7.2-6.2 2.4-5.6 4.3-7.8 1.6-4.6 1-9.7-10.3-12.9-13.1-15.4c-3.4-3-8.8-4-12-3.9zM618.6 515.6c-.4 2.1-.7 6.9 4.3 8.8s6.8.6 9.6-.9 3.5-4.3 4.7-5.6c2.3-2.6 5-4.8 7.9-6.6 4.1-2.5 2.4-7.5 1.8-9.7s-4.1-3.5-9.4-4.3-6.2 1.3-7.6 3.5-4.3 6.9-6.5 8.5c-1.3 1-4.4 4.2-4.8 6.3zM390 460.2c-.3-1.8-4.1-1.9-6.3-2.1s-5.6 1.5-8.4 1.6c-1.8.1-5-1.2-6.8-1s-12.7-1.2-16.1-2.3c-4-1.2-8.1-2-12.3-2.4-3.7-.4-5.9 2.4-3.7 4.9s10.6 5.5 14.9 6.3c3.7.7 12.5 4.8 15.1 6.1 4.6 2.6 6.6 1.5 10 1.6s7.6-.3 11-3.2 2.9-7.8 2.6-9.5zm-6.6-81.7c-1.9 2.9-4.9 4.1-4.1 7.4s4.7 4.8 7.5 4.9c8.2.2 10.4-8.2 10.4-8.2 3.3-19.8-6.1-39.2-7.1-41.2s-3.7-8.8-8-9.8-2.5 2-1 4.9c1.7 3.4 2.6 7 2.7 10.8 0 3.1-.2 8.2.6 11.4s2.2 6.9 2.2 9c-.3 2.5-.7 4.9-1.4 7.3l-1.8 3.5zm-13.1 75c1.8.4 17.6 1.5 23.2-.4 7.5-2.5 23.5-5.7 31.9-7.2s17.9-.7 30.1-6.5 24-5.6 29.5-4.3 14.6 7.6 18.8 21.6 11.6 17.2 15.1 20.4 13.8 3.2 17.3 4.4 11.2 6 13.5-2.5-1.9-13.8-2.9-17.2-7.2-10.9-9.7-18.4-2.4-16.3-2.2-19.8 1.8-17.6 2.6-22.3.9-15.4.9-20.3v-.7c.2-4.3-.4-8.9-1.8-15.8s-6.3-11.2-9.6-12.5-10.6 1-17.1 5.3-6.3 12.3-6.5 15.7v.7c-.3 4.1-2 10.6-2.9 15.8s-3.7 8.1-7.1 11.6-7.9 2.6-11.6 2.4-7.1-3.4-11.5-4-6.8 2.1-10 4-7.8 6.2-11.5 8.2-10.3 2.6-17.2 3.1-9.4-1.2-15.1-2.6-9.6.7-12.9 1.3-9.1 4.3-14.4 7.8-12.9 3.9-17.2 4.1M739.7 539.9c3.5.6 6.8 1.8 9.9 3.6 4.1 2.7 8 7.8 12.2 17.6s10.8 14.5 17.6 14.7 13.3-.8 16.9-4.1 7.3-2.5 11.4-.4 9 4.1 14.1 2.5 10.2-7.1 14.7-7.3 8.2-.6 10.2 3.7 4.3 6.5 9.6 7.1 9 1.2 12.2 5.1 8.6 9.8 11.6 10.2 7.4.8 9.6 1.2 11 4.3 14.9 7.6 13.9 7.6 17.8 7.6 10.6.4 12.3-4.1 1.6-7.6-4.3-11-13.5-8.8-15.1-11.8-7.8-10.8-13.1-13.1-16.9-5.7-22.1-8.4-9.8-12.7-10.8-15.7-4.7-16.3-15.1-16.3c-3.2 0-2.9 3.3-9.2 5.7s-7.8 1-11.4 1.8-8.2 7.4-12 7.6-7.6 1-14.5-6.9-9.8-7.4-12.7-8.8c-5.8-2.8-10.8-7-14.3-12.4-4.9-7.4-8.6-12.3-16.9-17.8s-12.9-6.5-25.3-5.6m-.2 70.2c2 .3 7.2 1.2 8.4.6s2.6-1.4 1.9-4.4-4.8-3.8-5.4-3.9"/>
        <path fill="none" stroke="#4d432e" d="M747 310.1c-5.1-.6-10.3-.7-15.5-.4-3 0-9.8-.2-11.4-5.1s-5.1-9-9-10.8-9.2-1-12.7-.6-6.9 2.7-4.7 8.8-.2 9.6 0 13.5 2.5 8.4 9.6 12.5 16.1.8 27.2 13.9 8.6 31.8 8.8 32.5c-.1 5.9-4.1 9.3-4.2 15.2s-.6 7.8-2.6 9.4-5.1 1.4-6.4.2 1-6-.2-10.7c-1.3-5.4.1-12.6.1-12.6 2.9-10.8-3.9-17.2-7.6-22.3s-15.1-12.3-22.1-16.1-11.6-15.3-12-18.6.6-8.6 1-12.7-2.5-6.1-7.4-7.3-11.4.4-16.5.2-9.2-6.5-11-8.4-5.1-7.3-12.5-7.8-13.3 4.1-19 5.7-12-1-16.1-2.9-10-4.5-14.3-4.7-9.2 3.5-12.2 4.9-3.5 4.3-1 5.9 8.2 2.9 13.7 3.5 18.8 1.4 30.6 7.3 10.2 15.5 8.6 20-7.6 10.2-12.5 11.2-3.5-3.5-2.4-10.2-1.2-10.2-5.3-15.1-15.7-5.7-20.8-5.9c-7.8-.1-15.5-1.7-22.7-4.9-9.6-4.3-8.2-10.6-8-13.5s8-7.6 10.6-9.4-1-2.4-3.9-2.4l-18.8.4c-3.5 0-7.4-1-8.6 1-1.9 3.1-1.6 5.5 6.3 9.4s8.6 9.4 8.2 12.3.6 8 7.6 11.8 17.4 2.2 29.2 4.1 15.7 10.8 16.1 20-4.3 19.2-6.9 23.5c-1.6 2.7-14.6 28.6-11.9 35.7s2.9 10 4.4 16.6-2.9 11.6-1.3 17.9 5.3 7.4 15.9 15.6 16.3-.4 24.5 4.9 6.9 8.1 7.1 20.6 3.5 15.3 8.1 19.3 14 7.4 20.3 9.6 5.4 4 5.6 11.5c.2 7.5-9.4 17.3-15.3 20.6s-9.8 7.4-12.9 15.9-.4 18.7 0 26-1.2 13.4-6.6 14.1-10.1-3.1-13.2-7.5-3.7-17.9-2.9-26.8-1-10.9-5.4-14-8.8-2.1-14.1-8.2.3-12.8 2.2-16 11-12.5 15.9-19.1 2.9-10.7.4-15.9-11-8.5-14.8-10.3-8.1-5.7-9.1-7.6-8.7-8.1-11.9-9.6c-4.8-2.6-9.2-5.7-13.2-9.4s-2.8-9.8-1-12.8 6.6-11.6 7.8-18.1-2.5-10.1-3.2-14 1-11 2.2-14.1l1.9-5.6c1.2-2.7 2.6-5.4 4.1-8 2.7-4.9 5.2-9.9 7.3-15.1 1-2.7 3.9-10 2.2-19s-6.7-14.7-13.5-15.3-11.6.4-19 .2-13.7-.6-18.6-4.5-3.3-6.9-2.5-9 3.7-5.1-.8-12.5-14.3-12.2-18.6-16.9-9.2-9.4-9.4-14.9 5.9-8 9.6-7.1 14.3 6.9 17.2 8.4 13.9 7.4 18 7.8 12.2-.6 16.5-3.1 16.9-7.3 19.4-7.4 10.2-.4 13.1.8 7.4 6.9 14.7 6.9 15.9-2.2 21.2-9.4 11.6-16.3 19-18.4c7.4-2.2 15.1-2.9 22.7-2 7.4 1 13.1 3.7 14.1 10s.6 16.1 3.9 18 12.3-.8 17.6 1.4 8.2 5.7 8.4 8 .6 9.4 2.2 12.9 7.8 13.1 19.4 14.7M488.7 499.8c2.9 1.5 8.7 4.8 11.3 5.2s6.2 1.9 7.7-2.3 1.6-5.6-1.8-8-13.7-4.3-18-6.6-8.2-4.6-9-10-.2-10.8-3.3-14.6-5.7-6.1-14.2-4.3-6.9 3.3-14.1 3.7-15.3-.2-17.3.1-6.1.6-6.8 4.4 1.2 6.5 3.7 9.8 1 11 1 11-1.8 6.5-1 9.4c1.1 3.9 3.5 7.2 6.9 9.4 4.2 2.6 5.1 4.7 11.7 3.3s10-7.7 12.6-9.5 7-6.7 13.7-6 16.9 5 16.9 5z"/>
        <path fill="none" stroke="#4d432e" d="M452.3 477.3c-.2 2.4 1.6 4.6 4 4.8h.7c2.8-.2 4.4-2.7 4-5.5s-2.7-4.2-5.7-3.9-2.9 2.7-3 4.6zm292.2 26c4.7-.1 9.3.8 13.6 2.6 9 3.9 14.5 12.5 18 18.5s7.6 9.9 11.4 11.7 5.3 2.4 9 5.9 2.9 5.3 5.7 6.5 3.7 1 9 2.9 6.1 5.3 5.3 7.1-5.3 1-9 0-10.8-7.6-11.6-8.6-7.3-6.7-10.6-7.1c-4.2-.6-8.4-1.5-12.5-2.7-5.3-1.6-11.8-13.1-11.8-13.1-3.9-3.6-9.2-6.6-11.7-6-2.9 1-5.7 2.1-8.4 3.5M1040 381.5c-2.6.2-8.4.3-9.4 3.2s1.8 4 3.5 4.5 3.2-.7 4.7.4c.4.3.8.7 1.2 1.1"/>
        <path fill="none" stroke="#4d432e" d="M1040 367.2c-2.9-.7-5.7-1.2-7.7-1.9-3-1-7.5.4-9.4 2-1.2 1-4.4 6.5-4.4 6.5l-.4.7c-.5 1.1-1.3 2-2.2 2.8-1.2.8-10.3 1.8-12.2 3.2s-5.9 2.8-5.9 9 1.1 10.2 2.8 11.4 3 2.5 6.5-.6 6.1-5.5 9.5-5.4 7.5-.5 11.5 1.7c3.9 2.3 7.7 5.1 11.1 8.1M574.2 485.3c-.2 2.2 1.8 6.5 3.8 6.3s4.6-2.5 5.3-4.7c1-2.7 0-5.7-2.5-7.1-3.1-2.1-4.6-1.5-5.3-.4s-1.2 3.9-1.3 5.9zm37-26.6c2.1 1.2 3.7 3.7 4.7 6 .7 2.1 2.7 3.5 4.9 3.5 2.1 0 4.4 0 3.5-5s-3.1-6.9-7.3-8.2c-3.1-1-6.1-2.4-8.8-4.3-1.6-1-4.4-1.9-6.5-1.3s-4 2.4-1.6 3.4 5.9 3.8 7.8 4.3c1.2.3 2.3.8 3.3 1.6zm7.8 45.1c-3.1 3.4-6.9 8.2-9.1 10.3s-1.5 5.3-1.3 7.4 2.9 4.9 4.1 5.4 3.8 1 5.4 2.5 4 5.7 5.9 6.8 3.4 3.4 6.9 2.2 6-4.9 6.8-7.2c.8-2.4 2.2-4.6 4.1-6.2 1.5-1 9.6-9.4 10.7-11s4.1-3.8 2.8-10.4-4.7-6.9-7.4-8.2-8.2-4.7-10.6-7.6-4.7-6.8-8.7-6.2-4 2.1-4 6.5-.3 9.7-1.3 10.7-4.3 5-4.3 5zM742.2 573.1s2.9-.7 7.2 1.1 11.3 6.2 15.3 8.4 6.9 3.8 11.8 3.5c6.3-.5 12.5-1.7 18.6-3.5 5.4-1.7 11.4-1 15.2 0 4.4.8 9 .8 13.4 0 1.1-.2 2.2-.6 3.2-1 1.3-.6 5.6-4.2 10.7-4s9.6 4.1 10.7 5 6.2 4.1 7.8 4.4 6.6 2.1 7.9 3.7 2.5 6.9 5 9.8 6.3 6.2 10.9 6.2 6.4-1.2 8.3-1.3 6 0 8.2 2.1 10.4 6.6 12.5 7.5 10.7 3.8 17.3 3.4c5.8-.5 11.4-2.4 16.4-5.3 2.8-1.8 9.1-5 7.5-14.4s-4.1-15.1-4.3-17.6 3.5-11.9-1.6-17.6-9.5-6.5-16.4-6.8-19 .4-22.1 0-12.5-2.2-18.5-8.4-8.8-11.6-12.1-13.2-9.4-5.3-12.2-8.8-1.8-7.3-6-10.1-8.2-4.9-12.5-2.5c-4.3 2.4-1.6 10-5.1 12.5s-15.1 5-19 4.7-10.9-3.8-14.3-6.3-11.6-9.3-14.7-12.8-11.2-13.5-13.5-15.1-8.1-6-15.9-7.9-12.2-3.2-24.3-3.5m2.3 121.6c5.2 4.8 8.1 3.7 13.6 6.5s10.6 1.2 14.7 0 10-6.9 12.2-9 4.3-2.5 7.2-2.8 5.3-2.9 3.2-7-6.6-2.5-8.7-2.4-9.2 2.1-13 2.4-6.7-2.5-9.6-4.9c-2.7-2.1-11.7-4-15.7-5.5l-2-1.4M825.4 640c-1.7-1.2-3.3-2.6-4.7-4.1-3.7-3.5-8.7-.1-11.6 1.6-1.5.9-3.1 1.8-4.7 2.5m114.2 0c-4.9-2-11.2-5.3-13.3-6.4-2.9-1.5-13.5-7.4-17.2-8.4s-9.8 1.6-9.6 7.1c.2 2.8 1.3 5.5 3.1 7.7m158.4-31.5c-4.3.3-8.6 1.1-12.8 2.3-7.4 2.2-13.7 11.2-19 18.4s-13.9 9.4-21.2 9.4-11.8-5.7-14.7-6.9-10.6-1-13.1-.8-15.1 4.9-19.4 7.4c-1.3.7-2.7 1.3-4.2 1.7m97.3 0c-1-.5-2-.9-3.1-1.2-2.8-.7-5.6-1.2-8.5-1.4-3.9-.4-5.9-3.6-4.9-6.7s6.1-8.6 9.8-10c3-1.2 7.2-3.4 13.8-3.8"/>
        <path fill="none" stroke="#4d432e" d="M770.1 556.2s4 2.8 4.6 4.2 2 6.5 3.8 6.7 4.5 1.2 9.6-.6 6.4-3.5 6.7-4 .9-2.2-2.3-3.6c-2.9-1.3-5.8-2.9-8.4-4.7-2.1-1.5-3.5-3.3-7.1-3-2.4.1-4.7.6-7 1.3-1.3.6-1.2 2.7.1 3.7zm102.1 15.1s5.5 2.5 7.3 3.5c2.6 1.4 4.4 2.8 6.2 2.6s4.7-.7 0-4.1-8.7-6.9-12.1-8.8-7.5-5.1-8.1-6.2c-1.1-2.3-2.7-4.3-4.7-6-2.5-1.9-4.1-3.2-6.9-3.4-3.7-.3-7.3-1.3-10.7-2.9-3.4-1.8-9.3-.7-11.5 1.5-1.6 1.6-2.5 7.2-2.4 9.8s.7 4.4 4 4 8.2-3.9 9.4-4.3c2.4-.8 5.1-.4 7.1 1.2 2.2 1.8 3.8 4.2 4.6 6.9.7 2.3 5.2 4.7 6.9 5.1 2 .5 3.2 1 5.1.7s4.1-.6 5.8.4zm40 26c1.8.6 4.7 1.5 5.7 1s.7-1.5-1.6-2.5c-1.8-.9-3.8-1.5-5.9-1.6-1.9 0-.1 2.5 1.8 3.1zm10-22.2c2 1.1 4 2.5 5.7 4 1.4 1.4 2.3 3.5 4.8 3.4s5.1-.9 5.4-5c.3-3.6-1.2-7.1-4-9.3-2.5-1.9-5.4-3.4-11.9-1.8s-10 3.4-6.3 5.6 3.9 1.7 6.3 3.1zM739.7 454c14.2 3.3 17.7-.2 25.2-2.7s23.5-5.7 31.9-7.2 17.9-.7 30.1-6.5 24-5.6 29.5-4.3S871 441 875.3 455s11.6 17.2 15.1 20.4 13.8 3.2 17.3 4.4 11.2 6 13.5-2.5-1.9-13.8-2.9-17.2-7.2-10.9-9.7-18.4-2.4-16.3-2.2-19.8 4.3-19.7 5.2-24.4l1-13.6c.1-6.2-.5-12.4-1.8-18.4-1.4-6.9-6.3-11.2-9.6-12.5s-10.6 1-17.1 5.3-6.3 12.3-6.5 15.7v1.1c-.6 4.3-2.1 10.9-2.9 15.4-.9 5.1-3.7 8.1-7.1 11.6s-7.9 2.6-11.6 2.4-7.1-3.4-11.5-4-6.8 2.1-10 4-7.8 6.2-11.5 8.2-10.3 2.6-17.2 3.1-9.4-1.2-15.1-2.6-9.6.7-12.9 1.3-9.1 4.3-14.4 7.8-11.1 3.3-15.1 3.7-7.6.4-7.6.4M1040 310.3c-2.6-.7-5.2-1-7.9-1.1-2.5-.2-6.9-2.5-9.6-5.1s-6.4-9.4-8.2-11.4-7.6.1-10 .6-4 2.5-2.2 7.6 9.2 4 10.6 12.2-1.2 11.8-3.9 19.6-13.1 17.8-17.8 22.3-12.6 9.1-15.1 12.2c-1.6 2.2-2.9 4.7-3.7 7.3l-2.2 3.6c-1.4 3.2-2.1 6.6-2.2 10.1.2 4.1.7 8.3 1.6 12.3.9 4 2.9 8.1 2.8 12.1s-1.2 10.5-.3 13.1 4.7 10.1 10.4 10.7 9.1 1.2 13.2-.4 12.8-5.2 14.7-5.6 7.4-2.5 12.3.1 5.4 8.1 4.7 11.8-4 14.7-5.9 17.3c-2.6 3.3-3.4 7.6-2.1 11.6 1.6 4.6 4.8 10 8.7 11.2 2.2.7 7.4 2 12.1 3.6"/>
        <path fill="none" stroke="#4d432e" d="M862.7 500.8c2.9 1.5 8.7 4.8 11.3 5.2s6.2 1.9 7.7-2.3 1.6-5.6-1.8-8-13.7-4.3-18-6.6-8.2-4.6-9-10-.2-10.8-3.3-14.6-5.7-6.1-14.2-4.3-6.9 3.3-14.1 3.7-15.3-.2-17.3.1-6.1.6-6.8 4.4 1.2 6.5 3.7 9.8 1 11 1 11-1.8 6.5-1 9.4c1.1 3.9 3.5 7.2 6.9 9.4 4.2 2.6 5.1 4.7 11.7 3.3s10-7.7 12.6-9.5 7-6.7 13.7-6 16.9 5 16.9 5z"/>
        <path fill="none" stroke="#4d432e" d="M891.8 540c3.6 2.1 9.1 5.7 13.3 6.1s7.5 1.8 11.1-.5 4.8-6 2.7-10.6-7.7-8.5-10.2-10.1-10.9-7-13.2-12.7-.6-13.5-4.2-18.9-11.2-6.2-13.5-7.2-10.1-2-12.5-7.5-3.3-13.5-6.5-17.5-9.7-9.7-16.9-9.4-13.7 3.5-18.8 3.9-16.1 1.6-19.7 2.1-18.9 1.9-20.9 6-1.2 7.9 2.7 11.3 6.6 3.4 7.2 8.6-.1 11.2.4 15.4 2.4 10.9 8.5 15.4 13.5 8.1 17.6 8.3 12 .6 13.9-5.3 4.7-9.9 9-11.1 6.9-2.5 12.7-1.1 7.9 5.1 9.4 7.3 4.4 6 7.7 7.6 7.7 4.2 9 7.1 4.6 8.3 7.2 10c1.3 1 2.6 1.9 4 2.8z"/>
        <path fill="none" stroke="#4d432e" d="M739.3 444.3c3.7.4 7.9 1.5 10.7 1.3s4-.3 9.7-2.1 14-5.4 17.3-6.9 9.7-2.2 16.2-1.8c6.1.4 12.2.2 18.2-.6 5.4-.7 12.8-6.3 21.5-9.1s17.8-2.1 22.5-1.3 11.2 5.9 18.2 12.6 8.7 15.1 15.6 22.5 11.3 8.4 15.7 8.7 6.5-3.1 6.5-5-3.5-6.2-6.9-11-5.3-10.7-6.8-18.4.1-27.2.6-31.5 2.4-19.1 2.1-22l.1-3.8c.2-8.2-3.3-9.8-5.7-11.4-1.6-1.1-3.8-.6-4.8 1-.1.1-.2.3-.2.4-.6 1.2-2 8-2 8l-.6 9.4c0 3.1 1.5 22.3 1.9 25.6s1.6 12.3-.7 17.6-8.1 1.6-11 .9-13.4-7.1-22.1-10.1-12.2-2.2-15.9-1.9-6.8 3.8-11.6 6.6-11.9 4.7-20.9 6.5-15 .1-19.7-.4-9.8.4-15.6 1.8-10.3 4.1-13.1 5.1c-3.3 1.1-6.8 1.6-10.3 1.5-2.2-.1-4.3-.3-6.4-.8M996.9 602c.3-3.1-1.9-1.6-6.6 0s-4.9 2.7-7.9 4.6-2.3 4.7-1 7.1 3.2 2.9 6 2.2 4.3-3.3 5.4-5.2c1.9-2.6 3.3-5.6 4.1-8.7z"/>
    </g>
</svg>
