<svg width="780" height="160" xmlns="http://www.w3.org/2000/svg" viewBox="0 0 780 160">
    <path d="M64 27.4h29.6l42.6 129.8h-25l-9-28H54l-9.2 28h-25L64 27.4zm-4 84h36.4l-18-55.8L60 111.4zM225.9 71.4c8.2 9.3 12.3 21.6 12.3 36.8 0 15.2-4.3 27.7-13 37.6-8.4 9.5-18.9 14.2-31.4 14.2-6 0-11.5-1.6-16.5-4.8-5-3.2-9-8.1-11.9-14.8l-5.8 16.8h-15.4V20h23.6v52.2c6.1-9.9 15.3-14.8 27.5-14.8s22.4 4.7 30.6 14zm-58.1 31.2v12.8c.3 6.8 2.7 12.4 7.4 16.8 4.4 4.3 9.8 6.4 16.1 6.4 6.3 0 11.8-2.8 16.3-8.3 4.5-5.5 6.8-12.8 6.8-21.9 0-9.1-2.2-16.3-6.7-21.7-4.5-5.4-10-8.1-16.7-8.1-6.7 0-12.2 2.2-16.6 6.6-4.4 4.4-6.6 10.2-6.6 17.4zM290.2 57.4c6.5 0 12.7 1 18.4 3.1 5.7 2.1 10.7 5.2 14.8 9.5 9.2 9.3 13.8 22.3 13.8 38.8 0 16.3-4.6 29.1-13.8 38.4-8.3 8.5-19.3 12.8-33.2 12.8-13.9 0-25.1-4.3-33.6-12.8-9.2-9.2-13.8-22-13.8-38.4 0-16.7 4.6-29.6 13.8-38.8 8.4-8.4 19.6-12.6 33.6-12.6zm23.4 51.2c0-10.3-2-18-6-23.1-4-5.1-9.6-7.7-16.7-7.7s-13 2.6-17.5 7.7-6.8 12.8-6.8 23.1 2 18 6.1 23.1c4.1 5.1 9.6 7.7 16.7 7.7s12.9-2.6 17.4-7.7c4.5-5.1 6.8-12.8 6.8-23.1zM414.8 139.6c-6.1 12.9-16 19.4-29.6 19.4-17.2 0-28.5-6.7-34-20.2-2-4.7-3-10.3-3-17v-62h23.6v59.6c0 6.4 1.5 11.2 4.6 14.3 3.1 3.1 6.8 4.7 11.3 4.7 4.5 0 8.2-.6 11.3-1.9 3.1-1.3 5.7-3.2 8-5.7 4.9-5.7 7.5-13.4 7.8-23v-48h23.6v97.4h-23.6v-17.6zM515.4 154.8c-8.8 3.5-15.7 5.2-20.8 5.2-5.1 0-9.5-.6-13.3-1.8-3.8-1.2-7.2-3-10.1-5.4-6.1-5.5-9.2-13-9.2-22.6V75.8h-13.6V60H462V34.4h23.6V60H512v15.8h-26.4v53.6c0 8 3.8 12 11.4 12 3.9 0 8.9-1.1 15-3.2l3.4 16.6zM581.8 27.4v80.8c0 10.7 2.7 18.3 8.1 23 5.4 4.7 12.4 7 20.9 7 8.5 0 15.5-2.3 20.9-7 5.4-4.7 8.1-12.3 8.1-23V27.4h23.6v80.8c0 16.5-4.6 29.3-13.8 38.3-9.2 9-22.1 13.5-38.8 13.5-16.7 0-29.6-4.5-38.8-13.5-9.2-9-13.8-21.8-13.8-38.3V27.4h23.6zM696.4 127.6c.3 9.2 7 13.8 20.2 13.8 5.1 0 9.2-1.1 12.5-3.3 3.3-2.2 4.9-4.8 4.9-7.7 0-2.9-1-5.2-3-6.8s-5.1-3.1-9.4-4.4l-21.2-7.6c-15.7-5.5-23.6-14.4-23.6-26.8 0-8.3 3.7-14.9 11.1-19.9s17.3-7.5 29.8-7.5 22.1 2.7 28.8 8.2c6.7 5.5 10.2 12.3 10.5 20.6h-22.2c-.3-3.2-1.8-5.7-4.6-7.6-2.8-1.9-6.8-2.8-12-2.8s-9.2 1-12.1 3.1c-2.9 2.1-4.3 4.4-4.3 7.1 0 4.7 3.9 8.1 11.8 10.4l23 8.6c7.6 2.5 13.4 5.8 17.5 9.7 4.1 3.9 6.1 9 6.1 15.3 0 8-3.8 14.9-11.4 20.8-7.9 6.1-18.3 9.2-31.2 9.2-12.9 0-23.3-2.8-31.2-8.5-7.9-5.7-11.9-13.6-12-23.9h22z" opacity=".05"/>
</svg>
