<svg xmlns="http://www.w3.org/2000/svg" width="260" height="895" viewBox="0 0 260 895">
  <g opacity="0.5">
    <path fill="none" stroke="#f3c565" d="M206.19,895a12.3,12.3,0,0,0-1.09-1.1c-1-.8-7.6-7.9-8.6-11.6s-1.8-8.2,0-9,5.1,0,7.1,5.3,1.7,6.3,2.9,9,3,2,6.5,5.7c.59.62,1.09,1.18,1.53,1.7"/>
    <path fill="none" stroke="#f3c565" d="M182.1,895a10.3,10.3,0,0,1,1.1-1.4c3.3-3.5,2.6-7.3.4-11.4s-4.1-9-2.5-14.1,7.1-10.2,7.3-14.7.6-8.2-3.7-10.2-6.5-4.3-7.1-9.6-1.2-9.1-5.1-12.2-9.8-8.7-10.2-11.6-.8-7.4-1.2-9.6-4.3-11-7.6-14.9-7.6-13.9-7.6-17.8-.4-10.5,4.1-12.3,7.7-1.6,11,4.3,8.9,13.5,11.8,15.1,10.7,7.8,13.1,13.1,5.7,16.8,8.4,22.1,12.8,9.8,15.7,10.8,16.3,4.7,16.3,15.1c0,3.2-3.3,2.9-5.7,9.2s-1,7.9-1.8,11.4-7.4,8.3-7.6,12-1,7.6,6.9,14.5c7.44,6.5,7.43,9.45,8.58,12.2"/>
    <path fill="none" stroke="#f3c565" d="M186.8,755.7a10.49,10.49,0,0,0-9.3-4c-4.1.3-4.9,2.9-5,5.4s2.1,3.4,3.4,4.8a31.77,31.77,0,0,1,4,5.7c1.3,2.4.7,2.6,3.1,6.3,2.2,3.7,4,.2,5.6-6.3S188.7,758.2,186.8,755.7Zm-27.6,17.8c-1-2.4-2.1-2.6-2.5-1.6s.4,3.9,1,5.7,2.9,3.6,3.1,1.8C160.8,777.5,160.2,775.9,159.2,773.5Zm49.7,72.9a29.13,29.13,0,0,1-2.9-10.7c-.2-2.8-1.5-4.4-3.4-6.9s-5-4.1-6-4.7-4.3-4.7-6.2-8.1-5.4-7.4-8.8-12.1-4-1.8-4.1,0,1.2,3.6,2.6,6.2l3.5,7.4c1,1.7.6,3.8.4,5.7s.2,3.1.7,5.1c.4,1.7,2.8,6.2,5.1,6.9a14.75,14.75,0,0,1,6.9,4.6,7.58,7.58,0,0,1,1.2,7.1c-.4,1.2-3.9,6.2-4.3,9.4s1.4,3.9,4,4,8.2-.8,9.8-2.4C209.6,855.7,210.7,849.8,208.9,846.4ZM192.4,895a1.8,1.8,0,0,1,1.83,0"/>
    <path fill="none" stroke="#f3c565" d="M47.63,895c-2.35-2.38-4-5.24-3.63-7.8.6-4.7,7.6-4.1,10.4-4s5.7.7,8.5.4,10.6-3.5,12.8-5.1,5.8-7.6,7.1-13.8,4.7-9.1,7.5-10,8.5-5.4,10.7-9.8,10.4-3.7,15.4-1.2,5.2,8.5,5.6,10.9,2,6.6,4.5,6.9,6.3,2.8,6.7,5.4,0,6.5-5.9,12.8a30,30,0,0,0-8,15.3m53,0c0-.1.05-.2.08-.3,1.8-5.4,1-11.4,0-15.2a35.53,35.53,0,0,1,0-13.4,17.73,17.73,0,0,1,1-3.2c.6-1.3,4.2-5.6,4-10.7s-4.1-9.5-5-10.7-4.1-6.2-4.4-7.8-2.1-6.6-3.7-7.9-6.9-2.5-9.8-5-6.2-6.3-6.2-10.9,1.2-6.4,1.3-8.3,0-6-2.1-8.2a47.26,47.26,0,0,1-10.9-29.8,39.9,39.9,0,0,1,5.3-16.4c1.8-2.8,5-9.1,14.4-7.5s15.1,4.1,17.6,4.3,11.9-3.5,17.6,1.6,6.5,9.6,6.8,16.4-.4,19,0,22.1,2.2,12.5,8.4,18.5,11.6,8.9,13.2,12.1,5.3,9.4,8.8,12.2,7.3,1.7,10.1,6,4.9,8.2,2.5,12.5-10,1.6-12.5,5.1-5,15.2-4.7,19,3.8,10.9,6.3,14.3c1.81,2.47,5.9,7.47,9.33,11.2"/>
    <path fill="none" stroke="#f3c565" d="M75.93,895a13.42,13.42,0,0,1-.23-3.3c.1-4.3,4.6-7.9,7.1-10.2s4.3-3.6,4.9-7.5,2.5-5.4,4.1-6a16.07,16.07,0,0,0,6-5.4,16.85,16.85,0,0,1,7.9-6.9c4.3-1.8,6.8,3.2,7.8,5.7s2.1,4,5.6,7.6.1,8.7-1.6,11.6a54.54,54.54,0,0,0-5.9,14.2,1.38,1.38,0,0,0,0,.2"/>
    <path fill="none" stroke="#f3c565" d="M88.92,895a33.09,33.09,0,0,1,2.28-13.3c2.4-6,9.5-9.3,13.8-10.3s6.5,1.5,6.8,4.4-2.2,5.7-3.4,6.9-2.6,6.2-3.4,9.6a11.84,11.84,0,0,0-.26,2.7"/>
    <path fill="none" stroke="#f3c565" d="M95.71,895c.13-4.1,1.05-6.18,3.49-9.5s2.2,1.3,2.1,2.4l-.8,4.9c0,.64,0,1.37-.08,2.2"/>
    <path fill="none" stroke="#f3c565" d="M21.12,895a6.93,6.93,0,0,1-1.32-4,16.71,16.71,0,0,1,12.5-15.7c10.7-2.9,21.2,0,27.2-1.2s11.3-3.4,13.2-11,1.3-14.8,6.2-17.4,11.2-1.9,12.8-7,2.5-11,9.8-12.5,11.6,1.4,13.7,3.5,5.4,8.6,10.7,11.8a64.23,64.23,0,0,1,14,12.1c4.3,4.7,5.7,10.5,4.9,18.1s-4.1,10.8-1.2,13.7,6.5.1,9-2.5,7.7-7.8,9.6-14.7,1.3-7.8,0-11.2a36,36,0,0,1-2.5-10.1c-.1-2.7-1.3-6.9-3.4-8.5s-7.6-4.6-10.1-10.3-5.2-9-4.3-17.6.6-11-2.8-17.2-11.2-17.1-11.5-20.6-1.9-12.6-1.2-18.5,2.5-17.6,9.3-21.9,13.7-5.4,19.4-4a51,51,0,0,1,13.4,5.7c2.6,1.8,6.6,2.6,14.4.1s12.1-1.3,15.9,3.1,10.7,15,16,19.3,13,4.6,17.1,7,7.6,9,8.8,11.1,5.3,6.9,13.8,8.4a23.87,23.87,0,0,1,5.5,1.65"/>
    <path fill="none" stroke="#f3c565" d="M7.2,873.3s4.9-4.3,14.7-5.7,23.5-.6,27.2-2.2,14.2-5,17.1-11.6S72,838.9,74.4,835s9.8-7.5,12.7-11.4,9.2-11.7,8.2-19-6.4-11-13.5-11-16.3,2.5-19.2-2.4-7.3-14.7-7.3-22.7,3.3-15.2.2-22.5-12.3-6.4-18.4-4.5-11.8,6-17.1,8.2-10,4.5-18,3.5"/>
    <path fill="none" stroke="#f3c565" d="M6.8,857.2s1.9-4.3,13.5-4.1,23.9,5.9,31,1,8.6-12.2,9.6-15.1,7.4-14.9,8.8-20.2,1.9-12.4-.8-15.3-6.8-5.9-9-6.5a11.87,11.87,0,0,1-8.6-8.6c-1.4-5.9-3.1-20.2-3.9-23.1s-3-11.2-11.4-11.2-11.3,5.1-13.9,7.1-6.5,7.3-15.7,7.3"/>
    <path fill="none" stroke="#f3c565" d="M10.1,845.5a43.4,43.4,0,0,1,9.7-1.1c11.3.8,12.1,5.7,17.2,5.7s13.3-5.7,15.3-10.4,7.9-14.3,6.9-26.5S52,797.7,49.6,796c-2.3-1.5-12.1-6.8-14.5,2.2s-2.9,15-4.1,17.2-4.9,3.5-9,4.9a129.8,129.8,0,0,1-16,4.2"/>
    <path fill="none" stroke="#f3c565" d="M48.5,832.9c2.7-3.9,5.7-11.5,4.9-17.2s-1.3-11.1-3.7-12.5-5.7-4.3-7.3.2-3.3,10.9-3.9,12.9-2.5,3.9-4.1,5.9S30.2,825,32,832.4s7.3,8.5,10,6.7a32.37,32.37,0,0,0,6.5-6.2Z"/>
    <path fill="none" stroke="#f3c565" d="M49.5,812.1c-1-1.8-2.7-4.1-4.3-2.9s0,3.5-1,5.5-1.8,4.3-.8,5.3,3.1,0,3.9-1.2S50.5,813.9,49.5,812.1Z"/>
    <path fill="none" stroke="#f3c565" d="M0,581.23c2.94-1.21,5.54-2.6,7.5-2.93m73.5-4c1.6,11.6,11.2,17.8,14.7,19.4s10.5,2,12.9,2.2,5.8,3.1,8,8.4-.6,14.3,1.4,17.6,11.7,2.9,18,3.9,9,6.7,10,14.1a54.82,54.82,0,0,1-2,22.7c-2.2,7.4-11.1,13.7-18.4,19s-9.4,13.9-9.4,21.2,5.7,11.8,6.9,14.7,1,10.6.8,13.1-4.9,15.1-7.4,19.4-3.5,12.3-3.1,16.5,6.2,15.1,7.8,18,7.4,13.5,8.4,17.2-1.6,9.8-7.1,9.6-10.2-5.1-14.9-9.4-9.5-14.1-16.9-18.6-10.4-1.6-12.5-.8-5.1,2.4-9-2.5-4.3-11.2-4.5-18.6.8-12.2.2-19-6.3-11.7-15.3-13.5-16.3,1.2-19,2.2a161.41,161.41,0,0,0-15.1,7.3c-1.28.79-3.24,1.8-4.9,2.6l-.13.07-.26.13-.27.14C8.55,742,7.5,742.5,7.5,742.5m-.7,48.7h.07c8.14-.18,9.73,3.31,11.33,5.7.07.13.14.26.2.4s0,0,0,0A3.49,3.49,0,0,1,16.8,802c-1.2.6-8,2-8,2"/>
    <path fill="none" stroke="#f3c565" d="M0,591.58c3.09-.08,5.7.12,5.7.12s16.2,1.6,22.3,7.6c5.1,3.7,12.4,15,16.1,22.1s15.3,11.6,18.6,12,8.6-.6,12.7-1,6.1,2.5,7.3,7.4-.4,11.4-.2,16.5,6.4,9.2,8.4,11,7.2,5.1,7.8,12.5-4.1,13.3-5.7,19,.9,12,2.9,16.1,4.5,10,4.7,14.3-3.5,9.3-4.9,12.2-4.3,3.5-5.9,1-2.9-8.2-3.5-13.7-1.4-18.8-7.3-30.6-15.5-10.2-20-8.6S48.8,697.1,47.8,702s3.5,3.6,10.2,2.4,10.2,1.2,15.1,5.3,5.7,15.7,5.9,20.8a57.84,57.84,0,0,0,4.9,22.7c4.3,9.6,10.6,8.2,13.5,8s7.6-8.1,9.4-10.6,2.4,1,2.4,3.9l-.4,18.8c0,3.5,1,7.4-1,8.6-3.1,1.9-5.5,1.5-9.4-6.3S89,767,86.1,767.4s-8-.6-11.8-7.6-2.1-17.4-4.1-29.2-10.8-15.7-20-16.1-19.2,4.3-23.5,6.9-9.6,7.8-12.3,8.8a15.51,15.51,0,0,1-6.5.4"/>
    <path fill="none" stroke="#f3c565" d="M0,607.2H8.8c7.7.4,14.9,9.6,16.9,12.7s7.2,10,9.2,12.5,10.4,7.6,13.9,8.4,15.3,2,20,5.1,4.7,11.4,4.9,13.9,2.6,6.9,5.1,9.6,9.4,6.4,11.4,8.2,0,7.6-.6,10-2.5,4-7.6,2.2-4-9.2-12.2-10.6-11.8,1.2-19.6,3.9S32.4,696.2,27.9,701s-9,12.6-12.2,15.1a24.76,24.76,0,0,1-7.3,3.7"/>
    <path fill="none" stroke="#f3c565" d="M8.7,712s5.5-3.3,6.5-4.7l6.7-10a125.3,125.3,0,0,1,11.6-13.5c1.7-1.5,8-5.1,9-8.6s.8-8.2-3.3-15.1a74.84,74.84,0,0,1-7.4-17.2c-1.1-3.7-4.4-13.5-7.4-17.2s-6.5-11-17.1-10.8"/>
    <path fill="none" stroke="#f3c565" d="M11,693.1l-.35.18-.15.08c-.66.34-1.89,1-3.13,1.63h0l-.07,0c-1.27.67-2.53,1.35-3.18,1.76-1.34.71-2.7,1.36-4.1,1.94"/>
    <path fill="none" stroke="#f3c565" d="M0,624.3a10.93,10.93,0,0,1,1.4.1h.7c14.3-1.2,14.3,5.3,15.3,8.8l3.5,13.5a113.28,113.28,0,0,0,4.3,13.7c1.8,4.5,3.3,8.1,3.1,12s-3.5,7.8-4.9,10.2-7.8,7.6-10.6,9.4c-.71.45-1.42.88-2.15,1.28a.37.37,0,0,1-.15.08c-1,.6-2.08,1.14-3.15,1.64l-.07,0-.78.36"/>
    <path fill="none" stroke="#f3c565" d="M71.7,570.8a87.23,87.23,0,0,1,.4,15.5c0,2.9.2,9.8,5.1,11.4s9,5.1,10.8,9,1,9.2.6,12.7-2.7,6.9-8.8,4.7-9.6.2-13.5,0-8.4-2.5-12.5-9.6-.8-16-13.9-27.2-31.8-9.2-32.5-8.8m58.4,77.8c-2.4-2.5-4.3-2.2-5.3-1.6a70,70,0,0,1-5.9,3.9c-2.7,1.4-3.6,2.5-4.1,4.4s.4,3.7,1.4,5.9,4.7,3.5,7.4,3.9,6.8-2.8,9.2-6.7S68.2,658.8,65.8,656.3ZM11,640.1a45.63,45.63,0,0,1,2.9,7.4c1.7,4.6,2.5,8.6,3.6,12a9.39,9.39,0,0,1-2,9.4c-1,1.2-6.1,5.7-6.1,5.7"/>
    <path fill="none" stroke="#f3c565" d="M138.1,645.4c-.4-9.2-5.9-9.2-8.8-9.8s-7.4-.4-13.7-6.5-5.3-11-5.9-16.5-3.1-9-8.8-10.4-4.1,3.9-3.7,6.5,2.5,7.6,3.1,11.2-1.1,10.2,0,17.1,4.5,9,7.8,11.4,7.1,8,8,11.6a37.65,37.65,0,0,1,1.4,8.5c.4,3.9,3.6,5.9,6.7,4.9s8.6-6.1,10-9.8S138.5,654.6,138.1,645.4ZM70,603.5c-1.5-2.4-3.5-6.1-5.7-6.1s-4.3,0-4.9,2.4.6,6.5,3.3,9.4,6.8,3,7.8,1.8S71.2,605.7,70,603.5Z"/>
    <path fill="none" stroke="#f3c565" d="M128.1,644.9c-3-.5-7-2.5-8-.4s-.8,4.8.4,7.8-.6,5.1,0,7.1,2.6,3.9,5.1.8,4.9-5.5,4.9-8.8-1.3-6.4-2.4-6.5Z"/>
    <path fill="none" stroke="#f3c565" d="M117.4,573a63.38,63.38,0,0,1,3.3,15.7c.9,9.6,8.2,15.9,13.1,19.6a68.2,68.2,0,0,0,11.8,7.3c3.1,1.6,8.4,4.5,9.6,11s1.7,11.6,7.8,11.6,3.9-3.7,11.2-3.1,13,3.3,16.9,3.1,7.8-3.4,10.2-6.5,9.4-11,14.1-11.4a8.7,8.7,0,0,1,9.2,10.2,34,34,0,0,1-28.2,26.4c-4.7.2-11.1-.7-13.9-1s-12.4-1.7-16.7,2.4-11.1,9-17.4,17.8-12.9,13.7-14.1,15.9-5.9,7.6-6.3,14.9,3.1,12.3,8,14.1,11.2-1.9,14.9-3.1,7.9-4.7,10.8-3.7,5.7,3.1,10.2,2.7,16.1-2,20.8-1.2,11.5,6.1,13.1,8.6,7.9,11.8,11,15.7,6.7,3.9,10.4,3.7,11.6.6,15.1,4.5a147.23,147.23,0,0,0,10.8,10.4c1,.88,3.42,1.88,6.9,2.1"/>
    <path fill="none" stroke="#f3c565" d="M133.5,574.6a41.44,41.44,0,0,0,4.9,11c3.3,4.9,10.5,7.2,12.7,7.6s8.5.9,11,8,4.7,14.5,7.4,16.9,4.3,4.1,9.6,2.9,5.3-2.2,10.8-2,13.7-5.8,15.5-7.8,5.1-4.9,3.9-7.4-4.3-5.1-9.2-6.1-12.5-2.4-13.7-5.7-4.7-10.6-5.5-21.2"/>
    <path fill="none" stroke="#f3c565" d="M214,575.7s2.1,11.6,3.9,14.5,6.2,9.2,7.8,12.3,4.5,8.2,5.1,13.7.2,9.4,5.1,11.4,12.2,1.4,14.7-.8,7.2-5.1,8.6-10a22.81,22.81,0,0,1,.8-2.3m-60.9-39.7a16.48,16.48,0,0,1,.4,7.8c-.4,1.8-2.1,3.3-5.7-.2a8.23,8.23,0,0,1-2.15-3.71v0a1.09,1.09,0,0,1-.05-.17m-21.3-5.4a3.74,3.74,0,0,1,.6.7c1.92,2.66,2.52,8.35,2.7,10.9a23.59,23.59,0,0,0,2.5,8.4c1.2,2,5.3,6.2,6.3,8.2s.8,6.5-2.4,6.5-5.7-4.1-7.8-7.1-4.5-8.2-8-13.3-7.3-3.9-10.8-5.9c-2.94-1.68-6.15-5.4-7.11-6.55l-.11-.14-.18-.21"/>
    <path fill="none" stroke="#f3c565" d="M180.9,570.9a8.8,8.8,0,0,0-.7-3.2c-1.7-4.3-6.5-10.8-8.7-14.8s-3.8-6.9-3.5-11.8a93.47,93.47,0,0,1,3.5-18.6c1.8-5.4,1-11.4,0-15.2a35.53,35.53,0,0,1,0-13.4,17.73,17.73,0,0,1,1-3.2c.6-1.3,4.2-5.6,4-10.7s-4.1-9.5-5-10.7-4.1-6.2-4.4-7.8-2.1-6.6-3.7-7.9-6.9-2.5-9.8-5-6.2-6.3-6.2-10.9,1.2-6.4,1.3-8.3,0-6-2.1-8.2a47.26,47.26,0,0,1-10.9-29.8A39.9,39.9,0,0,1,141,375c1.8-2.8,5-9.1,14.4-7.5s15.1,4.2,17.6,4.3,11.9-3.5,17.6,1.6,6.5,9.6,6.8,16.4-.4,19,0,22.1,2.2,12.5,8.4,18.5,11.6,8.8,13.2,12.1,5.3,9.4,8.8,12.2,7.3,1.7,10.1,6,4.9,8.2,2.5,12.5-10,1.6-12.5,5.1-5,15.1-4.7,19,3.8,10.9,6.3,14.3,9.3,11.6,12.8,14.7l15.1,13.5a15.47,15.47,0,0,1,2.6,3.3m0,173.12c-3,1.89-6.17,4.11-9.5,6.38-9.1,6.2-13.4,7.5-18.7,7.1s-15.8-4.1-22.9-15-15.3-10.1-27.2-10.9-16-4.7-17.5-7.5-5.1-13-.7-20.6,12.2-8.4,15.1-9,14.7.6,25.7-1.8,12.8-10,20.4-17.2,11.4-4.7,23.2-10.7c5.93-3,9.58-2.75,12.1-1.34m-9.3-65.36c.6,5.5-.2,13.4-.4,16.9s1.2,15.5,1,18.8a8.5,8.5,0,0,1-6.9,7.8c-4.1.8-5.1-2.3-5.5-4.7s-2.8-7.8-6.3-13.5-7.6-6.3-7.8-12a18.83,18.83,0,0,1,1.29-7.24c.09-.26.2-.51.31-.76"/>
    <path fill="none" stroke="#f3c565" d="M260,701.47c-6.28,5-13.87,12.35-16.7,14-3.2,1.9-9.8,7.5-16,2.2s-5.1-9.7-8.2-14.1-5.2-6.1-14-5.4-22.4.2-26.8-2.9-8.2-7.8-7.5-13.2,6.7-7,14.1-6.6,17.5,3.1,26,0,12.7-7,15.9-12.9,13.1-15.4,20.6-15.3,9.3-.7,11.5,5.6c.34,1,.7,2,1.1,3.1m0,69.59c-2.11,1.15-4.43,2.11-5.1,2.51-1,.6-6.2,3.4-6.2,7.2s-.5,7.2,1.9,10.9c2.3,3.55,4.79,6.18,9.4,5.76"/>
    <path fill="none" stroke="#f3c565" d="M260,691.42c-2.46.21-4.48.56-5,1.08l-5,4.3c-3.4,3.1-8.2,6.9-10.3,9.1s-5.3,1.4-7.4,1.3-4.8-2.9-5.4-4.1-1-3.8-2.5-5.4-5.8-4-6.8-5.9-3.4-3.4-2.2-6.9,4.9-6,7.2-6.8a13.49,13.49,0,0,0,6.2-4.1c1-1.5,9.4-9.6,11-10.7s3.8-4.1,10.4-2.8,6.9,4.8,8.2,7.4c.38.76.93,1.77,1.6,2.88"/>
    <path fill="none" stroke="#f3c565" d="M152.8,692.9c-3.1.3-8.6,4-8.7,4.1-1.9,1.1-4.5,2.6-5.2,5.4s-.2,4.6,2.2,6,5.2,2,7.1-1,3-3.2,4.6-7.9S155.9,692.6,152.8,692.9Zm103.9-14.6c-.7-5.3-2.1-8.8-4.3-9.4s-7.2-2.3-9.7,1.8a35.74,35.74,0,0,1-6.6,7.9c-1.3,1.2-4.1,1.9-5.6,4.7s-2.8,4.6-.9,9.6,6.7,4.7,8.8,4.3,5.2-3.5,6.3-4.8c1.6-2.2,6.3-5,8.5-6.5S257.4,683.6,256.7,678.3ZM248.62,895a20.24,20.24,0,0,1-8.12-6.5c-4.5-6.1-8.1-13.5-8.3-17.6s-.6-12.1,5.3-13.9,9.9-4.6,11.1-9,2.5-6.9,1.1-12.7-5.2-7.8-7.3-9.4-6-4.4-7.6-7.7-4.2-7.7-7.1-9-8.3-4.5-10-7.2-2.8-4-2.8-4.1c-2.1-3.6-5.7-9.1-6.1-13.3s-1.8-7.5.5-11.1,6-4.7,10.6-2.7,8.5,7.7,10.1,10.2,7,11,12.7,13.3c5.16,2.08,12,.89,17.3,3.31"/>
    <path fill="none" stroke="#f3c565" d="M260,889a10.87,10.87,0,0,1-3.7-.09,16.3,16.3,0,0,1-9.4-6.9c-2.6-4.2-4.7-5.1-3.3-11.7s7.7-10,9.5-12.6,6.6-6.9,6-13.7-5-16.9-5-16.9c-1.5-2.9-4.7-8.7-5.2-11.3s-2-6.2,2.3-7.7,5.7-1.6,8,1.8a10.34,10.34,0,0,1,.8,1.47"/>
    <path fill="none" stroke="#f3c565" d="M250.6,580.2a44.86,44.86,0,0,0-2.5-20.6c-3.2-9.3-12.5-14.5-18.5-18s-9.9-7.7-11.7-11.4-2.4-5.3-5.9-9-5.3-3-6.5-5.7-.9-3.7-2.9-9-5.3-6.1-7.1-5.3-1,5.3,0,9,7.6,10.8,8.6,11.6,6.7,7.3,7.1,10.6a79.77,79.77,0,0,0,2.7,12.5c1.6,5.3,13.1,11.8,13.1,11.8,3.6,3.9,2.4,6.7,1.8,9.2l-2.71,10.46-.19.74M260,862.45a14,14,0,0,0-2.8,1.25c-1.3.8-5.5,3.6-5.5,7.5.1,2.8.2,4,.9,5.6s4.7,3.2,7.4,2.3"/>
    <path fill="none" stroke="#f3c565" d="M214,576a26.62,26.62,0,0,0-3.7-7.8c-2.7-4.1-7.8-8.1-17.6-12.2s-14.5-10.7-14.7-17.6.8-13.4,4.1-16.9,2.6-7.3.4-11.4-4.1-9-2.5-14.1,7.1-10.2,7.3-14.7.6-8.2-3.7-10.2-6.5-4.3-7.1-9.6-1.2-9.1-5.1-12.2-9.8-8.7-10.2-11.6-.8-7.4-1.2-9.6-4.3-11-7.6-14.9-7.6-13.9-7.6-17.8-.4-10.5,4.1-12.3,7.7-1.6,11,4.3,8.9,13.5,11.8,15.1,10.7,7.8,13.1,13.1,5.7,16.8,8.4,22.1,12.8,9.8,15.7,10.8,16.3,4.7,16.3,15.1c0,3.2-3.3,2.9-5.7,9.2s-1,7.9-1.8,11.4-7.4,8.3-7.6,12-1,7.6,6.9,14.5,7.4,9.8,8.8,12.7a35.24,35.24,0,0,0,12.4,14.3A53.93,53.93,0,0,1,260,562.21M191.7,579c0-.1,0-.2,0-.31v0c-.36-2.08-1.32-5.74-.75-7s1.4-2.6,4.4-1.9,3.6,5,3.9,5.4"/>
    <path fill="none" stroke="#f3c565" d="M146.4,575.1l-.11-.15-.11-.14c-2.54-3.38-3.64-6.43-5.78-10.51-2.8-5.4-1.2-10.6,0-14.7s6.9-10,9-12.2,2.5-4.3,2.8-7.2,2.9-5.3,7-3.2,2.5,6.6,2.4,8.7-2.1,9.2-2.4,13,2.5,6.7,4.9,9.6,3.3,10,4.8,13.3c.5,1,1.3,1.3,2,2.2m14.9-190.2a10.49,10.49,0,0,0-9.3-4c-4.1.3-4.9,2.9-5,5.4s2.1,3.4,3.4,4.8a31.77,31.77,0,0,1,4,5.7c1.3,2.5.7,2.7,3.1,6.3,2.2,3.7,4,.2,5.6-6.3S187.7,386.1,185.8,383.6Zm-27.6,17.8c-1-2.4-2.1-2.6-2.5-1.6s.4,3.9,1,5.7c.5,2,3.1,3.7,3.1,1.8S159.2,403.8,158.2,401.4Zm49.7,73.1a31.12,31.12,0,0,1-2.9-10.7c-.2-2.8-1.5-4.4-3.4-6.9s-5-4.1-6-4.7-4.3-4.7-6.2-8.1-5.4-7.4-8.8-12.1-4-1.8-4.1,0,1.2,3.6,2.6,6.2l3.5,7.4c1,1.6.6,3.8.4,5.7s.2,3.1.7,5.1c.4,1.7,2.8,6.2,5.1,6.9a14.75,14.75,0,0,1,6.9,4.6,7.58,7.58,0,0,1,1.2,7.1c-.4,1.2-3.9,6.2-4.3,9.4s1.4,3.9,4,4,8.2-.8,9.8-2.4C208.6,483.8,209.7,477.9,207.9,474.5Zm-8.2,59.2a49,49,0,0,1-4.7-8.4c-1.4-3.2-3.1-2.6-3.6-2.3s-2.2,1.6-4,6.7-.8,7.8-.6,9.6,5.3,3.2,6.7,3.8,4.2,4.6,4.2,4.6c.9,1.3,3.2,1.3,3.7.1a28.73,28.73,0,0,0,1.3-7C203,537.2,201.2,535.8,199.7,533.7Z"/>
    <path fill="none" stroke="#f3c565" d="M135.4,523.4c-.7-.1-2.5.4-4.6,2.9s-.8,4.6-.8,4.6c.3,1.6,1.5,3.5,3,3.5,1.7,0,1.4-1.6,1.5-3.5s1.4-3.5,2-4.6A2.3,2.3,0,0,0,135.4,523.4Zm23,39.9c-2.8-2.1-3.9-3.9-4.9-8.4s.9-4.1-1-6.2c-3.3-3.8-5.9-.1-6.8,1.5s-.6,5.9,0,10c.3,2.8,2.4,4.8,4.2,6.1s4,2.7,6.4,2.4C160.2,568.6,161.2,565.4,158.4,563.3Z"/>
    <path fill="none" stroke="#f3c565" d="M133.3,575a24.38,24.38,0,0,0-1.2-5.2c-2-6.9-7.2-14.4-8.8-17.7s-5.8-11.8-5.7-21.4,2.8-16.6,8.7-22.9,6.3-10.2,5.9-12.8-4.3-5.1-6.7-5.4-4.1-4.5-4.5-6.9-.6-8.4-5.6-10.9-13.2-3.2-15.4,1.2-7.9,8.9-10.7,9.8-6.1,3.8-7.5,10-4.9,12.2-7.1,13.8-10,4.8-12.8,5.1-5.7-.3-8.5-.4-9.8-.7-10.4,4,5.3,10.4,10.4,12.3,15,5.7,19.3,10a106.28,106.28,0,0,1,11,13.5,14,14,0,0,0,11.5,6.3c5.6.3,14.4-.2,18.5,6.6,1.9,3.2,3.1,7.1,4.3,10.3"/>
    <path fill="none" stroke="#f3c565" d="M111.8,535.9a23.46,23.46,0,0,1-1.2-13,58.47,58.47,0,0,1,5.9-14.2c1.7-2.9,5.1-7.9,1.6-11.6s-4.6-5.1-5.6-7.6-3.5-7.5-7.8-5.7a16.85,16.85,0,0,0-7.9,6.9,16.07,16.07,0,0,1-6,5.4c-1.6.6-3.5,2-4.1,6s-2.4,5.2-4.9,7.5-7,5.9-7.1,10.2a14,14,0,0,0,5.6,11.9c3.9,2.7,6.6,3.5,8,7.6s1.9,6.4,6.5,7.9,6,3.4,10.3,3.3,7-1.1,7.9-4.3S111.6,535.7,111.8,535.9Z"/>
    <path fill="none" stroke="#f3c565" d="M104,520.4c.8-3.4,2.2-8.4,3.4-9.6s3.7-4,3.4-6.9-2.6-5.4-6.8-4.4-11.4,4.3-13.8,10.3-3.3,14.2-.9,20.4,6.2,9.7,11.2,8.5,5.4-3.4,5-7.5S103,525.2,104,520.4Z"/>
    <path fill="none" stroke="#f3c565" d="M99.5,520.8l.8-4.9c.1-1,.4-5.8-2.1-2.4s-3.4,5.5-3.5,9.8,3,4,4,2.1.7-3.4.8-4.6Z"/>
    <path fill="none" stroke="#f3c565" d="M81.3,575.2a41.49,41.49,0,0,0-3.4-11.1c-5.4-11.8-11.9-16.6-18.4-19.7s-23.7-8.5-30.7-13.5-10.1-8.7-10-12a16.71,16.71,0,0,1,12.5-15.7c10.7-2.9,21.2,0,27.2-1.2s11.3-3.4,13.2-11,1.3-14.8,6.2-17.4,11.2-1.9,12.8-7,2.5-11,9.8-12.5,11.6,1.4,13.7,3.5,5.4,8.6,10.7,11.8a64,64,0,0,1,14,12.1c4.3,4.7,5.6,10.5,4.9,18.1s-4.1,10.8-1.2,13.7,6.5.1,9-2.5,7.7-7.8,9.6-14.7,1.3-7.8,0-11.2a36,36,0,0,1-2.5-10.1c-.1-2.7-1.3-6.9-3.4-8.5s-7.6-4.6-10.1-10.3-5.2-9-4.3-17.6.6-11-2.8-17.2-11.2-17.1-11.5-20.6-1.9-12.6-1.2-18.5,2.5-17.6,9.3-21.9,13.7-5.4,19.4-4a51,51,0,0,1,13.4,5.7c2.6,1.8,6.6,2.6,14.4.1s12.1-1.3,15.9,3.1,10.7,15,16,19.3,13,4.6,17.1,7,7.6,9,8.8,11.1,5.3,6.9,13.8,8.4A24,24,0,0,1,260,413M52.4,443.6c-.8-5.6-1.3-11.1-3.7-12.5s-5.7-4.3-7.3.2-3.3,10.9-3.9,12.9-2.5,3.9-4.1,5.9-4.2,2.8-2.4,10.2,7.3,8.5,10,6.7a25.56,25.56,0,0,0,6.5-6.2C50.2,456.9,53.2,449.2,52.4,443.6Z"/>
    <path fill="none" stroke="#f3c565" d="M137.1,273.4c-.4-9.2-5.9-9.2-8.8-9.8s-7.4-.4-13.7-6.5-5.3-11-5.9-16.5-3.1-9-8.8-10.4-4.1,4-3.7,6.5,2.5,7.6,3.1,11.2-1.2,10.2,0,17.1,4.5,9,7.8,11.4,7.1,8,8,11.6a40,40,0,0,1,1.4,8.5c.4,3.9,3.6,5.9,6.7,4.9s8.6-6.1,10-9.8S137.5,282.6,137.1,273.4ZM69,231.4c-1.5-2.4-3.5-6.1-5.7-6.1s-4.3,0-4.9,2.4.6,6.5,3.3,9.4,6.8,3,7.8,1.8S70.2,233.7,69,231.4Zm-4.2,52.8c-2.4-2.5-4.3-2.2-5.3-1.6a70,70,0,0,1-5.9,3.9c-2.7,1.5-3.6,2.7-4.1,4.4s.4,3.7,1.4,5.9,4.7,3.5,7.4,3.9,6.8-2.8,9.2-6.7S67.2,286.7,64.8,284.2Zm-16.3,156c-1-1.7-2.7-4.1-4.3-2.9s0,3.5-1,5.5-1.8,4.3-.8,5.3,3.1-.1,3.9-1.2C47.2,445.6,49.5,441.9,48.5,440.2ZM0,243.2a11.91,11.91,0,0,1,4.2-.4l2.1.1c10.6-.2,14.1,7.1,17.1,10.8s6.3,13.5,7.4,17.2a74.84,74.84,0,0,0,7.4,17.2c4.1,6.9,4.3,11.6,3.3,15.1s-7.3,7.1-9,8.6a125.3,125.3,0,0,0-11.6,13.5l-6.7,10c-1,1.4-6.5,4.7-6.5,4.7l-3.1.7A34.42,34.42,0,0,1,0,342.78"/>
    <path fill="none" stroke="#f3c565" d="M127,272.9c-3-.5-7-2.5-8-.4s-.8,4.8.4,7.8-.6,5.1,0,7.1,2.6,3.9,5.1.8,4.9-5.5,4.9-8.8S128.2,273,127,272.9Z"/>
    <path fill="none" stroke="#f3c565" d="M116.4,200.9a69.13,69.13,0,0,1,3.3,15.7c.9,9.6,8.2,15.8,13.1,19.6a68.2,68.2,0,0,0,11.8,7.3c3.1,1.6,8.4,4.5,9.6,11s1.7,11.6,7.8,11.6,3.9-3.7,11.2-3.1,13,3.3,16.9,3.1,7.8-3.4,10.2-6.5,9.4-11,14.1-11.4a8.7,8.7,0,0,1,9.2,10.2,34,34,0,0,1-28.2,26.4,86.27,86.27,0,0,1-13.9-1c-2.8-.3-12.4-1.7-16.7,2.4s-11.1,9-17.4,17.8-12.9,13.7-14.1,15.9-5.9,7.6-6.3,14.9,3.1,12.3,8,14.1,11.2-1.9,14.9-3.1,7.9-4.7,10.8-3.7,5.7,3.1,10.2,2.7,16.1-2,20.8-1.2,11.5,6.1,13.1,8.6,7.9,11.8,11,15.7,6.7,3.9,10.4,3.7,11.6.6,15.1,4.5a147.23,147.23,0,0,0,10.8,10.4c1.13,1,3.88,2.06,7.9,2.13"/>
    <path fill="none" stroke="#f3c565" d="M132.5,202.5a41.44,41.44,0,0,0,4.9,11c3.3,4.9,10.5,7.2,12.7,7.6s8.5.9,11,8,4.7,14.5,7.4,16.9,4.3,4.1,9.6,2.9,5.3-2.2,10.8-2,13.7-5.8,15.5-7.8,5.1-4.9,3.9-7.4-4.3-5.1-9.2-6.1-12.5-2.4-13.7-5.7-4.7-10.6-5.5-21.2"/>
    <path fill="none" stroke="#f3c565" d="M260,225.25c-.39-2.76-.85-8.45-.3-11.85.1-.61.2-1.43.3-2.39m-47-7.41s2.2,11.6,3.9,14.5,6.2,9.2,7.8,12.3,4.5,8.2,5.1,13.7.2,9.4,5.1,11.4,12.2,1.4,14.7-.8,7.2-5.1,8.6-10a25.7,25.7,0,0,1,1.8-4.49M197.9,200.4a2.56,2.56,0,0,1,.11.24c1.75,3.66.78,8.1.39,9.86s-2.3,3.5-5.7-.2a12.4,12.4,0,0,1-2.4-4.93v0c-.08-.35-.15-.7-.2-1M169.3,201l.22.22,0,0c2.21,2.4,2.87,8.65,3.06,11.36a23.13,23.13,0,0,0,2.5,8.4c1.2,2,5.3,6.2,6.3,8.2s.8,6.5-2.4,6.5-5.6-4.2-7.8-7.1-4.5-8.2-8-13.3-7.3-3.9-10.8-5.9-7.4-6.9-7.4-6.9"/>
    <path fill="none" stroke="#f3c565" d="M249.7,198.3s0,0,0,.08c.58,5.49-.21,13.24-.41,16.82s1.2,15.5,1,18.8a8.5,8.5,0,0,1-6.9,7.8c-4.2.7-5.1-2.3-5.5-4.7s-2.8-7.8-6.3-13.5-5.5-5.1-5.7-10.8a19.57,19.57,0,0,1,2.67-10.15l0-.05M260,343.5c-3.24,2-6.8,4.48-10.5,7-9.1,6.2-13.4,7.5-18.7,7.1s-15.8-4.1-22.9-15-15.3-10.1-27.2-10.9-16-4.7-17.5-7.5-5.1-13-.7-20.6,12.2-8.4,15.1-9,14.7.6,25.7-1.8,12.8-10,20.4-17.2,11.4-4.7,23.2-10.7c6.81-3.46,10.59-2.6,13.1-.64"/>
    <path fill="none" stroke="#f3c565" d="M260,352.9c-2.31,1.42-5.32,2.63-6.1,3.1-1,.6-6.2,3.4-6.2,7.2s-.5,7.2,1.9,10.9,5,6.4,10,5.7l.4-.06m0-51.15c-6.46,5-14.8,13.13-17.8,14.91-3.2,1.9-9.8,7.5-16,2.2s-5.1-9.7-8.2-14.1-5.2-6.1-14-5.4-22.4.2-26.8-2.9-8.2-7.8-7.5-13.2,6.7-7,14.1-6.6,17.5,3.1,26,0,12.6-7.1,15.9-12.9,13.1-15.4,20.6-15.3,9.3-.7,11.5,5.6c.64,1.83,1.38,3.92,2.2,6.08"/>
    <path fill="none" stroke="#f3c565" d="M260,319.25c-2.86.2-5.32.57-5.9,1.15l-5,4.3c-3.4,3.1-8.2,6.9-10.3,9.1s-5.3,1.4-7.4,1.3-4.8-2.9-5.4-4.1-1-3.8-2.5-5.4-5.8-4-6.8-5.9-3.4-3.4-2.2-6.9,4.9-6,7.2-6.8a13.49,13.49,0,0,0,6.2-4.1c1-1.5,9.4-9.5,11-10.7s3.8-4.1,10.4-2.8,6.9,4.8,8.2,7.4c.54,1.07,1.43,2.66,2.5,4.32"/>
    <path fill="none" stroke="#f3c565" d="M260,426.13c-5.37-3.11-12.81-1.61-18.3-3.83-5.7-2.3-11.1-10.7-12.7-13.2s-5.5-8.2-10.1-10.2-8.3-.9-10.6,2.7-.9,6.9-.5,11.1,4,9.7,6.1,13.3a38.23,38.23,0,0,1,2.8,4c1.7,2.6,7.1,5.9,10,7.2s5.5,5.7,7.1,9,5.5,6.1,7.6,7.7,5.8,3.6,7.3,9.4.1,8.3-1.1,12.7-5.2,7.2-11.1,9-5.5,9.8-5.3,13.9,3.8,11.5,8.3,17.6,11.1,8,15.4,8.5a41.14,41.14,0,0,0,5.1.18M151.8,320.8c-3.1.3-8.6,4-8.7,4.1-1.9,1.1-4.5,2.6-5.2,5.4s-.2,4.6,2.2,6,5.2,2,7.1-1,3-3.2,4.6-7.9S154.9,320.5,151.8,320.8Zm103.9-14.5c-.7-5.3-2.1-8.8-4.3-9.4s-7.2-2.3-9.7,1.8a35.74,35.74,0,0,1-6.6,7.9c-1.3,1.2-4.1,1.9-5.6,4.7s-2.8,4.6-.9,9.6,6.7,4.7,8.8,4.3,5.2-3.5,6.3-4.8c1.6-2.2,6.3-5,8.5-6.5S256.4,311.6,255.7,306.3Z"/>
    <path fill="none" stroke="#f3c565" d="M260,516.77a12.79,12.79,0,0,1-4.7,0,16.3,16.3,0,0,1-9.4-6.9c-2.6-4.2-4.7-5.1-3.3-11.7s7.7-10,9.5-12.6,6.6-7,6-13.7-5-16.9-5-16.9c-1.5-2.9-4.7-8.7-5.2-11.3s-2-6.2,2.3-7.7,5.7-1.6,8,1.8a18.83,18.83,0,0,1,1.8,4"/>
    <path fill="none" stroke="#f3c565" d="M260,490.26a14.58,14.58,0,0,0-3.8,1.54c-1.3.8-5.5,3.6-5.5,7.5.1,2.7.1,4.1.9,5.6s4.7,3.2,7.4,2.3a7,7,0,0,1,1-.26M249.7,199.2c0-.27,0-.55,0-.82a33.83,33.83,0,0,0-2.61-12.78c-3.9-9-12.5-14.5-18.5-18s-9.9-7.7-11.7-11.4-2.4-5.3-5.9-9-5.3-3-6.5-5.7-.9-3.7-2.9-9-5.3-6.1-7.1-5.3-1,5.3,0,9,7.6,10.8,8.6,11.6,6.7,7.3,7.1,10.6a79.77,79.77,0,0,0,2.7,12.5c1.6,5.3,13.1,11.8,13.1,11.8,3.6,3.9,6.6,9.2,6,11.7a65.24,65.24,0,0,1-3.4,8.2l0,.05-.07.15"/>
    <path fill="none" stroke="#f3c565" d="M213,204a29.18,29.18,0,0,0-3.6-9.9c-2.7-4.1-7.8-8.1-17.6-12.2s-14.5-10.7-14.7-17.6.8-13.4,4.1-16.9,2.6-7.3.4-11.4-4.1-9-2.5-14.1,7.1-10.2,7.3-14.7S187,99,182.7,97s-6.5-4.3-7.1-9.6-1.2-9.1-5.1-12.2-9.8-8.6-10.2-11.6-.8-7.4-1.2-9.6-4.3-11-7.6-14.9-7.6-13.9-7.6-17.8S143.5,10.8,148,9s7.7-1.6,11,4.3,8.9,13.5,11.8,15.1,10.7,7.8,13.1,13.1,5.7,16.8,8.4,22.1,12.8,9.8,15.7,10.8,16.3,4.7,16.3,15.1c0,3.2-3.3,2.9-5.7,9.2s-1,7.9-1.8,11.4-7.4,8.2-7.6,12-.9,7.6,6.9,14.5,7.4,9.8,8.8,12.7a35.24,35.24,0,0,0,12.4,14.3c7.4,4.9,12.3,8.6,17.8,16.9a34.14,34.14,0,0,1,4.9,9.91M190.4,206c0-.18-.06-.4-.1-.63v0c-.36-2.3-1-6.66-.5-7.75s1.4-2.6,4.4-1.9c2.57.6,3.52,3.69,3.81,4.94a4.34,4.34,0,0,1,.09.46"/>
    <path fill="none" stroke="#f3c565" d="M184.8,9.6a10.49,10.49,0,0,0-9.3-4c-4.1.3-4.9,2.9-5,5.4s2.1,3.4,3.4,4.8a31.77,31.77,0,0,1,4,5.7c1.3,2.5.7,2.7,3.1,6.3,2.2,3.7,4,.2,5.6-6.3S186.7,12.1,184.8,9.6ZM157.2,27.4c-1-2.4-2.1-2.6-2.5-1.6s.4,3.9,1,5.7c.5,2,3.1,3.7,3.1,1.8S158.2,29.8,157.2,27.4Zm49.7,73.2A29.73,29.73,0,0,1,204,89.9c-.2-2.8-1.5-4.4-3.4-6.9s-5-4.1-6-4.7-4.3-4.7-6.2-8.1-5.4-7.4-8.8-12.1-4-1.8-4.1,0,1.2,3.6,2.6,6.2c1,1.8,3.5,7.3,3.5,7.3,1,1.6.6,3.7.4,5.8-.3,1.9.2,3.1.7,5.1.4,1.7,2.8,6.2,5.1,6.9a14.75,14.75,0,0,1,6.9,4.6,7.58,7.58,0,0,1,1.2,7.1c-.4,1.2-3.9,6.2-4.3,9.4s1.4,3.9,4,4,8.2-.8,9.8-2.4C207.6,109.9,208.7,104,206.9,100.6Zm-8.7,59.1a49.5,49.5,0,0,1-4.5-8.4c-1.4-3.2-3-2.6-3.5-2.3s-2.1,1.6-3.8,6.7-.8,7.7-.6,9.6,5,3.2,6.4,3.8,4,4.6,4,4.6c1,1.3,3.2,1.3,3.7.1h-.1a29.72,29.72,0,0,0,1.3-7C201.4,163.2,199.7,161.8,198.2,159.7Z"/>
    <path fill="none" stroke="#f3c565" d="M140.59,0c-.25.4-.48.78-.69,1.1a39.9,39.9,0,0,0-5.3,16.4,47.26,47.26,0,0,0,10.9,29.8c2.1,2.2,2.2,6.3,2.1,8.2s-1.3,3.7-1.3,8.3,3.3,8.4,6.2,10.9,8.2,3.7,9.8,5,3.4,6.3,3.7,7.9,3.5,6.6,4.4,7.8,4.8,5.6,5,10.7-3.4,9.4-4,10.7a17.73,17.73,0,0,0-1,3.2,35.53,35.53,0,0,0,0,13.4c1,3.8,1.8,9.8,0,15.2a93.47,93.47,0,0,0-3.5,18.6c-.3,4.9,1.3,7.8,3.5,11.8s6.7,11,8.4,15.3a13.57,13.57,0,0,1,1.18,5.38,0,0,0,0,1,0,0h0a11.79,11.79,0,0,1-.08,1.78M190,0c5.21,4.9,6,9.32,6.26,15.9.3,6.8-.4,19,0,22.1s2.2,12.5,8.4,18.5,11.6,8.8,13.2,12.1,5.3,9.4,8.8,12.2,7.3,1.7,10.1,6,4.9,8.2,2.5,12.5-10,1.6-12.5,5.1-5,15.2-4.7,19,3.8,10.9,6.3,14.3,9.3,11.6,12.8,14.7,13.5,11.2,15.1,13.5c.78,1.12,2.21,3.06,3.7,5.65M145.9,203.8c-4.8-5.2-3.7-8.2-6.5-13.6s-1.2-10.6,0-14.7,6.9-10,9-12.2,2.5-4.3,2.8-7.2,2.9-5.3,7-3.2,2.5,6.6,2.4,8.7-2.1,9.2-2.4,13,2.5,6.7,4.9,9.6c2.1,2.7,4,11.7,5.5,15.7l.92,1.32,0,0,.46.66"/>
    <path fill="none" stroke="#f3c565" d="M134.7,149.3c-.8-.1-2.6.4-4.8,2.9s-.9,4.6-.9,4.6c.4,1.7,1.6,3.5,3.3,3.5s1.4-1.6,1.5-3.5,1.5-3.5,2.1-4.6A2.3,2.3,0,0,0,134.7,149.3Zm22.7,40c-2.8-2.1-3.9-3.9-4.9-8.4s.9-4.1-1-6.2c-3.3-3.8-5.9-.1-6.8,1.5s-.6,5.9,0,10c.3,2.8,2.4,4.8,4.2,6.1s4,2.7,6.4,2.4C159.2,194.6,160.2,191.4,157.4,189.3Z"/>
    <path fill="none" stroke="#f3c565" d="M132.5,203c-.5-1.2-.6-4.9-1.3-7.2-2-6.9-7.2-14.4-8.8-17.7s-5.8-11.8-5.7-21.4,2.8-16.6,8.7-22.9,6.3-10.2,5.9-12.8-4.2-5.1-6.7-5.4-4.1-4.5-4.5-6.9-.6-8.4-5.6-10.9S101.3,94.6,99.1,99s-7.9,8.9-10.7,9.8-6.2,3.8-7.5,10S76,131,73.8,132.6s-10,4.8-12.8,5.1-5.7-.3-8.5-.4-9.8-.7-10.4,4,5.3,10.4,10.4,12.3,15,5.7,19.3,10a106.28,106.28,0,0,1,11,13.5,14,14,0,0,0,11.5,6.3c5.6.3,14.4-.2,18.5,6.6,2.4,3.9,3,8.7,4.2,12.2"/>
    <path fill="none" stroke="#f3c565" d="M110.8,161.8a23.46,23.46,0,0,1-1.2-13,58.47,58.47,0,0,1,5.9-14.2c1.7-2.9,5.1-7.9,1.6-11.6s-4.6-5.1-5.6-7.6-3.5-7.5-7.8-5.7a16.85,16.85,0,0,0-7.9,6.9,16.07,16.07,0,0,1-6,5.4c-1.6.6-3.5,2.1-4.1,6s-2.4,5.2-4.9,7.5-7,5.9-7.1,10.2a14,14,0,0,0,5.6,11.9c3.9,2.7,6.6,3.5,8,7.6s1.9,6.4,6.5,7.9,6,3.4,10.3,3.3,7-1.1,7.9-4.3S110.6,161.7,110.8,161.8Z"/>
    <path fill="none" stroke="#f3c565" d="M103,146.4c.8-3.4,2.2-8.4,3.4-9.6s3.7-4,3.4-6.9-2.5-5.4-6.8-4.4-11.4,4.3-13.8,10.3-3.3,14.2-.9,20.4,6.2,9.7,11.2,8.5,5.4-3.4,5-7.5-2.5-6-1.5-10.8Z"/>
    <path fill="none" stroke="#f3c565" d="M98.5,146.8l.8-4.9c.1-1.1.4-5.8-2.1-2.4s-3.4,5.5-3.5,9.8,3,4,4,2.1.7-3.4.8-4.6Z"/>
    <path fill="none" stroke="#f3c565" d="M203.54,0c3,4,6.32,8.1,9.16,10.4,5.3,4.3,13,4.6,17.1,7s7.6,9,8.8,11.1,5.3,6.9,13.8,8.4a23.39,23.39,0,0,1,7.6,2.7M80.1,202.5c0-.14,0-.27,0-.41a42.55,42.55,0,0,0-3.25-12c-5.4-11.8-11.9-16.6-18.4-19.7s-23.6-8.5-30.7-13.5-10.1-8.7-10-12a16.71,16.71,0,0,1,12.5-15.7c10.7-2.9,21.2,0,27.2-1.2s11.3-3.4,13.2-11,1.3-14.8,6.2-17.4,11.2-1.9,12.8-7,2.5-11,9.8-12.5,11.6,1.4,13.7,3.5,5.4,8.6,10.7,11.8a64,64,0,0,1,14,12.1c4.3,4.7,5.6,10.5,4.9,18.1s-4.1,10.8-1.2,13.7,6.5.1,9-2.5,7.7-7.8,9.6-14.7,1.3-7.8,0-11.2a35.2,35.2,0,0,1-2.5-10.1c-.1-2.8-1.3-6.9-3.4-8.5s-7.6-4.6-10.1-10.3-5.2-8.9-4.3-17.6.6-11-2.8-17.2-11.2-17.1-11.5-20.6S123.6,14,124.3,8.1A69.68,69.68,0,0,1,125.69,0"/>
    <path fill="none" stroke="#f3c565" d="M57.3,67c-1-12.2-7.3-15.5-9.7-17.1s-12.1-6.8-14.5,2.2-2.9,15-4.1,17.2-4.9,3.5-9,4.9c-2.95,1-13.7,5.55-20,9.58V101c.55,0,1.1,0,1.6,0,2.4-.1,10.3-1.8,10.3-1.8l6-1c11.3.8,12.1,5.7,17.2,5.7s13.3-5.7,15.3-10.4S58.3,79.2,57.3,67ZM0,174.34c18.87-2.13,36.69,6.5,38.6,7.46s8.8,3.7,9.8,8-2,2.5-4.9,1a25.69,25.69,0,0,0-10.8-2.7c-3.1,0-8.2.2-11.4-.6s-6.9-2.2-9-2.2A44.17,44.17,0,0,0,5,186.7a18.6,18.6,0,0,0-5,1"/>
    <path fill="none" stroke="#f3c565" d="M46.5,86.8c2.7-3.9,5.7-11.6,4.9-17.2s-1.3-11.1-3.7-12.5-5.7-4.3-7.3.2-3.3,10.9-3.9,12.9-2.5,3.9-4.1,5.9S28.2,78.9,30,86.3s7.3,8.5,10,6.7A27.54,27.54,0,0,0,46.5,86.8Z"/>
    <path fill="none" stroke="#f3c565" d="M79.16,0A56.85,56.85,0,0,0,81.8,7.3c4.3,9.6,10.6,8.2,13.5,8s7.6-8.1,9.4-10.6,2.4,1,2.4,3.9l-.4,18.8c0,3.5,1,7.4-1,8.6-3.1,1.9-5.5,1.5-9.4-6.3S86.9,21.1,84,21.5s-8.1-.5-11.8-7.6c-2-3.8-2.47-8.52-2.77-13.9M47.5,66.2c-1-1.8-2.7-4.1-4.3-2.9s0,3.5-1,5.5S40.5,73,41.5,74s3,0,3.8-1.1C46.2,71.6,48.5,68,47.5,66.2Z"/>
    <path fill="none" stroke="#f3c565" d="M237.52,0a10,10,0,0,1,2.78,2.1,147.23,147.23,0,0,0,10.8,10.4c1.22,1.05,4.34,2.24,8.9,2.13M63,0c0,4.89-.55,9.05-.39,14.9.2,7.4.6,13.7,4.5,18.6s6.9,3.3,9,2.5,5.1-3.7,12.5.8,12.2,14.3,16.9,18.6,9.4,9.2,14.9,9.4,8.1-5.9,7.1-9.6-6.8-14.3-8.4-17.2-7.4-13.9-7.8-18,.6-12.2,3.1-16.5c.51-.87,1.11-2.09,1.75-3.5"/>
    <path fill="none" stroke="#f3c565" d="M248.54,0l.06.1c2.4,3.7,5,6.4,10,5.7.46-.06.93-.14,1.4-.23m0,145.6a47.26,47.26,0,0,1-6.1-.17c-4.2-.5-10.9-2.4-15.4-8.5s-8.1-13.5-8.3-17.6-.6-12.1,5.3-13.9,9.9-4.6,11.1-9,2.5-6.9,1.1-12.7-5.2-7.8-7.3-9.4-6-4.4-7.6-7.7-4.2-7.6-7.1-9-8.3-4.6-10-7.2a38.23,38.23,0,0,0-2.8-4c-2.1-3.6-5.7-9.1-6.1-13.3s-1.8-7.5.5-11.1,6-4.7,10.6-2.7,8.5,7.7,10.1,10.2,7,10.9,12.7,13.2,13.5.6,18.9,4.2c.14.09.27.19.4.29"/>
    <path fill="none" stroke="#f3c565" d="M260,142.61a15.08,15.08,0,0,1-5.7.19,16.3,16.3,0,0,1-9.4-6.9c-2.6-4.2-4.7-5.1-3.3-11.7s7.7-10,9.5-12.6,6.7-7,6-13.7c-.5-6.7-5-16.9-5-16.9-1.5-2.9-4.7-8.7-5.2-11.3s-2-6.2,2.3-7.7,5.7-1.6,8,1.8a31,31,0,0,1,2.8,7"/>
    <path fill="none" stroke="#f3c565" d="M0,769.35c2.39-.21,4.84-.5,7-.86h.15l1-.18M0,715.92c3.58-.82,7.88-2.7,12.9-6.52M0,691c1-1.1,1.56-2.28,2.2-3.09,1.5-1.9,2.9-9.6,3.7-10.8a14.89,14.89,0,0,1,3.5-2.6M2.9,753.4c-1-.11-1.93-.26-2.9-.45m0-30.23a25.7,25.7,0,0,0,4.5-1.82,20,20,0,0,1,4.9-1.8M0,745.67A19.08,19.08,0,0,0,2.2,745c2.44-.94,6.23-2.87,7.74-3.66l.27-.14.26-.13.13-.07M0,730c5.74,1.21,11.57,1.67,13.7.84M0,862.71c3.48-2.69,6.9-5.51,6.9-5.51M0,805.39c2.85-.08,5-.82,9.1-1.39M7.9,791.3l-1-.1-5.07-.5a10.38,10.38,0,0,0-1.8,0m260-674.8a14.76,14.76,0,0,0-4.8,1.76c-1.3.8-5.5,3.6-5.5,7.5.1,2.8.2,4,.9,5.6s4.7,3.2,7.4,2.3a8.78,8.78,0,0,1,2-.41M0,827.26c1.57-1.07,4.12-2.79,7-3.06M0,846.92l.6,0c2.4-.1,10.3-1.8,10.3-1.8M0,876.72a12.52,12.52,0,0,1,1.7-1,44.2,44.2,0,0,1,5.9-2.9M0,615.7c3-.63,6.06-1,7.5-.8M0,643.22a10.57,10.57,0,0,1,.5,1.08,17.18,17.18,0,0,1,.7,7.4C1.06,653.48,1,656.77,0,659m0-24.69.7.31c1.7,1,6.5,1,10.5,5.6M0,252.53a4.36,4.36,0,0,1,1,.17H9.4c3.6.9,6.3,6,7,8.7q1.91,6.71,3.5,13.5a113.28,113.28,0,0,0,4.3,13.7c1.8,4.5,3.3,8.1,3.1,12s-3.5,7.8-4.9,10.2-7.8,7.6-10.6,9.4a75.11,75.11,0,0,1-7.6,4.1l-1.2.6c-.58.36-1.69,1.23-3,2.21m0,70.18c.6-.05,1.2-.11,1.8-.19l3.8-.4c9.2,0,13.2-5.3,15.7-7.3s5.5-7.1,13.9-7.1,10.6,8.3,11.4,11.2,2.6,17.2,3.9,23.1,6.5,8,8.6,8.6,6.3,3.6,9,6.5,2.2,10,.8,15.3-7.8,17.3-8.8,20.2-2.5,10.2-9.6,15.1-19.4-.8-31-1H17.1l-2.6.2c-4.18-.14-9.51,2-14.5,4.54M0,814.3c3.92-.18,7.84-.28,10.1-.5"/>
    <path fill="none" stroke="#f3c565" d="M0,263c2.26,1.09,10.58,3.58,12.2,8.24,1.7,4.9,3.1,12.9,4.2,16.4a9.39,9.39,0,0,1-2,9.4c-1,1.2-6.1,5.7-6.1,5.7l-.3.4a14.89,14.89,0,0,0-3.5,2.6c-.8,1.2-1.8,8.4-3.3,10.3-.38.48-.75,1.1-1.2,1.76M0,524.25a10.7,10.7,0,0,0,.9,1A26.52,26.52,0,0,1,3,527.6s4.5,4.7,5.6,5.2,11.5,6.9,15.8,9.5,19.4,7.7,28.2,9.6a26.2,26.2,0,0,1,17.8,14.7,17.5,17.5,0,0,1,1.3,4.3M0,383.52c5.88.53,14-3.76,19.2-5.92s11-6.2,17.1-8.2,15.3-2.7,18.4,4.5-.2,14.5-.2,22.5,4.4,17.8,7.3,22.7,12.1,2.4,19.2,2.4,12.5,3.7,13.5,11-5.3,15.1-8.2,19S76,459,73.6,462.9s-5.3,12.1-8.2,18.8-13.4,10-17.1,11.6-17.4.8-27.2,2.2-14.7,5.7-14.7,5.7l-2,1.3L.5,505.1l-.5.25"/>
    <path fill="none" stroke="#f3c565" d="M70.6,198.8a87.23,87.23,0,0,1,.4,15.5c0,3,.2,9.8,5.1,11.4s9,5.1,10.8,9,1,9.2.6,12.7-2.7,6.9-8.8,4.7-9.6.2-13.5,0-8.4-2.5-12.5-9.6-.8-16-13.9-27.2S7,206.7,6.3,206.5A16.54,16.54,0,0,0,0,208M0,234.9H7.7c7.7.4,14.9,9.6,16.9,12.7s7.2,10,9.2,12.5,10.4,7.6,13.9,8.4,15.3,2,20,5.1,4.7,11.4,4.9,13.9,2.5,6.9,5.1,9.6,9.4,6.4,11.4,8.2-.1,7.6-.6,10-2.5,4-7.6,2.2-4-9.2-12.2-10.6-11.8,1.2-19.6,3.9-17.8,13.1-22.3,17.8-9.1,12.6-12.2,15.1a24.76,24.76,0,0,1-7.3,3.7l-3.6,2.2A26.88,26.88,0,0,1,0,350.86"/>
    <path fill="none" stroke="#f3c565" d="M0,220.37a41.39,41.39,0,0,0,4.8-.57c10.8-2.9,17.2,3.9,22.3,7.6s12.4,15,16.1,22.1,15.3,11.6,18.6,12,8.6-.6,12.7-1,6.1,2.5,7.3,7.4-.4,11.4-.2,16.5,6.4,9.2,8.4,11,7.2,5.1,7.8,12.5-4.1,13.3-5.7,19,1,12,2.9,16.1,4.5,10,4.7,14.3-3.5,9.3-4.9,12.2-4.3,3.5-5.9,1-2.9-8.2-3.5-13.7S84,338,78.1,326.2s-15.5-10.2-20-8.6-10.2,7.6-11.2,12.5,3.5,3.6,10.2,2.4,10.2,1.2,15.1,5.3,5.7,15.7,5.9,20.8A57.84,57.84,0,0,0,83,381.3c4.3,9.6,10.6,8.2,13.5,8s7.6-8.1,9.4-10.6,2.4,1,2.4,3.9l-.4,18.8c0,3.5,1,7.4-1,8.6-3.1,1.9-5.5,1.5-9.4-6.3s-9.4-8.6-12.3-8.2-8.1-.5-11.8-7.6-2.1-17.4-4.1-29.2-10.8-15.7-20-16.1-19.2,4.3-23.5,6.9c-1.92,1.14-15.52,8-25.8,10.95"/>
    <path fill="none" stroke="#f3c565" d="M0,9.65C5.1,9.51,13.33,5.72,18.2,3.7c2.37-1,4.82-2.33,7.36-3.7M53.7,0c3.1,7.2-.2,14.5-.2,22.5s4.4,17.8,7.3,22.7S72.9,47.6,80,47.6s12.5,3.7,13.5,11-5.3,15.1-8.2,19S75,85.1,72.6,89s-5.2,12.1-8.2,18.8-13.4,10-17.1,11.6-17.4.8-27.2,2.2-14.7,5.7-14.7,5.7l-2,1.5L0,130.5m0,22.35a7.52,7.52,0,0,0,2.4,2.75l.2.2c5.5,3.7,15.5,10,19.8,12.5s19.4,7.7,28.2,9.6,14.2,9.1,17.8,14.7a17,17,0,0,1,2.4,6.6M0,548.23c19.16-2.47,37.46,6.4,39.4,7.37s8.8,3.7,9.8,8-2,2.5-4.9,1a25.69,25.69,0,0,0-10.8-2.7c-3.1,0-8.3.2-11.4-.6s-6.9-2.2-9-2.2a44.17,44.17,0,0,0-7.3,1.4l-3.5,1.8A17.81,17.81,0,0,0,0,564.18M80,201.8a2.5,2.5,0,0,0,0,.29c1.71,11.41,11.18,17.52,14.65,19.11s10.5,2,12.9,2.2,5.8,3.1,8,8.4-.6,14.3,1.4,17.6,11.7,2.9,18,3.9,9,6.7,10,14.1a56.57,56.57,0,0,1-2,22.7c-2.1,7.4-11.1,13.7-18.4,19s-9.4,13.9-9.4,21.2,5.7,11.8,6.9,14.7,1,10.6.8,13.1-4.9,15.1-7.4,19.4-3.5,12.4-3.1,16.5,6.2,15.1,7.8,18,7.4,13.5,8.4,17.2-1.6,9.8-7.1,9.6-10.2-5.1-14.9-9.4-9.5-14.1-16.9-18.6-10.4-1.6-12.5-.8-5.1,2.4-9-2.5-4.3-11.2-4.5-18.6.8-12.1.2-19-6.3-11.7-15.3-13.5-16.3,1.2-19,2.2a140.83,140.83,0,0,0-15.1,7.3,76.38,76.38,0,0,1-8,4.1L.9,371.9l-.9.32M0,407.4H.4c4.3-.2,8.9.4,15.8,1.8s11.2,6.3,12.5,9.6-1,10.6-5.3,17.1-12.3,6.3-15.7,6.5H7a60,60,0,0,0-7,1.12"/>
    <path fill="none" stroke="#f3c565" d="M0,22.31a19.21,19.21,0,0,1,2.3.29l2.2-.1c9.2,0,13.2-5.3,15.7-7.3s5.5-7.1,13.9-7.1,10.6,8.2,11.4,11.2S48,36.5,49.4,42.4s6.5,8,8.6,8.6,6.3,3.6,9,6.5,2.2,10,.8,15.3S60,90,59,93s-2.5,10.3-9.6,15.2-19.4-.8-31-1l-4.8.1c-3.89-.07-8.86,1.86-13.6,4.19"/>
  </g>
</svg>
