<svg width="70" height="27" xmlns="http://www.w3.org/2000/svg" viewBox="0 0 70 27">
    <path d="M16.9 6.3l-7 16.2c-.7 1.6-1.5 2.8-2.4 3.4-.9.7-2.1 1-3.4 1-.8 0-1.5-.1-2.2-.4-.7-.2-1.3-.6-1.8-1L1.4 23c.3.3.7.6 1.2.8.5.2.9.3 1.4.3.6 0 1.1-.2 1.5-.5.4-.3.8-.9 1.1-1.6l.3-.6L.3 6.3H4l4.7 11.1 4.8-11.1h3.4zM29.4 7.7c1.2 1.1 1.8 2.7 1.8 4.8v8.8h-3.3v-1.8c-.4.7-1 1.2-1.8 1.5a8.36 8.36 0 0 1-5.9-.1c-.8-.4-1.5-.9-2-1.6-.5-.7-.7-1.5-.7-2.3 0-1.4.5-2.4 1.5-3.3 1-.8 2.6-1.2 4.7-1.2h3.9v-.2c0-1.1-.3-1.9-.9-2.4-.6-.6-1.6-.8-2.8-.8-.8 0-1.7.1-2.5.4-.8.3-1.5.6-2.1 1.1L18 8c.8-.6 1.7-1.1 2.8-1.4 1.1-.3 2.3-.5 3.5-.5 2.2 0 3.9.6 5.1 1.6zm-3.2 10.7c.7-.4 1.2-1 1.5-1.7V15H24c-2 0-3 .7-3 2 0 .6.3 1.1.8 1.5.5.4 1.2.6 2.1.6.8-.1 1.6-.3 2.3-.7zM44.4 6.1v3.4c-.3-.1-.6-.1-.8-.1-1.4 0-2.4.4-3.2 1.2-.8.8-1.2 1.9-1.2 3.4v7.3h-3.5v-15H39v2.2c1-1.6 2.8-2.4 5.4-2.4zM61.9 0v21.3h-3.4v-1.9c-.6.7-1.3 1.2-2.2 1.6-.9.4-1.8.5-2.8.5-1.4 0-2.7-.3-3.9-1-1.2-.6-2.1-1.5-2.7-2.7-.7-1.2-1-2.5-1-4a7.44 7.44 0 0 1 3.7-6.7c1.2-.6 2.5-1 3.9-1 1 0 1.9.2 2.7.5.8.3 1.5.8 2.1 1.5V0h3.6zm-5.6 17.9c.7-.4 1.2-.9 1.6-1.6.4-.7.6-1.5.6-2.5 0-.9-.2-1.8-.6-2.5-.4-.7-.9-1.3-1.6-1.6a4.65 4.65 0 0 0-4.6 0c-.7.4-1.2.9-1.6 1.6-.4.7-.6 1.5-.6 2.5 0 .9.2 1.8.6 2.5.4.7.9 1.3 1.6 1.6.7.4 1.4.6 2.3.6.9 0 1.6-.2 2.3-.6z"/>
    <path fill="#f3c565" d="M66.1 20.9c-.5-.4-.7-1-.7-1.7s.2-1.3.7-1.7c.4-.4 1-.6 1.6-.6.7 0 1.2.2 1.6.6.4.4.7 1 .7 1.7s-.2 1.2-.7 1.7c-.5.4-1 .7-1.6.7s-1.2-.3-1.6-.7z"/>
</svg>
