<svg xmlns="http://www.w3.org/2000/svg" width="475" height="500" viewBox="0 0 475 500">
  <g opacity=".5">
    <path fill="none" stroke="#f3c565" d="M0,165.45l.7.25c5.3,1.9,6,5.3,5.3,7.1-.52,1.33-3.16,1.24-6,.7"/>
    <path fill="none" stroke="#f3c565" d="M0,154.62c4.79,4.11,7.9,3.54,11,3.38,3.8-.2,8.4-6.8,12-7.6s5.2.6,11.4-1.8,6-5.7,9.2-5.7c10.4,0,14.1,13.3,15.1,16.3s5.7,13,10.8,15.7,16.8,6.1,22.1,8.4,11.5,10.1,13.1,13.1,9.2,8.4,15.1,11.8,6,6.5,4.3,11-8.4,4.1-12.3,4.1S97.9,219,94,215.7s-12.7-7.2-14.9-7.6-6.6-.8-9.6-1.2-8.4-6.3-11.6-10.2-6.9-4.5-12.2-5.1-7.6-2.8-9.6-7.1-5.7-3.9-10.2-3.7-9.5,5.7-14.7,7.3c-4,1.23-7.77.33-11.2-1.11"/>
    <path fill="none" stroke="#f3c565" d="M123.6,182.5c-2.5-1.9-5.4-3.4-12-1.8s-10,3.4-6.2,5.6,3.9,1.7,6.3,3.1a31.77,31.77,0,0,1,5.7,4c1.4,1.3,2.3,3.5,4.8,3.4s5-.9,5.4-5A10.49,10.49,0,0,0,123.6,182.5Zm-17.8,27.6a14.61,14.61,0,0,0-6-1.6c-1.8,0,0,2.5,1.9,3.1s4.7,1.5,5.7,1S108.1,211.1,105.8,210.1ZM75.3,187.6c-4.7-3.4-8.7-6.9-12.1-8.8s-7.5-5.1-8.1-6.2a19.32,19.32,0,0,0-4.7-6c-2.5-1.9-4.1-3.2-7-3.4a29,29,0,0,1-10.6-2.9c-3.4-1.8-9.3-.7-11.5,1.5-1.6,1.6-2.5,7.2-2.4,9.8s.7,4.4,4,4,8.2-3.9,9.4-4.3a7.61,7.61,0,0,1,7,1.2,14.77,14.77,0,0,1,4.7,6.9c.7,2.3,5.2,4.7,6.9,5.1,2,.5,3.2,1,5,.7s4-.6,5.8.4l7.4,3.5c2.6,1.4,4.4,2.8,6.2,2.6S80,191,75.3,187.6Z"/>
    <path fill="none" stroke="#f3c565" d="M0,141.68c3.33,1.76,7.25,3.32,9.8,3.52,3.9.3,15.5-2.2,19-4.7s.8-10.1,5.1-12.5,8.3-.2,12.5,2.5,3.2,6.6,6,10.1,8.9,7.2,12.2,8.8,6.1,7,12.1,13.2,15.4,8,18.5,8.4,15.2-.3,22.1,0,11.3,1.1,16.4,6.8,1.4,15.1,1.6,17.6,2.8,8.2,4.3,17.6-4.7,12.6-7.5,14.4a39.86,39.86,0,0,1-16.4,5.3c-6.6.4-15.2-2.5-17.3-3.4s-10.3-5.4-12.5-7.5-6.3-2.2-8.2-2.1S74,221,69.4,221s-8.4-3.3-10.9-6.2-3.7-8.2-5-9.8-6.3-3.4-7.9-3.7-6.7-3.5-7.8-4.4-5.6-4.8-10.7-5-9.4,3.4-10.7,4a17,17,0,0,1-3.2,1,35.51,35.51,0,0,1-13.2,0m0,44.6c6-5.47,9.77-5.93,12.3-5.44s5.1,4.3,5.4,6.7,4.3,4,6.8,4.5,8.5.6,11,5.6,3.2,13.2-1.2,15.4-8.8,7.9-9.8,10.7-3.8,6.1-10,7.5S2.1,291.4.6,293.6a11.13,11.13,0,0,0-.6,1"/>
    <path fill="none" stroke="#f3c565" d="M0,251c3-1.71,7.12-3.76,10.2-.77,3.6,3.5,5.1,4.6,7.6,5.6s7.5,3.5,5.7,7.8a16.85,16.85,0,0,1-6.9,7.9,16.07,16.07,0,0,0-5.4,6c-.6,1.6-2.1,3.5-6,4.1A8.84,8.84,0,0,0,0,284.07"/>
    <path fill="none" stroke="#f3c565" d="M0,258.15a6.22,6.22,0,0,1,3.4-.75c2.9.3,5.4,2.6,4.4,6.8C7,267.78,4.43,273.52,0,276.63m0-63.22a31.08,31.08,0,0,1,11.1-6.31c6.9-2,7.8-1.3,11.2,0a36,36,0,0,0,10,2.5c2.8.1,7,1.3,8.6,3.4s4.6,7.6,10.3,10.1,9,5.2,17.6,4.3,11-.6,17.2,2.8,17,11.2,20.6,11.5,12.6,1.9,18.5,1.2,17.6-2.5,21.9-9.3,5.4-13.7,4-19.4a51.14,51.14,0,0,0-5.7-13.4c-1.8-2.6-2.6-6.6-.1-14.4s1.3-12.1-3.1-15.9-15-10.7-19.3-16-4.5-12.9-7-17.1-9-7.6-11.1-8.8-7-5.3-8.4-13.8-6.8-14-12.1-15.6-16-5.3-18.4-9.6-6.6-13.1-8.4-16.8A28,28,0,0,0,44.6,60c-7-3.2-11.2-3.4-15.1-2.4s-9.1,4.9-16,5A127.37,127.37,0,0,0,0,64.11"/>
    <path fill="none" stroke="#f3c565" d="M0,226.21a38.5,38.5,0,0,1,7.6-1.71c7.6-.8,13.4.6,18.1,4.9a64.46,64.46,0,0,1,12.1,14c3.2,5.3,9.8,8.7,11.8,10.7s5,6.4,3.5,13.7-7.4,8.2-12.5,9.8-4.4,7.9-7,12.8-9.8,4.3-17.4,6.2-9.8,7.2-11,13.2S6.9,326.3,4,337a16.68,16.68,0,0,1-4,7.24"/>
    <path fill="none" stroke="#f3c565" d="M126,367.2c-1-8,1.4-12.7,3.5-18s6.3-11,8.2-17.1,2.7-15.3-4.5-18.4-14.5.2-22.5.2-17.8-4.3-22.7-7.3-2.4-12.2-2.4-19.2-3.7-12.5-11-13.5-15.1,5.3-19,8.2-7.4,10.4-11.4,12.7S32,300.1,25.4,303s-10,13.3-11.6,17.1-.8,17.4-2.2,27.2S5.9,362,5.9,362"/>
    <path fill="none" stroke="#f3c565" d="M110.7,362.9c0-9.2,5.3-13.1,7.3-15.7s7-5.5,7-13.9-8.1-10.6-11.1-11.4-17.2-2.5-23.1-3.9-8-6.5-8.6-8.6-3.5-6.3-6.5-9-10-2.2-15.3-.8-17.2,7.8-20.2,8.8S30,310.9,25,318s.8,19.4,1,31-4.1,13.5-4.1,13.5"/>
    <path fill="none" stroke="#f3c565" d="M54.7,363.2a129.8,129.8,0,0,1,4.2-16c1.4-4.1,2.7-7.8,4.9-9s8.2-1.8,17.2-4.1,3.7-12.2,2.2-14.5-5-8.6-17.1-9.6-21.8,4.9-26.5,6.9-10.4,10.2-10.4,15.3,4.9,5.9,5.7,17.2a43.4,43.4,0,0,1-1.1,9.7"/>
    <path fill="none" stroke="#f3c565" d="M75.9,326.8c-4.5,1.5-10.9,3.3-12.9,3.9s-3.9,2.5-5.9,4.1-2.7,4.2-10.2,2.4-8.5-7.3-6.7-10a32.37,32.37,0,0,1,6.2-6.5c3.9-2.7,11.7-5.7,17.2-4.9s11.1,1.3,12.5,3.7S80.4,325.3,75.9,326.8Z"/>
    <path fill="none" stroke="#f3c565" d="M65.2,360.6c.2-3.4,0-11.4,6.5-15.7s13.8-6.6,17.1-5.3,8.2,5.6,9.6,12.5a83.65,83.65,0,0,1,1.8,18.4M67,319.7c-1.8-1-5.3,1.3-6.6,2.2s-2.2,2.9-1.2,3.9,3.3.2,5.3-.8,4.3.6,5.5-1S68.8,320.7,67,319.7Z"/>
    <path fill="none" stroke="#f3c565" d="M136.8,361.6q1.9-4,4.1-8a161.41,161.41,0,0,0,7.3-15.1c1-2.7,3.9-10,2.2-19s-6.7-14.7-13.5-15.3-11.6.4-19,.2-13.7-.6-18.6-4.5-3.3-6.9-2.5-9,3.7-5.1-.8-12.5-14.3-11.9-18.6-16.7-9.2-9.5-9.4-15,5.9-8.1,9.6-7.1,14.3,6.9,17.2,8.4,13.8,7.4,18,7.8,12.2-.7,16.5-3.1,16.9-7.2,19.4-7.4,10.2-.4,13.1.8,7.4,6.9,14.7,6.9,15.9-2.2,21.2-9.4,11.6-16.2,19-18.4a54.82,54.82,0,0,1,22.7-2c7.4,1,13.1,3.8,14.1,10s.6,16,3.9,18,12.3-.7,17.6,1.4,8.2,5.7,8.4,8,.6,9.4,2.2,12.9,7.8,13.1,19.4,14.7M75.2,360.5s1.4-6.8,2-8a3,3,0,0,1,.3-.4,3.5,3.5,0,0,1,4.8-1c2.39,1.6,5.88,3.19,5.7,11.33v.07"/>
    <path fill="none" stroke="#f3c565" d="M300.9,361.8c-.6,3.6-4.8,9.4-5,15.4s-.5,7.8-2.5,9.4-5.1,1.4-6.4.2-1.5-6.1-.2-10.7.7-12.5.7-12.5-1.6-16.2-7.6-22.3c-3.7-5.1-15.1-12.3-22.1-16.1s-11.6-15.3-12-18.6.6-8.6,1-12.7-2.5-6.1-7.4-7.3-11.4.4-16.5.2-9.2-6.5-11-8.4-5.1-7.3-12.5-7.8-13.3,4.1-19,5.7-12-1-16.1-2.9-10-4.5-14.3-4.7-9.2,3.5-12.2,4.9-3.5,4.3-1,5.9,8.2,2.9,13.7,3.5,18.8,1.4,30.6,7.3,10.2,15.5,8.6,20-7.6,10.2-12.5,11.2-3.5-3.5-2.4-10.2-1.2-10.2-5.3-15.1-15.7-5.7-20.8-5.9a57.66,57.66,0,0,1-22.7-4.9c-9.6-4.3-8.2-10.6-8-13.5s8-7.6,10.6-9.4-1-2.4-4-2.4l-18.7.4c-3.5,0-7.4-1-8.6,1-2,3.1-1.6,5.5,6.3,9.4s8.6,9.4,8.2,12.3.6,8,7.6,11.8,17.4,2.2,29.2,4.1,15.7,10.8,16,20-4.2,19.2-6.8,23.5-7.8,9.6-8.8,12.3a15.51,15.51,0,0,0-.4,6.5"/>
    <path fill="none" stroke="#f3c565" d="M159.5,360.9a24.76,24.76,0,0,1,3.7-7.3c2.5-3.2,10.4-7.6,15-12.2s15.2-14.5,17.9-22.3,5.3-11.4,3.9-19.6-8.8-7.1-10.6-12.2-.2-7.1,2.2-7.6,8.2-2.5,10-.6,5.5,8.8,8.2,11.4,7,4.9,9.6,5.1,10.8.2,13.9,4.9,4.3,16.5,5,20,6,12,8.5,13.9,9.4,7.3,12.5,9.2,12.3,9.2,12.7,16.9v9.1c-.2,4.3-3.5,5.4-5,9.7s.5,8.9,4,12,11.9,6.2,17.8,7.5,14.4.7,14.4.7"/>
    <path fill="none" stroke="#f3c565" d="M264.4,361.9c.2-10.6-7.1-14.1-10.8-17.1s-13.5-6.3-17.2-7.4a74.4,74.4,0,0,1-17.2-7.4c-7-4.1-11.6-4.3-15.1-3.3s-7.1,7.3-8.6,9A125.3,125.3,0,0,1,182,347.3L172,354c-1.4,1-4.7,6.5-4.7,6.5"/>
    <path fill="none" stroke="#f3c565" d="M183.8,362.7c0-.11.1-.23.16-.34s0,0,0,0q.74-1.6,1.59-3.15v0c.51-.93,1-1.85,1.62-2.75,1.8-2.8,7-9.2,9.4-10.6s6.2-4.7,10.2-4.9,7.5,1.3,12,3.1a111.54,111.54,0,0,0,13.7,4.3l13.5,3.5c3.5,1,10,1,8.7,15.3v.8c.4,2,0,6.3,0,8.9,0,3,.5,9.3,1,15.8s-1.1,9.6-4,13.1-8.6,3.8-13.8,3.6-11.4-6.7-13.4-9-5.6-7.3-8-9.3-6-1.4-8.6-.9-6.8,3-9.5,5.8-8,7-12,7.7-6.3-2-7.7-3.7-.2-7.9-1-13.9.5-9.4,1-11.7a47,47,0,0,1,3.7-9.1c.37-.59,1-1.69,1.56-2.84,0,0,0,0,0,0,.6-1.16,1.2-2.36,1.59-3.15v0l.42-.85"/>
    <path fill="none" stroke="#f3c565" d="M300.8,361.9c.4-.7,2.4-19.4-8.8-32.5s-20.1-9.8-27.2-13.9-9.4-8.6-9.6-12.5,2.3-7.4,0-13.5,1.2-8.4,4.7-8.8,8.8-1.2,12.7.6,7.4,5.9,9,10.8,8.4,5.1,11.4,5.1a88.19,88.19,0,0,1,15.5.4M223,303.4c-2.6-2.4-6-5.1-9.8-2.7s-7.1,6.5-6.7,9.2,1.8,6.5,3.9,7.4,4,2,5.9,1.4,3-1.3,4.4-4.1h-.1a71.06,71.06,0,0,1,4-5.9C225.2,307.7,225.6,305.8,223,303.4Zm-18.4,56.5s4.5-5.1,5.7-6.1a9.39,9.39,0,0,1,9.4-2c3.4,1.1,7.4,1.9,12,3.6a46.81,46.81,0,0,1,7.3,2.9"/>
    <path fill="none" stroke="#f3c565" d="M277.1,268.3c-1.3-5.7-5-8.2-10.4-8.8s-10.4.4-16.5-5.9-6-10.8-6.5-13.7-.6-8.4-9.8-8.8-14.5,2.5-18.2,3.9-8.8,6.9-9.8,10,1,6.3,4.9,6.7a48,48,0,0,1,8.5,1.4c3.6.9,9.2,4.7,11.6,8s4.5,6.7,11.4,7.8,13.5-.6,17,0,8.7,2.7,11.3,3.1S278.4,274,277.1,268.3Zm-1.3,31c-2.2-1.3-6.3-1.5-7.5-.5s-1.2,5.1,1.8,7.8,7,3.9,9.4,3.3,2.4-2.7,2.4-4.9S278.2,300.8,275.8,299.3Z"/>
    <path fill="none" stroke="#f3c565" d="M227.9,238.8c-3.3,0-5.7,2.4-8.8,4.9s-1.2,4.5.8,5.1,4-1.2,7,0,5.8,1.4,7.9.4,0-5-.4-8C234.2,240,231.3,238.8,227.9,238.8Z"/>
    <path fill="none" stroke="#f3c565" d="M110.25,0a33.71,33.71,0,0,0,.15,7c.8,3.6,2.9,6.9,2.7,13.3s-4.1,12-6.1,16.1-2.2,11.6-.6,15.9,5,10.8,9.8,23.7,3,23.5,2.5,29.2.8,9.6,2,11A145.87,145.87,0,0,0,131,127c3.9,3.5,4.7,11.4,4.5,15.1s-.2,7.3,3.7,10.4,13,9.4,15.7,11,7.8,8.4,8.6,13.1-.8,16.3-1.2,20.8,1.8,7.3,2.7,10.2-2.5,7.1-3.7,10.8-5,10-3.1,14.9,6.9,8.4,14,8,12.8-5.1,15-6.3,7-7.8,15.9-14.1,13.7-13.1,17.8-17.4,2.7-13.9,2.4-16.7-1.2-9.2-1-13.9,3.3-12.2,8-17.4,12-9.8,18.4-10.8a8.7,8.7,0,0,1,10,7,9,9,0,0,1,.2,2.2c-.4,4.7-8.2,11.8-11.4,14s-6.3,6.4-6.5,10.3,2.5,9.6,3,16.9-3,5-3,11.2,5,6.7,11.6,7.8,9.4,6.5,11,9.6a67.6,67.6,0,0,0,7.3,11.8c3.7,4.9,10,12.2,19.6,13a63.44,63.44,0,0,1,15.7,3.4"/>
    <path fill="none" stroke="#f3c565" d="M308.5,188.4c-10.6-.8-17.8-4.3-21.2-5.5s-4.7-8.8-5.7-13.7-3.5-8-6.1-9.2-5.5,2.2-7.4,3.9-8,10-7.8,15.5-.8,5.5-2,10.8.6,6.9,2.9,9.6,9.8,4.9,16.9,7.4,7.6,8.8,8,11,2.7,9.4,7.6,12.7a41.12,41.12,0,0,0,11,4.9"/>
    <path fill="none" stroke="#f3c565" d="M303.6,155.2s-11.6-2.2-14.5-3.9-9.2-6.2-12.3-7.8-8.2-4.5-13.7-5.1-9.5-.2-11.4-5.1-1.4-12.2.8-14.7,5.1-7.3,10-8.6,7.5-4.1,10-3.5,6.5,1.2,8.8,1.6,8.8,1,12.5.4,15.2-1.4,19.2-.8m-12.2,70a8.06,8.06,0,0,1-3.9-2.2c-3.5-3.6-2-5.3-.2-5.7a16.61,16.61,0,0,1,7.8.4m.2,53.1-.06,0c-.54-.45-5-4.08-6.84-7.36-2-3.5-.8-7.3-5.9-10.8s-10.4-5.9-13.4-8-7-4.6-7-7.8,4.6-3.4,6.5-2.4,6.2,5.1,8.2,6.3a23.59,23.59,0,0,0,8.4,2.5c2.54.18,8.2.77,10.87,2.67a.18.18,0,0,1,.07,0,4.15,4.15,0,0,1,.66.58"/>
    <path fill="none" stroke="#f3c565" d="M308.3,188.4a9,9,0,0,1,3.2.7c4.3,1.7,10.8,6.5,14.8,8.7s6.9,3.8,11.8,3.5a92.63,92.63,0,0,0,18.6-3.5c5.4-1.8,11.4-1,15.2,0a35.53,35.53,0,0,0,13.4,0,17,17,0,0,0,3.2-1c1.3-.6,5.6-4.2,10.7-4s9.6,4.1,10.7,5,6.2,4.1,7.8,4.4,6.6,2.1,7.9,3.7,2.5,6.9,5,9.8,6.3,6.2,10.9,6.2,6.4-1.2,8.3-1.3,6,0,8.2,2.1,10.4,6.6,12.5,7.5a45,45,0,0,0,4.5,1.53M303.2,59.8c-5.3-1.3-17.9-6.8-22-8.2s-9.8-.8-12.5-.6-7.3,5.9-9.5,7.3-7.5.8-13,1.6-13.1,6.2-13.3,14.5,5.2,10.2,10.8,11.6,10.1.6,17.2,4.3,11.8,7.2,16.3,8.4,12.2,1,16.7,1,10.9.9,17.2,1.2a55,55,0,0,1,28.3,11L352.9,127c3.1,3.5,11.4,10.3,14.7,12.8s10.4,6,14.3,6.3,15.5-2.2,19-4.7.8-10.1,5.1-12.5,8.3-.2,12.5,2.5,3.2,6.6,6,10.1,8.9,7.2,12.2,8.8,6.1,7,12.1,13.2,15.4,8,18.5,8.4a72.93,72.93,0,0,0,7.7.07M251,95.2c-2.8,0-4-1.2-4.4.2s2.5,1.9,2.9,2.3c1.5,1.5,3.9,1.2,5.5.8S253.8,95.2,251,95.2Zm52.6,47.7c-.25.11-.5.22-.76.31a18.67,18.67,0,0,1-7.24,1.29c-5.7-.2-6.3-4.2-12-7.8s-11.2-5.9-13.5-6.3-5.5-1.4-4.7-5.5a8.5,8.5,0,0,1,7.8-6.9c3.3-.2,15,1.2,18.7,1s11.5-1,17-.4"/>
    <path fill="none" stroke="#f3c565" d="M302.2,95.3l-.64-.16A35.72,35.72,0,0,1,293,91.8c-4.1-2.4-10.8-.6-13.9-1.4s-7.7-2.7-9.8-5.3-5.4-5.9-12.5-6.1-6.9-2.8-6.9-5.5,3.4-3.3,6.1-3.9,6.5-2.9,8.8-4.1,8.4-2,13.5-.4a96.25,96.25,0,0,0,17.4,3.3,68.84,68.84,0,0,1,8.1,1.1l.08,0c.65.12,1.29.25,1.93.4h.07l1.12.27M165.35,0a18.47,18.47,0,0,0,.15,7.5,128.8,128.8,0,0,1,2,16.5,16.71,16.71,0,0,0,9,14.3c6.9,3.7,12.2,3.5,25.5-3.9,9.3-5.2,16.7-3.7,22.3,1.8,2.5,2.4,3.2,4,5.6,8.7,2.8,5.3,10.3,6.3,19.7,6.1s12-7.8,15-11,3.4-3.7,8.9-1.2,11,6.5,16.9,9,14.3,3.1,14.3,3.1"/>
    <path fill="none" stroke="#f3c565" d="M179.3,0A8.9,8.9,0,0,0,178,2.7c-.4,2.3-1.8,5.7-1,11.7s2.3,11.7,3.7,13.3,3.6,4.4,7.6,3.7,9.3-4.9,12-7.7,6.9-5.3,9.5-5.8,6.2-1.1,8.6.9,6,7,8.1,9.3,8.1,8.8,13.3,9,10.9-.1,13.8-3.6,4.5-6.6,4-13.1-1-12.8-1-15.8c0-1.3.09-3,.16-4.6"/>
    <path fill="none" stroke="#f3c565" d="M247.6,0a11.73,11.73,0,0,1,0,3.5c-.2,2.8.9,5.4,1,10.2s-.5,6.7-2.2,9.4-4.9,2-7.4,2S231,21,228.7,19a69.74,69.74,0,0,0-11-8.1c-4-2.2-8-1.6-11.5-1.7s-6,2.3-9.5,5.4-4.8,1.8-6.5.6-2.9-5.2-2.9-11.4A10.08,10.08,0,0,1,188,0"/>
    <path fill="none" stroke="#f3c565" d="M241.3,2.2a6.42,6.42,0,0,0-.49-2.2h-21c-.18,2.24,2.28,3.16,3.79,3.6,1.7.5,3.2-.7,4.7.4s3.6,4.3,5.8,5.5,3.8,1.6,6,.7S241.5,5.5,241.3,2.2ZM264.74,0a27.43,27.43,0,0,1-.54,2.7c-1.2,3.9-3.1,9.9-1.6,14.7a22.83,22.83,0,0,0,9.4,13c5.4,3.6,10,8.1,19.5,10.4s8.6.8,16.9.8"/>
    <path fill="none" stroke="#f3c565" d="M273.64,0c-1,2.4-3.29,3.82-4.44,7.1-1.5,4.3.5,8.9,4,12s11.9,6.2,17.8,7.5,14.4.7,14.4.7"/>
    <path fill="none" stroke="#f3c565" d="M157.6,0a19.83,19.83,0,0,0-.2,2.5A72.8,72.8,0,0,0,159,14.8c.8,4,3.1,8.1,2.8,12.1s-1.1,10.5-.3,13.1,4.7,10.1,10.4,10.7,9.1,1.2,13.2-.4,12.8-5.1,14.7-5.6,7.6-2.6,12.3.1,5.5,8.2,4.7,11.8-4,14.7-6,17.3a12.5,12.5,0,0,0-2,11.6c1.6,4.6,4.8,10,8.7,11.2s17.6,4.7,20.7,7.4,10.1,5.6,4.1,17.3-3.5,15.6-10.7,23.2S216.8,154,214.4,165s-1.2,22.8-1.8,25.7-1.3,10.7-9,15.1-17.8.8-20.6-.7-6.6-5.6-7.5-17.5.1-20.2-10.9-27.2-14.6-17.6-15-22.9.9-9.6,7.1-18.7,12.2-17.3,11.5-22.2-5.8-11.9-14.7-17.5-8-7.9-16.5-9.1-16.5-6.6-18.2-15-.4-17.7,5.1-23.4,9-6,6.5-15.1c-2-7.09-4.08-12.12-4.63-16.5m172.7,0a37.44,37.44,0,0,0-.37,5.1c-.1,6-.5,7.8-2.6,9.4s-5.1,1.4-6.4.2-1.5-6-.2-10.7a19,19,0,0,0,.64-4"/>
    <path fill="none" stroke="#f3c565" d="M135.45,0c-.74,3.18-1.25,6.84-.75,9.2.8,3.8,4.4,7.5,3.2,14s-6,15.1-7.8,18.1-3,9.1,1,12.8a62.6,62.6,0,0,0,13.2,9.4c3.2,1.5,10.9,7.6,11.9,9.6s5.3,5.9,9,7.6,12.4,5.1,14.9,10.3,4.4,9.3-.4,15.9-14,15.9-16,19.1-7.4,9.8-2.1,16,9.7,5.1,14,8.2,6.3,5.1,5.5,14S181,186.5,184,191s7.8,8.2,13.2,7.5,7.1-6.8,6.6-14.1-3.1-17.5,0-26,7.1-12.6,12.9-15.9,15.4-13.1,15.3-20.6.7-9.3-5.6-11.5-15.7-5.6-20.3-9.6S198.2,94,198,81.5s1.2-15.3-7.1-20.6-14,3.4-24.5-4.9-13.9-9.1-15.5-15.5,2.8-11.3,1.3-17.9S150.4,13,147.8,6a16.39,16.39,0,0,1-.68-6"/>
    <path fill="none" stroke="#f3c565" d="M155.5,106.6c-1.9,2.2-3.7,6.7-4.3,7.8s-3.3,6.2-7.2,6.2-7.2.5-10.9-1.9-6.4-5-5.7-10,3-10.5,2.5-14.4-2.7-8.5-2.5-11.3.8-5.3,4-5.4,8.6.9,12,3.9c2.8,2.5,12.5,10.3,13.1,15.4S157.4,104.4,155.5,106.6Z"/>
    <path fill="none" stroke="#f3c565" d="M218.8,119c-1.2-6.6-4.7-6.9-7.4-8.2s-8.2-4.7-10.6-7.6-4.7-6.8-8.7-6.2-4,2.1-4,6.5-.3,9.7-1.3,10.7-4.3,5-4.3,5c-3.1,3.4-7,8.2-9.1,10.3s-1.5,5.3-1.3,7.4,2.9,4.9,4,5.4,3.9,1,5.5,2.5,4,5.7,5.9,6.8,3.4,3.4,6.9,2.2,6-4.9,6.8-7.2a13.53,13.53,0,0,1,4-6.2c1.6-1,9.7-9.4,10.8-11S220,125.6,218.8,119Zm-31-40.5c-.9-5-3.1-6.9-7.4-8.2a30.37,30.37,0,0,1-8.8-4.3,8.73,8.73,0,0,0-6.5-1.3c-2.1.6-4,2.4-1.6,3.4s5.9,3.8,7.8,4.3a11.9,11.9,0,0,1,3.4,1.6,13.48,13.48,0,0,1,4.7,6,5.31,5.31,0,0,0,4.9,3.5C186.3,83.5,188.7,83.5,187.8,78.5ZM144.3,95.2c-3.1-2.1-4.6-1.5-5.3-.4s-1.2,3.8-1.3,5.9,1.8,6.5,3.8,6.3,4.6-2.5,5.3-4.7A5.81,5.81,0,0,0,144.3,95.2Z"/>
    <path fill="none" stroke="#f3c565" d="M210.4,116.9c-.6-2.2-4.1-3.5-9.4-4.3s-6.2,1.3-7.6,3.5-4.3,6.9-6.5,8.5c-1.3,1-4.4,4.3-4.8,6.3H182c-.3,2.1-.6,6.9,4.4,8.8s6.8.6,9.6-.9,3.5-4.3,4.7-5.6a35.74,35.74,0,0,1,7.9-6.6C212.6,124.1,211,119.1,210.4,116.9ZM0,12.7a23.37,23.37,0,0,0,6.3-.9c3.9-1.3,10-3.4,13.7-9.7.4-.68.79-1.38,1.16-2.1M99.39,0a125.88,125.88,0,0,1-1,13.9c-.8,4.7-2.4,18.8-2.6,22.3S95.4,48.5,98,56s8.6,15,9.6,18.4,5.3,8.7,3,17.2-10,3.7-13.5,2.5-14-1.2-17.4-4.4-10.8-6.4-15-20.4S51.5,49,45.9,47.7,28.4,46.2,16.3,52A54.83,54.83,0,0,1,0,56.85M2.75,0c-1,1-2,2-2.75,2.7"/>
    <path fill="none" stroke="#f3c565" d="M0,29.79c5.18-.43,9.82-1.15,12.7-2.79,3.7-2.1,8.2-6.3,11.5-8.2s5.6-4.6,10-4,7.8,3.7,11.5,4,8.2,1.2,11.6-2.4,6.2-6.5,7-11.6c.21-1.35.38-3,.52-4.8"/>
    <path fill="none" stroke="#f3c565" d="M75.89,0c.34,6.15,1.49,20.48,1.91,23.2.5,3.2,1.4,12.3-.8,17.6s-8,1.6-11,.9-13.4-7-22.1-10.1S31.6,29.4,28,29.7s-6.6,3.8-11.5,6.6c-4.07,2.33-9.59,4-16.5,5.57"/>
    <path fill="none" stroke="#f3c565" d="M179.8,216.4c-4.6,1.6-5,2.7-8,4.6s-2.2,4.7-1,7.1,3.3,2.9,6,2.2,4.4-3.3,5.5-5.2a26.69,26.69,0,0,0,4-8.7h.1C186.7,213.3,184.4,214.8,179.8,216.4ZM0,71.25c4.42-.49,9.56-1,12.6-1.25,5.1-.4,11.4-3.6,18.7-3.9s13.8,5.4,17,9.4,4.1,12,6.5,17.5,10.2,6.5,12.5,7.5,9.9,1.8,13.5,7.2,2,13.2,4.2,18.9,10.7,11.1,13.2,12.7,8.1,5.5,10.2,10.1.7,8.3-2.8,10.6-6.7.9-11,.5-9.7-4-13.3-6.1l-4-2.8c-2.6-1.7-5.9-7.1-7.2-10s-5.7-5.5-9-7.1-6.2-5.4-7.7-7.6-3.6-5.9-9.4-7.3-8.4-.1-12.7,1.1-7.1,5.2-9,11.1-9.8,5.5-13.9,5.3A24.21,24.21,0,0,1,0,134.41M0,48.62l1-.12c5.4-.7,12.8-6.3,21.5-9.1S40.3,37.3,45,38.1,56.2,44,63.2,50.7s8.7,15.1,15.6,22.5,11.3,8.4,15.7,8.7,6.5-3.1,6.5-5-3.5-6.2-6.9-11-5.3-10.7-6.8-18.4.1-27.2.6-31.5c.42-5.32.64-10.67.66-16M35.79,0,36,.1c1.8.7,4.3,1.3,8.5-.1"/>
    <path fill="none" stroke="#f3c565" d="M0,78.28c3.23.07,7.16.13,10.8-.08,7.1-.4,5.6-1.9,14.1-3.7S36,75,39.1,78.8s2.5,9.2,3.3,14.6,4.7,7.7,9,10,14.6,4.2,18,6.6,3.3,3.8,1.8,8-5.1,2.7-7.7,2.3-8.4-3.7-11.3-5.2c0,0-10.2-4.3-16.9-5s-11.1,4.2-13.7,6-5.9,8.1-12.6,9.5c-5,1-6.71.14-9-1.46"/>
    <path fill="none" stroke="#f3c565" d="M0,101.15a9.64,9.64,0,0,1,.2.95c.2,1.3.8,4.4-.1,7.1,0,.12-.07.24-.1.36"/>
    <path fill="none" stroke="#f3c565" d="M0,89.61a6.09,6.09,0,0,0,.4-.81c.8-2,4-3.9,6.5-3.5a25.82,25.82,0,0,0,8.5-.3A51,51,0,0,0,22,82.2c1.1-.6,5.1-1.2,8.7,3.1s3.2,8.5,2.2,12-5.7,4.1-8,4.4-4.2-.6-5.9-.2-1.4,2.4-1.6,4.7a14.92,14.92,0,0,1-1.9,5.8c-.8,1.3-3.6,5.5-7.5,5.5a12.2,12.2,0,0,1-5.6-.9c-1-.52-2-2.33-2.4-4.27"/>
    <path fill="none" stroke="#f3c565" d="M312.4,107.4A54,54,0,0,1,341.5,131a35.24,35.24,0,0,0,14.3,12.4c2.9,1.4,5.8.9,12.7,8.8s10.7,7.1,14.5,6.9,8.4-6.8,12-7.6,5.2.6,11.4-1.8,6-5.7,9.2-5.7c10.4,0,14.1,13.3,15.1,16.3s5.7,13,10.8,15.7,16.8,6.1,22.1,8.4c4.11,1.79,8.77,6.89,11.4,10.48M302.1,143.4l.74-.19,10.46-2.71c2.6-.6,5.2-1.8,9.2,1.8,0,0,6.5,11.5,11.8,13.1a78.65,78.65,0,0,0,12.5,2.7c3.3.4,9.8,6.1,10.6,7.1s7.9,7.6,11.6,8.6,8.3,1.8,9,0,0-5.2-5.3-7.1-6.2-1.7-9-2.9-2-3-5.7-6.5-5.2-4.1-9-5.9-7.9-5.7-11.4-11.7-8.7-15.3-18-18.5c-8.4-2.8-11.6-2.9-20.6-2.5M24.5,91.9c-.4-2.8-2.7-4.2-5.7-4s-3,2.9-3,4.7a4.4,4.4,0,0,0,4,4.8h0a2.73,2.73,0,0,0,.7,0C23.3,97.2,24.9,94.7,24.5,91.9Z"/>
    <path fill="none" stroke="#f3c565" d="M303.2,155.2a26.62,26.62,0,0,1,7.8,3.7c4,2.7,8,7.8,12.2,17.6S334,191,340.8,191.2s13.3-.8,16.9-4.1,7.3-2.5,11.4-.4,9,4.1,14,2.5,10.3-7.1,14.8-7.3,8.2-.6,10.2,3.7,4.3,6.5,9.6,7.1,9,1.2,12.2,5.1,8.6,9.8,11.6,10.2,7.4.8,9.6,1.2,11,4.3,14.9,7.6a38.82,38.82,0,0,0,9,5.08M304.1,170c.4.3,4.7.9,5.4,3.9s-.6,3.8-1.9,4.4-5.3-.5-7.3-.8"/>
    <path fill="none" stroke="#f3c565" d="M475,213c-.46-.13-.9-.27-1.3-.4-1.9-.6-3.7-3.1-1.9-3.1a14.43,14.43,0,0,1,3.2.51M305.4,198.3a.23.23,0,0,1,.07.07.18.18,0,0,1,.07,0c.79.67,1.11,1.41,2.06,1.88,3.3,1.5,10.4,2.4,13.3,4.8s5.8,5.2,9.6,4.9,10.9-2.3,13-2.4,6.6-1.7,8.7,2.4-.3,6.7-3.2,7-5,.7-7.2,2.8-8.1,7.8-12.2,9-9.3,2.8-14.7,0c-3.93-2.06-6.89-3.15-10.2-5.5l-.06,0c-.21-.14-.43-.3-.64-.46m143.3-34.2c-4.7-3.4-8.7-6.9-12.1-8.8s-7.5-5.1-8.1-6.2a19.32,19.32,0,0,0-4.7-6c-2.5-1.9-4.1-3.2-7-3.4a31,31,0,0,1-10.6-2.9c-3.4-1.8-9.3-.7-11.5,1.5-1.6,1.6-2.5,7.2-2.4,9.8s.7,4.4,4,4,8.2-3.9,9.4-4.3a7.61,7.61,0,0,1,7,1.2,14.77,14.77,0,0,1,4.7,6.9c.7,2.3,5.2,4.7,6.9,5.1,2,.5,3.2,1,5,.7s4-.6,5.8.4l7.4,3.5c2.6,1.4,4.4,2.8,6.2,2.6S452,192,447.3,188.6ZM354,174.3a48.37,48.37,0,0,1-8.4-4.7c-2.1-1.5-3.5-3.3-7.1-3a29.22,29.22,0,0,0-7,1.3c-1.3.5-1.2,2.7,0,3.7h.1s4,2.8,4.6,4.2,2,6.5,3.8,6.7,4.5,1.2,9.6-.6,6.4-3.5,6.7-4S357.2,175.7,354,174.3Z"/>
    <path fill="none" stroke="#f3c565" d="M355.9,233.5a2.3,2.3,0,0,0-2.9-1.2c-1.1.6-2.7,1.9-4.6,2.1s-3.5-.2-3.5,1.5,1.8,3,3.5,3.3c0,0,2.1,1.3,4.6-.9S356,234.3,355.9,233.5Zm-25.3-16.8c-2.1-1.9-1.7,0-6.2-1s-6.3-2.1-8.4-4.9-5.3-1.8-5.4,2.1c-.3,2.5,1,4.6,2.4,6.4s3.3,3.9,6.1,4.2c4.1.6,8.4.9,10,0S334.4,220,330.6,216.7Z"/>
    <path fill="none" stroke="#f3c565" d="M305,251.3c3.2,1.2,7.1,2.4,10.3,4.3,6.8,4.1,6.3,12.9,6.6,18.5a14,14,0,0,0,6.3,11.5,106.28,106.28,0,0,1,13.5,11c4.3,4.3,8.1,14.1,10,19.3s7.6,11,12.3,10.4,4.1-7.6,4-10.4-.7-5.7-.4-8.5,3.5-10.6,5.1-12.8,7.6-5.7,13.8-7.1,9.1-4.7,10-7.5,5.4-8.5,9.8-10.7,3.7-10.4,1.2-15.4-8.5-5.1-10.9-5.6-6.6-2.1-6.9-4.5-2.8-6.2-5.4-6.7-6.5,0-12.8,5.9-13.4,8.5-22.9,8.7-18.1-4.1-21.4-5.7-10.8-6.8-17.7-8.8a25.15,25.15,0,0,0-5.2-1.2"/>
    <path fill="none" stroke="#f3c565" d="M395.5,264.6a16.85,16.85,0,0,1-6.9,7.9,16.07,16.07,0,0,0-5.4,6c-.6,1.6-2.1,3.5-6,4.1s-5.2,2.4-7.5,4.9-5.9,7-10.2,7.1a14,14,0,0,1-11.9-5.6c-2.7-3.9-3.5-6.6-7.6-8s-6.4-1.9-7.9-6.5-3.5-6.1-3.3-10.3,1.1-7,4.2-7.9h.1c3.3-.9,10.5,1.3,10.3,1.2,3.5,1.1,7.8,2.4,13,1.2a58.08,58.08,0,0,0,14.2-5.9c2.9-1.7,8-5.1,11.6-1.6s5.1,4.6,7.6,5.6S397.3,260.3,395.5,264.6Z"/>
    <path fill="none" stroke="#f3c565" d="M348,263.7c-4-.4-6.2,0-7.4,5s2.4,8.8,8.5,11.2,14.4,1.5,20.4-.9,9.3-9.6,10.3-13.8-1.5-6.5-4.4-6.8-5.7,2.2-7,3.4-6.1,2.6-9.5,3.4c-4.8,1.1-6.6-1.1-10.8-1.5Z"/>
    <path fill="none" stroke="#f3c565" d="M475,128.39a20.41,20.41,0,0,1-6.7-12.59c-1.4-8.5-6.8-14-12.1-15.6s-16-5.3-18.4-9.6-6.6-13.1-8.4-16.8A28,28,0,0,0,416.6,61c-7-3.2-11.1-3.3-15.1-2.3s-9.1,4.9-16,5-21.8,3.2-30.7,3.4-16.3,5-17.3,7.2a51.19,51.19,0,0,0-2.8,13.4c0,3.4-1.2,9.3-8.1,9.4-4.91.09-21.57-.59-25-2a1.46,1.46,0,0,1-.56-.34M363.4,269l-5,.8c-1.1.1-2.6-.3-4.5.8s-2.2,4.1,2,4,6.5-1,9.9-3.5S364.5,268.9,363.4,269Z"/>
    <path fill="none" stroke="#f3c565" d="M304,288a41.85,41.85,0,0,1,11.1,3.4c11.8,5.4,16.6,11.9,19.7,18.4s8.5,23.7,13.5,30.7,8.7,10.1,12,10A16.71,16.71,0,0,0,376,338c2.9-10.7,0-21.2,1.2-27.2s3.4-11.3,11-13.2,14.8-1.3,17.4-6.2,1.9-11.2,7-12.8,11-2.5,12.5-9.8-1.5-11.7-3.5-13.7-8.6-5.4-11.8-10.7a64.46,64.46,0,0,0-12.1-14c-4.7-4.3-10.5-5.7-18.1-4.9s-10.7,4.1-13.7,1.2-.1-6.5,2.5-9,7.8-7.6,14.7-9.6,7.8-1.3,11.2,0a36,36,0,0,0,10.1,2.5c2.7.1,6.9,1.3,8.5,3.4s4.6,7.6,10.3,10.1,9,5.2,17.6,4.3,11-.6,17.2,2.8c4.72,2.59,12.17,7.73,17,10.16M448.1,320.5c-1.4-2.4-7-2.9-12.5-3.7s-13.3,2.2-17.2,4.9a32.37,32.37,0,0,0-6.2,6.5c-1.8,2.7-.8,8.2,6.7,10s8.2-.8,10.2-2.4,3.9-3.5,5.9-4.1,8.4-2.4,12.9-3.9S449.5,322.9,448.1,320.5Z"/>
    <path fill="none" stroke="#f3c565" d="M375.72,0c-1.43,1.5-3.08,3.06-4,4-1.7,1.7-5.6,2.3-8.5,1.8-2.59-.45-7.72-3.68-10.15-5.8M475,67a51,51,0,0,1-5-10.06c-2.5-7.5-2.4-16.3-2.2-19.8s1.8-17.6,2.6-22.3c.71-3.27.92-9.64,1-14.8M303.8,69.5l.08,0c.64.16,1.28.29,1.93.4h.07a26.67,26.67,0,0,0,3.22.37c6.4-.1,11.7-1.8,17.3-3.7,7.5-2.5,23.5-5.7,31.9-7.2s17.9-.7,30-6.5,24-5.6,29.6-4.3,14.6,7.6,18.8,21.6,11.6,17.2,15,20.4,13.9,3.2,17.4,4.4a53.91,53.91,0,0,0,5.9,2.16M325.5,76.5c-.3-1.8-4.1-1.9-6.3-2.1s-5.6,1.5-8.4,1.6c-1.8.1-5-1.2-6.8-1s-12.7-1.2-16.1-2.3a64.32,64.32,0,0,0-12.3-2.4c-3.7-.4-6,2.4-3.7,4.9s10.6,5.5,14.9,6.3c3.7.7,12.5,4.8,15,6.1,4.7,2.6,6.7,1.5,10,1.6s7.7-.3,11-3.2S325.8,78.3,325.5,76.5ZM439,320.7c-1.8-1-5.3,1.3-6.6,2.2s-2.2,2.9-1.2,3.9,3.3.2,5.3-.8,4.3.6,5.5-1S440.8,321.7,439,320.7ZM331,0c0,.27-.1.53-.16.8-1.1,5.1-5.7,6.2-8.5,6.3s-6.6-1.6-7.5-4.9a3.64,3.64,0,0,1,0-2.2"/>
    <path fill="none" stroke="#f3c565" d="M302.6,27.4,309,27c1.9-.2,11.2-1,13.7-2.9a107.6,107.6,0,0,1,12.9-7.8c2.9-1.3,8.2-3.7,12.2-3.7s10,.3,14.8.7,11.8.7,15.7-.6S388.3,9.3,392,3c.56-1,1.11-2,1.62-3"/>
    <path fill="none" stroke="#f3c565" d="M307.9,41.6c4.2-.2,11.9-.5,17.2-4.1s11-7.2,14.4-7.8,7.2-2.8,12.9-1.3,8.2,3.1,15,2.6,13.6-1,17.3-3.1,8.2-6.3,11.5-8.2,5.6-4.6,10-4,7.8,3.7,11.5,4,8.2,1.2,11.6-2.4,6.2-6.5,7-11.6c.25-1.57.44-3.57.59-5.7"/>
    <path fill="none" stroke="#f3c565" d="M447.84,0c.22,5.33,1.41,21.41,1.86,24.3.5,3.2,1.6,12.3-.7,17.6s-8,1.6-11,.9-13.4-7-22.1-10.1-12.2-2.2-15.9-1.9-6.7,3.8-11.6,6.6-11.9,4.7-20.9,6.5-15,.2-19.7-.4-10.1.5-15.7,1.8-10.2,4.1-13,5.1-6.2,1-9.7.9-6.5-.4-6.5-.4"/>
    <path fill="none" stroke="#f3c565" d="M461.24,0q.11,9.45-.64,18.9c-.6,4.3-2.1,23.8-.6,31.5s3.2,13.6,6.7,18.4,7,9.1,7,11-2.1,5.3-6.5,5-8.8-1.3-15.7-8.7-8.6-15.8-15.6-22.5S422.4,41.8,417.7,41s-13.8-1.5-22.5,1.3-16.1,8.4-21.5,9.1a97.11,97.11,0,0,1-18.2.6c-6.5-.4-12.9.3-16.2,1.8A177,177,0,0,1,322,60.7c-5.8,1.8-7.1,1.9-9.8,2.1s-6.3-3-10-3.4M406.93,0a2.23,2.23,0,0,0,1.17,1.1c1.9.7,4.3,1.3,8.5-.1a25.23,25.23,0,0,0,2.51-1"/>
    <path fill="none" stroke="#f3c565" d="M475,143.83a44.19,44.19,0,0,0-4.8-3.53c-2.5-1.6-11-7-13.2-12.7s-.6-13.5-4.2-18.9-11.2-6.2-13.5-7.2-10.1-2-12.5-7.5-3.3-13.5-6.5-17.5-9.7-9.7-17-9.4-13.6,3.5-18.7,3.9-16.1,1.6-19.7,2.1S346,75,344,79.1s-1.2,7.9,2.7,11.3,6.6,3.4,7.2,8.6-.1,11.2.4,15.4,2.4,10.9,8.5,15.4,13.5,8.1,17.6,8.3,12,.6,13.9-5.3,4.7-9.9,9-11.1,6.9-2.5,12.7-1.1,7.9,5.1,9.4,7.3,4.4,6,7.7,7.6,7.7,4.2,9,7.1,4.6,8.3,7.2,10l4,2.8c3.6,2.1,9.1,5.7,13.3,6.1,3.13.3,5.77,1.15,8.4.61"/>
    <path fill="none" stroke="#f3c565" d="M424.2,116.1c2.9,1.5,8.7,4.8,11.3,5.2s6.2,1.9,7.7-2.3,1.6-5.6-1.8-8-13.7-4.3-18-6.6-8.2-4.6-9-10-.2-10.8-3.3-14.6-5.7-6.1-14.2-4.3-7,3.3-14.1,3.7-15.3-.2-17.3.1-6.1.6-6.8,4.4,1.2,6.5,3.7,9.8,1,11,1,11-1.8,6.5-1,9.4a16.3,16.3,0,0,0,6.9,9.4c4.2,2.6,5,4.7,11.7,3.3s10-7.7,12.6-9.5,7-6.7,13.7-6,16.9,5,16.9,5Z"/>
    <path fill="none" stroke="#f3c565" d="M380,118.5c3.9,0,6.7-4.2,7.5-5.5a14.92,14.92,0,0,0,1.9-5.8c.2-2.3-.1-4.3,1.6-4.7s3.6.5,5.9.2,7-.9,8-4.4,1.4-7.7-2.2-12-7.6-3.7-8.7-3.1a51,51,0,0,1-6.6,2.8,26.37,26.37,0,0,1-8.5.3c-2.5-.4-5.7,1.5-6.5,3.5s-2.8,3.2-2,6.5,1.6,5.5,1.8,6.8.8,4.4-.1,7.1.8,6.6,2.3,7.4,2.9.9,5.6.9Z"/>
    <path fill="none" stroke="#f3c565" d="M311,479.8H311c-3.94-.58-15.46.21-19.15.81s-10.2,0-12.5-.4-6.3-1-8.8-1.6-5.1,2.2-10,3.5-7.8,6.1-10,8.6c-1.47,1.67-2.18,5.49-1.92,9.3m-119.48-.9a145.25,145.25,0,0,1-10.4-10.8c-1.2-1.4-2.6-5.3-2-11s2.2-16.3-2.5-29.2-8.2-19.4-9.8-23.7-1.3-11.7.6-15.9,7.2-7.5,7.4-13.9-1.9-9.8-2.7-13.3c-.46-2.21-.07-11.34,1-18.4q.14-.93.3-1.8M396.5,92.9c-.4-2.8-2.7-4.2-5.7-4s-3,2.9-3,4.7a4.4,4.4,0,0,0,4,4.8h0a2.73,2.73,0,0,0,.7,0C395.3,98.2,396.9,95.7,396.5,92.9ZM0,436a103.45,103.45,0,0,1,11.4-1.21c6.9-.1,12.1-4,16-5s8.1-.8,15.1,2.4A28,28,0,0,1,55.3,445c1.8,3.7,6,12.5,8.4,16.8s13.1,8,18.4,9.6,10.7,7.1,12.1,15.6c1.18,7.15,4.83,11.19,7.21,13"/>
    <path fill="none" stroke="#f3c565" d="M301.2,432c-5.3-1.3-17.9-6.8-22-8.2s-9.8-.8-12.5-.6-7.3,5.9-9.5,7.3-7.5.8-13,1.6-13.1,6.2-13.3,14.5,5.2,10.2,10.8,11.6,10.1.6,17.2,4.3,11.8,7.2,16.3,8.4,12.2,1,16.7,1,10.9.9,17.2,1.2a55,55,0,0,1,28.3,11l13.5,15.1M249,467.3c-2.8,0-4-1.2-4.4.2s2.5,1.9,2.9,2.3c1.5,1.5,3.9,1.2,5.5.8S251.8,467.3,249,467.3Zm14.4,29.8a8.5,8.5,0,0,1,7.8-6.9c3.3-.2,15,1.2,18.7,1,3.5-.19,10.67-.92,16.09-.48.31,0,.61,0,.91.08"/>
    <path fill="none" stroke="#f3c565" d="M169.8,356.4c-9,11.8-7.2,19.7-6.4,23.3a128.8,128.8,0,0,1,2,16.5,16.71,16.71,0,0,0,9,14.3c6.8,3.7,12.2,3.5,25.5-3.9,9.3-5.2,16.7-3.7,22.3,1.8,2.5,2.4,3.2,4,5.6,8.7,2.8,5.3,10.3,6.3,19.7,6.1s12-7.8,15-11,3.4-3.7,8.9-1.2,11,6.5,16.9,9,14.3,3.1,14.3,3.1m-2.4,44.4A35.73,35.73,0,0,1,291,464c-4.1-2.4-10.8-.6-13.9-1.4s-7.7-2.7-9.8-5.3-5.4-5.9-12.5-6.1-6.9-2.8-6.9-5.5,3.4-3.3,6.1-3.9,6.5-2.9,8.8-4.1,8.4-2,13.5-.4a98,98,0,0,0,17.4,3.3,69.61,69.61,0,0,1,11.3,1.8"/>
    <path fill="none" stroke="#f3c565" d="M204.7,359.8a14.89,14.89,0,0,1-2.6,3.5c-1.2.8-9,2.2-10.8,3.7s-6,2.8-6,9,1.2,10.2,2.9,11.4,3,2.5,6.5-.6,6-5.5,9.5-5.4,7.5-.5,11.5,1.7a69.74,69.74,0,0,1,11,8.1c2.3,2.1,7.8,6.1,10.3,6.1s5.7.7,7.4-2,2.3-4.6,2.2-9.4-1.2-7.4-1-10.2a12.63,12.63,0,0,0-1-7.2c-1-1.7-1-6.5-5.6-10.5"/>
    <path fill="none" stroke="#f3c565" d="M160.2,359.8a20,20,0,0,1-1.8,4.9c-1.2,2.1-3,7.6-3,10.1a71.79,71.79,0,0,0,1.6,12.3c.8,4,3.1,8.1,2.8,12.1s-1.1,10.5-.3,13.1,4.7,10.1,10.4,10.7,9.1,1.2,13.2-.4,12.8-5.1,14.7-5.6,7.6-2.6,12.3.1,5.5,8.2,4.7,11.8-4,14.7-6,17.3a12.5,12.5,0,0,0-2,11.6c1.6,4.6,4.8,10,8.7,11.2s17.6,4.7,20.7,7.4,10.1,5.6,4.1,17.3a53.92,53.92,0,0,0-2.77,6.3M125.9,366.3l0,.2c.62,5.22,2.4,9.91,4.87,18.9s-3.5,12.8-9,18.5-6.7,15-5,23.4,9.7,13.8,18.2,15,7.6,3.5,16.5,9.1,14,12.6,14.7,17.5-5.3,13.1-11.5,22.2a62.26,62.26,0,0,0-5.26,8.9m115-138.3c.4,2.4-1.1,9.2-2.2,13.1s-3.1,9.9-1.6,14.7a22.79,22.79,0,0,0,9.4,13c5.4,3.6,10,8.1,19.5,10.4s8.6.8,16.9.8m-67.1-39.4c-.2-3.3-2.2-4.7-4.4-5.6a17.18,17.18,0,0,0-7.4-.7c-2.6.2-8.4.3-9.4,3.2H218c-1,2.9,1.9,4,3.6,4.5s3.2-.7,4.7.4,3.6,4.3,5.8,5.5,3.8,1.6,6,.7S239.5,377.6,239.3,374.3Z"/>
    <path fill="none" stroke="#f3c565" d="M148.4,355.6c-1.1,3.1.4,14,3,21.1s-3.1,11.4-1.6,18-3.1,11.6-1.4,17.9,5.5,7.3,16,15.6,16.2-.4,24.5,4.9,7,8.1,7.1,20.6,3.5,15.3,8.1,19.3,14,7.4,20.3,9.6,5.5,4,5.6,11.5a13.45,13.45,0,0,1-1.53,5.9"/>
    <path fill="none" stroke="#f3c565" d="M138.3,358.7s-2.8,5.3-4,8.4-2.4,10.4-1.6,14.3,4.4,7.5,3.2,14-6,15.1-7.8,18.1-3,9.1,1,12.8a62.6,62.6,0,0,0,13.2,9.4c3.2,1.5,10.9,7.6,11.9,9.6s5.3,5.9,9,7.6,12.4,5.1,14.9,10.3,4.4,9.3-.4,15.9-14,15.9-16,19.1"/>
    <path fill="none" stroke="#f3c565" d="M153.5,478.7c-1.9,2.2-3.7,6.7-4.3,7.8s-3.3,6.2-7.2,6.2-7.2.5-10.9-1.9-6.4-5-5.7-10,3-10.5,2.5-14.4-2.7-8.5-2.5-11.3.8-5.3,4-5.4,8.6.9,12,3.9c2.8,2.5,12.5,10.3,13.1,15.4S155.4,476.5,153.5,478.7Z"/>
    <path fill="none" stroke="#f3c565" d="M215.18,500c1.23-1.61,2.57-4.08,1.62-8.9-1.3-6.6-4.7-6.9-7.4-8.2s-8.2-4.7-10.6-7.6-4.7-6.8-8.7-6.2-4,2.1-4,6.5-.3,9.7-1.3,10.7-4.3,5-4.3,5c-2.47,2.7-5.37,6.29-7.57,8.7m12.87-49.3c-.9-5-3.1-6.9-7.4-8.2a30.37,30.37,0,0,1-8.8-4.3c-1.6-1-4.4-1.9-6.5-1.3s-4,2.4-1.6,3.4,5.9,3.8,7.8,4.3a8.33,8.33,0,0,1,3.4,1.6,13.48,13.48,0,0,1,4.7,6,5,5,0,0,0,4.9,3.5C184.3,455.7,186.7,455.7,185.8,450.7Zm-43.5,16.6c-3.1-2.1-4.6-1.5-5.3-.4s-1.2,3.9-1.3,5.9c-.2,2.2,1.8,6.5,3.8,6.3s4.6-2.5,5.3-4.7A5.81,5.81,0,0,0,142.3,467.3Z"/>
    <path fill="none" stroke="#f3c565" d="M0,428.73a53.41,53.41,0,0,0,14.3-4.53c12.1-5.8,24-5.6,29.6-4.3s14.6,7.6,18.9,21.6,11.6,17.2,15,20.4,13.9,3.2,17.4,4.4,11.2,6,13.5-2.5-2-13.8-3-17.2-7.1-10.9-9.6-18.4-2.4-16.3-2.2-19.8,1.8-17.6,2.6-22.3c.7-3.5,2.2-6.1,3-11.5a31,31,0,0,0,.6-4.7M0,372a16,16,0,0,0,3.5-4.52,44.2,44.2,0,0,0,2.9-5.9M0,382.69c.48-.11,1-.24,1.4-.39,3.9-1.3,7-.3,10.6-6.6,1.61-2.94,9.15-12.26,9.94-13.22h0l.05-.08M0,401.76c4.36-.45,8.19-1.14,10.7-2.56,3.7-2.1,8.2-6.3,11.5-8.2s5.6-4.6,10-4,7.8,3.7,11.5,4,8.2,1.2,11.6-2.4,8-5.6,8.9-10.7.9-14.7,1.2-18.8M184.9,496.8c2.2-1.6,5.1-6.3,6.5-8.5s2.3-4.3,7.6-3.5,8.8,2.1,9.4,4.3,2.2,7.2-1.8,9.7"/>
    <path fill="none" stroke="#f3c565" d="M0,413.61c6-1.42,10.83-3,14.5-5.11,4.9-2.8,7.9-6.3,11.6-6.6s7.2-1.2,15.9,1.9,19,9.4,22,10.1,8.8,4.4,11-.9,1.3-14.4.8-17.6-2-22.5-2-25.6.9-5.3,1.5-9.6"/>
    <path fill="none" stroke="#f3c565" d="M0,443.13c3.89-.42,8-.83,10.6-1,5.1-.4,11.6-3.6,18.8-3.9s13.7,5.4,16.9,9.4,4.1,12,6.5,17.5,10.2,6.5,12.5,7.5,9.9,1.8,13.5,7.2S80.7,493,83,498.7M34,358.4s-1.5,7.9-1.7,10.3-.1,5.9,1.8,6.6,4.3,1.3,8.5-.1,7.9-4,9-5.4a15.44,15.44,0,0,0,3.4-7.5m32.9-.9.1,1,.5,5.07c.3,2.9-2.1,16.4-2.6,20.7s-2.1,23.8-.6,31.5,3.4,13.6,6.8,18.4,6.9,9.1,6.9,11-2.1,5.3-6.5,5-8.8-1.3-15.7-8.7-8.6-15.8-15.6-22.5S47.7,411.1,43,410.3s-13.8-1.5-22.5,1.3c-8.18,2.63-15.21,7.74-20.5,8.92M21.83,500c1.8-3.76,4.2-6.29,7.47-7.2,4.3-1.2,6.9-2.5,12.7-1.1s7.9,5.1,9.4,7.3"/>
    <path fill="none" stroke="#f3c565" d="M0,450.52c2.76,0,5.86,0,8.8-.12,7.2-.4,5.6-1.9,14.1-3.7s11.1.5,14.2,4.3,2.5,9.2,3.3,14.6,4.7,7.7,9,10,14.6,4.2,18,6.6,3.3,3.8,1.8,8-5.1,2.7-7.7,2.3-8.4-3.7-11.3-5.2c0,0-10.2-4.3-16.9-5s-11.1,4.2-13.7,6-6,8.1-12.6,9.5"/>
    <path fill="none" stroke="#f3c565" d="M0,459a6.73,6.73,0,0,1,4.9-1.53,25.82,25.82,0,0,0,8.5-.3,51,51,0,0,0,6.6-2.8c1.1-.6,5.1-1.2,8.7,3.1s3.2,8.5,2.2,12-5.7,4.1-8,4.4-4.2-.6-5.9-.2-1.4,2.4-1.6,4.7a14.92,14.92,0,0,1-1.9,5.8c-.8,1.3-3.6,5.5-7.5,5.5a12.2,12.2,0,0,1-5.6-.9,2,2,0,0,1-.4-.29"/>
    <path fill="none" stroke="#f3c565" d="M299,466.9c1.3,1.6,20.3,2.4,25.6,2.3,6.9-.1,8.1-6,8.1-9.4a51.19,51.19,0,0,1,2.8-13.4c1-2.2,8.4-7,17.3-7.2s23.8-3.3,30.7-3.4,12.1-4,16-5,8.1-.8,15.1,2.4A28,28,0,0,1,427.4,446c1.8,3.7,6,12.5,8.4,16.8s13.1,8,18.4,9.6,10.7,7.1,12.1,15.6a20.78,20.78,0,0,0,6,12m-134.88,0A54,54,0,0,0,311,479.79l-.55-.19M297,490.8a81,81,0,0,1,9-.08c.31,0,.61,0,.91.08a45.1,45.1,0,0,1,10.8,2.5,24.43,24.43,0,0,1,9.86,6.7m-27-100.4,6.4-.4c1.9-.2,11.2-1,13.7-2.9a107.6,107.6,0,0,1,12.9-7.8c2.9-1.3,8.2-3.7,12.2-3.7s10,.3,14.8.7,11.8.7,15.7-.6,10-3.4,13.7-9.7,7.9-14.5,7.7-20.4l.2-2.6v-2.4c-.2-11.6-6-23.9-1-31s12.2-8.6,15-9.6,15-7.4,20.3-8.8,12.3-2,15.3.8,5.9,6.9,6.5,9,2.7,7.3,8.6,8.6c2.9.64,7.81,1.39,12.4,2.1M22.5,464.1c-.4-2.8-2.7-4.2-5.7-4s-3,2.8-3,4.7a4.4,4.4,0,0,0,4,4.8h0a2.73,2.73,0,0,0,.7,0C21.3,469.4,22.9,466.9,22.5,464.1Z"/>
    <path fill="none" stroke="#f3c565" d="M308.3,297.6a17.94,17.94,0,0,1,4.3,1.3,26.2,26.2,0,0,1,14.7,17.8c1.9,8.8,7,23.9,9.6,28.2s9,14.7,9.5,15.8,5.2,5.6,5.2,5.6a30.05,30.05,0,0,1,2.4,2.1c1.9,2.1,8,6,10.9,6.5a6.9,6.9,0,0,0,6.4-1.9c1.8-1.7,1.9-2.5,2.8-4.2l2.6-3.9,1.3-2s4.3-4.9,5.7-14.7.6-23.5,2.2-27.2,4.9-14.1,11.6-17.1,14.9-5.9,18.8-8.2,7.4-9.8,11.4-12.7,11.8-9.2,19-8.2,11,6.5,11,13.5-2.5,16.3,2.4,19.2a61.41,61.41,0,0,0,14.9,6.2M300.2,431.6c3.7.4,7.3,3.6,10,3.4s4-.3,9.8-2.1a177,177,0,0,0,17.3-6.9c3.3-1.5,9.7-2.2,16.2-1.8a97.11,97.11,0,0,0,18.2-.6c5.4-.7,12.8-6.3,21.5-9.1s17.8-2.1,22.5-1.3,11.2,5.9,18.2,12.6,8.7,15.1,15.6,22.5,11.3,8.4,15.7,8.7,6.5-3.1,6.5-5-3.5-6.2-7-11-5.2-10.7-6.7-18.4,0-27.2.6-31.5,2-17.3,1.7-20.2-.3-6.2-.3-6.2v-1.4c.2-8.2-3.3-9.8-5.7-11.4a3.5,3.5,0,0,0-4.86.94l0,.06a3,3,0,0,0-.2.4,65.09,65.09,0,0,0-2,7.1v1c0,4.3-1.5,6.3-1.5,9.3s1.5,22.3,1.9,25.6,1.6,12.3-.7,17.6-8.1,1.6-11,1-13.4-7.2-22.1-10.2-12.2-2.2-16-1.9-6.7,3.8-11.5,6.6-12,4.7-21,6.5-15,.1-19.6-.4-9.8.4-15.6,1.8-10.3,4.1-13.1,5.1a24.88,24.88,0,0,1-9.7,1l-6.5-.5"/>
    <path fill="none" stroke="#f3c565" d="M394.34,500c1.74-3.21,4-5.37,7-6.2,4.3-1.2,6.9-2.5,12.7-1.1s7.9,5.1,9.4,7.3m31.9-179.4c-1.5-2.3-4.9-8.6-17.1-9.6s-21.8,4.9-26.5,6.9-10.4,10.2-10.4,15.3,4.9,5.9,5.7,17.2l-1,6s-1.6,7.9-1.8,10.3-.1,5.9,1.8,6.6,4.1.8,8.5-.1c8.1-1.8,15.1-20.9,16.5-25s2.7-7.8,4.9-9,8.2-1.8,17.2-4.1S456.8,322.9,455.3,320.6Z"/>
    <path fill="none" stroke="#f3c565" d="M358.58,500a22.94,22.94,0,0,1-6.28-13.5c-.5-4.2.2-10.2-.4-15.4s-3.3-5.2-7.2-8.6-4.7-7.2-2.7-11.3,17.3-5.5,20.9-6,14.6-1.7,19.7-2.1,11.6-3.6,18.8-3.9,13.7,5.4,16.9,9.4,4.1,12,6.5,17.5,10.2,6.5,12.5,7.5,9.9,1.8,13.5,7.2,1.9,13.2,4.2,18.9"/>
    <path fill="none" stroke="#f3c565" d="M305.5,413.9c4.2-.2,11.9-.6,17.2-4.1s10.9-7.2,14.3-7.8,7.3-2.7,13-1.3,8.2,3.1,15.1,2.6,13.5-1.1,17.2-3.1,8.3-6.3,11.5-8.2,5.6-4.6,10-4,7.9,3.8,11.5,4,8.2,1.1,11.6-2.4,6-6.4,7-11.6,2.7-11.7,3-15.8v-.7c.2-3.4,0-11.4,6.5-15.7s13.8-6.6,17.1-5.3,8.2,5.6,9.6,12.5,2,11.5,1.8,15.8v.7c0,4.9-.1,15.6-.9,20.3s-2.4,18.8-2.6,22.3-.3,12.3,2.2,19.8A48.36,48.36,0,0,0,475,441M323.6,329.9c-1-2-3.7-8.8-8-9.8s-2.5,2-1,4.9a25.69,25.69,0,0,1,2.7,10.8c0,3.1-.2,8.2.6,11.4s2.2,6.9,2.2,9a44.17,44.17,0,0,1-1.4,7.3l-1.8,3.5c-2,2.9-5,4.1-4.1,7.4s4.7,4.8,7.5,4.9c8.2.2,10.4-8.2,10.4-8.2C334,351.3,324.6,331.9,323.6,329.9Zm-.1,118.8c-.3-1.8-4.1-1.9-6.3-2.1s-5.6,1.5-8.4,1.6c-1.8.1-5-1.2-6.8-1s-12.7-1.2-16.1-2.3a64.32,64.32,0,0,0-12.3-2.4c-3.7-.4-6,2.4-3.7,4.9s10.6,5.5,14.9,6.3c3.7.7,12.5,4.8,15,6.1,4.7,2.6,6.7,1.5,10,1.6s7.7-.3,11-3.2S323.8,450.4,323.5,448.7Zm77.2,9.8c-3.6-4.3-7.6-3.7-8.7-3.1a51,51,0,0,1-6.6,2.8,25.82,25.82,0,0,1-8.5.3c-2.5-.4-5.7,1.5-6.5,3.5s-2.8,3.2-2,6.5,1.6,5.5,1.8,6.8a14.34,14.34,0,0,1-.1,7.1c-.9,2.7.8,6.6,2.3,7.4a12.2,12.2,0,0,0,5.6.9c3.9,0,6.7-4.2,7.5-5.5a14.92,14.92,0,0,0,1.9-5.8c.2-2.3-.1-4.3,1.6-4.7s3.6.5,5.9.2,7-.9,8-4.4S404.3,462.8,400.7,458.5Z"/>
    <path fill="none" stroke="#f3c565" d="M475,303a16.52,16.52,0,0,1-3.2-2c-4.9-3.9-3.3-6.9-2.5-9s3.7-5.1-.8-12.5-14.3-12.2-18.6-16.9-9.2-9.4-9.4-14.9,5.9-8,9.6-7.1,14.3,6.9,17.2,8.4c1.34.69,4.39,2.32,7.7,3.91M303.8,442c1.8.4,17.6,1.5,23.2-.4,7.5-2.5,23.5-5.7,31.9-7.2s17.9-.7,30-6.5,24-5.6,29.6-4.3,14.6,7.6,18.8,21.6,11.6,17.2,15,20.4,13.9,3.2,17.4,4.4c1.33.45,3.28,1.44,5.3,2"/>
    <path fill="none" stroke="#f3c565" d="M475,271.4c-7.32-3.73-7.65-6.08-5.7-9.1.87-1.45,3.17-1.32,5.7-1.14M367.3,495.5a16.3,16.3,0,0,1-6.9-9.4c-.8-2.9,1-9.4,1-9.4s1.5-7.7-1-11-4.4-6-3.7-9.8,4.8-4.1,6.8-4.4,10.1.3,17.3-.1,5.6-1.9,14.1-3.7,11.1.5,14.2,4.3,2.5,9.2,3.3,14.6,4.7,7.7,9,10,14.6,4.2,18,6.6,3.3,3.8,1.8,8-5.1,2.7-7.7,2.3-8.4-3.7-11.3-5.2c0,0-10.2-4.3-16.9-5s-11.1,4.2-13.7,6-6,8.1-12.6,9.5"/>
    <path fill="none" stroke="#f3c565" d="M385.8,465.8a4.4,4.4,0,0,0,4,4.8h0a2.73,2.73,0,0,0,.7,0c2.8-.2,4.4-2.7,4-5.5s-2.7-4.2-5.7-4S385.8,463.9,385.8,465.8Z"/>
  </g>
</svg>
