<svg xmlns="http://www.w3.org/2000/svg" width="1300" height="910" viewBox="0 0 1300 910">
  <g opacity="0.3">
    <path fill="none" stroke="#000" stroke-width="0.4" d="M1231.48,666l40-57.18,15.08,10.55-40,57.19Z"/>
    <path fill="none" stroke="#000" stroke-width="0.5" d="M937.4,427.8l-3.7-2.6-32.9,47-1.6-1.1-55.4,79.2.29.2,6.61,4.6,55.4-79.2-1.6-1.1ZM1300,459.32,1191.5,383.4l-58.8,84-6.9-4.8,58.9-84,4.8-6.9,6.8,4.8,12.7,8.9L1285.51,439,1300,449.12"/>
    <path fill="none" stroke="#000" stroke-width="0.5" d="M1241.4,651.6,1081.9,540l9.3-13.4-6.8-4.8-9.3,13.4-4.8,6.8,6.8,4.8,159.5,111.7Z"/>
    <path fill="none" stroke="#000" stroke-width="0.4" d="M263.4,144l47-67.2-4.49-3.12-4.57-3.18-6-4.2-47,67.1-10.5,15.1,15,10.5L672.37,452.78l0,0,7.43-10.58L683,437.7ZM1195,728.48l-.36-.25L1190,725l-31.7,45.4-172.9-121L979.34,658l-4.54,6.43h0L1147.7,785.5l15.1,10.5,10.5-15.1,31.4-44.73.26-.37.14-.2Z"/>
    <path fill="none" stroke="#000" stroke-width="0.4" d="M878.37,597,748,505.72l10.55-15.07,130.34,91.23Z"/>
    <path fill="#000" d="M755.44,495.14l-75.61-52.92,0,0-7.43,10.58-.57.82L748.1,507l.58-.83,7.42-10.57Zm-7.23,10.71-.31.45-75.4-52.8,7.4-10.6,75.23,52.68.17.12Zm137.57,80.51-.08-.06-7.43,10.58-.57.82,96.5,67.6.62-.89,4.52-6.44,2.86-4.07ZM974.1,664.6l-95.7-67,7.4-10.6,95.7,67ZM1231,676.16l-34.11,48.78c.11.09.23.17.35.25l34.15-48.76Zm16.09-.42-10.6-7.44-.55.79-4.94,7.07-34.11,48.78-2.3,3.29-.4.57,10.5,7.37.9.63,42.3-60.5Zm-41.7,60.36-.44-.3-10.16-7.1.16-.22,2.29-3.29,34.15-48.76,4.94-7.06.26-.37,10.22,7.13.38.27ZM1231,676.16l-34.11,48.78c.11.09.23.17.35.25l34.15-48.76Zm0,0-34.11,48.78c.11.09.23.17.35.25l34.15-48.76Zm0,0-34.11,48.78c.11.09.23.17.35.25l34.15-48.76Zm49.26-70.36.42.29,19.31-27.6v-.87Zm-4.29,6.11-.48.69,10.59,7.43.81.57,13.1-18.71V601l-13.2,18.87-.42-.29-10.18-7.11.2-.29,4.29-6.12,19.31-27.6v-.87l-19.73,28.18Zm4.29-6.11.42.29,19.31-27.6v-.87Zm0,0,.42.29,19.31-27.6v-.87Zm0,0,.42.29,19.31-27.6v-.87ZM356.82,0l-49,70-2.12,3-10.6-7.4L341,0h-.58l-46,65.7,6.84,4.8,4.56,3.2v0l2.37-3.38L357.45,0Z"/>
    <path d="M1243.3,129.1l49.9-71.3q3.55,2.49,6.8,5.27M1229,0,1129.4,142.3l6.8,4.8,39.3-56,63.3,44.3,4.8-6.8-63.4-44.4,59-84.2M825.9,0,762.4,90.7l270.5,189.4L947.4,402.2l6.9,4.8,131.8-188.3-6.8-4.8,0,0L1037.7,273.2,774.1,88.7,836.2,0m295.3,466.6a72.3,72.3,0,0,1,17.8,100.6l-58.1-40.7" fill="none" stroke="#000" stroke-width="0.5"/>
    <path fill="none" stroke="#000" stroke-width="0.5" d="M1129.9,142.7c-40.6-28.4-95.2-20.6-123.6,20.1l73.5,51.5"/>
    <path fill="none" stroke="#000" stroke-width="0.3" stroke-dasharray="3 3" d="M358,0,431.8,51.7c-27.17,38.71-84.53,45.43-123.52,18.6l-.46-.32-.12-.08m923.8,606.6-.1-.07-.39-.27L1179.9,640.4c-18.78,26.73-9.52,65.61,17,84.54.11.09.23.17.35.25l.15.11m83.3-119.2h0l-.42-.29L1229.1,570c15.64-22.26,45.75-29.18,70.9-20.24M687.4,447.5l41.5-59.4c31,21.7,36.2,67.7,14.5,98.6m165,115.4,41.5-59.4c31,21.7,36.2,67.7,14.5,98.6"/>
    <path fill="none" stroke="#000" stroke-width="0.5" d="M1271.3,327.7l-37.7,74.9m54.5-63.1-29.2,80.8M1209,385.4l47.6-68,11.76-16.8,18.69-26.7,13-18.52M1285.5,439v0L1300,364.16"/>
    <line fill="none" stroke="#000" stroke-width="0.5" x1="1300" y1="342.53" x2="1259.16" y2="313.94"/>
    <line fill="none" stroke="#000" stroke-width="0.5" x1="1285.02" y1="276.99" x2="1300" y2="287.48"/>
    <line fill="none" stroke="#000" stroke-width="0.5" x1="1300" y1="347.73" x2="1256.6" y2="317.36"/>
    <line fill="none" stroke="#000" stroke-width="0.5" x1="1287.05" y1="273.86" x2="1300" y2="282.92"/>
    <line fill="none" stroke="#000" x1="1239.17" x2="1228.99"/>
    <line fill="none" stroke="#000" stroke-width="0.5" x1="1300" y1="459.32" x2="1300" y2="449.12"/>
  </g>
</svg>
